<?xml version="1.0" standalone="no"?>
<!DOCTYPE svg PUBLIC "-//W3C//DTD SVG 1.1//EN" "http://www.w3.org/Graphics/SVG/1.1/DTD/svg11.dtd" >
<svg xmlns="http://www.w3.org/2000/svg">
<metadata></metadata>
<defs>
<font id="exoregular" horiz-adv-x="1114" >
<font-face units-per-em="2048" ascent="1638" descent="-410" />
<missing-glyph horiz-adv-x="512" />
<glyph unicode="fi" horiz-adv-x="1245" d="M41 936v117l201 34v109q0 183 110 298.5t293 115.5q70 0 187.5 -22t199.5 -48v-100l-352 22q-42 3 -80.5 -3t-77 -24t-66.5 -47.5t-45.5 -78.5t-17.5 -113v-109l740 -20v-1067h-154v936h-586v-936h-151v936h-201z" />
<glyph unicode="fl" horiz-adv-x="1468" d="M41 936v117l203 34v109q0 68 11 128t36 113t63 91t95 60t129 22h550v-1223q0 -89 12 -135.5t34.5 -66t70.5 -33.5q168 -43 182 -43v-109h-180q-146 0 -208 86.5t-62 300.5v1075h-365q-53 0 -90 -11t-67 -39t-45 -81.5t-15 -134.5v-109h299v-151h-303v-936h-151v936h-199z " />
<glyph unicode="&#xd;" horiz-adv-x="2048" />
<glyph unicode=" "  horiz-adv-x="512" />
<glyph unicode="&#x09;" horiz-adv-x="512" />
<glyph unicode="&#xa0;" horiz-adv-x="512" />
<glyph unicode="!" horiz-adv-x="550" d="M168 47v117q0 51 49 51h113q23 0 35 -14t12 -37v-117q0 -47 -47 -47h-113q-22 0 -35.5 12.5t-13.5 34.5zM180 1497h182l-14 -1096h-153z" />
<glyph unicode="&#x22;" horiz-adv-x="778" d="M174 1362v137h154v-137l-21 -275h-110zM451 1362v137h153v-137l-20 -275h-111z" />
<glyph unicode="#" horiz-adv-x="1406" d="M41 475l16 107h326l53 338h-325l18 106h324l75 473h107l-76 -473h340l74 473h106l-73 -473h362l-18 -106h-363l-53 -340h362l-16 -107h-362l-76 -473h-107l76 473l-340 2l-76 -475h-106l76 475h-324zM489 582l338 -2l54 340h-338z" />
<glyph unicode="$" horiz-adv-x="1177" d="M113 1012v135q1 85 21 148.5t53.5 103.5t83.5 65t104.5 35.5t124.5 11.5v177h118v-183q75 -6 223.5 -23.5t168.5 -19.5v-119q-45 0 -168 4.5t-224 9.5l-100 5q-60 3 -101 -4t-78.5 -28t-56 -66.5t-18.5 -116.5v-135q0 -201 213 -201h266q82 0 142 -21t94 -53.5t54 -81.5 t26 -94t6 -102v-140q0 -82 -26 -144.5t-68 -99.5t-101.5 -59.5t-120.5 -29t-131 -2.5v-168h-118v178q-76 8 -203 24t-137 17v112q28 0 204 -6t285 -6q32 0 60.5 2.5t68 13.5t67.5 29.5t48 54.5t20 84v140q0 96 -38 148t-132 52h-266q-87 0 -153 21.5t-105.5 55.5t-64 82 t-33 94.5t-8.5 99.5z" />
<glyph unicode="%" horiz-adv-x="1955" d="M86 971v272q0 136 57 196t207 60h207q146 0 203 -60.5t57 -195.5v-272q0 -136 -57 -196t-207 -60h-207q-146 0 -203 60.5t-57 195.5zM219 971q0 -74 26.5 -98.5t100.5 -24.5h207q85 0 108 24.5t23 98.5v272q0 74 -26.5 98.5t-100.5 24.5h-207q-85 0 -108 -24.5t-23 -98.5 v-272zM465 0l897 1499h145l-897 -1499h-145zM1139 260v272q0 136 57 196t207 60h207q146 0 203 -60.5t57 -195.5v-272q0 -136 -57 -196t-207 -60h-207q-146 0 -203 60.5t-57 195.5zM1272 260q0 -74 26.5 -98.5t100.5 -24.5h207q85 0 108 24.5t23 98.5v272q0 74 -26.5 98.5 t-100.5 24.5h-207q-85 0 -108 -24.5t-23 -98.5v-272z" />
<glyph unicode="&#x26;" horiz-adv-x="1304" d="M72 475.5q24 157.5 161 274.5l177 149l-129 174q-79 112 -67 203.5t73.5 151.5t136.5 67q98 7 165 8.5t141.5 -7t124.5 -18t114 -24.5v-102h-416q-69 0 -112 -12.5t-62.5 -41t-4 -77.5t67.5 -119l482 -651l233 243l47 -49l-104 -219l-84 -92l239 -334h-180l-168 227 l-147 -137q-82 -76 -195 -94.5t-224 26.5t-181 146q-112 150 -88 307.5zM289 250q42 -53 104.5 -84t133.5 -26t124 55l164 153l-319 426l-160 -133q-214 -176 -47 -391z" />
<glyph unicode="'" horiz-adv-x="378" d="M113 1362v137h153v-137l-20 -275h-111z" />
<glyph unicode="(" horiz-adv-x="686" d="M154 668q0 157 33.5 327.5t81 301.5t95.5 239.5t82 166.5l33 58h166q-14 -22 -37 -61.5t-81.5 -162t-103.5 -245.5t-81.5 -295.5t-36.5 -328.5q0 -172 35 -348.5t85 -305t100 -233t85 -157.5l35 -54h-166q-13 18 -35 52.5t-78 147t-99 233t-78 302.5t-35 363z" />
<glyph unicode=")" horiz-adv-x="686" d="M41 -430q7 10 19.5 29t47.5 81t67 129t71.5 169t67.5 204t47.5 231.5t19.5 254.5q0 156 -35 326t-85 301t-100 240t-85 167l-35 59h166q13 -22 35 -61t78 -161t99 -245t78 -296t35 -330q0 -181 -33.5 -361t-81 -307t-95.5 -228t-82 -152l-33 -50h-166z" />
<glyph unicode="*" horiz-adv-x="901" d="M102 1159v82l285 59l10 -151zM242 848l49 276l147 -34l-121 -267zM360 1468l80 33l154 -241l-139 -64zM426 975l84 127l225 -187l-43 -65zM514 1169l246 156l39 -72l-187 -198z" />
<glyph unicode="+" horiz-adv-x="1056" d="M102 653v152h349v350h151v-350h352v-152h-352v-350h-151v350h-349z" />
<glyph unicode="," horiz-adv-x="552" d="M174 51v111q0 55 51 55h105q49 0 49 -55v-185q0 -55 -20 -91t-48.5 -49t-57.5 -17.5t-49 -1.5l-20 2v65q28 -1 43.5 11.5t18 24.5t2.5 28v51h-23q-23 0 -37 13t-14 38z" />
<glyph unicode="-" horiz-adv-x="724" d="M41 518v152h643v-152h-643z" />
<glyph unicode="." horiz-adv-x="557" d="M174 47v117q0 51 49 51h109q51 0 51 -51v-117q0 -47 -51 -47h-109q-22 0 -35.5 12.5t-13.5 34.5z" />
<glyph unicode="/" horiz-adv-x="819" d="M41 -147l575 1724h162l-575 -1724h-162z" />
<glyph unicode="0" horiz-adv-x="1316" d="M143 332v835q0 159 99.5 245.5t253.5 86.5h335q91 0 158.5 -26.5t107 -73.5t58.5 -105t19 -127v-835q0 -332 -343 -332h-335q-73 0 -134 18t-111.5 55.5t-79 103.5t-28.5 155zM295 332q0 -49 17 -85.5t47 -56.5t64 -29t73 -9h335q96 0 143.5 47t47.5 133v835 q0 181 -191 181h-335q-101 0 -151 -51t-50 -130v-835z" />
<glyph unicode="1" horiz-adv-x="741" d="M82 1217v108l344 174h152v-1499h-152v1327z" />
<glyph unicode="2" horiz-adv-x="1222" d="M82 1366v113q317 41 623 41q86 0 157 -25t118 -66.5t79 -97t46.5 -116t14.5 -125.5q0 -82 -33.5 -173t-85.5 -171t-123 -162.5t-139 -146.5t-141.5 -125.5t-121 -97t-87.5 -62.5h731v-152h-1024v139q61 41 119.5 83t149.5 112.5t168 137.5t160.5 151t141 160t95 158.5 t37.5 152.5q0 121 -65.5 196.5t-199.5 75.5h-620z" />
<glyph unicode="3" horiz-adv-x="1216" d="M61 1352v94q84 30 195.5 44t220.5 14t236 -1q164 -3 257 -97.5t93 -240.5v-141q0 -110 -36 -182t-99 -97q135 -85 135 -294v-121q0 -344 -365 -344h-75h-79t-69.5 0.5t-75 2.5t-66 4.5t-71.5 7t-62 10t-67 14t-59 18.5l2 96h610q38 0 65.5 3t58.5 14.5t51 31.5t33 56 t13 86v121q0 112 -58 163t-151 54l-497 14v119l497 20q105 4 159 56.5t54 146.5v141q0 93 -62.5 140t-150.5 47h-637z" />
<glyph unicode="4" horiz-adv-x="1234" d="M41 459l657 1040h181l-603 -956h582v424l76 153h76v-577h184v-121l-184 -39v-379h-152v379h-747z" />
<glyph unicode="5" horiz-adv-x="1234" d="M156 41v113h622q51 0 88 16.5t57.5 45t30 60.5t9.5 68v225q0 28 -1.5 47t-11.5 49.5t-28 49t-55 33t-89 14.5h-315q-68 0 -118 -38.5t-50 -115.5h-135l45 891h864v-151h-725l-25 -496q39 47 152 61q49 6 109 6t120.5 -3t77.5 -3q173 0 254.5 -91t81.5 -249v-233 q0 -80 -23 -143.5t-58.5 -101t-82 -61.5t-88.5 -33t-84 -9q-207 0 -317.5 8t-304.5 41z" />
<glyph unicode="6" horiz-adv-x="1275" d="M133 786q0 157 20.5 283t54.5 207t80 135.5t95 77t102 22.5q345 0 619 -38v-113h-592q-53 0 -94.5 -39t-65 -95.5t-39 -132.5t-21.5 -137t-7 -122q374 43 538 43q81 0 141 -17t95.5 -44t57 -68.5t29 -83t7.5 -93.5v-268q0 -305 -330 -305h-305q-71 1 -126 20.5 t-105.5 72.5t-83 139.5t-51.5 226.5t-19 329zM285 725q0 -46 1 -81t4 -89.5t9.5 -97t17.5 -92t28.5 -85t41 -67t57 -47.5t74.5 -16h305q44 0 73 5.5t55.5 22t39.5 50.5t13 87v256q0 154 -181 154h-538z" />
<glyph unicode="7" horiz-adv-x="1118" d="M61 1348v151h940l56 -98l-543 -1401h-180l528 1348h-801z" />
<glyph unicode="8" horiz-adv-x="1298" d="M154 315v201q0 54 14.5 93.5t43 63.5t53.5 37t63 25q-90 31 -132 112t-42 175v133q0 100 26 170.5t75.5 110t112.5 56.5t146 17h299q168 0 250 -84t82 -270v-133q1 -24 -3 -53t-17.5 -70t-48 -72.5t-85.5 -42.5q52 -9 89 -58.5t51.5 -105t13.5 -104.5v-201 q0 -76 -22.5 -134.5t-56.5 -91.5t-81 -54t-88.5 -28t-85.5 -7h-297q-72 0 -130.5 13.5t-95 33.5t-63.5 51t-40.5 57.5t-20.5 61t-8.5 54t-1.5 44.5zM305 309q0 -77 50 -117t159 -40h297q73 0 127.5 40.5t54.5 116.5v215q0 82 -51 124t-125 42h-325q-80 0 -133.5 -39 t-53.5 -127v-215zM305 1012q0 -48 19 -84t49 -54t59.5 -26t59.5 -8h325q176 0 176 172v139q0 112 -43.5 159.5t-136.5 47.5h-299q-55 0 -89 -6.5t-63.5 -27.5t-43 -63.5t-13.5 -109.5v-139z" />
<glyph unicode="9" horiz-adv-x="1275" d="M123 938v268q0 305 330 305h305q71 -1 126 -20.5t105.5 -72.5t83 -139.5t51.5 -226.5t19 -329q0 -157 -20.5 -283t-54.5 -207t-80 -135.5t-95 -77t-102 -22.5q-431 0 -619 39v113h592q53 0 94.5 39t65 95.5t39 132.5t21.5 137t7 122q-374 -43 -538 -43q-81 0 -141 17 t-95.5 44t-57 68t-29 82.5t-7.5 93.5zM272 938q0 -154 181 -154h538q0 46 -1 81t-4 90t-9.5 97t-17.5 91.5t-28.5 85.5t-41 67.5t-57 47.5t-74.5 16h-305q-90 0 -135.5 -33t-45.5 -133v-256z" />
<glyph unicode=":" horiz-adv-x="557" d="M174 47v117q0 51 49 51h109q51 0 51 -51v-117q0 -47 -51 -47h-109q-22 0 -35.5 12.5t-13.5 34.5zM174 922v116q0 52 49 52h109q51 0 51 -52v-116q0 -48 -51 -48h-109q-22 0 -35.5 13t-13.5 35z" />
<glyph unicode=";" horiz-adv-x="561" d="M174 51v111q0 23 14 39t37 16h105q23 0 36 -15.5t13 -39.5v-185q0 -55 -20 -91t-48.5 -49t-57.5 -17.5t-49 -1.5l-20 2v65q28 -1 43.5 11.5t18 24.5t2.5 28v51h-23q-21 0 -36 16t-15 35zM178 924v116q0 52 49 52h109q51 0 51 -52v-116q0 -47 -51 -47h-109 q-22 0 -35.5 12.5t-13.5 34.5z" />
<glyph unicode="&#x3c;" horiz-adv-x="972" d="M102 643v164l768 332v-164l-565 -250l565 -270v-168z" />
<glyph unicode="=" horiz-adv-x="956" d="M41 434v152h874v-152h-874zM41 862v152h874v-152h-874z" />
<glyph unicode="&#x3e;" horiz-adv-x="972" d="M102 287v168l566 270l-566 250v164l768 -332v-164z" />
<glyph unicode="?" horiz-adv-x="1107" d="M41 1360v113q21 3 83 11t83.5 10.5t72 8.5t80 7.5t75.5 3.5t90 1.5t93 -2.5q91 0 162 -20.5t116.5 -54.5t75 -83t42 -103t12.5 -117v-207q0 -101 -39 -173t-106.5 -107.5t-158 -48t-194.5 6.5v-207h-153v332h291q85 3 148 52.5t63 144.5v207q0 120 -66 172.5t-215 52.5 h-555zM348 47v117q0 51 49 51h113q23 0 35 -14t12 -37v-117q0 -47 -47 -47h-113q-22 0 -35.5 12.5t-13.5 34.5z" />
<glyph unicode="@" horiz-adv-x="1728" d="M133 0v713q0 24 1 42.5t8 55.5t19 65.5t38 63t61 56.5t91 37.5t126 15.5h441q59 0 111 -14t99 -44.5t75 -89.5t28 -139v-762h-115l-29 131l-21 -15q-21 -16 -56 -38t-79 -43.5t-100 -37t-108 -15.5q-114 -3 -189 65.5t-73 173.5v109q0 125 69 198.5t195 73.5h358 q2 156 0 156q0 82 -41 110.5t-131 28.5h-434q-42 0 -72 -6t-59.5 -24t-45 -56.5t-15.5 -97.5v-713q0 -211 192 -211h715q121 0 166 50.5t45 160.5v1049q0 115 -57 174t-154 59h-827v96q286 58 589 56h238q168 -3 265 -100.5t97 -284.5v-1049q0 -365 -362 -365h-715 q-160 0 -252 94.5t-92 270.5zM612 233q0 -35 38.5 -68t86.5 -32q18 0 37 2t35 4t37.5 8.5t34 9.5t37 12.5t33.5 13t35.5 16t32 15t34 16t30.5 14.5v252l-348 -33q-60 -6 -92.5 -43.5t-30.5 -93.5v-93z" />
<glyph unicode="A" horiz-adv-x="1372" d="M92 0l551 1499h152l526 -1499h-180l-129 418h-598l-135 -418h-187zM469 569h489l-241 699z" />
<glyph unicode="B" horiz-adv-x="1220" d="M164 0v1499h577q107 0 186 -36.5t121.5 -96t62 -124t19.5 -132.5q0 -274 -188 -332q78 -17 137.5 -108.5t59.5 -251.5q0 -67 -11 -124.5t-39 -112.5t-71.5 -94t-114.5 -63t-162 -24h-577zM317 152h424q35 0 64 4.5t64.5 20.5t59.5 44t41 79.5t17 121.5q0 123 -62 205 t-184 82h-424v-557zM317 860h424q117 0 177.5 62.5t60.5 187.5q0 71 -21.5 120.5t-58.5 73.5t-75 34t-83 10h-424v-488z" />
<glyph unicode="C" horiz-adv-x="1183" d="M113 754q0 107 6 193.5t21.5 167t40.5 141t63.5 111t90 82.5t121 49.5t156.5 17.5q81 0 238 -16t262 -36v-121l-18 1q-18 1 -49 3t-71 4.5t-87 4.5t-93.5 4t-95 3t-86.5 1q-100 0 -163 -25.5t-106.5 -95t-61 -187.5t-17.5 -306q0 -611 348 -611q96 0 221 3.5t202 7.5 l77 4v-121q-100 -19 -255.5 -32t-244.5 -13q-499 0 -499 766z" />
<glyph unicode="D" horiz-adv-x="1345" d="M164 0v1499h557q96 0 174.5 -26.5t132.5 -69.5t95.5 -105.5t65.5 -127.5t39 -143t20 -145t5 -139q0 -107 -17 -208.5t-57 -199.5t-99.5 -171.5t-152 -118.5t-206.5 -45h-557zM315 158h406q98 0 173 47t119.5 129t66.5 185.5t22 225.5q0 162 -25.5 278.5t-76 187.5 t-119.5 104t-160 33h-406v-1190z" />
<glyph unicode="E" horiz-adv-x="1161" d="M164 252v981q0 73 20.5 127t57 84t82.5 44q40 12 84 11h14l647 -33v-118h-647q-38 0 -61 -9t-32.5 -29t-11.5 -35t-2 -42v-410l672 -20v-121l-672 -20v-410q0 -26 5 -45.5t16 -31t20 -18t27.5 -9t28 -3t30.5 -0.5h627v-116l-627 -35q-19 -1 -36 -1q-23 0 -45 2 q-37 4 -75 20t-63.5 44t-42 77t-16.5 116z" />
<glyph unicode="F" horiz-adv-x="1161" d="M164 0v1233q0 73 20.5 127t57 84t82.5 44q40 12 84 11h14l647 -33v-118h-647q-38 0 -61 -9t-32.5 -29t-11.5 -35t-2 -42v-410l672 -20v-121l-672 -20v-662h-151z" />
<glyph unicode="G" horiz-adv-x="1257" d="M113 758q0 94 5 171.5t18.5 157.5t36 142t59.5 117.5t86.5 91.5t118.5 57t155 21q80 0 246.5 -18t273.5 -38v-121q-2 0 -38 2.5t-92.5 6.5t-121.5 7.5t-138 6t-130 2.5q-81 0 -138 -24.5t-94 -70t-58.5 -122.5t-29.5 -169.5t-8 -223.5q0 -231 32 -362.5t104 -191 t200 -61.5h6q67 0 162 23q98 23 162 47l63 24v410h-344v102q185 52 357 52q66 0 139 -6v-791h-115l-33 100q-200 -110 -397 -110h-8q-84 0 -152 19q-72 20 -122.5 55t-87.5 90.5t-59 117t-35.5 144.5t-18 162t-4.5 180z" />
<glyph unicode="H" horiz-adv-x="1306" d="M164 0v1499h151v-698h717v698h152v-1499h-152v649h-717v-649h-151z" />
<glyph unicode="I" horiz-adv-x="438" d="M164 0v1499h151v-1499h-151z" />
<glyph unicode="J" horiz-adv-x="735" d="M72 43l8 111q136 -33 195 -33h2q163 0 182 172q2 21 2 45v1161h151v-1161q0 -47 -2.5 -80.5t-12 -79.5t-32.5 -82t-59 -59q-79 -50 -206 -50q-6 0 -12 1q-136 2 -216 55z" />
<glyph unicode="K" horiz-adv-x="1210" d="M164 0v1499h151v-672h168l471 672h185l-516 -747l516 -752h-185l-471 676h-166v-676h-153z" />
<glyph unicode="L" horiz-adv-x="1140" d="M164 258v1241h151v-1241q0 -31 8.5 -52.5t18 -32t31 -15.5t32.5 -5.5t37 -0.5h627v-152h-627q-46 0 -81 4.5t-74.5 20t-64.5 42.5t-41.5 75.5t-16.5 115.5z" />
<glyph unicode="M" horiz-adv-x="1640" d="M113 0l98 1499h209l399 -1247l387 1247h207l115 -1499h-152l-92 1225l-385 -1225h-156l-397 1225l-82 -1225h-151z" />
<glyph unicode="N" horiz-adv-x="1392" d="M164 0v1499h155l799 -1216v1216h152v-1499h-152l-801 1217v-1217h-153z" />
<glyph unicode="O" horiz-adv-x="1384" d="M133 739q0 116 9 211.5t24.5 169t41.5 131t54.5 98.5t69 70t79.5 46.5t92 27.5t101 13t111 3q65 0 113.5 -3t101.5 -13t92 -27.5t79 -46.5t67.5 -70t52.5 -98.5t39.5 -131t23 -169t8.5 -211.5q0 -110 -8 -200t-22 -161t-38 -126.5t-51 -96t-65.5 -69.5t-78.5 -47.5 t-93 -28.5t-104 -14t-117 -4q-67 0 -117.5 3t-104.5 12.5t-93 26.5t-79 45t-67 68t-51.5 95.5t-39 127t-22.5 164t-8 205.5zM285 739q0 -133 8.5 -227t31.5 -161.5t53 -107t82 -62.5t110 -30.5t145 -7.5q85 0 143 8.5t109 33t81.5 65.5t52.5 108t31 159.5t9 221.5 q0 91 -4 166t-14.5 133.5t-20.5 104t-31 79t-37.5 56.5t-48.5 38t-54.5 23.5t-64.5 12.5t-70.5 5t-80.5 1q-57 0 -87.5 -1t-76 -6.5t-69.5 -17t-57.5 -32.5t-50.5 -52t-37.5 -77.5t-29.5 -107.5t-15.5 -142.5t-6.5 -182.5z" />
<glyph unicode="P" horiz-adv-x="1189" d="M123 0v1499h616q359 0 359 -434q0 -89 -12.5 -160t-31.5 -117.5t-49.5 -81t-59.5 -52.5t-68.5 -28.5t-69 -13t-68.5 -2.5q-58 0 -257.5 18t-207.5 23v-651h-151zM274 762h465q36 0 62.5 5t55 23.5t46.5 50t29.5 88.5t11.5 136q-1 76 -16.5 131.5t-36 83.5t-51 44t-52 19 t-49.5 3h-465v-584z" />
<glyph unicode="Q" horiz-adv-x="1384" d="M133 739q0 116 8.5 211.5t23.5 169t40 131t53 98.5t67.5 70t78.5 46.5t92.5 27.5t102 13t112.5 3q65 0 113.5 -3t102 -13t92.5 -27.5t79.5 -46.5t68 -70t53 -98.5t40.5 -131t23.5 -169t8.5 -211.5q0 -140 -13.5 -249.5t-36.5 -188t-63 -134.5t-84 -89.5t-108 -53 t-127 -26t-149 -6.5q-67 0 -117 3t-104 12.5t-93 26.5t-78.5 45t-66.5 68t-51 95.5t-38 127t-22 164t-8 205.5zM285 739q0 -100 4.5 -176.5t16.5 -138t28 -105t43 -75.5t56.5 -51t74.5 -30.5t91.5 -15.5t111.5 -4q85 0 143.5 8.5t109.5 32.5t82 65.5t54 108.5t32 159.5 t9 221.5q0 91 -4 166t-14.5 133.5t-21 104t-32 79t-38 56.5t-49 38t-55 23.5t-65 12.5t-71 5t-80.5 1q-57 0 -87 -1t-75.5 -6.5t-69.5 -17t-57 -32.5t-49.5 -52t-36.5 -77.5t-29 -107.5t-15.5 -142.5t-6.5 -182.5zM649 -68h107q62 -44 120 -60q43 -12 81 -12q15 0 29 2 q50 6 114 29v-163q-44 -17 -100 -20q-11 -1 -22 -1q-45 0 -91 11q-57 12 -107 37.5t-86 71.5t-45 105z" />
<glyph unicode="R" horiz-adv-x="1214" d="M123 0v1499h639q346 0 346 -450q0 -80 -12 -146t-29.5 -108.5t-43.5 -75.5t-48 -50.5t-51 -29.5t-43.5 -15t-32.5 -6l315 -618h-164l-315 612l-410 29v-641h-151zM274 776h488q21 0 32 0.5t30 3t30 7t26.5 14t24.5 23t19.5 34t16 47.5t9.5 63.5t4 80.5q0 77 -12 133.5 t-29.5 87t-44.5 48.5t-51 23t-55 5h-488v-570z" />
<glyph unicode="S" horiz-adv-x="1196" d="M133 1012v135q0 73 14 130t41 96.5t62 67t82.5 42.5t97 21.5t109.5 6.5q130 0 512 -49v-123l-512 21q-24 1 -44.5 1t-37.5 -1q-33 -2 -68.5 -13.5t-56 -34t-34 -64t-13.5 -101.5v-135q0 -54 10.5 -92t27 -59t45.5 -32.5t56 -14.5t70 -3h290q79 0 137.5 -21t93 -54t55 -81 t27.5 -94t7 -102v-140q0 -84 -24.5 -146t-62 -97.5t-94.5 -57t-111 -28t-122 -6.5q-70 0 -252 19t-260 32v123q236 -23 512 -23q29 0 49.5 1.5t55 6t59 17t48.5 31.5t37 52t13 76v140q0 96 -37 148t-131 52h-286q-95 0 -163.5 21t-107 53t-60.5 81.5t-28 94t-6 103.5z" />
<glyph unicode="T" horiz-adv-x="1183" d="M92 1348v151h1041v-151h-451v-1348h-152v1348h-438z" />
<glyph unicode="U" horiz-adv-x="1386" d="M164 655v844h151v-844q0 -85 6.5 -153t15 -119t28.5 -89.5t35 -64.5t47 -43t52 -26t62.5 -13.5t66.5 -4.5t75 -1h16q44 0 67.5 1t63 5.5t62 13.5t53.5 26.5t49 43t39 64.5t31.5 89.5t18 119t7.5 151.5v844h154v-844q0 -138 -18.5 -245t-44.5 -176.5t-74.5 -118t-87 -72.5 t-105 -36.5t-105.5 -14.5t-110 -2q-162 0 -226 11q-159 29 -235 158q-94 157 -94 496z" />
<glyph unicode="V" horiz-adv-x="1372" d="M92 1499h166l438 -1257l459 1257h166l-551 -1499h-152z" />
<glyph unicode="W" horiz-adv-x="1970" d="M92 1499h166l436 -1235l371 1235h172l-139 -479l272 -768l383 1247h166l-469 -1499h-152l-280 766l-248 -766h-152z" />
<glyph unicode="X" horiz-adv-x="1220" d="M92 1499h166l369 -629l377 629h165l-442 -739l432 -760h-166l-366 631l-363 -631h-166l428 760z" />
<glyph unicode="Y" horiz-adv-x="1290" d="M92 1499h166l387 -786l428 786h166l-518 -967v-532h-152v532z" />
<glyph unicode="Z" horiz-adv-x="1153" d="M72 0v152l811 1196h-811v151h1009v-151l-811 -1196h811v-152h-1009z" />
<glyph unicode="[" horiz-adv-x="657" d="M174 -78v1450q0 44 5 84.5t22.5 91.5t46 88t81.5 62.5t124 25.5h163v-151h-163q-58 0 -92.5 -54.5t-34.5 -146.5v-1450q0 -92 34.5 -146.5t92.5 -54.5h163v-151h-163q-71 0 -124 25.5t-81.5 62.5t-46 88t-22.5 91.5t-5 84.5z" />
<glyph unicode="\" horiz-adv-x="819" d="M41 1577h162l575 -1724h-162z" />
<glyph unicode="]" horiz-adv-x="657" d="M41 -279h164q58 0 92.5 54.5t34.5 146.5v1450q0 92 -34.5 146.5t-92.5 54.5h-164v151h164q59 0 106 -17t76.5 -47.5t49.5 -65t29.5 -77t13 -76t3.5 -69.5v-1450q0 -36 -3.5 -69.5t-13 -76t-29.5 -77t-49.5 -65t-76.5 -47.5t-106 -17h-164v151z" />
<glyph unicode="^" horiz-adv-x="802" d="M102 1087l240 267h145l213 -267h-145l-143 146l-162 -146h-148zM487 1354z" />
<glyph unicode="_" horiz-adv-x="1380" d="M41 -2v152h1298v-152h-1298z" />
<glyph unicode="`" horiz-adv-x="495" d="M41 1360h195l219 -273h-142z" />
<glyph unicode="a" horiz-adv-x="1062" d="M82 258v125q0 124 73 198t199 74q228 -1 341.5 -1t113.5 1q1 68 1 102.5t-1 35.5q0 90 -43.5 129t-124.5 39q-169 0 -524 -25v111q204 58 530 61h7q132 0 218 -76q88 -78 89 -239v-793h-113l-39 131l-30 -15q-30 -14 -79 -35t-106 -42.5t-122.5 -36t-117.5 -14.5 q-117 0 -194.5 72t-77.5 198zM233 268q0 -129 121 -129q73 0 186.5 26.5t191.5 52.5l77 26v293l-455 -33q-62 -6 -91.5 -42.5t-29.5 -90.5v-103z" />
<glyph unicode="b" horiz-adv-x="1134" d="M123 0v1608h147v-586q92 37 210 59.5t194 22.5q75 0 133.5 -22t97 -63.5t64.5 -92t39 -118t18.5 -130.5t5.5 -139q0 -82 -8.5 -154t-32.5 -147.5t-62.5 -128.5t-103.5 -87t-151 -34q-93 0 -222 48t-180 85l-41 -121h-108zM272 233q71 -29 120 -46t127.5 -32.5 t154.5 -15.5q101 0 154 101t53 299q0 99 -9 171t-25.5 118.5t-43 74t-57.5 38.5t-72 11q-115 0 -203.5 -12t-198.5 -41v-666z" />
<glyph unicode="c" horiz-adv-x="1024" d="M102 545q0 139 18 239.5t47.5 160.5t77.5 95t98 46.5t118 11.5q77 0 216 -16.5t251 -37.5v-110q-285 12 -467 12q-31 0 -50.5 -2.5t-43.5 -11t-39 -25.5t-30.5 -46.5t-24 -73t-14 -106t-5.5 -144.5q0 -156 22 -242.5t65.5 -120t119.5 -33.5q84 0 204 5.5t199 11.5l78 6 v-115q-197 -56 -481 -59q-67 0 -116 11.5t-97.5 46.5t-78.5 95t-48.5 161.5t-18.5 240.5z" />
<glyph unicode="d" horiz-adv-x="1134" d="M102 539q0 93 7.5 167t30.5 151.5t61 129t104.5 84.5t155.5 33q76 0 192.5 -22.5t208.5 -59.5v586h150v-1608h-109l-41 121q-51 -37 -179.5 -85t-221.5 -48q-86 0 -151 34t-104 87.5t-63 128.5t-32.5 147t-8.5 154zM254 539q0 -198 53 -299t154 -101q76 0 154 15.5 t127 32.5t120 46v666q-110 29 -198 41t-203 12q-41 0 -72 -11t-57.5 -38.5t-43 -74t-25.5 -118.5t-9 -171z" />
<glyph unicode="e" horiz-adv-x="1075" d="M102 549q0 104 9 183t26 137.5t47 98.5t65 65.5t88.5 39t108 18.5t132.5 5q63 0 104.5 -2.5t89 -11t78 -24.5t60.5 -44.5t46.5 -69t26.5 -99t10 -134.5q0 -250 -280 -250h-459q0 -130 19 -198t62 -95t126 -27h55h57h51.5t54.5 0.5t49.5 1.5t53 2t47.5 2.5t50.5 3.5 t45.5 5t48 6v-115q-201 -57 -512 -57q-85 0 -144 17.5t-101.5 56t-67 105t-35.5 158t-11 222.5zM254 610h459q67 0 98 25t31 76q0 56 -3.5 92t-16 63.5t-28 41.5t-49 23t-69 11t-96.5 2q-62 0 -92 -1t-73 -7t-61.5 -19t-43 -36t-33.5 -59.5t-16 -88.5t-7 -123z" />
<glyph unicode="f" horiz-adv-x="819" d="M41 936v117l199 34v203q0 31 1 53t6 58t14.5 62t28 55.5t44.5 48t66.5 31t91.5 12.5q128 0 286 -49v-101l-252 2h-7q-33 0 -57 -8q-26 -10 -40 -23t-21 -38.5t-8.5 -46t-1.5 -56.5v-203h303v-151h-303v-936h-151v936h-199z" />
<glyph unicode="g" horiz-adv-x="1134" d="M92 -63l82 133q-76 55 -76 166q0 58 31.5 108.5t89.5 61.5q-62 39 -90.5 122t-28.5 177q0 191 93.5 289t261.5 98h639v-115l-166 -37q2 -3 15 -25t18 -34.5t14 -39t12.5 -60t3.5 -76.5q0 -44 -7 -89.5t-29 -103.5t-57 -102t-98.5 -74.5t-146.5 -30.5h-319q-84 0 -84 -61 q0 -70 84 -70h436q125 0 194.5 -76.5t69.5 -206.5v-129q0 -43 -6 -81t-25.5 -82.5t-51.5 -76.5t-89.5 -53.5t-134.5 -21.5h-307q-150 0 -239 80t-89 235v175zM244 39v-277q0 -53 16.5 -88t46 -50t55 -20t58.5 -5h307q86 0 121 42.5t35 120.5v119q0 77 -28 109.5t-112 32.5 h-407q-28 0 -51 4t-32 8zM252 705q0 -43 7.5 -82t26.5 -78.5t58.5 -63.5t95.5 -24h201q47 0 84 17t58.5 42.5t35 59.5t17.5 66q4 26 4 52v11q-2 58 -11 97.5t-30.5 72.5t-61 49t-98.5 16h-184q-203 0 -203 -235z" />
<glyph unicode="h" d="M123 0v1606h151v-645q5 3 40 23.5t43 24.5t39 21t43.5 21.5t41 17t46.5 16.5t44.5 10.5t52 8.5t52.5 2q155 0 245.5 -102.5t90.5 -245.5v-758h-152v758q0 97 -50.5 146.5t-133.5 49.5q-79 0 -147 -15.5t-112 -34t-143 -66.5v-838h-151z" />
<glyph unicode="i" horiz-adv-x="403" d="M102 1264v110q0 51 50 51h102q23 0 35 -14t12 -37v-110q0 -47 -47 -47h-102q-22 0 -36 13t-14 34zM123 0v1087h151v-1087h-151z" />
<glyph unicode="j" horiz-adv-x="444" d="M123 1264v110q0 51 49 51h102q23 0 35.5 -14.5t12.5 -36.5v-110q0 -47 -48 -47h-102q-22 0 -35.5 12.5t-13.5 34.5zM145 -553v1640h152v-1095v-47q0 -326 -53 -498h-99z" />
<glyph unicode="k" horiz-adv-x="1024" d="M123 0v1602h151v-902h82l416 387h211l-483 -462l483 -625h-188l-439 549h-82v-549h-151z" />
<glyph unicode="l" horiz-adv-x="614" d="M123 387v1217h151v-1217q0 -124 29 -173t88 -62q168 -43 182 -43v-109h-180q-270 0 -270 387z" />
<glyph unicode="m" horiz-adv-x="1839" d="M123 0v1087h106l45 -131q12 7 51 30t53.5 31t48.5 25.5t55 24.5t52.5 16.5t62.5 13t65 3.5q101 0 183.5 -43t117.5 -117q193 160 438 160q143 0 239.5 -98t96.5 -252v-750h-152v750q0 90 -51.5 144t-132.5 54q-124 0 -213.5 -24.5t-188.5 -89.5v-80v-754h-151v750 q0 89 -52.5 143.5t-133.5 54.5q-58 0 -101 -5.5t-96.5 -25t-81.5 -32t-109 -51.5v-834h-151z" />
<glyph unicode="n" d="M123 0v1087h106l45 -126q5 3 40 23.5t43 24.5t39 21t43.5 21.5t41 17t46.5 16.5t44.5 10.5t52 8.5t52.5 2q155 0 245.5 -102.5t90.5 -245.5v-758h-152v758q0 97 -51 146.5t-133 49.5q-79 0 -147 -15.5t-112 -34t-143 -66.5v-838h-151z" />
<glyph unicode="o" horiz-adv-x="1163" d="M102 528q0 135 16 230t50 162t92 105.5t135 55.5t187 17q140 0 230 -27.5t146.5 -96t79.5 -174.5t23 -272q0 -155 -23 -255t-79.5 -164.5t-146.5 -91.5t-230 -27q-139 0 -230 28.5t-147.5 95t-79.5 165.5t-23 249zM254 528q0 -60 4.5 -108.5t12 -86t21.5 -66.5t29 -49.5 t38 -34.5t44 -22t52.5 -12.5t59 -6t67.5 -1.5q62 0 101.5 4t81 17t65 38.5t43.5 68t28 106.5t8 153q0 73 -4 129.5t-14 100t-22 74t-34 51.5t-44 33.5t-57.5 19t-68.5 8.5t-83 2q-48 0 -80 -2t-67.5 -8.5t-57.5 -18.5t-44.5 -33t-35.5 -52t-23.5 -74t-15 -100t-4.5 -130z " />
<glyph unicode="p" horiz-adv-x="1134" d="M123 -553v1640h108l39 -120q51 37 181 85t223 48q86 0 151 -34t103.5 -87t62.5 -128.5t32.5 -147.5t8.5 -154q0 -76 -5.5 -139t-18.5 -130.5t-39 -118t-64.5 -92t-97 -63.5t-133.5 -22q-76 0 -194 22.5t-210 59.5v-619h-147zM270 188q202 -53 404 -53q52 0 88 18t64 63.5 t41.5 127.5t13.5 205q0 198 -53 298.5t-154 100.5q-76 0 -154.5 -15.5t-129 -33t-120.5 -45.5v-666z" />
<glyph unicode="q" horiz-adv-x="1136" d="M102 549q0 264 94.5 407.5t282.5 143.5q96 0 204 -9.5t207 -22.5t124 -15v-1606h-152v612q-92 -37 -200 -58t-183 -21q-92 0 -159.5 29t-108.5 77.5t-66 123t-34 155t-9 184.5zM254 471q0 -21 2 -60t6 -62t11.5 -56.5t18.5 -53t28.5 -43t39.5 -36t52 -21t67 -8.5 q114 0 185 9.5t198 41.5v766h-383q-45 0 -81 -16t-59.5 -40t-40 -61.5t-25 -70t-13 -77t-5.5 -71.5t-1 -63v-17v-61z" />
<glyph unicode="r" horiz-adv-x="872" d="M123 0v1087h106l45 -137q8 5 51.5 30t56 32t50 26.5t59 26t56 17.5t66.5 14.5t67 3.5q116 0 151 -17v-149q-50 12 -151 12q-78 0 -148.5 -16.5t-113 -35t-144.5 -67.5v-827h-151z" />
<glyph unicode="s" horiz-adv-x="1036" d="M82 733v94q0 133 65.5 202t217.5 69q72 0 255 -12t279 -21v-117h-534q-47 0 -75.5 -8t-40 -27.5t-14 -36t-2.5 -49.5v-94q0 -41 9 -66t29.5 -35.5t39.5 -13t54 -2.5h323q129 0 197.5 -72t68.5 -192v-100q0 -65 -15.5 -113t-40 -76t-61 -45t-71.5 -22.5t-78 -5.5 q-66 0 -273 15.5t-288 23.5v112h561q1 2 12 0t28.5 4t34 15t28.5 33.5t12 58.5v100q0 57 -25.5 85t-89.5 28h-323q-151 0 -217 57.5t-66 210.5z" />
<glyph unicode="t" horiz-adv-x="774" d="M41 938v115l203 37l37 303h114v-303h318v-152h-318v-549q0 -124 29 -173t88 -62q168 -43 182 -43v-109h-180q-270 0 -270 387v549h-203z" />
<glyph unicode="u" d="M102 330v757h152v-757q0 -97 51 -147t133 -50q60 0 106 6t100.5 25.5t85.5 33.5t110 52v837h151v-1087h-106l-45 127q-5 -3 -40 -23.5t-43 -24.5t-39 -21t-43.5 -21.5t-41 -17t-46.5 -16.5t-44.5 -10.5t-52 -8.5t-52.5 -2q-155 0 -245.5 102.5t-90.5 245.5z" />
<glyph unicode="v" horiz-adv-x="1097" d="M41 1087h166l340 -864l344 864h166l-436 -1087h-152z" />
<glyph unicode="w" horiz-adv-x="1640" d="M41 1087h166l321 -864l283 864h164l-111 -348l238 -516l332 864h165l-415 -1087h-152l-241 532l-179 -532h-163z" />
<glyph unicode="x" horiz-adv-x="1073" d="M49 0l393 545l-393 542h189l294 -417l304 417h188l-397 -548l381 -539h-172l-299 414l-299 -414h-189z" />
<glyph unicode="y" horiz-adv-x="1134" d="M43 1087h166l264 -849q27 -85 99 -85h8q26 1 28 5l312 929h170l-480 -1431l-153 -209h-95l193 553q-177 0 -246 225z" />
<glyph unicode="z" horiz-adv-x="933" d="M61 936v151h811v-151l-581 -782h581v-152h-780v152l592 782h-623z" />
<glyph unicode="{" horiz-adv-x="655" d="M41 614v138q4 0 27 2t31 3t29.5 4.5t31 8t24.5 12.5t22 18t13 25.5t6 34.5v483q0 76 23 143t69 121t122.5 85.5t174.5 31.5v-151q-52 0 -92 -10t-74 -34.5t-52.5 -71.5t-18.5 -114v-483q0 -71 -48.5 -116.5t-125.5 -59.5q74 -11 123 -58.5t49 -111.5v-592 q0 -99 65.5 -153t173.5 -48v-151q-88 0 -157.5 21.5t-112.5 56t-71 81.5t-39 94.5t-11 98.5v584q0 59 -55.5 86t-126.5 22z" />
<glyph unicode="|" horiz-adv-x="501" d="M176 -147v1724h152v-1724h-152z" />
<glyph unicode="}" horiz-adv-x="655" d="M41 -279q108 -6 174 48t66 153v592q0 64 49 111.5t123 58.5q-77 14 -125.5 59.5t-48.5 116.5v483q0 67 -18.5 114t-53 71.5t-74.5 34.5t-92 10v151q98 0 174.5 -31.5t122.5 -85.5t69 -121t23 -143v-483q0 -19 6 -34.5t13 -25.5t22 -18t24.5 -12.5t31 -8t29.5 -4.5t31 -3 t27 -2v-138q-71 5 -126.5 -22t-55.5 -86v-584q0 -51 -11 -98.5t-39 -94.5t-71 -81.5t-112.5 -56t-157.5 -21.5v151z" />
<glyph unicode="~" horiz-adv-x="897" d="M102 1171q17 14 45 39.5t45 39.5t41 30.5t51 23.5t58 7q46 0 111.5 -36t105.5 -36q23 0 44.5 4.5t43 15.5t35 18.5t37 23t31.5 20.5l45 -86q-9 -9 -34 -34.5t-42.5 -41t-44 -34.5t-55.5 -28.5t-60 -9.5q-47 0 -116 36t-107 36q-36 0 -65 -11t-65 -31t-61 -30z" />
<glyph unicode="&#xa1;" horiz-adv-x="550" d="M170 788v109q0 21 13.5 33t35.5 14h100q20 -2 35 -17t15 -36v-100q-4 -56 -47 -56h-103q-24 0 -36.5 14.5t-12.5 38.5zM180 -553l13 1088h153l16 -1088h-182z" />
<glyph unicode="&#xa2;" horiz-adv-x="1003" d="M82 545q0 144 18.5 246.5t50 164t83 95.5t107 44t132.5 7v196h123v-206q121 -14 311 -48v-110q-285 16 -467 16q-43 0 -69.5 -5.5t-56 -28.5t-45 -66.5t-26 -121.5t-10.5 -191q0 -156 22 -243.5t65.5 -122t119.5 -34.5q84 0 204.5 5.5t199.5 11.5l78 6v-115 q-148 -43 -326 -53v-189h-123v183q-77 -1 -131 9t-106.5 43.5t-84 94t-50.5 164t-19 248.5z" />
<glyph unicode="&#xa3;" horiz-adv-x="1220" d="M102 0v121l148 31v524h-148v92l148 35v231q0 92 12.5 163.5t32.5 120.5t55 83t69.5 53t88 29.5t98.5 13t111 2.5q52 0 152.5 -8.5t174.5 -16.5l74 -8v-116h-397q-75 0 -112 -2t-81 -11.5t-62 -28.5t-36.5 -55t-23.5 -88t-5 -131v-231l555 -35v-92h-555v-524h715v-152 h-1014z" />
<glyph unicode="&#xa4;" horiz-adv-x="940" d="M104 920l82 73l84 -86q84 62 189 62q113 0 203 -70l98 96l71 -82l-96 -96q49 -77 49 -172q0 -109 -57 -194l109 -109l-86 -76l-101 101q-85 -66 -190 -66q-99 0 -180 59l-97 -96l-76 86l93 90q-64 89 -64 205q0 101 58 184zM250 641q0 -90 60.5 -155.5t148.5 -65.5 t149.5 65.5t61.5 155.5q0 88 -61.5 148.5t-149.5 60.5q-86 0 -147.5 -61.5t-61.5 -147.5z" />
<glyph unicode="&#xa5;" horiz-adv-x="1228" d="M41 1499h166l387 -692l422 692h172l-516 -842h370v-120h-372v-103h372v-121h-372v-313h-152v313h-350v121h350v103h-350v120h348z" />
<glyph unicode="&#xa6;" horiz-adv-x="503" d="M176 -147v671h152v-671h-152zM176 879v698h152v-698h-152z" />
<glyph unicode="&#xa7;" horiz-adv-x="1130" d="M113 1208v144q0 72 22.5 124t62 79t84 39t97.5 12q66 0 273 -15.5t288 -23.5v-113h-561q-57 0 -85.5 -22t-29.5 -80v-144q0 -96 115 -96h366q84 0 140 -18.5t84.5 -55.5t39 -80.5t9.5 -105.5v-127q0 -169 -86 -182q28 -4 46 -20.5t25.5 -43.5t10 -50t2.5 -54v-150 q0 -64 -17.5 -110.5t-43.5 -71t-67 -38.5t-74.5 -17.5t-80.5 -3.5q-66 0 -262.5 15t-282.5 24v112h545q31 0 50.5 2.5t39.5 11.5t30 27.5t11 48.5v150q0 61 -26 78.5t-93 17.5h-366q-66 0 -111 10.5t-81.5 37t-54 77t-17.5 127.5v127q0 82 19.5 128t70.5 62 q-49 14 -70.5 60.5t-21.5 107.5zM264 723q0 -64 25.5 -82t89.5 -18h366q35 0 58.5 6t35.5 13t18 23.5t6.5 26.5t0.5 33v127q0 32 -2.5 48.5t-13.5 33t-36 23t-67 6.5h-366q-69 0 -92 -21t-23 -94v-125z" />
<glyph unicode="&#xa8;" horiz-adv-x="933" d="M102 1192q0 42 31 72t74 30t72.5 -29.5t29.5 -72.5t-30 -74t-72 -31q-43 0 -74 31t-31 74zM625 1192q0 43 30.5 72.5t73.5 29.5t72.5 -29.5t29.5 -72.5t-30 -74t-72 -31q-43 0 -73.5 31t-30.5 74z" />
<glyph unicode="&#xa9;" horiz-adv-x="1660" d="M113 754q0 77 5 147t18.5 146.5t35.5 140.5t58 123t83.5 99.5t115 64.5t149.5 24h552q65 0 120 -18t94.5 -46.5t72 -73t53 -89t36 -103.5t23.5 -108t12.5 -111t5.5 -103t1 -93q0 -123 -13.5 -230.5t-45 -205t-78.5 -167t-119 -110.5t-162 -41h-552q-78 0 -144 27.5 t-113 73.5t-84 109.5t-60 131.5t-37.5 143t-20.5 140.5t-6 128.5zM244 754q0 -114 20 -221.5t59 -198.5t105 -146.5t150 -56.5h552q126 2 206.5 162t80.5 461q0 62 -1.5 112t-8.5 116.5t-18.5 117t-33 103.5t-51 87t-74 56t-100.5 22h-552q-58 0 -105 -16t-91 -58 t-73.5 -109.5t-47 -176.5t-17.5 -254zM473 748q0 234 80 340t215 106q83 0 365 -49v-107q-179 25 -365 25q-164 0 -164 -322q0 -56 4 -99t14.5 -84t28.5 -67.5t47.5 -42.5t69.5 -16q139 0 377 33v-107q-202 -57 -377 -57q-65 0 -115 19.5t-92.5 67t-65 138.5t-22.5 222z" />
<glyph unicode="&#xaa;" horiz-adv-x="745" d="M61 549v119h623v-119h-623zM61 948v94q0 84 55 134.5t150 50.5q287 -2 287 0q2 63 0 65q0 103 -125 103q-64 0 -179.5 -6.5t-162.5 -8.5v86q36 5 103 18t126.5 20.5t128.5 8.5q103 2 169.5 -50.5t66.5 -159.5v-529h-82l-43 100q-1 0 -19.5 -11t-49.5 -27t-67 -32 t-77.5 -27t-75.5 -11q-85 0 -145 48.5t-60 133.5zM188 975q0 -82 91 -82q55 0 123.5 16.5t109.5 32.5l41 16v177l-274 -21q-47 -4 -69 -27.5t-22 -56.5v-55z" />
<glyph unicode="&#xab;" horiz-adv-x="1124" d="M102 725l422 416l107 -107l-318 -309l328 -319l-106 -107zM483 725l422 416l107 -107l-318 -309l328 -319l-107 -107z" />
<glyph unicode="&#xac;" horiz-adv-x="1079" d="M102 524v152h875v-350h-152v198h-723z" />
<glyph unicode="&#xad;" horiz-adv-x="724" d="M41 518v152h643v-152h-643z" />
<glyph unicode="&#xae;" horiz-adv-x="1660" d="M113 754q0 77 5 147t18.5 146.5t35.5 140.5t58 123t83.5 99.5t115 64.5t149.5 24h552q65 0 120 -18t94.5 -46.5t72 -73t53 -89t36 -103.5t23.5 -108t12.5 -111t5.5 -103t1 -93q0 -123 -13.5 -230.5t-45 -205t-78.5 -167t-119 -110.5t-162 -41h-552q-78 0 -144 27.5 t-113 73.5t-84 109.5t-60 131.5t-37.5 143t-20.5 140.5t-6 128.5zM244 754q0 -114 20 -221.5t59 -198.5t105 -146.5t150 -56.5h552q126 2 206.5 162t80.5 461q0 62 -1.5 112t-8.5 116.5t-18.5 117t-33 103.5t-51 87t-74 56t-100.5 22h-552q-58 0 -105 -16t-91 -58 t-73.5 -109.5t-47 -176.5t-17.5 -254zM535 313v875h362q274 0 274 -262q0 -66 -13.5 -115t-32 -75t-47 -43.5t-49 -23.5t-47.5 -11q-5 -1 -7 -1l186 -344h-147l-187 349l-161 24v-373h-131zM666 776h243q80 0 105.5 29t25.5 119q0 46 -12 75t-35 40.5t-40 14.5t-44 3h-243 v-281z" />
<glyph unicode="&#xaf;" horiz-adv-x="802" d="M102 1087v130h598v-130h-598z" />
<glyph unicode="&#xb0;" horiz-adv-x="620" d="M102 1294q0 88 61.5 149.5t147.5 61.5t146.5 -61.5t60.5 -149.5t-60.5 -148.5t-146.5 -60.5q-87 0 -148 61t-61 148zM199 1294q0 -46 33 -78t79 -32t78.5 32t32.5 78t-32.5 79.5t-78.5 33.5t-79 -33.5t-33 -79.5z" />
<glyph unicode="&#xb1;" horiz-adv-x="1079" d="M115 178v152h852v-152h-852zM115 793v151h348v350h151v-350h353v-151h-353v-351h-151v351h-348z" />
<glyph unicode="&#xb2;" horiz-adv-x="792" d="M63.5 1716.5q-0.5 24.5 0.5 48.5t2 23q20 2 74 9t76.5 9.5t64.5 6t79.5 5t79.5 1.5q267 0 267 -279q0 -70 -33 -147t-75 -136t-105 -124t-99 -96.5t-81 -69.5q-8 -6 -11 -9h402v-127h-633v119q17 14 83 64.5t109.5 86t107.5 95.5t103 109.5t68.5 111.5t29.5 117 q0 84 -34 121t-121 37h-352q-2 0 -2.5 24.5z" />
<glyph unicode="&#xb3;" horiz-adv-x="831" d="M61 1683v89q21 8 45.5 13.5t43.5 9.5t49 6.5t46.5 4t52.5 2t50 0.5h57h56q125 0 186.5 -68.5t61.5 -170.5v-72q0 -68 -29 -116t-72 -64q101 -64 101 -193v-57q0 -118 -57.5 -181t-200.5 -63h-48h-49t-42.5 0.5t-44.5 1.5t-38.5 2.5t-42.5 4.5t-37.5 7t-41 9t-37.5 12 l2 88l362 2q82 0 115 28.5t33 96.5v47q0 72 -39.5 106t-100.5 36l-290 10v96l290 14q69 3 105.5 37t36.5 95v45q0 122 -142 122h-381z" />
<glyph unicode="&#xb4;" horiz-adv-x="495" d="M41 1087l219 273h195l-273 -273h-141z" />
<glyph unicode="&#xb5;" horiz-adv-x="1216" d="M184 330v757h152v-757q0 -97 51 -147t133 -50q60 0 106 6t100.5 25.5t85.5 33.5t110 52v837h151v-1087h-106l-45 127q-5 -3 -40 -23.5t-43 -24.5t-39 -21t-43.5 -21.5t-41 -17t-46.5 -16.5t-44.5 -10.5t-52 -8.5t-52.5 -2q-108 0 -184 51v-586h-152v883z" />
<glyph unicode="&#xb6;" horiz-adv-x="1189" d="M82 1022v190q0 93 47.5 160t118.5 97t153 30h748v-156h-141v-1343h-152v1348h-192v-1901h-152v1315q-1 0 -19 -10.5t-42 -18t-50 -6.5q-152 0 -235.5 84t-83.5 211zM233 1026q0 -45 17.5 -76t46 -45.5t53.5 -20t51 -5.5h111v469h-111q-47 0 -82 -13.5t-52.5 -35.5 t-25.5 -44.5t-8 -46.5v-182z" />
<glyph unicode="&#xb7;" horiz-adv-x="557" d="M174 725v117q0 51 49 51h109q51 0 51 -51v-117q0 -47 -51 -47h-109q-22 0 -35.5 12.5t-13.5 34.5z" />
<glyph unicode="&#xb8;" horiz-adv-x="516" d="M102 -279l109 31q39 17 52 60t13 112h138q0 -159 -43 -218.5t-164 -59.5h-105v75z" />
<glyph unicode="&#xb9;" horiz-adv-x="555" d="M33 1593v101l262 112h127v-975h-127v834z" />
<glyph unicode="&#xba;" horiz-adv-x="798" d="M61 1126q0 219 72.5 301t267.5 82q194 0 265 -82t71 -301q0 -200 -72 -281t-264 -81t-266 81t-74 281zM84 555v119h629v-119h-629zM188 1126q0 -56 6 -96.5t21 -66t30 -40.5t44 -22t51 -8.5t61 -1.5q37 0 55 1t45 5t39.5 13t28 25.5t22.5 42t12.5 62t6.5 86.5 q1 47 -1.5 83.5t-10.5 63t-16 45.5t-24 31t-29 18.5t-37.5 10t-41.5 4t-49 0.5q-67 0 -96 -4.5t-62 -27.5t-44 -76.5t-11 -147.5z" />
<glyph unicode="&#xbb;" horiz-adv-x="1124" d="M102 406l328 319l-317 309l106 107l422 -416l-432 -426zM483 406l328 319l-317 309l106 107l422 -416l-432 -426z" />
<glyph unicode="&#xbc;" horiz-adv-x="1849" d="M33 1286v100l262 113h127v-975h-127v834zM451 0l712 1499h133l-712 -1499h-133zM1016 293l428 678h145l-370 -594h340v248l57 98h70v-346h120v-107l-120 -26v-246h-127v246h-498z" />
<glyph unicode="&#xbd;" horiz-adv-x="1994" d="M33 1286v100l262 113h127v-975h-127v834zM440 0l713 1499h133l-713 -1499h-133zM1267.5 884.5q-0.5 24.5 0.5 48.5t2 23q19 2 74 9t77 9t64.5 6t80 5.5t79.5 1.5q266 0 266 -278q0 -70 -33 -147t-75 -136t-105 -124t-99 -96.5t-81 -69.5q-2 -2 -3.5 -3t-3.5 -3t-4 -3h402 v-127h-633v119q19 16 70 54.5t90.5 70t93.5 78t94.5 90t77.5 92.5t56.5 99.5t19.5 98.5q0 84 -34.5 121t-121.5 37h-352q-2 0 -2.5 24.5z" />
<glyph unicode="&#xbe;" horiz-adv-x="2086" d="M61 1376v88q19 7 38 12t42.5 9t39.5 7t45 4.5t41.5 2.5t47.5 1.5t45 0.5h51.5h49.5q125 0 186.5 -68.5t61.5 -170.5v-72q0 -68 -29 -116t-72 -64q101 -64 101 -193v-57q0 -118 -57.5 -181t-200.5 -63h-48h-49t-42.5 0.5t-44.5 1.5t-38.5 2.5t-42.5 4.5t-37.5 7t-41 9 t-37.5 12l2 88l362 2q82 0 115 28.5t33 96.5v47q0 72 -39.5 105.5t-100.5 35.5l-290 11v96l290 14q69 3 105.5 36.5t36.5 94.5v45q0 123 -142 123h-381zM653 0l713 1499h133l-713 -1499h-133zM1190 295l426 676h137l-371 -600h359v256l49 98h70v-354h120v-99l-120 -26v-246 h-119v246h-506z" />
<glyph unicode="&#xbf;" horiz-adv-x="1112" d="M82 45q-2 117 64 196.5t178.5 109t250.5 7.5l1 22q0 22 0.5 50.5t0.5 58t-0.5 51.5t-1.5 25h158l2 -332q-195 3 -293 0q-73 -3 -124.5 -62t-57.5 -140q-2 -164 -2 -205t14 -79.5t42 -72.5t79.5 -53.5t118.5 -17.5l559 2q-3 0 -3 -29.5t0.5 -55t-1.5 -28.5q-27 -3 -84 -11 t-82.5 -11t-73 -8.5t-79 -7.5t-76.5 -4t-89.5 -1.5t-93.5 2.5q-407 -2 -407 385v209zM553 807v104q0 21 15 36.5t34 17.5h100q23 -2 36.5 -14t13.5 -33v-111q-3 -48 -43 -51h-115q-38 11 -41 51z" />
<glyph unicode="&#xc0;" horiz-adv-x="1372" d="M92 0l551 1499h152l526 -1499h-180l-129 418h-598l-135 -418h-187zM376 1905h194l220 -273h-142zM469 569h489l-241 699z" />
<glyph unicode="&#xc1;" horiz-adv-x="1372" d="M92 0l551 1499h152l526 -1499h-180l-129 418h-598l-135 -418h-187zM469 569h489l-241 699zM648 1632l219 273h195l-272 -273h-142z" />
<glyph unicode="&#xc2;" horiz-adv-x="1372" d="M92 0l551 1499h152l526 -1499h-180l-129 418h-598l-135 -418h-187zM420 1632l239 266h146l213 -266h-146l-145 146l-160 -146h-147zM469 569h489l-241 699z" />
<glyph unicode="&#xc3;" horiz-adv-x="1372" d="M92 0l551 1499h152l526 -1499h-180l-129 418h-598l-135 -418h-187zM373 1716q55 45 83 66.5t73.5 43t84.5 21.5q56 -3 126 -36.5t94 -34.5q23 -1 60 12.5t55 23t71 37.5l45 -86q-12 -9 -41 -32.5t-47.5 -37t-45.5 -30t-52 -23.5t-50 -6q-49 3 -88.5 21t-70 34t-60.5 15 q-40 -1 -69.5 -12t-64 -30.5t-60.5 -29.5zM469 569h489l-241 699z" />
<glyph unicode="&#xc4;" horiz-adv-x="1372" d="M92 0l551 1499h152l526 -1499h-180l-129 418h-598l-135 -418h-187zM354 1737q0 42 31 72t74 30t72.5 -29.5t29.5 -72.5t-30 -74t-72 -31q-43 0 -74 31t-31 74zM469 569h489l-241 699zM877 1737q0 43 30.5 72.5t73.5 29.5t72.5 -29.5t29.5 -72.5t-30 -74t-72 -31 q-43 0 -73.5 31t-30.5 74z" />
<glyph unicode="&#xc5;" horiz-adv-x="1372" d="M92 0l551 1499h152l526 -1499h-180l-129 418h-598l-135 -418h-187zM469 569h489l-241 699zM511 1704q0 88 61.5 149.5t147.5 61.5t146.5 -61.5t60.5 -149.5t-60.5 -148.5t-146.5 -60.5q-87 0 -148 61t-61 148zM607 1704q0 -45 33.5 -77.5t79.5 -32.5t78 32t32 78 t-32.5 79.5t-77.5 33.5q-46 0 -79.5 -33.5t-33.5 -79.5z" />
<glyph unicode="&#xc6;" horiz-adv-x="1886" d="M61 0l611 1237q39 78 81.5 130.5t79.5 79t85.5 39t84 14t89.5 0.5q11 -1 16.5 -1h14.5h16l655 -33v-120h-655q-35 0 -56.5 -8t-30.5 -27.5t-11.5 -32t-4.5 -41.5v-424l676 -20v-121l-676 -21v-403q0 -20 3.5 -35.5t7.5 -25.5t14 -17t16 -11t20.5 -5.5t20 -2t23.5 0 t22 0.5l629 -2v-125l-629 -35q-44 -3 -81 1t-75 20t-63.5 44t-42 77t-16.5 116v217h-430l-228 -465h-166zM530 616h355v719z" />
<glyph unicode="&#xc7;" horiz-adv-x="1183" d="M113 754q0 107 6 193.5t21.5 167t40.5 141t63.5 111t90 82.5t121 49.5t156.5 17.5q81 0 238 -16t262 -36v-121l-18 1q-18 1 -49 3t-71 4.5t-87 4.5t-93.5 4t-95 3t-86.5 1q-100 0 -163 -25.5t-106.5 -95t-61 -187.5t-17.5 -306q0 -611 348 -611q96 0 221 3.5t202 7.5 l77 4v-121q-100 -19 -255.5 -32t-244.5 -13q-499 0 -499 766zM446 -276l109 30q39 17 52.5 60t13.5 112h137q0 -159 -43 -218.5t-164 -59.5h-105v76z" />
<glyph unicode="&#xc8;" horiz-adv-x="1161" d="M164 252v981q0 73 20.5 127t57 84t82 43.5t98.5 11.5l647 -33v-118h-647q-38 0 -61 -9t-32.5 -29t-11.5 -35t-2 -42v-410l672 -20v-121l-672 -20v-410q0 -26 5 -45.5t16 -31t20 -18t27.5 -9t28 -3t30.5 -0.5h627v-116l-627 -35q-44 -3 -81 1t-75 20t-63.5 44t-42 77 t-16.5 116zM360 1894h195l219 -272h-141z" />
<glyph unicode="&#xc9;" horiz-adv-x="1161" d="M164 252v981q0 73 20.5 127t57 84t82 43.5t98.5 11.5l647 -33v-118h-647q-38 0 -61 -9t-32.5 -29t-11.5 -35t-2 -42v-410l672 -20v-121l-672 -20v-410q0 -26 5 -45.5t16 -31t20 -18t27.5 -9t28 -3t30.5 -0.5h627v-116l-627 -35q-44 -3 -81 1t-75 20t-63.5 44t-42 77 t-16.5 116zM588 1622l219 272h194l-272 -272h-141z" />
<glyph unicode="&#xca;" horiz-adv-x="1161" d="M164 252v981q0 73 20.5 127t57 84t82 43.5t98.5 11.5l647 -33v-118h-647q-38 0 -61 -9t-32.5 -29t-11.5 -35t-2 -42v-410l672 -20v-121l-672 -20v-410q0 -26 5 -45.5t16 -31t20 -18t27.5 -9t28 -3t30.5 -0.5h627v-116l-627 -35q-44 -3 -81 1t-75 20t-63.5 44t-42 77 t-16.5 116zM348 1632l240 266h145l213 -266h-145l-146 146l-159 -146h-148z" />
<glyph unicode="&#xcb;" horiz-adv-x="1161" d="M164 252v981q0 73 20.5 127t57 84t82 43.5t98.5 11.5l647 -33v-118h-647q-38 0 -61 -9t-32.5 -29t-11.5 -35t-2 -42v-410l672 -20v-121l-672 -20v-410q0 -26 5 -45.5t16 -31t20 -18t27.5 -9t28 -3t30.5 -0.5h627v-116l-627 -35q-44 -3 -81 1t-75 20t-63.5 44t-42 77 t-16.5 116zM285 1726q0 43 30.5 73t73.5 30t73 -30t30 -73t-30 -73.5t-73 -30.5t-73.5 30.5t-30.5 73.5zM807 1726q0 43 30.5 73t73.5 30t73 -30t30 -73t-30 -73.5t-73 -30.5t-73.5 30.5t-30.5 73.5z" />
<glyph unicode="&#xcc;" horiz-adv-x="438" d="M-103 1905h194l219 -273h-141zM164 0v1499h151v-1499h-151z" />
<glyph unicode="&#xcd;" horiz-adv-x="438" d="M164 0v1499h151v-1499h-151zM169 1632l219 273h195l-273 -273h-141z" />
<glyph unicode="&#xce;" horiz-adv-x="438" d="M-59 1632l239 266h146l213 -266h-146l-145 146l-160 -146h-147zM164 0v1499h151v-1499h-151z" />
<glyph unicode="&#xcf;" horiz-adv-x="438" d="M-125 1737q0 42 31 72t74 30t72.5 -29.5t29.5 -72.5t-30 -74t-72 -31q-43 0 -74 31t-31 74zM164 0v1499h151v-1499h-151zM397 1737q0 42 31 72t74 30t72.5 -29.5t29.5 -72.5t-30 -74t-72 -31q-43 0 -74 31t-31 74z" />
<glyph unicode="&#xd0;" horiz-adv-x="1345" d="M31 709v110h133v678q0 2 559 2q96 0 174.5 -26.5t132.5 -69.5t95 -105.5t65 -127.5t38.5 -143.5t19.5 -144.5t5 -139q0 -88 -12 -173.5t-37 -170t-68 -155.5t-99.5 -126.5t-137 -86.5t-176.5 -31h-559v709h-133zM315 158h408q98 0 171.5 46.5t116.5 129.5t64 186t21 225 q0 308 -98.5 450t-274.5 142l-408 -2v-516h285v-110h-285v-551z" />
<glyph unicode="&#xd1;" horiz-adv-x="1392" d="M164 0v1499h155l799 -1216v1216h152v-1499h-152l-801 1217v-1217h-153zM371 1716q55 45 83 66.5t73.5 43t84.5 21.5q56 -3 125.5 -36.5t93.5 -34.5q23 -1 59.5 12.5t56.5 23.5t71 37l45 -86q-12 -9 -41 -32.5t-47.5 -37t-45.5 -30t-52 -23.5t-50 -6q-49 3 -88.5 21 t-70 34t-60.5 15q-40 -1 -69.5 -12t-64 -30.5t-60.5 -29.5z" />
<glyph unicode="&#xd2;" horiz-adv-x="1384" d="M133 739q0 116 9 211.5t24.5 169t41.5 131t54.5 98.5t69 70t79.5 46.5t92 27.5t101 13t111 3q65 0 113.5 -3t101.5 -13t92 -27.5t79 -46.5t67.5 -70t52.5 -98.5t39.5 -131t23 -169t8.5 -211.5q0 -110 -8 -200t-22 -161t-38 -126.5t-51 -96t-65.5 -69.5t-78.5 -47.5 t-93 -28.5t-104 -14t-117 -4q-67 0 -117.5 3t-104.5 12.5t-93 26.5t-79 45t-67 68t-51.5 95.5t-39 127t-22.5 164t-8 205.5zM285 739q0 -133 8.5 -227t31.5 -161.5t53 -107t82 -62.5t110 -30.5t145 -7.5q85 0 143 8.5t109 33t81.5 65.5t52.5 108t31 159.5t9 221.5 q0 91 -4 166t-14.5 133.5t-20.5 104t-31 79t-37.5 56.5t-48.5 38t-54.5 23.5t-64.5 12.5t-70.5 5t-80.5 1q-57 0 -87.5 -1t-76 -6.5t-69.5 -17t-57.5 -32.5t-50.5 -52t-37.5 -77.5t-29.5 -107.5t-15.5 -142.5t-6.5 -182.5zM372 1905h194l219 -273h-141z" />
<glyph unicode="&#xd3;" horiz-adv-x="1384" d="M133 739q0 116 9 211.5t24.5 169t41.5 131t54.5 98.5t69 70t79.5 46.5t92 27.5t101 13t111 3q65 0 113.5 -3t101.5 -13t92 -27.5t79 -46.5t67.5 -70t52.5 -98.5t39.5 -131t23 -169t8.5 -211.5q0 -110 -8 -200t-22 -161t-38 -126.5t-51 -96t-65.5 -69.5t-78.5 -47.5 t-93 -28.5t-104 -14t-117 -4q-67 0 -117.5 3t-104.5 12.5t-93 26.5t-79 45t-67 68t-51.5 95.5t-39 127t-22.5 164t-8 205.5zM285 739q0 -133 8.5 -227t31.5 -161.5t53 -107t82 -62.5t110 -30.5t145 -7.5q85 0 143 8.5t109 33t81.5 65.5t52.5 108t31 159.5t9 221.5 q0 91 -4 166t-14.5 133.5t-20.5 104t-31 79t-37.5 56.5t-48.5 38t-54.5 23.5t-64.5 12.5t-70.5 5t-80.5 1q-57 0 -87.5 -1t-76 -6.5t-69.5 -17t-57.5 -32.5t-50.5 -52t-37.5 -77.5t-29.5 -107.5t-15.5 -142.5t-6.5 -182.5zM644 1632l219 273h195l-273 -273h-141z" />
<glyph unicode="&#xd4;" horiz-adv-x="1384" d="M133 739q0 116 9 211.5t24.5 169t41.5 131t54.5 98.5t69 70t79.5 46.5t92 27.5t101 13t111 3q65 0 113.5 -3t101.5 -13t92 -27.5t79 -46.5t67.5 -70t52.5 -98.5t39.5 -131t23 -169t8.5 -211.5q0 -110 -8 -200t-22 -161t-38 -126.5t-51 -96t-65.5 -69.5t-78.5 -47.5 t-93 -28.5t-104 -14t-117 -4q-67 0 -117.5 3t-104.5 12.5t-93 26.5t-79 45t-67 68t-51.5 95.5t-39 127t-22.5 164t-8 205.5zM285 739q0 -133 8.5 -227t31.5 -161.5t53 -107t82 -62.5t110 -30.5t145 -7.5q85 0 143 8.5t109 33t81.5 65.5t52.5 108t31 159.5t9 221.5 q0 91 -4 166t-14.5 133.5t-20.5 104t-31 79t-37.5 56.5t-48.5 38t-54.5 23.5t-64.5 12.5t-70.5 5t-80.5 1q-57 0 -87.5 -1t-76 -6.5t-69.5 -17t-57.5 -32.5t-50.5 -52t-37.5 -77.5t-29.5 -107.5t-15.5 -142.5t-6.5 -182.5zM416 1632l239 266h146l213 -266h-146l-145 146 l-160 -146h-147z" />
<glyph unicode="&#xd5;" horiz-adv-x="1384" d="M133 739q0 116 9 211.5t24.5 169t41.5 131t54.5 98.5t69 70t79.5 46.5t92 27.5t101 13t111 3q65 0 113.5 -3t101.5 -13t92 -27.5t79 -46.5t67.5 -70t52.5 -98.5t39.5 -131t23 -169t8.5 -211.5q0 -110 -8 -200t-22 -161t-38 -126.5t-51 -96t-65.5 -69.5t-78.5 -47.5 t-93 -28.5t-104 -14t-117 -4q-67 0 -117.5 3t-104.5 12.5t-93 26.5t-79 45t-67 68t-51.5 95.5t-39 127t-22.5 164t-8 205.5zM285 739q0 -133 8.5 -227t31.5 -161.5t53 -107t82 -62.5t110 -30.5t145 -7.5q85 0 143 8.5t109 33t81.5 65.5t52.5 108t31 159.5t9 221.5 q0 91 -4 166t-14.5 133.5t-20.5 104t-31 79t-37.5 56.5t-48.5 38t-54.5 23.5t-64.5 12.5t-70.5 5t-80.5 1q-57 0 -87.5 -1t-76 -6.5t-69.5 -17t-57.5 -32.5t-50.5 -52t-37.5 -77.5t-29.5 -107.5t-15.5 -142.5t-6.5 -182.5zM369 1716q55 45 83 66.5t73.5 43t84.5 21.5 q56 -3 125.5 -36.5t93.5 -34.5q23 -1 59.5 12.5t56.5 23.5t71 37l45 -86q-12 -9 -41 -32.5t-47.5 -37t-45.5 -30t-52 -23.5t-50 -6q-49 3 -88.5 21t-70 34t-60.5 15q-40 -1 -69.5 -12t-64 -30.5t-60.5 -29.5z" />
<glyph unicode="&#xd6;" horiz-adv-x="1384" d="M133 739q0 116 9 211.5t24.5 169t41.5 131t54.5 98.5t69 70t79.5 46.5t92 27.5t101 13t111 3q65 0 113.5 -3t101.5 -13t92 -27.5t79 -46.5t67.5 -70t52.5 -98.5t39.5 -131t23 -169t8.5 -211.5q0 -110 -8 -200t-22 -161t-38 -126.5t-51 -96t-65.5 -69.5t-78.5 -47.5 t-93 -28.5t-104 -14t-117 -4q-67 0 -117.5 3t-104.5 12.5t-93 26.5t-79 45t-67 68t-51.5 95.5t-39 127t-22.5 164t-8 205.5zM285 739q0 -133 8.5 -227t31.5 -161.5t53 -107t82 -62.5t110 -30.5t145 -7.5q85 0 143 8.5t109 33t81.5 65.5t52.5 108t31 159.5t9 221.5 q0 91 -4 166t-14.5 133.5t-20.5 104t-31 79t-37.5 56.5t-48.5 38t-54.5 23.5t-64.5 12.5t-70.5 5t-80.5 1q-57 0 -87.5 -1t-76 -6.5t-69.5 -17t-57.5 -32.5t-50.5 -52t-37.5 -77.5t-29.5 -107.5t-15.5 -142.5t-6.5 -182.5zM350 1737q0 42 31 72t74 30t72.5 -29.5t29.5 -72.5 t-30 -74t-72 -31q-43 0 -74 31t-31 74zM872 1737q0 42 31 72t74 30t72.5 -29.5t29.5 -72.5t-30 -74t-72 -31q-43 0 -74 31t-31 74z" />
<glyph unicode="&#xd7;" horiz-adv-x="937" d="M115 481l247 246l-247 248l106 108l248 -247l250 247l106 -106l-250 -250l248 -246l-106 -108l-248 248l-246 -246z" />
<glyph unicode="&#xd8;" horiz-adv-x="1384" d="M133 739q0 104 6.5 192t20.5 158t31.5 126t44.5 98.5t55 74t66 53t75 35t86 21t93 10t102 2.5q128 0 215 -15t153 -60l43 65h125l-90 -139q133 -172 133 -621q0 -110 -8 -200t-22.5 -161t-38 -126.5t-51 -96t-66.5 -69.5t-78.5 -47.5t-92.5 -28.5t-104.5 -14t-117.5 -4 q-133 0 -223.5 16t-157.5 62l-45 -70h-125l92 145q-121 165 -121 594zM285 739q0 -325 63 -448l651 1016q-33 24 -82 35.5t-87.5 13.5t-116.5 2q-57 0 -87 -1t-76 -6.5t-70 -17t-57 -32.5t-50 -52t-37 -77.5t-29 -107.5t-15.5 -142.5t-6.5 -182.5zM418 205q49 -35 119 -48.5 t176 -13.5q85 0 143 8.5t109 32.5t82 65.5t53.5 108.5t31.5 159.5t9 221.5q0 348 -70 482z" />
<glyph unicode="&#xd9;" horiz-adv-x="1386" d="M164 655v844h151v-844q0 -85 6.5 -153t15 -119t28.5 -89.5t35 -64.5t47 -43t52 -26t62.5 -13.5t66.5 -5t75 -0.5h16q44 0 67.5 1t63 5.5t62 13.5t53.5 26.5t49 43t39 64.5t31.5 89.5t18 119t7.5 151.5v844h154v-844q0 -138 -18.5 -245t-44.5 -176.5t-74.5 -118t-87 -72.5 t-105 -36.5t-105.5 -14.5t-110 -2q-162 0 -226 11q-159 29 -235 158q-94 157 -94 496zM371 1905h194l219 -273h-141z" />
<glyph unicode="&#xda;" horiz-adv-x="1386" d="M164 655v844h151v-844q0 -85 6.5 -153t15 -119t28.5 -89.5t35 -64.5t47 -43t52 -26t62.5 -13.5t66.5 -5t75 -0.5h16q44 0 67.5 1t63 5.5t62 13.5t53.5 26.5t49 43t39 64.5t31.5 89.5t18 119t7.5 151.5v844h154v-844q0 -138 -18.5 -245t-44.5 -176.5t-74.5 -118t-87 -72.5 t-105 -36.5t-105.5 -14.5t-110 -2q-162 0 -226 11q-159 29 -235 158q-94 157 -94 496zM643 1632l219 273h195l-273 -273h-141z" />
<glyph unicode="&#xdb;" horiz-adv-x="1386" d="M164 655v844h151v-844q0 -85 6.5 -153t15 -119t28.5 -89.5t35 -64.5t47 -43t52 -26t62.5 -13.5t66.5 -5t75 -0.5h16q44 0 67.5 1t63 5.5t62 13.5t53.5 26.5t49 43t39 64.5t31.5 89.5t18 119t7.5 151.5v844h154v-844q0 -138 -18.5 -245t-44.5 -176.5t-74.5 -118t-87 -72.5 t-105 -36.5t-105.5 -14.5t-110 -2q-162 0 -226 11q-159 29 -235 158q-94 157 -94 496zM415 1632l239 266h146l213 -266h-146l-145 146l-160 -146h-147z" />
<glyph unicode="&#xdc;" horiz-adv-x="1386" d="M164 655v844h151v-844q0 -85 6.5 -153t15 -119t28.5 -89.5t35 -64.5t47 -43t52 -26t62.5 -13.5t66.5 -5t75 -0.5h16q44 0 67.5 1t63 5.5t62 13.5t53.5 26.5t49 43t39 64.5t31.5 89.5t18 119t7.5 151.5v844h154v-844q0 -138 -18.5 -245t-44.5 -176.5t-74.5 -118t-87 -72.5 t-105 -36.5t-105.5 -14.5t-110 -2q-162 0 -226 11q-159 29 -235 158q-94 157 -94 496zM349 1737q0 42 31 72t74 30t72.5 -29.5t29.5 -72.5t-30 -74t-72 -31q-43 0 -74 31t-31 74zM871 1737q0 42 31 72t74 30t72.5 -29.5t29.5 -72.5t-30 -74t-72 -31q-43 0 -74 31t-31 74z " />
<glyph unicode="&#xdd;" horiz-adv-x="1290" d="M92 1499h166l387 -786l428 786h166l-518 -967v-532h-152v532zM595 1632l219 273h195l-273 -273h-141z" />
<glyph unicode="&#xde;" horiz-adv-x="1140" d="M123 0v1493h151v-289h404q360 -4 360 -436q0 -87 -12.5 -157t-32 -117.5t-49.5 -83t-60 -55t-68.5 -31.5t-69.5 -15.5t-68 -3.5q-11 0 -55.5 -0.5t-61 0.5t-60.5 4.5t-97.5 12t-129.5 22.5v-344h-151zM274 457h404q44 -1 77.5 10.5t65 43.5t48 97.5t16.5 163.5 q-1 76 -17 131.5t-36.5 83t-51.5 43t-52.5 18.5t-49.5 3h-404v-594z" />
<glyph unicode="&#xdf;" horiz-adv-x="1167" d="M123 0v1159q0 185 123 308.5t334 123.5q109 0 195 -22t139 -59t87 -86.5t43 -103.5t3 -111t-28.5 -108.5t-56 -95.5t-75.5 -73q-19 -16 -53.5 -43t-48.5 -39t-35.5 -32t-29.5 -33.5t-15 -32.5t-7 -39q0 -27 23.5 -45.5t61.5 -29.5t83.5 -21.5t91 -28t83.5 -42.5t61.5 -71 t23.5 -108v-97q1 -64 -20.5 -115t-55 -82.5t-78 -52t-86 -28.5t-83.5 -8q-62 0 -130.5 7.5t-134.5 18.5t-89 13v122q34 0 159 -5t203 -5q64 0 112.5 37.5t51.5 97.5v97q0 32 -23.5 53t-61.5 32.5t-83.5 21.5t-91 26t-83.5 39.5t-61.5 67.5t-23.5 106q0 97 46 159t202 177 q102 76 102 204q0 56 -28.5 94.5t-77.5 57.5t-100 27t-111 8q-134 0 -220 -68t-86 -213v-1159h-151z" />
<glyph unicode="&#xe0;" horiz-adv-x="1062" d="M82 258v125q0 124 73 198t199 74q455 -2 455 0q2 136 0 138q0 90 -43.5 129t-124.5 39q-169 0 -524 -25v111q204 58 530 61q137 2 225.5 -76.5t88.5 -238.5v-793h-113l-39 131l-30 -15q-30 -14 -79 -35t-106 -42.5t-122.5 -36t-117.5 -14.5q-117 0 -194.5 72t-77.5 198z M203 1503h194l219 -272h-141zM233 268q0 -129 121 -129q73 0 186.5 26.5t191.5 52.5l77 26v293l-455 -33q-62 -6 -91.5 -42.5t-29.5 -90.5v-103z" />
<glyph unicode="&#xe1;" horiz-adv-x="1062" d="M82 258v125q0 124 73 198t199 74q455 -2 455 0q2 136 0 138q0 90 -43.5 129t-124.5 39q-169 0 -524 -25v111q204 58 530 61q137 2 225.5 -76.5t88.5 -238.5v-793h-113l-39 131l-30 -15q-30 -14 -79 -35t-106 -42.5t-122.5 -36t-117.5 -14.5q-117 0 -194.5 72t-77.5 198z M233 268q0 -129 121 -129q73 0 186.5 26.5t191.5 52.5l77 26v293l-455 -33q-62 -6 -91.5 -42.5t-29.5 -90.5v-103zM465 1231l219 272h195l-273 -272h-141z" />
<glyph unicode="&#xe2;" horiz-adv-x="1062" d="M82 258v125q0 124 73 198t199 74q455 -2 455 0q2 136 0 138q0 90 -43.5 129t-124.5 39q-169 0 -524 -25v111q204 58 530 61q137 2 225.5 -76.5t88.5 -238.5v-793h-113l-39 131l-30 -15q-30 -14 -79 -35t-106 -42.5t-122.5 -36t-117.5 -14.5q-117 0 -194.5 72t-77.5 198z M233 268q0 -129 121 -129q73 0 186.5 26.5t191.5 52.5l77 26v293l-455 -33q-62 -6 -91.5 -42.5t-29.5 -90.5v-103zM240 1231l239 266h146l213 -266h-146l-145 145l-160 -145h-147z" />
<glyph unicode="&#xe3;" horiz-adv-x="1062" d="M82 258v125q0 124 73 198t199 74q455 -2 455 0q2 136 0 138q0 90 -43.5 129t-124.5 39q-169 0 -524 -25v111q204 58 530 61q137 2 225.5 -76.5t88.5 -238.5v-793h-113l-39 131l-30 -15q-30 -14 -79 -35t-106 -42.5t-122.5 -36t-117.5 -14.5q-117 0 -194.5 72t-77.5 198z M182 1315q41 34 62.5 50.5t55.5 39t64 32t60 9.5q56 -3 125.5 -37t93.5 -35q8 0 17 1t19 4t19 5.5t21.5 8t20.5 9.5t22.5 11t21.5 11t23 12.5t22 11.5l45 -86q-8 -6 -50.5 -40t-62.5 -47.5t-56 -28t-66 -13.5q-49 3 -88.5 21t-70 34t-60.5 15q-40 -1 -70 -12t-64.5 -30.5 t-60.5 -29.5zM233 268q0 -129 121 -129q73 0 186.5 26.5t191.5 52.5l77 26v293l-455 -33q-62 -6 -91.5 -42.5t-29.5 -90.5v-103z" />
<glyph unicode="&#xe4;" horiz-adv-x="1062" d="M82 258v125q0 124 73 198t199 74q455 -2 455 0q2 136 0 138q0 90 -43.5 129t-124.5 39q-169 0 -524 -25v111q204 58 530 61q137 2 225.5 -76.5t88.5 -238.5v-793h-113l-39 131l-30 -15q-30 -14 -79 -35t-106 -42.5t-122.5 -36t-117.5 -14.5q-117 0 -194.5 72t-77.5 198z M171 1335q0 43 30.5 73t73.5 30t73 -30t30 -73t-30 -73.5t-73 -30.5t-73.5 30.5t-30.5 73.5zM233 268q0 -129 121 -129q73 0 186.5 26.5t191.5 52.5l77 26v293l-455 -33q-62 -6 -91.5 -42.5t-29.5 -90.5v-103zM693 1335q0 43 30.5 73t73.5 30t73 -30t30 -73t-30 -73.5 t-73 -30.5t-73.5 30.5t-30.5 73.5z" />
<glyph unicode="&#xe5;" horiz-adv-x="1062" d="M82 258v125q0 124 73 198t199 74q455 -2 455 0q2 136 0 138q0 90 -43.5 129t-124.5 39q-169 0 -524 -25v111q204 58 530 61q137 2 225.5 -76.5t88.5 -238.5v-793h-113l-39 131l-30 -15q-30 -14 -79 -35t-106 -42.5t-122.5 -36t-117.5 -14.5q-117 0 -194.5 72t-77.5 198z M233 268q0 -129 121 -129q73 0 186.5 26.5t191.5 52.5l77 26v293l-455 -33q-62 -6 -91.5 -42.5t-29.5 -90.5v-103zM330 1378q0 88 61.5 149.5t147.5 61.5t146 -61.5t60 -149.5t-60 -148.5t-146 -60.5q-87 0 -148 61t-61 148zM426 1378q0 -45 33.5 -77.5t79.5 -32.5t78 32 t32 78t-32.5 79.5t-77.5 33.5q-46 0 -79.5 -33.5t-33.5 -79.5z" />
<glyph unicode="&#xe6;" horiz-adv-x="1783" d="M82 270v82q0 124 73 198.5t199 74.5q455 -2 455 0q2 178 0 180q0 90 -43.5 129t-124.5 39q-158 0 -524 -25v111q172 57 530 61q177 3 260 -119q53 63 142.5 85t236.5 22q63 0 104.5 -2.5t89.5 -11t78 -24.5t60 -44.5t47 -69t27 -99t10 -134.5q0 -250 -281 -250h-458 q0 -130 19 -197.5t61.5 -94.5t125.5 -27h77h82.5t70 0.5t78 2t66 3.5t74 5.5t64.5 8.5v-115q-201 -57 -512 -57q-85 0 -145.5 19.5t-93.5 46.5t-76 77l-35 -15q-35 -15 -90 -36t-119 -42.5t-134 -36.5t-122 -15q-117 0 -194.5 72t-77.5 198zM233 281q0 -129 121 -129 q73 0 186.5 26t191.5 52l77 26v262l-455 -33q-62 -6 -91.5 -42.5t-29.5 -90.5v-71zM963 623h458q67 0 98 24.5t31 75.5q0 56 -3.5 92t-16 63.5t-28 41.5t-49 23t-69 11t-96.5 2q-63 0 -92 -1t-72.5 -7t-61.5 -18.5t-42.5 -36t-33.5 -59.5t-16 -88t-7 -123z" />
<glyph unicode="&#xe7;" horiz-adv-x="1024" d="M102 545q0 139 18 240t47.5 161.5t77.5 96t98 47.5t118 12q160 0 467 -58v-110q-285 16 -467 16q-43 0 -69.5 -5.5t-56 -28.5t-45 -66.5t-26 -121.5t-10.5 -191q0 -156 22 -243.5t65.5 -122t119.5 -34.5q84 0 204 5.5t199 11.5l78 6v-115q-197 -56 -481 -59 q-66 0 -116 12t-97.5 47.5t-78 96t-49 162.5t-18.5 241zM358 -279l109 31q39 17 52 60t13 112h138q0 -159 -43 -218.5t-164 -59.5h-105v75z" />
<glyph unicode="&#xe8;" horiz-adv-x="1075" d="M102 549q0 104 9 183t26 137.5t47 98.5t65 65.5t88.5 39t108 18.5t132.5 5q63 0 104.5 -2.5t89 -11t78 -24.5t60.5 -44.5t46.5 -69t26.5 -99t10 -134.5q0 -250 -280 -250h-459q0 -130 19 -198t62 -95t126 -27h55h57h51.5t54.5 0.5t49.5 1.5t53 2t47.5 2.5t50.5 3.5 t45.5 5t48 6v-115q-201 -57 -512 -57q-85 0 -144 17.5t-101.5 56t-67 105t-35.5 158t-11 222.5zM234 1493h195l219 -272h-141zM254 610h459q67 0 98 25t31 76q0 56 -3.5 92t-16 63.5t-28 41.5t-49 23t-69 11t-96.5 2q-62 0 -92 -1t-73 -7t-61.5 -19t-43 -36t-33.5 -59.5 t-16 -88.5t-7 -123z" />
<glyph unicode="&#xe9;" horiz-adv-x="1075" d="M102 549q0 104 9 183t26 137.5t47 98.5t65 65.5t88.5 39t108 18.5t132.5 5q63 0 104.5 -2.5t89 -11t78 -24.5t60.5 -44.5t46.5 -69t26.5 -99t10 -134.5q0 -250 -280 -250h-459q0 -130 19 -198t62 -95t126 -27h55h57h51.5t54.5 0.5t49.5 1.5t53 2t47.5 2.5t50.5 3.5 t45.5 5t48 6v-115q-201 -57 -512 -57q-85 0 -144 17.5t-101.5 56t-67 105t-35.5 158t-11 222.5zM254 610h459q67 0 98 25t31 76q0 56 -3.5 92t-16 63.5t-28 41.5t-49 23t-69 11t-96.5 2q-62 0 -92 -1t-73 -7t-61.5 -19t-43 -36t-33.5 -59.5t-16 -88.5t-7 -123zM486 1221 l220 272h194l-272 -272h-142z" />
<glyph unicode="&#xea;" horiz-adv-x="1075" d="M102 549q0 104 9 183t26 137.5t47 98.5t65 65.5t88.5 39t108 18.5t132.5 5q63 0 104.5 -2.5t89 -11t78 -24.5t60.5 -44.5t46.5 -69t26.5 -99t10 -134.5q0 -250 -280 -250h-459q0 -130 19 -198t62 -95t126 -27h55h57h51.5t54.5 0.5t49.5 1.5t53 2t47.5 2.5t50.5 3.5 t45.5 5t48 6v-115q-201 -57 -512 -57q-85 0 -144 17.5t-101.5 56t-67 105t-35.5 158t-11 222.5zM254 610h459q67 0 98 25t31 76q0 56 -3.5 92t-16 63.5t-28 41.5t-49 23t-69 11t-96.5 2q-62 0 -92 -1t-73 -7t-61.5 -19t-43 -36t-33.5 -59.5t-16 -88.5t-7 -123zM262 1221 l240 266h145l213 -266h-145l-146 145l-159 -145h-148z" />
<glyph unicode="&#xeb;" horiz-adv-x="1075" d="M102 549q0 104 9 183t26 137.5t47 98.5t65 65.5t88.5 39t108 18.5t132.5 5q63 0 104.5 -2.5t89 -11t78 -24.5t60.5 -44.5t46.5 -69t26.5 -99t10 -134.5q0 -250 -280 -250h-459q0 -130 19 -198t62 -95t126 -27h55h57h51.5t54.5 0.5t49.5 1.5t53 2t47.5 2.5t50.5 3.5 t45.5 5t48 6v-115q-201 -57 -512 -57q-85 0 -144 17.5t-101.5 56t-67 105t-35.5 158t-11 222.5zM190 1325q0 42 31 72t74 30t72.5 -29.5t29.5 -72.5t-29.5 -73.5t-72.5 -30.5t-74 30.5t-31 73.5zM254 610h459q67 0 98 25t31 76q0 56 -3.5 92t-16 63.5t-28 41.5t-49 23 t-69 11t-96.5 2q-62 0 -92 -1t-73 -7t-61.5 -19t-43 -36t-33.5 -59.5t-16 -88.5t-7 -123zM713 1325q0 43 30.5 72.5t73.5 29.5t73 -29.5t30 -72.5t-30 -73.5t-73 -30.5t-73.5 30.5t-30.5 73.5z" />
<glyph unicode="&#xec;" horiz-adv-x="397" d="M-144 1493h194l219 -272h-141zM123 0v1087h151v-1087h-151z" />
<glyph unicode="&#xed;" horiz-adv-x="397" d="M123 0v1087h151v-1087h-151zM128 1221l219 272h195l-273 -272h-141z" />
<glyph unicode="&#xee;" horiz-adv-x="397" d="M-100 1221l239 266h146l213 -266h-146l-145 145l-160 -145h-147zM123 0v1087h151v-1087h-151z" />
<glyph unicode="&#xef;" horiz-adv-x="397" d="M-166 1325q0 42 31 72t74 30t72.5 -29.5t29.5 -72.5t-29.5 -73.5t-72.5 -30.5t-74 30.5t-31 73.5zM123 0v1087h151v-1087h-151zM356 1325q0 42 31 72t74 30t72.5 -29.5t29.5 -72.5t-29.5 -73.5t-72.5 -30.5t-74 30.5t-31 73.5z" />
<glyph unicode="&#xf0;" horiz-adv-x="1101" d="M82 541q0 274 82.5 410t281.5 136h205q116 0 144 -30q-53 171 -152 270l-297 -119l-49 123l223 90q-107 57 -266 49v134q272 0 428 -121l242 96l51 -123l-187 -74q59 -72 103 -166t67.5 -181.5t38.5 -186t19 -168t4 -139.5q0 -149 -26.5 -256t-76.5 -168t-115.5 -89 t-150.5 -28h-205q-204 0 -284 127.5t-80 413.5zM233 541q0 -107 11.5 -181t28.5 -113.5t47.5 -60.5t56.5 -25.5t69 -4.5h205q64 0 107 25.5t67 77.5t33.5 119t9.5 163q0 95 -6.5 159.5t-20.5 112t-39.5 73.5t-61.5 38t-89 12h-205q-44 0 -74.5 -8.5t-58.5 -33.5t-44.5 -68.5 t-26 -114.5t-9.5 -170z" />
<glyph unicode="&#xf1;" d="M123 0v1087h106l45 -126q5 3 40 23.5t43 24.5t39 21t43.5 21.5t41 17t46.5 16.5t44.5 10.5t52 8.5t52.5 2q155 0 245.5 -102.5t90.5 -245.5v-758h-152v758q0 97 -51 146.5t-133 49.5q-79 0 -147 -15.5t-112 -34t-143 -66.5v-838h-151zM221 1313q41 34 62.5 50.5t55.5 39 t64 32t60 9.5q56 -3 125.5 -37t93.5 -35q8 0 17 1t19 4t19 5.5t21.5 8t20.5 9.5t22.5 11t21.5 11t23 12.5t22 11.5l45 -86q-8 -6 -50.5 -40t-62.5 -47.5t-56 -28t-66 -13.5q-49 3 -88.5 20.5t-70 33.5t-60.5 15q-40 -1 -70 -11.5t-64.5 -30t-60.5 -29.5z" />
<glyph unicode="&#xf2;" horiz-adv-x="1163" d="M102 528q0 135 16 230t50 162t92 105.5t135 55.5t187 17q140 0 230 -27.5t146.5 -96t79.5 -174.5t23 -272q0 -155 -23 -255t-79.5 -164.5t-146.5 -91.5t-230 -27q-139 0 -230 28.5t-147.5 95t-79.5 165.5t-23 249zM254 528q0 -60 4.5 -108.5t12 -86t21.5 -66.5t29 -49.5 t38 -34.5t44 -22t52.5 -12.5t59 -6t67.5 -1.5q62 0 101.5 4t81 17t65 38.5t43.5 68t28 106.5t8 153q0 73 -4 129.5t-14 100t-22 74t-34 51.5t-44 33.5t-57.5 19t-68.5 8.5t-83 2q-48 0 -80 -2t-67.5 -8.5t-57.5 -18.5t-44.5 -33t-35.5 -52t-23.5 -74t-15 -100t-4.5 -130z M259 1493h195l219 -272h-142z" />
<glyph unicode="&#xf3;" horiz-adv-x="1163" d="M102 528q0 135 16 230t50 162t92 105.5t135 55.5t187 17q140 0 230 -27.5t146.5 -96t79.5 -174.5t23 -272q0 -155 -23 -255t-79.5 -164.5t-146.5 -91.5t-230 -27q-139 0 -230 28.5t-147.5 95t-79.5 165.5t-23 249zM254 528q0 -60 4.5 -108.5t12 -86t21.5 -66.5t29 -49.5 t38 -34.5t44 -22t52.5 -12.5t59 -6t67.5 -1.5q62 0 101.5 4t81 17t65 38.5t43.5 68t28 106.5t8 153q0 73 -4 129.5t-14 100t-22 74t-34 51.5t-44 33.5t-57.5 19t-68.5 8.5t-83 2q-48 0 -80 -2t-67.5 -8.5t-57.5 -18.5t-44.5 -33t-35.5 -52t-23.5 -74t-15 -100t-4.5 -130z M511 1221l219 272h195l-273 -272h-141z" />
<glyph unicode="&#xf4;" horiz-adv-x="1163" d="M102 528q0 135 16 230t50 162t92 105.5t135 55.5t187 17q140 0 230 -27.5t146.5 -96t79.5 -174.5t23 -272q0 -155 -23 -255t-79.5 -164.5t-146.5 -91.5t-230 -27q-139 0 -230 28.5t-147.5 95t-79.5 165.5t-23 249zM254 528q0 -60 4.5 -108.5t12 -86t21.5 -66.5t29 -49.5 t38 -34.5t44 -22t52.5 -12.5t59 -6t67.5 -1.5q62 0 101.5 4t81 17t65 38.5t43.5 68t28 106.5t8 153q0 73 -4 129.5t-14 100t-22 74t-34 51.5t-44 33.5t-57.5 19t-68.5 8.5t-83 2q-48 0 -80 -2t-67.5 -8.5t-57.5 -18.5t-44.5 -33t-35.5 -52t-23.5 -74t-15 -100t-4.5 -130z M293 1221l239 266h146l213 -266h-146l-145 145l-160 -145h-147z" />
<glyph unicode="&#xf5;" horiz-adv-x="1163" d="M102 528q0 135 16 230t50 162t92 105.5t135 55.5t187 17q140 0 230 -27.5t146.5 -96t79.5 -174.5t23 -272q0 -155 -23 -255t-79.5 -164.5t-146.5 -91.5t-230 -27q-139 0 -230 28.5t-147.5 95t-79.5 165.5t-23 249zM254 528q0 -60 4.5 -108.5t12 -86t21.5 -66.5t29 -49.5 t38 -34.5t44 -22t52.5 -12.5t59 -6t67.5 -1.5q62 0 101.5 4t81 17t65 38.5t43.5 68t28 106.5t8 153q0 73 -4 129.5t-14 100t-22 74t-34 51.5t-44 33.5t-57.5 19t-68.5 8.5t-83 2q-48 0 -80 -2t-67.5 -8.5t-57.5 -18.5t-44.5 -33t-35.5 -52t-23.5 -74t-15 -100t-4.5 -130z M254 1305q41 34 62.5 50.5t55.5 39t64 32t60 9.5q56 -3 125.5 -37t93.5 -35q8 0 17 1t19 4t19 5.5t21.5 8t20.5 9.5t22.5 11t21.5 11t23 12.5t22 11.5l45 -86q-8 -6 -50.5 -40t-62.5 -47.5t-56 -28t-66 -13.5q-49 3 -88.5 20.5t-70 33.5t-60.5 15q-40 -1 -70 -11.5 t-64.5 -30t-60.5 -29.5z" />
<glyph unicode="&#xf6;" horiz-adv-x="1163" d="M102 528q0 135 16 230t50 162t92 105.5t135 55.5t187 17q140 0 230 -27.5t146.5 -96t79.5 -174.5t23 -272q0 -155 -23 -255t-79.5 -164.5t-146.5 -91.5t-230 -27q-139 0 -230 28.5t-147.5 95t-79.5 165.5t-23 249zM219 1325q0 42 31 72t74 30t72.5 -29.5t29.5 -72.5 t-29.5 -73.5t-72.5 -30.5t-74 30.5t-31 73.5zM254 528q0 -60 4.5 -108.5t12 -86t21.5 -66.5t29 -49.5t38 -34.5t44 -22t52.5 -12.5t59 -6t67.5 -1.5q62 0 101.5 4t81 17t65 38.5t43.5 68t28 106.5t8 153q0 73 -4 129.5t-14 100t-22 74t-34 51.5t-44 33.5t-57.5 19t-68.5 8.5 t-83 2q-48 0 -80 -2t-67.5 -8.5t-57.5 -18.5t-44.5 -33t-35.5 -52t-23.5 -74t-15 -100t-4.5 -130zM741 1325q0 42 31 72t74 30t72.5 -29.5t29.5 -72.5t-29.5 -73.5t-72.5 -30.5t-74 30.5t-31 73.5z" />
<glyph unicode="&#xf7;" horiz-adv-x="1056" d="M102 647v152h852v-152h-852zM434 354v111q0 51 49 51h103q23 0 35 -14t12 -37v-111q0 -47 -47 -47h-103q-22 0 -35.5 12.5t-13.5 34.5zM434 967v110q0 51 49 51h103q23 0 35 -14t12 -37v-110q0 -47 -47 -47h-103q-22 0 -35.5 12.5t-13.5 34.5z" />
<glyph unicode="&#xf8;" horiz-adv-x="1163" d="M102 528q0 135 16 230t50 162t92 105.5t135 55.5t187 17q189 0 288 -51l31 40h135l-80 -108q56 -65 80.5 -174t24.5 -277q0 -155 -23 -255t-79.5 -164.5t-146.5 -91.5t-230 -27q-205 0 -312 65l-41 -55h-125l91 125q-93 118 -93 403zM254 528q0 -181 41 -268l485 662 q-59 24 -198 24q-48 0 -80 -2t-67.5 -8.5t-57.5 -18.5t-44.5 -33t-35.5 -52t-23.5 -74t-15 -100t-4.5 -130zM362 180q36 -24 88 -31.5t132 -7.5q62 0 101.5 4t81 17t65 38.5t43.5 68t28 106.5t8 153q0 237 -49 322z" />
<glyph unicode="&#xf9;" d="M102 330v757h152v-757q0 -97 51 -147t133 -50q60 0 106 6t100.5 25.5t85.5 33.5t110 52v837h151v-1087h-106l-45 127q-5 -3 -40 -23.5t-43 -24.5t-39 -21t-43.5 -21.5t-41 -17t-46.5 -16.5t-44.5 -10.5t-52 -8.5t-52.5 -2q-155 0 -245.5 102.5t-90.5 245.5zM224 1493h195 l219 -272h-141z" />
<glyph unicode="&#xfa;" d="M102 330v757h152v-757q0 -97 51 -147t133 -50q60 0 106 6t100.5 25.5t85.5 33.5t110 52v837h151v-1087h-106l-45 127q-5 -3 -40 -23.5t-43 -24.5t-39 -21t-43.5 -21.5t-41 -17t-46.5 -16.5t-44.5 -10.5t-52 -8.5t-52.5 -2q-155 0 -245.5 102.5t-90.5 245.5zM476 1221 l219 272h195l-273 -272h-141z" />
<glyph unicode="&#xfb;" d="M102 330v757h152v-757q0 -97 51 -147t133 -50q60 0 106 6t100.5 25.5t85.5 33.5t110 52v837h151v-1087h-106l-45 127q-5 -3 -40 -23.5t-43 -24.5t-39 -21t-43.5 -21.5t-41 -17t-46.5 -16.5t-44.5 -10.5t-52 -8.5t-52.5 -2q-155 0 -245.5 102.5t-90.5 245.5zM248 1221 l239 266h146l213 -266h-146l-145 145l-160 -145h-147z" />
<glyph unicode="&#xfc;" d="M102 330v757h152v-757q0 -97 51 -147t133 -50q60 0 106 6t100.5 25.5t85.5 33.5t110 52v837h151v-1087h-106l-45 127q-5 -3 -40 -23.5t-43 -24.5t-39 -21t-43.5 -21.5t-41 -17t-46.5 -16.5t-44.5 -10.5t-52 -8.5t-52.5 -2q-155 0 -245.5 102.5t-90.5 245.5zM182 1325 q0 42 31 72t74 30t72.5 -29.5t29.5 -72.5t-29.5 -73.5t-72.5 -30.5t-74 30.5t-31 73.5zM705 1325q0 43 30.5 72.5t73.5 29.5t72.5 -29.5t29.5 -72.5t-29.5 -73.5t-72.5 -30.5t-73.5 30.5t-30.5 73.5z" />
<glyph unicode="&#xfd;" horiz-adv-x="1134" d="M43 1087h166l264 -849q28 -90 107 -85q26 1 28 5l312 929h170l-480 -1431l-153 -209h-95l193 553q-177 0 -246 225zM496 1221l219 272h194l-272 -272h-141z" />
<glyph unicode="&#xfe;" horiz-adv-x="1134" d="M143 -553v2155h152v-637q54 40 180.5 90.5t218.5 50.5q81 0 144 -32t103 -84t65.5 -126t36 -151.5t10.5 -165.5q0 -76 -5 -138t-18 -130t-38.5 -119t-64 -93.5t-98 -64.5t-135.5 -22q-77 0 -192.5 21t-206.5 58v-612h-152zM295 182q48 -13 93 -22.5t91.5 -14.5t72.5 -7 t77.5 -4t64.5 -3q50 0 85.5 18.5t64 64t43 129.5t14.5 208q0 190 -55.5 296.5t-151.5 106.5q-159 -10 -399 -102v-670z" />
<glyph unicode="&#xff;" horiz-adv-x="1134" d="M43 1087h166l264 -849q28 -90 107 -85q26 1 28 5l312 929h170l-480 -1431l-153 -209h-95l193 553q-177 0 -246 225zM202 1325q0 43 30.5 72.5t73.5 29.5t73 -29.5t30 -72.5t-30 -73.5t-73 -30.5t-73.5 30.5t-30.5 73.5zM724 1325q0 43 30.5 72.5t73.5 29.5t73 -29.5 t30 -72.5t-30 -73.5t-73 -30.5t-73.5 30.5t-30.5 73.5z" />
<glyph unicode="&#x100;" horiz-adv-x="1372" d="M92 0l551 1499h152l526 -1499h-180l-129 418h-598l-135 -418h-187zM420 1632v129h598v-129h-598zM469 569h489l-241 699z" />
<glyph unicode="&#x101;" horiz-adv-x="1062" d="M82 258v125q0 124 73 198t199 74q455 -2 455 0q2 136 0 138q0 90 -43.5 129t-124.5 39q-169 0 -524 -25v111q204 58 530 61q137 2 225.5 -76.5t88.5 -238.5v-793h-113l-39 131l-30 -15q-30 -14 -79 -35t-106 -42.5t-122.5 -36t-117.5 -14.5q-117 0 -194.5 72t-77.5 198z M233 268q0 -129 121 -129q73 0 186.5 26.5t191.5 52.5l77 26v293l-455 -33q-62 -6 -91.5 -42.5t-29.5 -90.5v-103zM260 1231v129h598v-129h-598z" />
<glyph unicode="&#x102;" horiz-adv-x="1372" d="M92 0l551 1499h152l526 -1499h-180l-129 418h-598l-135 -418h-187zM469 569h489l-241 699zM483 1866h97q0 -58 42 -97.5t95 -39.5q60 0 100.5 37t40.5 100h96q0 -110 -72 -172t-165 -62q-91 0 -162.5 64.5t-71.5 169.5z" />
<glyph unicode="&#x103;" horiz-adv-x="1062" d="M82 258v125q0 124 73 198t199 74q455 -2 455 0q2 136 0 138q0 90 -43.5 129t-124.5 39q-169 0 -524 -25v111q204 58 530 61q137 2 225.5 -76.5t88.5 -238.5v-793h-113l-39 131l-30 -15q-30 -14 -79 -35t-106 -42.5t-122.5 -36t-117.5 -14.5q-117 0 -194.5 72t-77.5 198z M233 268q0 -129 121 -129q73 0 186.5 26.5t191.5 52.5l77 26v293l-455 -33q-62 -6 -91.5 -42.5t-29.5 -90.5v-103zM324 1464h96q0 -58 42 -97.5t95 -39.5q60 0 100.5 37t40.5 100h97q0 -110 -72.5 -171.5t-165.5 -61.5q-91 0 -162 64t-71 169z" />
<glyph unicode="&#x104;" horiz-adv-x="1372" d="M92 0l551 1499h152l526 -1499h-180l-129 418h-598l-135 -418h-187zM469 569h489l-241 699zM1030 -162q8 43 51 87t116 75h80q-83 -68 -110 -124.5t4 -89t112 -34.5v-123q-57 -8 -109 7t-87 45t-50 72t-7 85z" />
<glyph unicode="&#x105;" horiz-adv-x="1062" d="M82 258v125q0 124 73 198t199 74q455 -2 455 0q2 136 0 138q0 90 -43.5 129t-124.5 39q-169 0 -524 -25v111q204 58 530 61q137 2 225.5 -76.5t88.5 -238.5v-793h-113l-39 131l-30 -15q-30 -14 -79 -35t-106 -42.5t-122.5 -36t-117.5 -14.5q-117 0 -194.5 72t-77.5 198z M233 268q0 -129 121 -129q73 0 186.5 26.5t191.5 52.5l77 26v293l-455 -33q-62 -6 -91.5 -42.5t-29.5 -90.5v-103zM699 -162q8 43 51 87t116 75h80q-83 -68 -110 -124.5t4 -89t112 -34.5v-123q-57 -8 -109 7t-87 45t-50 72t-7 85z" />
<glyph unicode="&#x106;" horiz-adv-x="1183" d="M113 754q0 107 6 193.5t21.5 167t40.5 141t63.5 111t90 82.5t121 49.5t156.5 17.5q81 0 238 -16t262 -36v-121l-18 1q-18 1 -49 3t-71 4.5t-87 4.5t-93.5 4t-95 3t-86.5 1q-100 0 -163 -25.5t-106.5 -95t-61 -187.5t-17.5 -306q0 -611 348 -611q96 0 221 3.5t202 7.5 l77 4v-121q-100 -19 -255.5 -32t-244.5 -13q-499 0 -499 766zM603 1638l219 273h195l-273 -273h-141z" />
<glyph unicode="&#x107;" horiz-adv-x="1024" d="M102 545q0 139 18 239.5t47.5 160.5t77.5 95t98 46.5t118 11.5q77 0 216 -16.5t251 -37.5v-110q-285 12 -467 12q-31 0 -50.5 -2.5t-43.5 -11t-39 -25.5t-30.5 -46.5t-24 -73t-14 -106t-5.5 -144.5q0 -156 22 -242.5t65.5 -120t119.5 -33.5q84 0 204 5.5t199 11.5l78 6 v-115q-197 -56 -481 -59q-67 0 -116 11.5t-97.5 46.5t-78.5 95t-48.5 161.5t-18.5 240.5zM479 1225l219 272h195l-272 -272h-142z" />
<glyph unicode="&#x108;" horiz-adv-x="1183" d="M113 754q0 107 6 193.5t21.5 167t40.5 141t63.5 111t90 82.5t121 49.5t156.5 17.5q81 0 238 -16t262 -36v-121l-18 1q-18 1 -49 3t-71 4.5t-87 4.5t-93.5 4t-95 3t-86.5 1q-100 0 -163 -25.5t-106.5 -95t-61 -187.5t-17.5 -306q0 -611 348 -611q96 0 221 3.5t202 7.5 l77 4v-121q-100 -19 -255.5 -32t-244.5 -13q-499 0 -499 766zM375 1638l239 267h146l213 -267h-146l-145 146l-160 -146h-147z" />
<glyph unicode="&#x109;" horiz-adv-x="1024" d="M102 545q0 139 18 239.5t47.5 160.5t77.5 95t98 46.5t118 11.5q77 0 216 -16.5t251 -37.5v-110q-285 12 -467 12q-31 0 -50.5 -2.5t-43.5 -11t-39 -25.5t-30.5 -46.5t-24 -73t-14 -106t-5.5 -144.5q0 -156 22 -242.5t65.5 -120t119.5 -33.5q84 0 204 5.5t199 11.5l78 6 v-115q-197 -56 -481 -59q-67 0 -116 11.5t-97.5 46.5t-78.5 95t-48.5 161.5t-18.5 240.5zM281 1225l239 266h146l213 -266h-146l-145 145l-160 -145h-147z" />
<glyph unicode="&#x10a;" horiz-adv-x="1183" d="M113 754q0 107 6 193.5t21.5 167t40.5 141t63.5 111t90 82.5t121 49.5t156.5 17.5q81 0 238 -16t262 -36v-121l-18 1q-18 1 -49 3t-71 4.5t-87 4.5t-93.5 4t-95 3t-86.5 1q-100 0 -163 -25.5t-106.5 -95t-61 -187.5t-17.5 -306q0 -611 348 -611q96 0 221 3.5t202 7.5 l77 4v-121q-100 -19 -255.5 -32t-244.5 -13q-499 0 -499 766zM594 1690v110q0 51 49 51h102q23 0 35.5 -14.5t12.5 -36.5v-110q0 -23 -13 -35.5t-35 -12.5h-102q-22 0 -35.5 13t-13.5 35z" />
<glyph unicode="&#x10b;" horiz-adv-x="1024" d="M102 545q0 139 18 239.5t47.5 160.5t77.5 95t98 46.5t118 11.5q77 0 216 -16.5t251 -37.5v-110q-285 12 -467 12q-31 0 -50.5 -2.5t-43.5 -11t-39 -25.5t-30.5 -46.5t-24 -73t-14 -106t-5.5 -144.5q0 -156 22 -242.5t65.5 -120t119.5 -33.5q84 0 204 5.5t199 11.5l78 6 v-115q-197 -56 -481 -59q-67 0 -116 11.5t-97.5 46.5t-78.5 95t-48.5 161.5t-18.5 240.5zM502 1276v110q0 52 49 52h102q22 0 34.5 -14.5t12.5 -37.5v-110q0 -47 -47 -47h-102q-22 0 -35.5 12.5t-13.5 34.5z" />
<glyph unicode="&#x10c;" horiz-adv-x="1183" d="M113 754q0 107 6 193.5t21.5 167t40.5 141t63.5 111t90 82.5t121 49.5t156.5 17.5q81 0 238 -16t262 -36v-121l-18 1q-18 1 -49 3t-71 4.5t-87 4.5t-93.5 4t-95 3t-86.5 1q-100 0 -163 -25.5t-106.5 -95t-61 -187.5t-17.5 -306q0 -611 348 -611q96 0 221 3.5t202 7.5 l77 4v-121q-100 -19 -255.5 -32t-244.5 -13q-499 0 -499 766zM385 1905h147l164 -146l142 146h145l-213 -267h-145z" />
<glyph unicode="&#x10d;" horiz-adv-x="1024" d="M102 545q0 139 18 239.5t47.5 160.5t77.5 95t98 46.5t118 11.5q77 0 216 -16.5t251 -37.5v-110q-285 12 -467 12q-31 0 -50.5 -2.5t-43.5 -11t-39 -25.5t-30.5 -46.5t-24 -73t-14 -106t-5.5 -144.5q0 -156 22 -242.5t65.5 -120t119.5 -33.5q84 0 204 5.5t199 11.5l78 6 v-115q-197 -56 -481 -59q-67 0 -116 11.5t-97.5 46.5t-78.5 95t-48.5 161.5t-18.5 240.5zM250 1491h147l164 -145l141 145h146l-213 -266h-146z" />
<glyph unicode="&#x10e;" horiz-adv-x="1345" d="M164 0v1499h557q96 0 174.5 -26.5t132.5 -69.5t95.5 -105.5t65.5 -127.5t39 -143t20 -145t5 -139q0 -107 -17 -208.5t-57 -199.5t-99.5 -171.5t-152 -118.5t-206.5 -45h-557zM315 158h406q98 0 173 47t119.5 129t66.5 185.5t22 225.5q0 162 -25.5 278.5t-76 187.5 t-119.5 104t-160 33h-406v-1190zM352 1888h148l164 -145l141 145h145l-213 -266h-145z" />
<glyph unicode="&#x10f;" horiz-adv-x="1134" d="M102 539q0 93 7.5 167t30.5 151.5t61 129t104.5 84.5t155.5 33q76 0 192.5 -22.5t208.5 -59.5v586h150v-1608h-109l-41 121q-51 -37 -179.5 -85t-221.5 -48q-86 0 -151 34t-104 87.5t-63 128.5t-32.5 147t-8.5 154zM254 539q0 -198 53 -299t154 -101q76 0 154 15.5 t127 32.5t120 46v666q-110 29 -198 41t-203 12q-41 0 -72 -11t-57.5 -38.5t-43 -74t-25.5 -118.5t-9 -171zM1108 1597h154v-137l-23 -274h-109l-20 274z" />
<glyph unicode="&#x110;" horiz-adv-x="1345" d="M31 709v110h133v678q0 2 559 2q96 0 174.5 -26.5t132.5 -69.5t95 -105.5t65 -127.5t38.5 -143.5t19.5 -144.5t5 -139q0 -88 -12 -173.5t-37 -170t-68 -155.5t-99.5 -126.5t-137 -86.5t-176.5 -31h-559v709h-133zM315 158h408q98 0 171.5 46.5t116.5 129.5t64 186t21 225 q0 308 -98.5 450t-274.5 142l-408 -2v-516h285v-110h-285v-551z" />
<glyph unicode="&#x111;" horiz-adv-x="1134" d="M102 539q0 93 7.5 167t30.5 151.5t61 129t104.5 84.5t155.5 33q76 0 192.5 -22.5t208.5 -59.5v240h-250v110h250v236h150v-236h147v-110h-147v-1262h-109l-41 121q-51 -37 -179.5 -85t-221.5 -48q-86 0 -151 34t-104 87.5t-63 128.5t-32.5 147t-8.5 154zM254 539 q0 -198 53 -299t154 -101q76 0 154 15.5t127 32.5t120 46v666q-110 29 -198 41t-203 12q-41 0 -72 -11t-57.5 -38.5t-43 -74t-25.5 -118.5t-9 -171z" />
<glyph unicode="&#x112;" horiz-adv-x="1161" d="M164 252v981q0 73 20.5 127t57 84t82 43.5t98.5 11.5l647 -33v-118h-647q-38 0 -61 -9t-32.5 -29t-11.5 -35t-2 -42v-410l672 -20v-121l-672 -20v-410q0 -26 5 -45.5t16 -31t20 -18t27.5 -9t28 -3t30.5 -0.5h627v-116l-627 -35q-44 -3 -81 1t-75 20t-63.5 44t-42 77 t-16.5 116zM354 1628v129h598v-129h-598z" />
<glyph unicode="&#x113;" horiz-adv-x="1075" d="M102 549q0 104 9 183t26 137.5t47 98.5t65 65.5t88.5 39t108 18.5t132.5 5q63 0 104.5 -2.5t89 -11t78 -24.5t60.5 -44.5t46.5 -69t26.5 -99t10 -134.5q0 -250 -280 -250h-459q0 -130 19 -198t62 -95t126 -27h55h57h51.5t54.5 0.5t49.5 1.5t53 2t47.5 2.5t50.5 3.5 t45.5 5t48 6v-115q-201 -57 -512 -57q-85 0 -144 17.5t-101.5 56t-67 105t-35.5 158t-11 222.5zM254 610h459q67 0 98 25t31 76q0 56 -3.5 92t-16 63.5t-28 41.5t-49 23t-69 11t-96.5 2q-62 0 -92 -1t-73 -7t-61.5 -19t-43 -36t-33.5 -59.5t-16 -88.5t-7 -123zM264 1219v129 h598v-129h-598z" />
<glyph unicode="&#x116;" horiz-adv-x="1161" d="M164 252v981q0 73 20.5 127t57 84t82 43.5t98.5 11.5l647 -33v-118h-647q-38 0 -61 -9t-32.5 -29t-11.5 -35t-2 -42v-410l672 -20v-121l-672 -20v-410q0 -26 5 -45.5t16 -31t20 -18t27.5 -9t28 -3t30.5 -0.5h627v-116l-627 -35q-44 -3 -81 1t-75 20t-63.5 44t-42 77 t-16.5 116zM557 1673v111q0 51 49 51h103q23 0 35 -14t12 -37v-111q0 -47 -47 -47h-103q-22 0 -35.5 12.5t-13.5 34.5z" />
<glyph unicode="&#x117;" horiz-adv-x="1075" d="M102 549q0 104 9 183t26 137.5t47 98.5t65 65.5t88.5 39t108 18.5t132.5 5q63 0 104.5 -2.5t89 -11t78 -24.5t60.5 -44.5t46.5 -69t26.5 -99t10 -134.5q0 -250 -280 -250h-459q0 -130 19 -198t62 -95t126 -27h55h57h51.5t54.5 0.5t49.5 1.5t53 2t47.5 2.5t50.5 3.5 t45.5 5t48 6v-115q-201 -57 -512 -57q-85 0 -144 17.5t-101.5 56t-67 105t-35.5 158t-11 222.5zM254 610h459q67 0 98 25t31 76q0 56 -3.5 92t-16 63.5t-28 41.5t-49 23t-69 11t-96.5 2q-62 0 -92 -1t-73 -7t-61.5 -19t-43 -36t-33.5 -59.5t-16 -88.5t-7 -123zM460 1268v110 q0 52 49 52h102q22 0 34.5 -14.5t12.5 -37.5v-110q0 -47 -47 -47h-102q-22 0 -35.5 12.5t-13.5 34.5z" />
<glyph unicode="&#x118;" horiz-adv-x="1161" d="M164 252v981q0 73 20.5 127t57 84t82 43.5t98.5 11.5l647 -33v-118h-647q-38 0 -61 -9t-32.5 -29t-11.5 -35t-2 -42v-410l672 -20v-121l-672 -20v-410q0 -26 5 -45.5t16 -31t20 -18t27.5 -9t28 -3t30.5 -0.5h627v-116l-627 -35q-44 -3 -81 1t-75 20t-63.5 44t-42 77 t-16.5 116zM822 -134q8 43 51 87t116 75h80q-83 -68 -110 -124.5t4 -89t112 -34.5v-123q-57 -8 -109 7t-87 45t-50 72t-7 85z" />
<glyph unicode="&#x119;" horiz-adv-x="1075" d="M102 549q0 104 9 183t26 137.5t47 98.5t65 65.5t88.5 39t108 18.5t132.5 5q63 0 104.5 -2.5t89 -11t78 -24.5t60.5 -44.5t46.5 -69t26.5 -99t10 -134.5q0 -250 -280 -250h-459q0 -130 19 -198t62 -95t126 -27h55h57h51.5t54.5 0.5t49.5 1.5t53 2t47.5 2.5t50.5 3.5 t45.5 5t48 6v-115q-201 -57 -512 -57q-85 0 -144 17.5t-101.5 56t-67 105t-35.5 158t-11 222.5zM254 610h459q67 0 98 25t31 76q0 56 -3.5 92t-16 63.5t-28 41.5t-49 23t-69 11t-96.5 2q-62 0 -92 -1t-73 -7t-61.5 -19t-43 -36t-33.5 -59.5t-16 -88.5t-7 -123zM726 -115 q8 43 51 87t116 75h80q-83 -68 -110 -124.5t4 -89t112 -34.5v-123q-57 -8 -109 7t-87 45t-50 72t-7 85z" />
<glyph unicode="&#x11a;" horiz-adv-x="1161" d="M164 252v981q0 73 20.5 127t57 84t82 43.5t98.5 11.5l647 -33v-118h-647q-38 0 -61 -9t-32.5 -29t-11.5 -35t-2 -42v-410l672 -20v-121l-672 -20v-410q0 -26 5 -45.5t16 -31t20 -18t27.5 -9t28 -3t30.5 -0.5h627v-116l-627 -35q-44 -3 -81 1t-75 20t-63.5 44t-42 77 t-16.5 116zM346 1888h148l163 -145l142 145h145l-213 -266h-145z" />
<glyph unicode="&#x11b;" horiz-adv-x="1075" d="M102 549q0 104 9 183t26 137.5t47 98.5t65 65.5t88.5 39t108 18.5t132.5 5q63 0 104.5 -2.5t89 -11t78 -24.5t60.5 -44.5t46.5 -69t26.5 -99t10 -134.5q0 -250 -280 -250h-459q0 -130 19 -198t62 -95t126 -27h55h57h51.5t54.5 0.5t49.5 1.5t53 2t47.5 2.5t50.5 3.5 t45.5 5t48 6v-115q-201 -57 -512 -57q-85 0 -144 17.5t-101.5 56t-67 105t-35.5 158t-11 222.5zM254 610h459q67 0 98 25t31 76q0 56 -3.5 92t-16 63.5t-28 41.5t-49 23t-69 11t-96.5 2q-62 0 -92 -1t-73 -7t-61.5 -19t-43 -36t-33.5 -59.5t-16 -88.5t-7 -123zM266 1477h148 l164 -146l141 146h145l-213 -267h-145z" />
<glyph unicode="&#x11c;" horiz-adv-x="1257" d="M113 758q0 94 5 171.5t18.5 157.5t36 142t59.5 117.5t86.5 91.5t118.5 57t155 21q80 0 246.5 -18t273.5 -38v-121q-2 0 -38 2.5t-92.5 6.5t-121.5 7.5t-138 6t-130 2.5q-81 0 -138 -24.5t-94 -70t-58.5 -122.5t-29.5 -169.5t-8 -223.5q0 -231 32 -362.5t104 -191 t200 -61.5q69 -1 167.5 22.5t162.5 47.5l63 24v410h-344v102q185 52 357 52q66 0 139 -6v-791h-115l-33 100q-200 -110 -397 -110q-89 -1 -160.5 19t-122 55t-87.5 90.5t-59 117t-35.5 144.5t-18 162t-4.5 180zM389 1638l240 267h145l213 -267h-145l-146 146l-159 -146h-148 z" />
<glyph unicode="&#x11d;" horiz-adv-x="1134" d="M92 -63l82 133q-76 55 -76 166q0 58 31.5 108.5t89.5 61.5q-62 39 -90.5 122t-28.5 177q0 191 93.5 289t261.5 98h639v-115l-166 -37q2 -3 15 -25t18 -34.5t14 -39t12.5 -60t3.5 -76.5q0 -44 -7 -89.5t-29 -103.5t-57 -102t-98.5 -74.5t-146.5 -30.5h-319q-84 0 -84 -61 q0 -70 84 -70h436q125 0 194.5 -76.5t69.5 -206.5v-129q0 -43 -6 -81t-25.5 -82.5t-51.5 -76.5t-89.5 -53.5t-134.5 -21.5h-307q-150 0 -239 80t-89 235v175zM244 39v-277q0 -53 16.5 -88t46 -50t55 -20t58.5 -5h307q86 0 121 42.5t35 120.5v119q0 77 -28 109.5t-112 32.5 h-407q-28 0 -51 4t-32 8zM252 705q0 -43 7.5 -82t26.5 -78.5t58.5 -63.5t95.5 -24h201q47 0 84 17t58.5 42.5t35 59.5t18 66t3.5 63q-2 58 -11 97.5t-30.5 72.5t-61 49t-98.5 16h-184q-203 0 -203 -235zM264 1223l240 266h145l213 -266h-145l-146 145l-159 -145h-148z" />
<glyph unicode="&#x11e;" horiz-adv-x="1257" d="M113 758q0 94 5 171.5t18.5 157.5t36 142t59.5 117.5t86.5 91.5t118.5 57t155 21q80 0 246.5 -18t273.5 -38v-121q-2 0 -38 2.5t-92.5 6.5t-121.5 7.5t-138 6t-130 2.5q-81 0 -138 -24.5t-94 -70t-58.5 -122.5t-29.5 -169.5t-8 -223.5q0 -231 32 -362.5t104 -191 t200 -61.5q69 -1 167.5 22.5t162.5 47.5l63 24v410h-344v102q185 52 357 52q66 0 139 -6v-791h-115l-33 100q-200 -110 -397 -110q-89 -1 -160.5 19t-122 55t-87.5 90.5t-59 117t-35.5 144.5t-18 162t-4.5 180zM453 1872h96q0 -58 42 -97.5t95 -39.5q60 0 100.5 37t40.5 100 h97q0 -110 -72.5 -172t-165.5 -62q-91 0 -162 64.5t-71 169.5z" />
<glyph unicode="&#x11f;" horiz-adv-x="1134" d="M92 -63l82 133q-76 55 -76 166q0 58 31.5 108.5t89.5 61.5q-62 39 -90.5 122t-28.5 177q0 191 93.5 289t261.5 98h639v-115l-166 -37q2 -3 15 -25t18 -34.5t14 -39t12.5 -60t3.5 -76.5q0 -44 -7 -89.5t-29 -103.5t-57 -102t-98.5 -74.5t-146.5 -30.5h-319q-84 0 -84 -61 q0 -70 84 -70h436q125 0 194.5 -76.5t69.5 -206.5v-129q0 -43 -6 -81t-25.5 -82.5t-51.5 -76.5t-89.5 -53.5t-134.5 -21.5h-307q-150 0 -239 80t-89 235v175zM244 39v-277q0 -53 16.5 -88t46 -50t55 -20t58.5 -5h307q86 0 121 42.5t35 120.5v119q0 77 -28 109.5t-112 32.5 h-407q-28 0 -51 4t-32 8zM252 705q0 -43 7.5 -82t26.5 -78.5t58.5 -63.5t95.5 -24h201q47 0 84 17t58.5 42.5t35 59.5t18 66t3.5 63q-2 58 -11 97.5t-30.5 72.5t-61 49t-98.5 16h-184q-203 0 -203 -235zM326 1456h96q0 -58 42 -97.5t95 -39.5q60 0 100.5 37t40.5 100h97 q0 -110 -72.5 -171.5t-165.5 -61.5q-91 0 -162 64t-71 169z" />
<glyph unicode="&#x120;" horiz-adv-x="1257" d="M113 758q0 94 5 171.5t18.5 157.5t36 142t59.5 117.5t86.5 91.5t118.5 57t155 21q80 0 246.5 -18t273.5 -38v-121q-2 0 -38 2.5t-92.5 6.5t-121.5 7.5t-138 6t-130 2.5q-81 0 -138 -24.5t-94 -70t-58.5 -122.5t-29.5 -169.5t-8 -223.5q0 -231 32 -362.5t104 -191 t200 -61.5q69 -1 167.5 22.5t162.5 47.5l63 24v410h-344v102q185 52 357 52q66 0 139 -6v-791h-115l-33 100q-200 -110 -397 -110q-89 -1 -160.5 19t-122 55t-87.5 90.5t-59 117t-35.5 144.5t-18 162t-4.5 180zM571 1686v110q0 51 50 51h102q23 0 35 -14t12 -37v-110 q0 -48 -47 -48h-102q-22 0 -36 13t-14 35z" />
<glyph unicode="&#x121;" horiz-adv-x="1134" d="M92 -63l82 133q-76 55 -76 166q0 58 31.5 108.5t89.5 61.5q-62 39 -90.5 122t-28.5 177q0 191 93.5 289t261.5 98h639v-115l-166 -37q2 -3 15 -25t18 -34.5t14 -39t12.5 -60t3.5 -76.5q0 -44 -7 -89.5t-29 -103.5t-57 -102t-98.5 -74.5t-146.5 -30.5h-319q-84 0 -84 -61 q0 -70 84 -70h436q125 0 194.5 -76.5t69.5 -206.5v-129q0 -43 -6 -81t-25.5 -82.5t-51.5 -76.5t-89.5 -53.5t-134.5 -21.5h-307q-150 0 -239 80t-89 235v175zM244 39v-277q0 -53 16.5 -88t46 -50t55 -20t58.5 -5h307q86 0 121 42.5t35 120.5v119q0 77 -28 109.5t-112 32.5 h-407q-28 0 -51 4t-32 8zM252 705q0 -43 7.5 -82t26.5 -78.5t58.5 -63.5t95.5 -24h201q47 0 84 17t58.5 42.5t35 59.5t18 66t3.5 63q-2 58 -11 97.5t-30.5 72.5t-61 49t-98.5 16h-184q-203 0 -203 -235zM469 1274v110q0 52 49 52h103q22 0 34.5 -14.5t12.5 -37.5v-110 q0 -47 -47 -47h-103q-22 0 -35.5 12.5t-13.5 34.5z" />
<glyph unicode="&#x122;" horiz-adv-x="1257" d="M113 758q0 94 5 171.5t18.5 157.5t36 142t59.5 117.5t86.5 91.5t118.5 57t155 21q80 0 246.5 -18t273.5 -38v-121q-2 0 -38 2.5t-92.5 6.5t-121.5 7.5t-138 6t-130 2.5q-81 0 -138 -24.5t-94 -70t-58.5 -122.5t-29.5 -169.5t-8 -223.5q0 -231 32 -362.5t104 -191 t200 -61.5q69 -1 167.5 22.5t162.5 47.5l63 24v410h-344v102q185 52 357 52q66 0 139 -6v-791h-115l-33 100q-200 -110 -397 -110q-89 -1 -160.5 19t-122 55t-87.5 90.5t-59 117t-35.5 144.5t-18 162t-4.5 180zM566 -203q0 50 46 50h94q45 0 45 -50v-165q0 -49 -18 -81.5 t-44 -44.5t-52 -16.5t-44 -1.5l-18 2v59q58 -2 58 57v46h-21q-20 0 -33 12t-13 34v99z" />
<glyph unicode="&#x123;" horiz-adv-x="1134" d="M92 -63l82 133q-76 55 -76 163q0 58 31.5 110t89.5 63q-62 39 -90.5 122t-28.5 177q0 191 93.5 289t261.5 98h639v-115l-166 -37q2 -3 15 -25t18 -34.5t14 -39t12.5 -60t3.5 -76.5q0 -44 -7 -89.5t-29 -103.5t-57 -102t-98.5 -74.5t-146.5 -30.5h-319q-32 0 -58 -15 t-26 -50q0 -36 21.5 -50.5t62.5 -19.5l403 -51q135 -18 216 -94t81 -195v-68q0 -43 -6 -81t-25.5 -82.5t-51.5 -76.5t-89.5 -53.5t-134.5 -21.5h-307q-150 0 -239 80t-89 235v175zM244 39v-277q0 -53 16.5 -88t46 -50t55 -20t58.5 -5h307q86 0 121 42.5t35 120.5v58 q0 131 -181 155l-346 45zM252 705q0 -43 7.5 -82t26.5 -78.5t58.5 -63.5t95.5 -24h201q47 0 84 17t58.5 42.5t35 59.5t18 66t3.5 63q-2 58 -11 97.5t-30.5 72.5t-61 49t-98.5 16h-184q-203 0 -203 -235zM467 1264v166q0 36 9.5 63t25 42t34 24.5t37.5 12t34.5 3t24.5 -0.5 l10 -2v-59q-19 1 -31.5 -4.5t-17.5 -16t-6.5 -18.5t-1.5 -18v-46h20q20 0 33 -12t13 -34v-100q0 -50 -46 -50h-94q-44 0 -44 50z" />
<glyph unicode="&#x124;" horiz-adv-x="1306" d="M164 0v1499h151v-698h717v698h152v-1499h-152v649h-717v-649h-151zM375 1632l239 266h146l213 -266h-146l-145 146l-160 -146h-147z" />
<glyph unicode="&#x125;" d="M-104 1729l239 266h146l213 -266h-146l-145 145l-160 -145h-147zM123 0v1606h151v-645q5 3 40 23.5t43 24.5t39 21t43.5 21.5t41 17t46.5 16.5t44.5 10.5t52 8.5t52.5 2q155 0 245.5 -102.5t90.5 -245.5v-758h-152v758q0 97 -50.5 146.5t-133.5 49.5q-79 0 -147 -15.5 t-112 -34t-143 -66.5v-838h-151z" />
<glyph unicode="&#x126;" horiz-adv-x="1347" d="M39 1057v110h125v332h151v-332h717v332h152v-332h121v-110h-121v-1057h-152v649h-717v-649h-151v1057h-125zM315 801h717v256h-717v-256z" />
<glyph unicode="&#x127;" d="M-35 1249v111h158v246h158v-246h274v-111h-274v-288q256 147 413 145q101 4 175 -45.5t108.5 -127.5t34.5 -171v-762h-158v756q-5 98 -49 150t-146 52q-145 -8 -378 -120v-838h-158v1249h-158z" />
<glyph unicode="&#x128;" horiz-adv-x="438" d="M-106 1716q55 45 83 66.5t73.5 43t84.5 21.5q56 -3 125.5 -36.5t93.5 -34.5q23 -1 59.5 12.5t56.5 23.5t71 37l45 -86q-12 -9 -41 -32.5t-47.5 -37t-45.5 -30t-52 -23.5t-50 -6q-49 3 -88.5 21t-70 34t-60.5 15q-40 -1 -69.5 -12t-64 -30.5t-60.5 -29.5zM164 0v1499h151 v-1499h-151z" />
<glyph unicode="&#x129;" horiz-adv-x="397" d="M-147 1305q55 45 83 66.5t73.5 43t84.5 21.5q56 -3 125.5 -37t93.5 -35q8 0 16.5 1t19.5 4t19 5.5t22 8.5t20.5 9t23 11t21.5 11t23 12.5t22 11.5l45 -86q-12 -9 -41 -32.5t-47.5 -37t-45.5 -30t-52 -23.5t-50 -6q-49 3 -88.5 20.5t-70 33.5t-60.5 15q-40 -1 -69.5 -11.5 t-64 -30t-60.5 -29.5zM123 0v1087h151v-1087h-151z" />
<glyph unicode="&#x12a;" horiz-adv-x="438" d="M-59 1632v129h598v-129h-598zM164 0v1499h151v-1499h-151z" />
<glyph unicode="&#x12b;" horiz-adv-x="397" d="M-100 1221v129h598v-129h-598zM123 0v1087h151v-1087h-151z" />
<glyph unicode="&#x12e;" horiz-adv-x="438" d="M38 -162q8 43 51 87t116 75h80q-83 -68 -110 -124.5t4 -89t112 -34.5v-123q-57 -8 -109 7t-87 45t-50 72t-7 85zM164 0v1499h151v-1499h-151z" />
<glyph unicode="&#x12f;" horiz-adv-x="403" d="M1 -162q8 43 51 87t116 75h80q-83 -68 -110 -124.5t4 -89t112 -34.5v-123q-57 -8 -109 7t-87 45t-50 72t-7 85zM102 1264v110q0 51 50 51h102q23 0 35 -14t12 -37v-110q0 -47 -47 -47h-102q-22 0 -36 13t-14 34zM123 0v1087h151v-1087h-151z" />
<glyph unicode="&#x130;" horiz-adv-x="438" d="M140 1679v111q0 51 49 51h103q23 0 35 -14t12 -37v-111q0 -47 -47 -47h-103q-22 0 -35.5 12.5t-13.5 34.5zM164 0v1499h151v-1499h-151z" />
<glyph unicode="&#x131;" horiz-adv-x="397" d="M123 0v1087h151v-1087h-151z" />
<glyph unicode="&#x134;" horiz-adv-x="735" d="M72 43l8 111q136 -33 195 -33q165 -1 184 172q2 21 2 45v1161h151v-1161q0 -47 -2.5 -80.5t-12 -79.5t-32.5 -82t-59 -59q-83 -52 -218.5 -49.5t-215.5 55.5zM238 1632l239 266h146l213 -266h-146l-145 146l-160 -146h-147z" />
<glyph unicode="&#x135;" horiz-adv-x="444" d="M-82 1227l240 327h145l213 -327h-123l-168 186l-180 -186h-127zM141 -553v1640h162v-1095q4 -309 -53 -545h-109zM303 1554z" />
<glyph unicode="&#x136;" horiz-adv-x="1210" d="M164 0v1499h151v-672h168l471 672h185l-516 -747l516 -752h-185l-471 676h-166v-676h-153zM536 -192q0 49 46 49h94q44 0 44 -49v-166q0 -49 -18 -81.5t-44 -44.5t-51.5 -16.5t-43.5 -1.5l-18 2v59q19 -1 31.5 4.5t17.5 16t6.5 18.5t1.5 18v46h-20q-20 0 -33 12t-13 34 v100z" />
<glyph unicode="&#x137;" horiz-adv-x="1024" d="M123 0v1602h151v-902h82l416 387h211l-483 -462l483 -625h-188l-439 549h-82v-549h-151zM439 -192q0 49 46 49h94q45 0 45 -49v-166q0 -49 -18 -81.5t-44 -44.5t-51.5 -16.5t-43.5 -1.5l-18 2v59q19 -1 31.5 4.5t17.5 16t6.5 18.5t1.5 18v46h-21q-20 0 -33 12t-13 34v100 z" />
<glyph unicode="&#x138;" horiz-adv-x="1060" d="M123 0v1087h151v-473h172l385 473h189l-436 -546l407 -541h-190l-361 463h-164l-2 -463h-151z" />
<glyph unicode="&#x139;" horiz-adv-x="1140" d="M164 258v1241h151v-1241q0 -31 8.5 -52.5t18 -32t31 -15.5t32.5 -5.5t37 -0.5h627v-152h-627q-46 0 -81 4.5t-74.5 20t-64.5 42.5t-41.5 75.5t-16.5 115.5zM169 1632l219 273h195l-273 -273h-141z" />
<glyph unicode="&#x13a;" horiz-adv-x="614" d="M123 387v1217h151v-1217q0 -124 29 -173t88 -62q168 -43 182 -43v-109h-180q-270 0 -270 387zM193 1726l219 273h194l-272 -273h-141z" />
<glyph unicode="&#x13b;" horiz-adv-x="1140" d="M164 258v1241h151v-1241q0 -31 8.5 -52.5t18 -32t31 -15.5t32.5 -5.5t37 -0.5h627v-152h-627q-46 0 -81 4.5t-74.5 20t-64.5 42.5t-41.5 75.5t-16.5 115.5zM542 -192q0 49 46 49h94q44 0 44 -49v-166q0 -49 -18 -81.5t-44 -44.5t-51.5 -16.5t-43.5 -1.5l-18 2v59 q19 -1 31.5 4.5t17.5 16t6.5 18.5t1.5 18v46h-20q-20 0 -33 12t-13 34v100z" />
<glyph unicode="&#x13c;" horiz-adv-x="614" d="M123 387v1217h151v-1217q0 -124 29 -173t88 -62q168 -43 182 -43v-109h-180q-270 0 -270 387zM253 -192q0 49 46 49h94q44 0 44 -49v-166q0 -36 -9.5 -63t-25 -42t-34 -24.5t-37.5 -12t-34.5 -3t-24.5 0.5l-10 2v59q19 -1 31.5 4.5t17.5 16t6.5 18.5t1.5 18v46h-20 q-20 0 -33 12t-13 34v100z" />
<glyph unicode="&#x13d;" horiz-adv-x="1140" d="M164 258v1241h151v-1241q0 -31 8.5 -52.5t18 -32t31 -15.5t32.5 -5.5t37 -0.5h627v-152h-627q-46 0 -81 4.5t-74.5 20t-64.5 42.5t-41.5 75.5t-16.5 115.5zM473 1444v137h152v-137l-21 -275h-108z" />
<glyph unicode="&#x13e;" horiz-adv-x="614" d="M123 387v1217h151v-1217q0 -89 12 -135.5t34.5 -66t70.5 -33.5q168 -43 182 -43v-109h-180q-146 0 -208 86.5t-62 300.5zM430 1462v137h152v-137l-21 -274h-108z" />
<glyph unicode="&#x141;" horiz-adv-x="1138" d="M-6 655v125l170 74v645h151v-579l287 122l-2 -122l-285 -125v-537q0 -31 8.5 -52.5t18 -32t31 -15.5t32.5 -5.5t37 -0.5h627v-152h-627q-46 0 -81 4.5t-74.5 20t-64.5 42.5t-41.5 75.5t-16.5 115.5v471z" />
<glyph unicode="&#x142;" horiz-adv-x="675" d="M20 756v125l164 69v654h152v-588l293 127l-2 -123l-291 -127v-506q0 -124 29 -173t88 -62q168 -43 182 -43v-109h-180q-271 0 -271 387v440z" />
<glyph unicode="&#x143;" horiz-adv-x="1392" d="M164 0v1499h155l799 -1216v1216h152v-1499h-152l-801 1217v-1217h-153zM667 1632l219 273h194l-272 -273h-141z" />
<glyph unicode="&#x144;" d="M123 0v1087h106l45 -126q5 3 40 23.5t43 24.5t39 21t43.5 21.5t41 17t46.5 16.5t44.5 10.5t52 8.5t52.5 2q155 0 245.5 -102.5t90.5 -245.5v-758h-152v758q0 97 -51 146.5t-133 49.5q-79 0 -147 -15.5t-112 -34t-143 -66.5v-838h-151zM489 1229l220 272h194l-272 -272 h-142z" />
<glyph unicode="&#x145;" horiz-adv-x="1392" d="M164 0v1499h155l799 -1216v1216h152v-1499h-152l-801 1217v-1217h-153zM624 -192q0 49 46 49h94q44 0 44 -49v-166q0 -49 -18 -81.5t-44 -44.5t-51.5 -16.5t-43.5 -1.5l-18 2v59q19 -1 31.5 4.5t17.5 16t6.5 18.5t1.5 18v46h-20q-20 0 -33 12t-13 34v100z" />
<glyph unicode="&#x146;" d="M123 0v1087h106l45 -126q5 3 40 23.5t43 24.5t39 21t43.5 21.5t41 17t46.5 16.5t44.5 10.5t52 8.5t52.5 2q155 0 245.5 -102.5t90.5 -245.5v-758h-152v758q0 97 -51 146.5t-133 49.5q-79 0 -147 -15.5t-112 -34t-143 -66.5v-838h-151zM478 -192q0 49 46 49h94 q45 0 45 -49v-166q0 -49 -18 -81.5t-44 -44.5t-52 -16.5t-44 -1.5l-18 2v59q58 -2 58 57v46h-21q-20 0 -33 12t-13 34v100z" />
<glyph unicode="&#x147;" horiz-adv-x="1392" d="M164 0v1499h155l799 -1216v1216h152v-1499h-152l-801 1217v-1217h-153zM438 1898h148l164 -145l141 145h145l-213 -266h-145z" />
<glyph unicode="&#x148;" d="M123 0v1087h106l45 -126q5 3 40 23.5t43 24.5t39 21t43.5 21.5t41 17t46.5 16.5t44.5 10.5t52 8.5t52.5 2q155 0 245.5 -102.5t90.5 -245.5v-758h-152v758q0 97 -51 146.5t-133 49.5q-79 0 -147 -15.5t-112 -34t-143 -66.5v-838h-151zM291 1495h147l164 -145l141 145h146 l-213 -266h-146z" />
<glyph unicode="&#x14a;" horiz-adv-x="1388" d="M164 0v1499h155l795 -1196v1196h152v-1499v-172q0 -91 -23.5 -156t-60.5 -103t-97 -60t-118.5 -28.5t-139.5 -6.5v116q19 5 61.5 14t67 15.5t58.5 24.5t53 42t33 68t14 103v143l-795 1217l-4 -1217h-151z" />
<glyph unicode="&#x14b;" horiz-adv-x="1134" d="M123 0v1087h106l45 -126q5 3 40 23.5t43 24.5t39 21t43.5 21.5t41 17t46.5 16.5t44.5 10.5t52 8.5t52.5 2q155 0 245.5 -102.5t90.5 -245.5v-758l-2 -184q-4 -77 -27 -137t-53 -95t-75 -62t-81 -40t-83 -27q-4 -1 -5.5 -1.5t-4.5 -1t-5 -1.5l-62 78q9 5 39 20.5 t46.5 25.5t44.5 28.5t44.5 37t34.5 43.5t27 56t10 67v193v758q0 97 -51 146.5t-133 49.5q-79 0 -147 -15.5t-112 -34t-143 -66.5v-838h-151z" />
<glyph unicode="&#x14c;" horiz-adv-x="1384" d="M133 739q0 116 9 211.5t24.5 169t41.5 131t54.5 98.5t69 70t79.5 46.5t92 27.5t101 13t111 3q65 0 113.5 -3t101.5 -13t92 -27.5t79 -46.5t67.5 -70t52.5 -98.5t39.5 -131t23 -169t8.5 -211.5q0 -110 -8 -200t-22 -161t-38 -126.5t-51 -96t-65.5 -69.5t-78.5 -47.5 t-93 -28.5t-104 -14t-117 -4q-67 0 -117.5 3t-104.5 12.5t-93 26.5t-79 45t-67 68t-51.5 95.5t-39 127t-22.5 164t-8 205.5zM285 739q0 -133 8.5 -227t31.5 -161.5t53 -107t82 -62.5t110 -30.5t145 -7.5q85 0 143 8.5t109 33t81.5 65.5t52.5 108t31 159.5t9 221.5 q0 91 -4 166t-14.5 133.5t-20.5 104t-31 79t-37.5 56.5t-48.5 38t-54.5 23.5t-64.5 12.5t-70.5 5t-80.5 1q-57 0 -87.5 -1t-76 -6.5t-69.5 -17t-57.5 -32.5t-50.5 -52t-37.5 -77.5t-29.5 -107.5t-15.5 -142.5t-6.5 -182.5zM416 1632v129h598v-129h-598z" />
<glyph unicode="&#x14d;" horiz-adv-x="1163" d="M102 528q0 135 16 230t50 162t92 105.5t135 55.5t187 17q140 0 230 -27.5t146.5 -96t79.5 -174.5t23 -272q0 -155 -23 -255t-79.5 -164.5t-146.5 -91.5t-230 -27q-139 0 -230 28.5t-147.5 95t-79.5 165.5t-23 249zM254 528q0 -60 4.5 -108.5t12 -86t21.5 -66.5t29 -49.5 t38 -34.5t44 -22t52.5 -12.5t59 -6t67.5 -1.5q62 0 101.5 4t81 17t65 38.5t43.5 68t28 106.5t8 153q0 73 -4 129.5t-14 100t-22 74t-34 51.5t-44 33.5t-57.5 19t-68.5 8.5t-83 2q-48 0 -80 -2t-67.5 -8.5t-57.5 -18.5t-44.5 -33t-35.5 -52t-23.5 -74t-15 -100t-4.5 -130z M283 1221v129h598v-129h-598z" />
<glyph unicode="&#x150;" horiz-adv-x="1384" d="M133 739q0 116 9 211.5t24.5 169t41.5 131t54.5 98.5t69 70t79.5 46.5t92 27.5t101 13t111 3q65 0 113.5 -3t101.5 -13t92 -27.5t79 -46.5t67.5 -70t52.5 -98.5t39.5 -131t23 -169t8.5 -211.5q0 -110 -8 -200t-22 -161t-38 -126.5t-51 -96t-65.5 -69.5t-78.5 -47.5 t-93 -28.5t-104 -14t-117 -4q-67 0 -117.5 3t-104.5 12.5t-93 26.5t-79 45t-67 68t-51.5 95.5t-39 127t-22.5 164t-8 205.5zM285 739q0 -133 8.5 -227t31.5 -161.5t53 -107t82 -62.5t110 -30.5t145 -7.5q85 0 143 8.5t109 33t81.5 65.5t52.5 108t31 159.5t9 221.5 q0 91 -4 166t-14.5 133.5t-20.5 104t-31 79t-37.5 56.5t-48.5 38t-54.5 23.5t-64.5 12.5t-70.5 5t-80.5 1q-57 0 -87.5 -1t-76 -6.5t-69.5 -17t-57.5 -32.5t-50.5 -52t-37.5 -77.5t-29.5 -107.5t-15.5 -142.5t-6.5 -182.5zM506 1632l219 273h195l-273 -273h-141zM782 1632 l219 273h195l-272 -273h-142z" />
<glyph unicode="&#x151;" horiz-adv-x="1163" d="M102 528q0 135 16 230t50 162t92 105.5t135 55.5t187 17q140 0 230 -27.5t146.5 -96t79.5 -174.5t23 -272q0 -155 -23 -255t-79.5 -164.5t-146.5 -91.5t-230 -27q-139 0 -230 28.5t-147.5 95t-79.5 165.5t-23 249zM254 528q0 -60 4.5 -108.5t12 -86t21.5 -66.5t29 -49.5 t38 -34.5t44 -22t52.5 -12.5t59 -6t67.5 -1.5q62 0 101.5 4t81 17t65 38.5t43.5 68t28 106.5t8 153q0 73 -4 129.5t-14 100t-22 74t-34 51.5t-44 33.5t-57.5 19t-68.5 8.5t-83 2q-48 0 -80 -2t-67.5 -8.5t-57.5 -18.5t-44.5 -33t-35.5 -52t-23.5 -74t-15 -100t-4.5 -130z M373 1221l219 272h194l-272 -272h-141zM649 1221l219 272h195l-272 -272h-142z" />
<glyph unicode="&#x152;" horiz-adv-x="2160" d="M133 739q0 116 9 211.5t24.5 169t41 131t54 98.5t68.5 70t79.5 46.5t92 27.5t100.5 13t111 3q109 0 182.5 -9.5t145.5 -44t120 -97.5q28 76 91.5 111t146.5 30l649 -33v-118h-649q-38 0 -61 -9t-32.5 -29t-11.5 -35t-2 -42v-410l674 -20v-121l-674 -20v-410 q0 -26 5 -45.5t16 -31t20 -18t27.5 -9t28 -3t30.5 -0.5h629v-116l-629 -35q-213 -12 -262 141q-69 -83 -175 -113t-269 -30q-67 0 -117 3t-104.5 12.5t-93.5 26.5t-78.5 45t-66.5 68t-51.5 95.5t-38.5 127t-22 164t-8 205.5zM285 739q0 -133 8.5 -227t31 -161.5t52.5 -107 t82 -62.5t109.5 -30.5t144.5 -7.5q85 0 143 8.5t109 32.5t82 65.5t53.5 108.5t31.5 159.5t9 221.5q0 91 -4 166t-14.5 133.5t-20.5 104t-31.5 79t-38 56.5t-48.5 38t-54.5 23.5t-65 12.5t-71 5t-80.5 1q-57 0 -87 -1t-76 -6.5t-70 -17t-57 -32.5t-50 -52t-37 -77.5 t-29 -107.5t-15.5 -142.5t-6.5 -182.5z" />
<glyph unicode="&#x153;" horiz-adv-x="1878" d="M102 528q0 135 16 230t50 162t92 105.5t135 55.5t187 17q151 0 246.5 -34.5t148.5 -111.5q51 85 144.5 114.5t258.5 29.5q63 0 104.5 -2.5t89.5 -11t78 -24.5t60 -44.5t47 -69t27 -99t10 -134.5q0 -250 -280 -250h-457q-6 -176 39 -248t166 -72h55h57h51.5t54.5 0.5 t49.5 1.5t53 2t47.5 2.5t50.5 3.5t45.5 5t48 6v-115q-201 -57 -512 -57q-110 0 -181 32t-110 103q-53 -71 -148 -103t-243 -32q-139 0 -230 28.5t-147.5 95t-79.5 165.5t-23 249zM254 528q0 -60 4.5 -108.5t12 -86t21.5 -66.5t29 -49.5t38 -34.5t44 -22t52.5 -12.5t59 -6 t67.5 -1.5q73 0 122.5 6.5t87 26.5t58.5 47t34 76.5t17 106.5t4 145q0 127 -14 202.5t-53.5 120t-97.5 59.5t-158 15q-48 0 -80 -2t-67.5 -8.5t-57.5 -18.5t-44.5 -33t-35.5 -52t-23.5 -74t-15 -100t-4.5 -130zM1059 610h457q67 0 98 25t31 76q0 56 -3.5 92t-16 63.5 t-28.5 41.5t-49.5 23t-69 11t-96.5 2q-66 0 -106.5 -3t-82.5 -14.5t-65 -33t-41.5 -58.5t-24.5 -92t-3 -133z" />
<glyph unicode="&#x154;" horiz-adv-x="1214" d="M123 0v1499h639q346 0 346 -450q0 -80 -12 -146t-29.5 -108.5t-43.5 -75.5t-48 -50.5t-51 -29.5t-43.5 -15t-32.5 -6l315 -618h-164l-315 612l-410 29v-641h-151zM274 776h488q21 0 32 0.5t30 3t30 7t26.5 14t24.5 23t19.5 34t16 47.5t9.5 63.5t4 80.5q0 77 -12 133.5 t-29.5 87t-44.5 48.5t-51 23t-55 5h-488v-570zM524 1622l219 272h195l-272 -272h-142z" />
<glyph unicode="&#x155;" horiz-adv-x="872" d="M123 0v1087h106l45 -137q8 5 51.5 30t56 32t50 26.5t59 26t56 17.5t66.5 14.5t67 3.5q116 0 151 -17v-149q-50 12 -151 12q-78 0 -148.5 -16.5t-113 -35t-144.5 -67.5v-827h-151zM446 1225l220 272h194l-272 -272h-142z" />
<glyph unicode="&#x156;" horiz-adv-x="1214" d="M123 0v1499h639q346 0 346 -450q0 -80 -12 -146t-29.5 -108.5t-43.5 -75.5t-48 -50.5t-51 -29.5t-43.5 -15t-32.5 -6l315 -618h-164l-315 612l-410 29v-641h-151zM274 776h488q21 0 32 0.5t30 3t30 7t26.5 14t24.5 23t19.5 34t16 47.5t9.5 63.5t4 80.5q0 77 -12 133.5 t-29.5 87t-44.5 48.5t-51 23t-55 5h-488v-570zM521 -192q0 49 46 49h94q45 0 45 -49v-166q0 -49 -18 -81.5t-44 -44.5t-52 -16.5t-44 -1.5l-18 2v59q58 -2 58 57v46h-21q-20 0 -33 12t-13 34v100z" />
<glyph unicode="&#x157;" horiz-adv-x="872" d="M108 -192q0 49 46 49h94q44 0 44 -49v-166q0 -36 -9.5 -63t-25 -42t-34 -24.5t-37.5 -12t-34.5 -3t-25.5 0.5l-9 2v59q19 -1 31.5 4.5t17.5 16t6.5 18.5t1.5 18v46h-20q-20 0 -33 12t-13 34v100zM123 0v1087h106l45 -137q8 5 51.5 30t56 32t50 26.5t59 26t56 17.5 t66.5 14.5t67 3.5q116 0 151 -17v-149q-50 12 -151 12q-78 0 -148.5 -16.5t-113 -35t-144.5 -67.5v-827h-151z" />
<glyph unicode="&#x158;" horiz-adv-x="1214" d="M123 0v1499h639q346 0 346 -450q0 -80 -12 -146t-29.5 -108.5t-43.5 -75.5t-48 -50.5t-51 -29.5t-43.5 -15t-32.5 -6l315 -618h-164l-315 612l-410 29v-641h-151zM274 776h488q21 0 32 0.5t30 3t30 7t26.5 14t24.5 23t19.5 34t16 47.5t9.5 63.5t4 80.5q0 77 -12 133.5 t-29.5 87t-44.5 48.5t-51 23t-55 5h-488v-570zM289 1898h147l164 -145l141 145h146l-213 -266h-146z" />
<glyph unicode="&#x159;" horiz-adv-x="872" d="M123 0v1087h106l45 -137q8 5 51.5 30t56 32t50 26.5t59 26t56 17.5t66.5 14.5t67 3.5q116 0 151 -17v-149q-50 12 -151 12q-78 0 -148.5 -16.5t-113 -35t-144.5 -67.5v-827h-151zM178 1489h148l163 -146l142 146h145l-213 -266h-145z" />
<glyph unicode="&#x15a;" horiz-adv-x="1196" d="M133 1012v135q0 73 14 130t41 96.5t62 67t82.5 42.5t97 21.5t109.5 6.5q130 0 512 -49v-123l-512 21q-49 2 -82 0t-68.5 -13.5t-56 -34t-34 -64t-13.5 -101.5v-135q0 -54 10.5 -92t27 -59t45.5 -32.5t56 -14.5t70 -3h290q79 0 137.5 -21t93 -54t55 -81t27.5 -94t7 -102 v-140q0 -84 -24.5 -146t-62 -97.5t-94.5 -57t-111 -28t-122 -6.5q-70 0 -252 19t-260 32v123q236 -23 512 -23q29 0 49.5 1.5t55 6t59 17t48.5 31.5t37 52t13 76v140q0 96 -37 148t-131 52h-286q-95 0 -163.5 21t-107 53t-60.5 81.5t-28 94t-6 103.5zM557 1634l219 273h195 l-273 -273h-141z" />
<glyph unicode="&#x15b;" horiz-adv-x="1036" d="M82 733v94q0 133 65.5 202t217.5 69q72 0 255 -12t279 -21v-117h-534q-47 0 -75.5 -8t-40 -27.5t-14 -36t-2.5 -49.5v-94q0 -41 9 -66t29.5 -35.5t39.5 -13t54 -2.5h323q129 0 197.5 -72t68.5 -192v-100q0 -65 -15.5 -113t-40 -76t-61 -45t-71.5 -22.5t-78 -5.5 q-66 0 -273 15.5t-288 23.5v112h561q1 2 12 0t28.5 4t34 15t28.5 33.5t12 58.5v100q0 57 -25.5 85t-89.5 28h-323q-151 0 -217 57.5t-66 210.5zM440 1231l219 272h195l-272 -272h-142z" />
<glyph unicode="&#x15c;" horiz-adv-x="1196" d="M133 1012v135q0 73 14 130t41 96.5t62 67t82.5 42.5t97 21.5t109.5 6.5q130 0 512 -49v-123l-512 21q-49 2 -82 0t-68.5 -13.5t-56 -34t-34 -64t-13.5 -101.5v-135q0 -54 10.5 -92t27 -59t45.5 -32.5t56 -14.5t70 -3h290q79 0 137.5 -21t93 -54t55 -81t27.5 -94t7 -102 v-140q0 -84 -24.5 -146t-62 -97.5t-94.5 -57t-111 -28t-122 -6.5q-70 0 -252 19t-260 32v123q236 -23 512 -23q29 0 49.5 1.5t55 6t59 17t48.5 31.5t37 52t13 76v140q0 96 -37 148t-131 52h-286q-95 0 -163.5 21t-107 53t-60.5 81.5t-28 94t-6 103.5zM342 1634l240 267h145 l213 -267h-145l-146 146l-160 -146h-147z" />
<glyph unicode="&#x15d;" horiz-adv-x="1036" d="M82 733v94q0 133 65.5 202t217.5 69q72 0 255 -12t279 -21v-117h-534q-47 0 -75.5 -8t-40 -27.5t-14 -36t-2.5 -49.5v-94q0 -41 9 -66t29.5 -35.5t39.5 -13t54 -2.5h323q129 0 197.5 -72t68.5 -192v-100q0 -65 -15.5 -113t-40 -76t-61 -45t-71.5 -22.5t-78 -5.5 q-66 0 -273 15.5t-288 23.5v112h561q1 2 12 0t28.5 4t34 15t28.5 33.5t12 58.5v100q0 57 -25.5 85t-89.5 28h-323q-151 0 -217 57.5t-66 210.5zM219 1221l240 266h145l213 -266h-145l-146 145l-159 -145h-148z" />
<glyph unicode="&#x15e;" horiz-adv-x="1196" d="M133 1012v135q0 73 14 130t41 96.5t62 67t82.5 42.5t97 21.5t109.5 6.5q130 0 512 -49v-123l-512 21q-49 2 -82 0t-68.5 -13.5t-56 -34t-34 -64t-13.5 -101.5v-135q0 -54 10.5 -92t27 -59t45.5 -32.5t56 -14.5t70 -3h290q79 0 137.5 -21t93 -54t55 -81t27.5 -94t7 -102 v-140q0 -84 -24.5 -146t-62 -97.5t-94.5 -57t-111 -28t-122 -6.5q-70 0 -252 19t-260 32v123q236 -23 512 -23q29 0 49.5 1.5t55 6t59 17t48.5 31.5t37 52t13 76v140q0 96 -37 148t-131 52h-286q-95 0 -163.5 21t-107 53t-60.5 81.5t-28 94t-6 103.5zM401 -295l109 31 q39 17 52 60t13 112h138q0 -159 -43 -219t-164 -60h-105v76z" />
<glyph unicode="&#x15f;" horiz-adv-x="1036" d="M82 733v94q0 133 65.5 202t217.5 69q72 0 255 -12t279 -21v-117h-534q-47 0 -75.5 -8t-40 -27.5t-14 -36t-2.5 -49.5v-94q0 -41 9 -66t29.5 -35.5t39.5 -13t54 -2.5h323q129 0 197.5 -72t68.5 -192v-100q0 -65 -15.5 -113t-40 -76t-61 -45t-71.5 -22.5t-78 -5.5 q-66 0 -273 15.5t-288 23.5v112h561q1 2 12 0t28.5 4t34 15t28.5 33.5t12 58.5v100q0 57 -25.5 85t-89.5 28h-323q-151 0 -217 57.5t-66 210.5zM305 -283l109 31q39 17 52 60t13 112h137q0 -159 -42.5 -218.5t-163.5 -59.5h-105v75z" />
<glyph unicode="&#x160;" horiz-adv-x="1196" d="M133 1012v135q0 73 14 130t41 96.5t62 67t82.5 42.5t97 21.5t109.5 6.5q130 0 512 -49v-123l-512 21q-49 2 -82 0t-68.5 -13.5t-56 -34t-34 -64t-13.5 -101.5v-135q0 -54 10.5 -92t27 -59t45.5 -32.5t56 -14.5t70 -3h290q79 0 137.5 -21t93 -54t55 -81t27.5 -94t7 -102 v-140q0 -84 -24.5 -146t-62 -97.5t-94.5 -57t-111 -28t-122 -6.5q-70 0 -252 19t-260 32v123q236 -23 512 -23q29 0 49.5 1.5t55 6t59 17t48.5 31.5t37 52t13 76v140q0 96 -37 148t-131 52h-286q-95 0 -163.5 21t-107 53t-60.5 81.5t-28 94t-6 103.5zM326 1901h147l164 -146 l141 146h146l-213 -267h-146z" />
<glyph unicode="&#x161;" horiz-adv-x="1036" d="M82 733v94q0 133 65.5 202t217.5 69q72 0 255 -12t279 -21v-117h-534q-47 0 -75.5 -8t-40 -27.5t-14 -36t-2.5 -49.5v-94q0 -41 9 -66t29.5 -35.5t39.5 -13t54 -2.5h323q129 0 197.5 -72t68.5 -192v-100q0 -65 -15.5 -113t-40 -76t-61 -45t-71.5 -22.5t-78 -5.5 q-66 0 -273 15.5t-288 23.5v112h561q1 2 12 0t28.5 4t34 15t28.5 33.5t12 58.5v100q0 57 -25.5 85t-89.5 28h-323q-151 0 -217 57.5t-66 210.5zM225 1497h148l164 -145l141 145h145l-213 -266h-145z" />
<glyph unicode="&#x162;" horiz-adv-x="1183" d="M92 1348v151h1041v-151h-451v-1348h-152v1348h-438zM360 -303l109 31q39 17 52.5 60t13.5 112h137q0 -159 -43 -219t-164 -60h-105v76z" />
<glyph unicode="&#x163;" horiz-adv-x="774" d="M41 938v115l203 37l37 303h114v-303h318v-152h-318v-549q0 -124 29 -173t88 -62q168 -43 182 -43v-109h-180q-270 0 -270 387v549h-203zM188 -307l109 31q39 17 52 60t13 112h138q0 -159 -43 -219t-164 -60h-105v76z" />
<glyph unicode="&#x164;" horiz-adv-x="1183" d="M92 1348v151h1041v-151h-451v-1348h-152v1348h-438zM293 1898h147l164 -145l141 145h146l-213 -266h-146z" />
<glyph unicode="&#x165;" horiz-adv-x="753" d="M41 938v115l203 37l37 303h114v-303h318v-152h-318v-549q0 -124 29 -173t88 -62q168 -43 182 -43v-109h-180q-270 0 -270 387v549h-203zM524 1638h154v-137l-23 -274h-108l-21 274z" />
<glyph unicode="&#x166;" horiz-adv-x="1183" d="M72 1348v151h1040v-151h-450v-439h245v-110h-245v-799h-152v799h-246v110h246v439h-438z" />
<glyph unicode="&#x167;" horiz-adv-x="753" d="M41 938v115l203 37l37 303h114v-303h318v-152h-318v-279h215v-110h-215v-160q1 -52 3 -86.5t9.5 -59.5t14 -39t23.5 -24t30 -14.5t41 -11.5q158 -37 160 -37v-115h-160q-148 0 -210 87t-62 300v160h-166v110h166v279h-203z" />
<glyph unicode="&#x168;" horiz-adv-x="1386" d="M164 655v844h151v-844q0 -85 6.5 -153t15 -119t28.5 -89.5t35 -64.5t47 -43t52 -26t62.5 -13.5t66.5 -5t75 -0.5h16q44 0 67.5 1t63 5.5t62 13.5t53.5 26.5t49 43t39 64.5t31.5 89.5t18 119t7.5 151.5v844h154v-844q0 -138 -18.5 -245t-44.5 -176.5t-74.5 -118t-87 -72.5 t-105 -36.5t-105.5 -14.5t-110 -2q-162 0 -226 11q-159 29 -235 158q-94 157 -94 496zM367 1706q55 45 83 66.5t73.5 43t84.5 21.5q56 -3 125.5 -37t93.5 -35q8 0 16.5 1t19.5 4t19 5.5t22 8.5t20.5 9t23 11t21.5 11t23 12.5t22 11.5l45 -86q-12 -9 -41 -32.5t-47.5 -37 t-45.5 -30t-52 -23.5t-50 -6q-49 3 -88.5 21t-70 34t-60.5 15q-40 -1 -69.5 -12t-64 -30.5t-60.5 -29.5z" />
<glyph unicode="&#x169;" d="M102 330v757h152v-757q0 -97 51 -147t133 -50q60 0 106 6t100.5 25.5t85.5 33.5t110 52v837h151v-1087h-106l-45 127q-5 -3 -40 -23.5t-43 -24.5t-39 -21t-43.5 -21.5t-41 -17t-46.5 -16.5t-44.5 -10.5t-52 -8.5t-52.5 -2q-155 0 -245.5 102.5t-90.5 245.5zM201 1305 q55 45 83 66.5t73.5 43t84.5 21.5q56 -3 126 -37t94 -35q8 0 17 1t19 4t19 5.5t21.5 8t20.5 9.5t22.5 11t21.5 11t23 12.5t22 11.5l45 -86q-12 -9 -41 -32.5t-47.5 -37t-45.5 -30t-52 -23.5t-50 -6q-49 3 -88.5 20.5t-70 33.5t-60.5 15q-40 -1 -69.5 -11.5t-64 -30 t-60.5 -29.5z" />
<glyph unicode="&#x16a;" horiz-adv-x="1386" d="M164 655v844h151v-844q0 -85 6.5 -153t15 -119t28.5 -89.5t35 -64.5t47 -43t52 -26t62.5 -13.5t66.5 -5t75 -0.5h16q44 0 67.5 1t63 5.5t62 13.5t53.5 26.5t49 43t39 64.5t31.5 89.5t18 119t7.5 151.5v844h154v-844q0 -138 -18.5 -245t-44.5 -176.5t-74.5 -118t-87 -72.5 t-105 -36.5t-105.5 -14.5t-110 -2q-162 0 -226 11q-159 29 -235 158q-94 157 -94 496zM415 1632v129h598v-129h-598z" />
<glyph unicode="&#x16b;" d="M102 330v757h152v-757q0 -97 51 -147t133 -50q60 0 106 6t100.5 25.5t85.5 33.5t110 52v837h151v-1087h-106l-45 127q-5 -3 -40 -23.5t-43 -24.5t-39 -21t-43.5 -21.5t-41 -17t-46.5 -16.5t-44.5 -10.5t-52 -8.5t-52.5 -2q-155 0 -245.5 102.5t-90.5 245.5zM248 1221v129 h598v-129h-598z" />
<glyph unicode="&#x16c;" horiz-adv-x="1386" d="M164 655v844h151v-844q0 -85 6.5 -153t15 -119t28.5 -89.5t35 -64.5t47 -43t52 -26t62.5 -13.5t66.5 -5t75 -0.5h16q44 0 67.5 1t63 5.5t62 13.5t53.5 26.5t49 43t39 64.5t31.5 89.5t18 119t7.5 151.5v844h154v-844q0 -138 -18.5 -245t-44.5 -176.5t-74.5 -118t-87 -72.5 t-105 -36.5t-105.5 -14.5t-110 -2q-162 0 -226 11q-159 29 -235 158q-94 157 -94 496zM478 1866h96q0 -58 42.5 -97.5t95.5 -39.5q60 0 100.5 37t40.5 100h96q0 -110 -72 -172t-165 -62q-91 0 -162.5 64.5t-71.5 169.5z" />
<glyph unicode="&#x16d;" d="M102 330v757h152v-757q0 -97 51 -147t133 -50q60 0 106 6t100.5 25.5t85.5 33.5t110 52v837h151v-1087h-106l-45 127q-5 -3 -40 -23.5t-43 -24.5t-39 -21t-43.5 -21.5t-41 -17t-46.5 -16.5t-44.5 -10.5t-52 -8.5t-52.5 -2q-155 0 -245.5 102.5t-90.5 245.5zM328 1454h96 q0 -58 42 -97.5t95 -39.5q60 0 100.5 37t40.5 100h97q0 -110 -72.5 -171.5t-165.5 -61.5q-91 0 -162 64t-71 169z" />
<glyph unicode="&#x16e;" horiz-adv-x="1386" d="M164 655v844h151v-844q0 -85 6.5 -153t15 -119t28.5 -89.5t35 -64.5t47 -43t52 -26t62.5 -13.5t66.5 -5t75 -0.5h16q44 0 67.5 1t63 5.5t62 13.5t53.5 26.5t49 43t39 64.5t31.5 89.5t18 119t7.5 151.5v844h154v-844q0 -138 -18.5 -245t-44.5 -176.5t-74.5 -118t-87 -72.5 t-105 -36.5t-105.5 -14.5t-110 -2q-162 0 -226 11q-159 29 -235 158q-94 157 -94 496zM506 1841q0 88 61.5 149.5t147.5 61.5t146.5 -61.5t60.5 -149.5t-60.5 -148.5t-146.5 -60.5q-87 0 -148 61t-61 148zM602 1841q0 -45 33.5 -77.5t79.5 -32.5t78 32t32 78t-32.5 79.5 t-77.5 33.5q-46 0 -79.5 -33.5t-33.5 -79.5z" />
<glyph unicode="&#x16f;" d="M102 330v757h152v-757q0 -97 51 -147t133 -50q60 0 106 6t100.5 25.5t85.5 33.5t110 52v837h151v-1087h-106l-45 127q-5 -3 -40 -23.5t-43 -24.5t-39 -21t-43.5 -21.5t-41 -17t-46.5 -16.5t-44.5 -10.5t-52 -8.5t-52.5 -2q-155 0 -245.5 102.5t-90.5 245.5zM339 1430 q0 88 61.5 149t147.5 61t146.5 -61t60.5 -149t-60.5 -148.5t-146.5 -60.5q-87 0 -148 61t-61 148zM435 1430q0 -46 33.5 -78.5t79.5 -32.5t78 32.5t32 78.5t-32 79t-78 33t-79.5 -33t-33.5 -79z" />
<glyph unicode="&#x170;" horiz-adv-x="1386" d="M164 655v844h151v-844q0 -85 6.5 -153t15 -119t28.5 -89.5t35 -64.5t47 -43t52 -26t62.5 -13.5t66.5 -5t75 -0.5h16q44 0 67.5 1t63 5.5t62 13.5t53.5 26.5t49 43t39 64.5t31.5 89.5t18 119t7.5 151.5v844h154v-844q0 -138 -18.5 -245t-44.5 -176.5t-74.5 -118t-87 -72.5 t-105 -36.5t-105.5 -14.5t-110 -2q-162 0 -226 11q-159 29 -235 158q-94 157 -94 496zM505 1632l219 273h195l-273 -273h-141zM781 1632l219 273h195l-272 -273h-142z" />
<glyph unicode="&#x171;" d="M102 330v757h152v-757q0 -97 51 -147t133 -50q60 0 106 6t100.5 25.5t85.5 33.5t110 52v837h151v-1087h-106l-45 127q-5 -3 -40 -23.5t-43 -24.5t-39 -21t-43.5 -21.5t-41 -17t-46.5 -16.5t-44.5 -10.5t-52 -8.5t-52.5 -2q-155 0 -245.5 102.5t-90.5 245.5zM338 1221 l219 272h195l-273 -272h-141zM614 1221l220 272h194l-272 -272h-142z" />
<glyph unicode="&#x172;" horiz-adv-x="1386" d="M164 655v844h151v-844q0 -85 6.5 -153t15 -119t28.5 -89.5t35 -64.5t47 -43t52 -26t62.5 -13.5t66.5 -5t75 -0.5h16q44 0 67.5 1t63 5.5t62 13.5t53.5 26.5t49 43t39 64.5t31.5 89.5t18 119t7.5 151.5v844h154v-844q0 -138 -18.5 -245t-44.5 -176.5t-74.5 -118t-87 -72.5 t-105 -36.5t-105.5 -14.5t-110 -2q-162 0 -226 11q-159 29 -235 158q-94 157 -94 496zM501 -170q8 43 51 87t116 75h80q-83 -68 -110 -124.5t4 -89t112 -34.5v-123q-57 -8 -109 7t-87 45t-50 72t-7 85z" />
<glyph unicode="&#x173;" d="M102 330v757h152v-757q0 -97 51 -147t133 -50q60 0 106 6t100.5 25.5t85.5 33.5t110 52v837h151v-1087h-106l-45 127q-5 -3 -40 -23.5t-43 -24.5t-39 -21t-43.5 -21.5t-41 -17t-46.5 -16.5t-44.5 -10.5t-52 -8.5t-52.5 -2q-155 0 -245.5 102.5t-90.5 245.5zM732 -162 q8 43 51 87t116 75h79q-83 -68 -109.5 -124.5t4.5 -89t112 -34.5v-123q-57 -8 -109 7t-87 45t-50 72t-7 85z" />
<glyph unicode="&#x174;" horiz-adv-x="1970" d="M92 1499h166l436 -1235l371 1235h172l-139 -479l272 -768l383 1247h166l-469 -1499h-152l-280 766l-248 -766h-152zM727 1622l240 266h145l213 -266h-145l-146 145l-160 -145h-147z" />
<glyph unicode="&#x175;" horiz-adv-x="1640" d="M41 1087h166l321 -864l283 864h164l-111 -348l238 -516l332 864h165l-415 -1087h-152l-241 532l-179 -532h-163zM532 1210l240 267h146l212 -267h-145l-145 146l-160 -146h-148z" />
<glyph unicode="&#x176;" horiz-adv-x="1290" d="M92 1499h166l387 -786l428 786h166l-518 -967v-532h-152v532zM346 1622l240 266h145l213 -266h-145l-146 145l-159 -145h-148z" />
<glyph unicode="&#x177;" horiz-adv-x="1134" d="M43 1087h166l264 -849q28 -90 107 -85q26 1 28 5l312 929h170l-480 -1431l-153 -209h-95l193 553q-177 0 -246 225zM268 1221l240 266h145l213 -266h-145l-146 145l-159 -145h-148z" />
<glyph unicode="&#x178;" horiz-adv-x="1290" d="M92 1499h166l387 -786l428 786h166l-518 -967v-532h-152v532zM301 1737q0 42 31 72t74 30t72.5 -29.5t29.5 -72.5t-30 -74t-72 -31q-43 0 -74 31t-31 74zM823 1737q0 42 31 72t74 30t72.5 -29.5t29.5 -72.5t-30 -74t-72 -31q-43 0 -74 31t-31 74z" />
<glyph unicode="&#x179;" horiz-adv-x="1153" d="M72 0v152l811 1196h-811v151h1009v-151l-811 -1196h811v-152h-1009zM506 1632l219 273h195l-273 -273h-141z" />
<glyph unicode="&#x17a;" horiz-adv-x="933" d="M61 936v151h811v-151l-581 -782h581v-152h-780v152l592 782h-623zM396 1221l219 272h195l-272 -272h-142z" />
<glyph unicode="&#x17b;" horiz-adv-x="1153" d="M72 0v152l811 1196h-811v151h1009v-151l-811 -1196h811v-152h-1009zM477 1679v111q0 51 49 51h103q23 0 35 -14t12 -37v-111q0 -47 -47 -47h-103q-22 0 -35.5 12.5t-13.5 34.5z" />
<glyph unicode="&#x17c;" horiz-adv-x="933" d="M61 936v151h811v-151l-581 -782h581v-152h-780v152l592 782h-623zM368 1268v110q0 52 49 52h102q22 0 34.5 -14.5t12.5 -37.5v-110q0 -47 -47 -47h-102q-22 0 -35.5 12.5t-13.5 34.5z" />
<glyph unicode="&#x17d;" horiz-adv-x="1153" d="M72 0v152l811 1196h-811v151h1009v-151l-811 -1196h811v-152h-1009zM278 1898h147l164 -145l141 145h146l-213 -266h-146z" />
<glyph unicode="&#x17e;" horiz-adv-x="933" d="M61 936v151h811v-151l-581 -782h581v-152h-780v152l592 782h-623zM168 1487h147l164 -146l142 146h145l-213 -266h-145z" />
<glyph unicode="&#x192;" horiz-adv-x="1212" d="M41 -367l14 101h185q30 0 56 14.5t45 37.5t36 60t29 72.5t23 85t17.5 87.5t14.5 89l98 633h-209l27 154h209l10 69q14 87 29.5 158t38 142t52 123.5t67 94t86.5 63t108 21.5q34 0 71 -7.5t59 -16t43 -18.5l21 -9l-14 -100h-180q-30 0 -56 -15.5t-44.5 -37.5t-36 -61.5 t-29 -72.5t-23.5 -86.5t-18 -87.5t-16 -90l-11 -71h289l-26 -152h-289l-99 -633q-10 -63 -17.5 -107t-19.5 -99.5t-23.5 -94t-29 -82.5t-36.5 -73.5t-45 -58.5t-56 -45.5t-68.5 -27t-82.5 -10.5q-52 0 -117.5 20t-81.5 31z" />
<glyph unicode="&#x2c6;" horiz-adv-x="802" d="M102 1087l240 267h145l213 -267h-145l-145 146l-160 -146h-148zM487 1354z" />
<glyph unicode="&#x2c7;" horiz-adv-x="802" d="M102 1354h148l164 -146l141 146h145l-213 -267h-145zM487 1087z" />
<glyph unicode="&#x2d8;" horiz-adv-x="673" d="M102 1319h97q0 -58 42 -97.5t95 -39.5q60 0 100.5 37t40.5 100h96q0 -110 -72 -172t-165 -62q-91 0 -162.5 64.5t-71.5 169.5z" />
<glyph unicode="&#x2d9;" horiz-adv-x="403" d="M102 1139v110q0 51 50 51h102q23 0 35 -14t12 -37v-110q0 -47 -47 -47h-102q-22 0 -36 13t-14 34z" />
<glyph unicode="&#x2da;" horiz-adv-x="620" d="M102 1294q0 88 61.5 149.5t147.5 61.5t146.5 -61.5t60.5 -149.5t-60.5 -148.5t-146.5 -60.5q-87 0 -148 61t-61 148zM199 1294q0 -46 33 -78t79 -32t78.5 32t32.5 78t-32.5 79.5t-78.5 33.5t-79 -33.5t-33 -79.5z" />
<glyph unicode="&#x2db;" horiz-adv-x="458" d="M103 -162q8 43 51 87t116 75h80q-83 -68 -110 -124.5t4 -89t112 -34.5v-123q-57 -8 -109 7t-87 45t-50 72t-7 85z" />
<glyph unicode="&#x2dc;" horiz-adv-x="897" d="M102 1171q42 35 63 51t55.5 39t64 32.5t59.5 9.5q56 -3 125.5 -37t93.5 -35q8 0 16.5 1t19.5 4t19 5.5t22 8.5t20.5 9t23 11t21.5 11t23 12.5t22 11.5l45 -86q-12 -9 -41 -32.5t-47.5 -37t-45.5 -30t-52 -23.5t-50 -6q-49 3 -88.5 20.5t-70 33.5t-60.5 15q-40 -1 -70 -12 t-64.5 -30.5t-60.5 -29.5z" />
<glyph unicode="&#x2dd;" horiz-adv-x="778" d="M41 1087l219 273h195l-273 -273h-141zM317 1087l220 273h194l-272 -273h-142z" />
<glyph unicode="&#x338;" horiz-adv-x="1316" d="M143 332v835q0 159 99.5 245.5t253.5 86.5h335q91 0 158.5 -26.5t107 -73.5t58.5 -105t19 -127v-835q0 -332 -343 -332h-335q-73 0 -134 18t-111.5 55.5t-79 103.5t-28.5 155zM295 332q0 -56 20 -92l555 1106q-12 2 -39 2h-335q-101 0 -151 -51t-50 -130v-835zM420 162 q42 -10 76 -10h335q96 0 143.5 47t47.5 133v835q0 80 -35 123z" />
<glyph unicode="&#x3a9;" horiz-adv-x="1595" d="M133 769v9v8v9q0 71 8.5 139t30 141t54.5 135.5t85.5 119t120 96.5t161.5 63.5t206 23.5q148 0 262.5 -40.5t187 -108t119.5 -163.5t65.5 -197.5t18.5 -219.5q0 -62 -1 -102.5t-6.5 -96.5t-15.5 -95.5t-28.5 -88.5t-45 -87.5t-65.5 -79t-90 -76.5l262 -21v-137h-467v160 q62 41 108.5 82t79 78.5t54.5 83t34.5 83t19 92.5t8 98t1.5 111q0 96 -12.5 174.5t-46.5 155t-88.5 128.5t-144.5 84t-209 32q-514 0 -514 -584q0 -69 1.5 -107.5t7 -90.5t18.5 -85t34.5 -76t55.5 -80.5t81.5 -82.5t112.5 -96v-160h-451v139l273 21q-83 53 -139.5 115 t-85 112.5t-42.5 127.5t-16 121.5t-2 132.5z" />
<glyph unicode="&#x3c0;" horiz-adv-x="1308" d="M41 936v151h1126v-151h-264v-596q0 -110 33.5 -153.5t107.5 -43.5h222v-90q-92 -63 -222 -63q-70 0 -121.5 17t-91 56.5t-59.5 108.5t-20 168v596h-383v-936h-152v936h-176z" />
<glyph unicode="&#x1e02;" horiz-adv-x="1220" d="M164 0v1499h577q107 0 186 -36.5t121.5 -96t62 -124t19.5 -132.5q0 -274 -188 -332q78 -17 137.5 -108.5t59.5 -251.5q0 -67 -11 -124.5t-39 -112.5t-71.5 -94t-114.5 -63t-162 -24h-577zM317 152h424q35 0 64 4.5t64.5 20.5t59.5 44t41 79.5t17 121.5q0 123 -62 205 t-184 82h-424v-557zM317 860h424q117 0 177.5 62.5t60.5 187.5q0 71 -21.5 120.5t-58.5 73.5t-75 34t-83 10h-424v-488zM526 1671v111q0 51 49 51h103q23 0 35 -14t12 -37v-111q0 -47 -47 -47h-103q-22 0 -35.5 12.5t-13.5 34.5z" />
<glyph unicode="&#x1e03;" horiz-adv-x="1134" d="M102 1796v111q0 51 50 51h102q23 0 35 -14t12 -37v-111q0 -47 -47 -47h-102q-22 0 -36 13t-14 34zM123 0v1608h147v-586q92 37 210 59.5t194 22.5q75 0 133.5 -22t97 -63.5t64.5 -92t39 -118t18.5 -130.5t5.5 -139q0 -82 -8.5 -154t-32.5 -147.5t-62.5 -128.5t-103.5 -87 t-151 -34q-93 0 -222 48t-180 85l-41 -121h-108zM272 233q71 -29 120 -46t127.5 -32.5t154.5 -15.5q101 0 154 101t53 299q0 99 -9 171t-25.5 118.5t-43 74t-57.5 38.5t-72 11q-115 0 -203.5 -12t-198.5 -41v-666z" />
<glyph unicode="&#x1e0a;" horiz-adv-x="1345" d="M164 0v1499h557q96 0 174.5 -26.5t132.5 -69.5t95.5 -105.5t65.5 -127.5t39 -143t20 -145t5 -139q0 -107 -17 -208.5t-57 -199.5t-99.5 -171.5t-152 -118.5t-206.5 -45h-557zM315 158h406q98 0 173 47t119.5 129t66.5 185.5t22 225.5q0 162 -25.5 278.5t-76 187.5 t-119.5 104t-160 33h-406v-1190zM553 1690v110q0 51 49 51h103q23 0 35 -14t12 -37v-110q0 -48 -47 -48h-103q-22 0 -35.5 13t-13.5 35z" />
<glyph unicode="&#x1e0b;" horiz-adv-x="1134" d="M102 539q0 93 7.5 167t30.5 151.5t61 129t104.5 84.5t155.5 33q76 0 192.5 -22.5t208.5 -59.5v586h150v-1608h-109l-41 121q-51 -37 -179.5 -85t-221.5 -48q-86 0 -151 34t-104 87.5t-63 128.5t-32.5 147t-8.5 154zM254 539q0 -198 53 -299t154 -101q76 0 154 15.5 t127 32.5t120 46v666q-110 29 -198 41t-203 12q-41 0 -72 -11t-57.5 -38.5t-43 -74t-25.5 -118.5t-9 -171zM831 1780v110q0 24 13 38t37 14h102q22 0 34.5 -14.5t12.5 -37.5v-110q0 -47 -47 -47h-102q-22 0 -36 13t-14 34z" />
<glyph unicode="&#x1e1e;" horiz-adv-x="1161" d="M164 0v1233q0 73 20.5 127t57 84t82 43.5t98.5 11.5l647 -33v-118h-647q-38 0 -61 -9t-32.5 -29t-11.5 -35t-2 -42v-410l672 -20v-121l-672 -20v-662h-151zM549 1671v111q0 51 49 51h102q23 0 35.5 -14.5t12.5 -36.5v-111q0 -47 -48 -47h-102q-22 0 -35.5 12.5 t-13.5 34.5z" />
<glyph unicode="&#x1e1f;" horiz-adv-x="819" d="M41 936v117l199 34v203q0 31 1 53t6 58t14.5 62t28 55.5t44.5 48t66.5 31t91.5 12.5q128 0 286 -49v-101l-252 2q-38 1 -64 -8.5t-40 -22.5t-21 -38.5t-8.5 -46t-1.5 -56.5v-203h303v-151h-303v-936h-151v936h-199zM428 1823v110q0 52 49 52h103q22 0 34.5 -14.5 t12.5 -37.5v-110q0 -47 -47 -47h-103q-22 0 -35.5 12.5t-13.5 34.5z" />
<glyph unicode="&#x1e40;" horiz-adv-x="1640" d="M113 0l98 1499h209l399 -1247l387 1247h207l115 -1499h-152l-92 1225l-385 -1225h-156l-397 1225l-82 -1225h-151zM713 1679v111q0 51 49 51h102q23 0 35 -14t12 -37v-111q0 -47 -47 -47h-102q-22 0 -35.5 12.5t-13.5 34.5z" />
<glyph unicode="&#x1e41;" horiz-adv-x="1839" d="M123 0v1087h106l45 -131q12 7 51 30t53.5 31t48.5 25.5t55 24.5t52.5 16.5t62.5 13t65 3.5q101 0 183.5 -43t117.5 -117q193 160 438 160q143 0 239.5 -98t96.5 -252v-750h-152v750q0 90 -51.5 144t-132.5 54q-124 0 -213.5 -24.5t-188.5 -89.5v-80v-754h-151v750 q0 89 -52.5 143.5t-133.5 54.5q-58 0 -101 -5.5t-96.5 -25t-81.5 -32t-109 -51.5v-834h-151zM932 1270v110q0 52 49 52h102q22 0 34.5 -14.5t12.5 -37.5v-110q0 -47 -47 -47h-102q-22 0 -35.5 12.5t-13.5 34.5z" />
<glyph unicode="&#x1e56;" horiz-adv-x="1189" d="M123 0v1499h616q359 0 359 -434q0 -89 -12.5 -160t-31.5 -117.5t-49.5 -81t-59.5 -52.5t-68.5 -28.5t-69 -13t-68.5 -2.5q-58 0 -257.5 18t-207.5 23v-651h-151zM274 762h465q36 0 62.5 5t55 23.5t46.5 50t29.5 88.5t11.5 136q-1 76 -16.5 131.5t-36 83.5t-51 44t-52 19 t-49.5 3h-465v-584zM500 1694v110q0 51 49 51h102q23 0 35 -14t12 -37v-110q0 -47 -47 -47h-102q-22 0 -35.5 12.5t-13.5 34.5z" />
<glyph unicode="&#x1e57;" horiz-adv-x="1134" d="M123 -553v1640h108l39 -120q51 37 181 85t223 48q86 0 151 -34t103.5 -87t62.5 -128.5t32.5 -147.5t8.5 -154q0 -76 -5.5 -139t-18.5 -130.5t-39 -118t-64.5 -92t-97 -63.5t-133.5 -22q-76 0 -194 22.5t-210 59.5v-619h-147zM270 188q202 -53 404 -53q52 0 88 18t64 63.5 t41.5 127.5t13.5 205q0 198 -53 298.5t-154 100.5q-76 0 -154.5 -15.5t-129 -33t-120.5 -45.5v-666zM512 1294v111q0 51 49 51h103q23 0 35 -14t12 -37v-111q0 -47 -47 -47h-103q-22 0 -35.5 12.5t-13.5 34.5z" />
<glyph unicode="&#x1e60;" horiz-adv-x="1196" d="M133 1012v135q0 73 14 130t41 96.5t62 67t82.5 42.5t97 21.5t109.5 6.5q130 0 512 -49v-123l-512 21q-49 2 -82 0t-68.5 -13.5t-56 -34t-34 -64t-13.5 -101.5v-135q0 -54 10.5 -92t27 -59t45.5 -32.5t56 -14.5t70 -3h290q79 0 137.5 -21t93 -54t55 -81t27.5 -94t7 -102 v-140q0 -84 -24.5 -146t-62 -97.5t-94.5 -57t-111 -28t-122 -6.5q-70 0 -252 19t-260 32v123q236 -23 512 -23q29 0 49.5 1.5t55 6t59 17t48.5 31.5t37 52t13 76v140q0 96 -37 148t-131 52h-286q-95 0 -163.5 21t-107 53t-60.5 81.5t-28 94t-6 103.5zM516 1702v110 q0 52 49 52h103q22 0 34.5 -14.5t12.5 -37.5v-110q0 -47 -47 -47h-103q-22 0 -35.5 12.5t-13.5 34.5z" />
<glyph unicode="&#x1e61;" horiz-adv-x="1036" d="M82 733v94q0 133 65.5 202t217.5 69q72 0 255 -12t279 -21v-117h-534q-47 0 -75.5 -8t-40 -27.5t-14 -36t-2.5 -49.5v-94q0 -41 9 -66t29.5 -35.5t39.5 -13t54 -2.5h323q129 0 197.5 -72t68.5 -192v-100q0 -65 -15.5 -113t-40 -76t-61 -45t-71.5 -22.5t-78 -5.5 q-66 0 -273 15.5t-288 23.5v112h561q1 2 12 0t28.5 4t34 15t28.5 33.5t12 58.5v100q0 57 -25.5 85t-89.5 28h-323q-151 0 -217 57.5t-66 210.5zM463 1292v111q0 51 49 51h102q23 0 35.5 -14.5t12.5 -36.5v-111q0 -47 -48 -47h-102q-22 0 -35.5 12.5t-13.5 34.5z" />
<glyph unicode="&#x1e6a;" horiz-adv-x="1183" d="M92 1348v151h1041v-151h-451v-1348h-152v1348h-438zM493 1679v111q0 51 49 51h102q23 0 35 -14t12 -37v-111q0 -47 -47 -47h-102q-22 0 -35.5 12.5t-13.5 34.5z" />
<glyph unicode="&#x1e6b;" horiz-adv-x="774" d="M41 938v115l203 37l37 303h114v-303h318v-152h-318v-549q0 -124 29 -173t88 -62q168 -43 182 -43v-109h-180q-270 0 -270 387v549h-203zM238 1565v110q0 51 49 51h102q23 0 35 -14t12 -37v-110q0 -47 -47 -47h-102q-22 0 -35.5 12.5t-13.5 34.5z" />
<glyph unicode="&#x1e80;" horiz-adv-x="1970" d="M92 1499h166l436 -1235l371 1235h172l-139 -479l272 -768l383 1247h166l-469 -1499h-152l-280 766l-248 -766h-152zM682 1894h195l219 -272h-142z" />
<glyph unicode="&#x1e81;" horiz-adv-x="1640" d="M41 1087h166l321 -864l283 864h164l-111 -348l238 -516l332 864h165l-415 -1087h-152l-241 532l-179 -532h-163zM487 1483h195l219 -273h-141z" />
<glyph unicode="&#x1e82;" horiz-adv-x="1970" d="M92 1499h166l436 -1235l371 1235h172l-139 -479l272 -768l383 1247h166l-469 -1499h-152l-280 766l-248 -766h-152zM956 1622l220 272h194l-272 -272h-142z" />
<glyph unicode="&#x1e83;" horiz-adv-x="1640" d="M41 1087h166l321 -864l283 864h164l-111 -348l238 -516l332 864h165l-415 -1087h-152l-241 532l-179 -532h-163zM762 1210l219 273h195l-273 -273h-141z" />
<glyph unicode="&#x1e84;" horiz-adv-x="1970" d="M92 1499h166l436 -1235l371 1235h172l-139 -479l272 -768l383 1247h166l-469 -1499h-152l-280 766l-248 -766h-152zM662 1726q0 43 30.5 73t73.5 30t72.5 -30t29.5 -73t-29.5 -73.5t-72.5 -30.5t-73.5 30.5t-30.5 73.5zM1184 1726q0 43 30.5 73t73.5 30t73 -30t30 -73 t-30 -73.5t-73 -30.5t-73.5 30.5t-30.5 73.5z" />
<glyph unicode="&#x1e85;" horiz-adv-x="1640" d="M41 1087h166l321 -864l283 864h164l-111 -348l238 -516l332 864h165l-415 -1087h-152l-241 532l-179 -532h-163zM467 1315q0 43 30.5 72.5t73.5 29.5t73 -29.5t30 -72.5t-30 -74t-73 -31t-73.5 31t-30.5 74zM989 1315q0 42 31 72t74 30t72.5 -29.5t29.5 -72.5t-30 -74 t-72 -31q-43 0 -74 31t-31 74z" />
<glyph unicode="&#x1ef2;" horiz-adv-x="1290" d="M92 1499h166l387 -786l428 786h166l-518 -967v-532h-152v532zM323 1905h194l219 -273h-141z" />
<glyph unicode="&#x1ef3;" horiz-adv-x="1134" d="M43 1087h166l264 -849q28 -90 107 -85q26 1 28 5l312 929h170l-480 -1431l-153 -209h-95l193 553q-177 0 -246 225zM244 1493h194l219 -272h-141z" />
<glyph unicode="&#x2000;" horiz-adv-x="1026" />
<glyph unicode="&#x2001;" horiz-adv-x="2052" />
<glyph unicode="&#x2002;" horiz-adv-x="1026" />
<glyph unicode="&#x2003;" horiz-adv-x="2052" />
<glyph unicode="&#x2004;" horiz-adv-x="684" />
<glyph unicode="&#x2005;" horiz-adv-x="513" />
<glyph unicode="&#x2006;" horiz-adv-x="342" />
<glyph unicode="&#x2007;" horiz-adv-x="342" />
<glyph unicode="&#x2008;" horiz-adv-x="256" />
<glyph unicode="&#x2009;" horiz-adv-x="410" />
<glyph unicode="&#x200a;" horiz-adv-x="114" />
<glyph unicode="&#x2010;" horiz-adv-x="724" d="M41 518v152h643v-152h-643z" />
<glyph unicode="&#x2011;" horiz-adv-x="724" d="M41 518v152h643v-152h-643z" />
<glyph unicode="&#x2012;" horiz-adv-x="724" d="M41 518v152h643v-152h-643z" />
<glyph unicode="&#x2013;" horiz-adv-x="1050" d="M41 512v154h969v-154h-969z" />
<glyph unicode="&#x2014;" horiz-adv-x="1507" d="M41 516v154h1425v-154h-1425z" />
<glyph unicode="&#x2018;" horiz-adv-x="552" d="M164 1141v202q0 43 11.5 76.5t30.5 51.5t42 29.5t45.5 14.5t41.5 3.5t31 -0.5l11 -2v-72q-24 1 -39.5 -6t-21.5 -19.5t-7.5 -22t-1.5 -22.5v-57h25q25 0 41 -13.5t16 -41.5v-121q0 -62 -57 -62h-115q-53 0 -53 62z" />
<glyph unicode="&#x2019;" horiz-adv-x="552" d="M164 1337v121q0 62 57 62h115q53 0 53 -62v-203q0 -60 -22 -99.5t-53.5 -54t-62.5 -20t-53 -3.5l-22 3v72q24 -1 39.5 6t21.5 20.5t7.5 23t1.5 22.5v55h-25q-25 0 -41 14.5t-16 42.5z" />
<glyph unicode="&#x201a;" horiz-adv-x="552" d="M164 55v121q0 62 57 62h115q53 0 53 -62v-203q0 -60 -22 -100t-53.5 -54.5t-62.5 -20t-53 -2.5l-22 3v72q24 -1 39.5 6t21.5 20.5t7.5 23t1.5 22.5v55h-25q-25 0 -41 14.5t-16 42.5z" />
<glyph unicode="&#x201c;" horiz-adv-x="856" d="M150 1141v202q0 60 22 99.5t53 53.5t62 20t53 3l22 -3v-72q-24 1 -39.5 -6t-21 -20t-7 -22t-1.5 -22v-55h24q25 0 41.5 -14.5t16.5 -42.5v-121q0 -62 -58 -62h-114q-53 0 -53 62zM481 1141v202q0 60 22 99.5t53.5 53.5t63.5 20t54 3l22 -3v-72q-24 1 -39.5 -6 t-21.5 -19.5t-8 -22t-2 -22.5v-55h26q25 0 40.5 -14.5t15.5 -42.5v-121q0 -62 -56 -62h-114q-56 0 -56 62z" />
<glyph unicode="&#x201d;" horiz-adv-x="856" d="M150 1337v121q0 62 55 62h114q56 0 56 -62v-203q0 -43 -12 -76.5t-31 -51.5t-41.5 -30t-45.5 -15t-42 -3.5t-31 1.5l-12 1v72q24 -1 39.5 6t21 20.5t7 22.5t1.5 23v55h-24q-25 0 -40 14.5t-15 42.5zM481 1337v121q0 62 58 62h114q54 0 54 -62v-203q0 -60 -22 -99.5 t-53.5 -54t-62.5 -20t-53 -3.5l-22 3v72q24 -1 39.5 6t21 20.5t7 22.5t1.5 23v55h-24q-25 0 -41.5 14.5t-16.5 42.5z" />
<glyph unicode="&#x201e;" horiz-adv-x="856" d="M150 55v121q0 62 55 62h114q56 0 56 -62v-203q0 -44 -12 -77t-31 -51.5t-41.5 -30t-45.5 -14.5t-42 -4t-31 1l-12 2v72q24 -1 39.5 6t21 20.5t7 22.5t1.5 23v55h-24q-25 0 -40 14.5t-15 42.5zM481 55v121q0 62 58 62h114q54 0 54 -62v-203q0 -60 -22 -100t-53.5 -54.5 t-62.5 -20t-53 -2.5l-22 3v72q24 -1 39.5 6t21 20.5t7 22.5t1.5 23v55h-24q-25 0 -41.5 14.5t-16.5 42.5z" />
<glyph unicode="&#x2020;" horiz-adv-x="786" d="M41 1001v121l272 21l17 434h129l16 -434l270 -21v-121l-270 -20l-18 -1128h-129l-15 1128z" />
<glyph unicode="&#x2021;" horiz-adv-x="827" d="M41 356v121l274 21l-2 483l-272 20v121l272 21l19 434h127l16 -434l270 -21v-121l-270 -20l-6 -483l276 -21v-121l-280 -20l-8 -483h-129l-9 483z" />
<glyph unicode="&#x2022;" horiz-adv-x="638" d="M174 698v164q0 33 17.5 52.5t50.5 19.5h151q72 0 72 -72v-164q0 -65 -72 -65h-151q-31 0 -49.5 17.5t-18.5 47.5z" />
<glyph unicode="&#x2026;" horiz-adv-x="1671" d="M174 47v117q0 51 49 51h109q51 0 51 -51v-117q0 -47 -51 -47h-109q-22 0 -35.5 12.5t-13.5 34.5zM731 47v117q0 51 49 51h109q51 0 51 -51v-117q0 -47 -51 -47h-109q-22 0 -35.5 12.5t-13.5 34.5zM1288 47v117q0 51 49 51h109q51 0 51 -51v-117q0 -47 -51 -47h-109 q-22 0 -35.5 12.5t-13.5 34.5z" />
<glyph unicode="&#x202f;" horiz-adv-x="410" />
<glyph unicode="&#x2030;" horiz-adv-x="2828" d="M86 971v272q0 136 57 196t207 60h207q146 0 203 -60.5t57 -195.5v-272q0 -136 -57 -196t-207 -60h-207q-146 0 -203 60.5t-57 195.5zM219 971q0 -74 26.5 -98.5t100.5 -24.5h207q85 0 108 24.5t23 98.5v272q0 74 -26.5 98.5t-100.5 24.5h-207q-85 0 -108 -24.5t-23 -98.5 v-272zM465 0l897 1499h145l-897 -1499h-145zM1139 260v272q0 136 57 196t207 60h207q146 0 203 -60.5t57 -195.5v-272q0 -136 -57 -196t-207 -60h-207q-146 0 -203 60.5t-57 195.5zM1272 260q0 -74 26.5 -98.5t100.5 -24.5h207q85 0 108 24.5t23 98.5v272q0 74 -26.5 98.5 t-100.5 24.5h-207q-85 0 -108 -24.5t-23 -98.5v-272zM2011 260v272q0 136 57 196t207 60h207q146 0 203 -60.5t57 -195.5v-272q0 -136 -57 -196t-207 -60h-207q-146 0 -203 60.5t-57 195.5zM2144 260q0 -74 26.5 -98.5t100.5 -24.5h207q85 0 108 24.5t23 98.5v272 q0 74 -26.5 98.5t-100.5 24.5h-207q-85 0 -108 -24.5t-23 -98.5v-272z" />
<glyph unicode="&#x2039;" horiz-adv-x="731" d="M102 725l422 416l107 -107l-318 -309l328 -319l-106 -107z" />
<glyph unicode="&#x203a;" horiz-adv-x="731" d="M102 406l328 319l-317 309l106 107l422 -416l-432 -426z" />
<glyph unicode="&#x2044;" horiz-adv-x="477" d="M-184 0l712 1499h134l-713 -1499h-133z" />
<glyph unicode="&#x205f;" horiz-adv-x="513" />
<glyph unicode="&#x2070;" horiz-adv-x="958" d="M123 1055v522q0 123 61.5 174t177.5 51h240q232 0 232 -225v-522q0 -71 -17 -118t-51 -69.5t-71.5 -30.5t-92.5 -8h-240q-42 0 -72 3.5t-63.5 17t-54.5 37t-35 66.5t-14 102zM252 1063q0 -63 23 -85t96 -22h223q73 0 94 23.5t21 83.5v506q0 58 -22.5 82t-92.5 24h-223 q-72 0 -95.5 -26t-23.5 -80v-506z" />
<glyph unicode="&#x2074;" horiz-adv-x="854" d="M33 1126l426 676h145l-371 -592h342v248l58 98h69v-346h121v-106l-121 -27v-246h-127v246h-497z" />
<glyph unicode="&#x2075;" horiz-adv-x="858" d="M113 850v100h432q52 0 78 30t26 83v115q0 63 -15 88q-24 39 -89 39h-236q-41 0 -65.5 -25t-24.5 -76h-106l30 598h605v-127h-486l-16 -282q21 21 67.5 31t81 11t94 -1t64.5 -2q114 0 168.5 -66t54.5 -180v-131q0 -120 -60 -177t-163 -57q-115 0 -156 0.5t-120.5 7 t-163.5 21.5z" />
<glyph unicode="&#x2076;" horiz-adv-x="901" d="M113 1343q1 117 16 203t37 135.5t56.5 79.5t67 40.5t75.5 13.5q154 11 419 -25v-102h-413q-35 0 -60 -23t-38 -53.5t-21 -79t-9.5 -81t-2.5 -77.5q273 29 362 29q65 0 109 -17t66 -48t31 -65t9 -77v-149q0 -106 -58.5 -161t-156.5 -55h-219q-48 0 -85.5 11t-74 44t-60 88 t-37.5 148.5t-13 220.5zM240 1276q0 -31 1.5 -60t9 -80t20.5 -87t40.5 -63.5t65.5 -27.5h217q51 0 73.5 24.5t22.5 80.5v125q0 52 -23 70t-73 18h-354z" />
<glyph unicode="&#x2077;" horiz-adv-x="751" d="M31 1679v127h653l35 -63l-373 -912h-143l350 848h-522z" />
<glyph unicode="&#x2078;" horiz-adv-x="954" d="M135 1040v119q0 114 113 148q-59 20 -86 71.5t-27 112.5v82q0 132 62.5 185.5t175.5 53.5h225q111 0 166 -55.5t55 -183.5v-82q1 -15 -1.5 -34t-10.5 -45.5t-30.5 -47t-55.5 -27.5q48 -8 73 -65.5t25 -112.5v-119q0 -213 -215 -213h-246q-68 0 -114 17t-68.5 48.5 t-31.5 66.5t-9 81zM262 1049q0 -51 22 -72t83 -21h229q96 0 96 93v102q0 106 -94 106h-236q-49 0 -74.5 -24t-25.5 -82v-102zM262 1499q0 -61 29.5 -87t70.5 -26h228q34 0 56 10.5t31 29.5t12 35t3 38v66q0 71 -25.5 96t-86.5 25h-199q-69 0 -94 -25.5t-25 -95.5v-66z" />
<glyph unicode="&#x2079;" horiz-adv-x="901" d="M92 1450v149q0 106 58.5 161t156.5 55h219q48 0 85.5 -11t74 -44t60.5 -88t38 -148.5t13 -220.5q-1 -117 -15 -202.5t-35 -135t-55 -79.5t-67 -41t-78 -14q-221 -16 -422 25v102h412q29 0 51.5 14.5t36.5 42.5t23 57t13.5 69t6 68t2.5 63q-273 -29 -363 -29 q-65 0 -109 17t-66 48t-31 65t-9 77zM219 1458q0 -52 23 -70t73 -18h355q0 318 -131 318h-224q-51 0 -73.5 -24.5t-22.5 -80.5v-125z" />
<glyph unicode="&#x207f;" horiz-adv-x="825" d="M78 774v725h80l45 -94q8 5 51.5 30.5t58 32t49.5 21.5t65.5 19.5t66.5 4.5q117 0 184 -68t67 -165v-506h-127v486q0 63 -38 96t-97 33q-28 0 -53 -3t-41 -5.5t-44 -12t-38.5 -13.5t-49 -20t-52.5 -22v-539h-127z" />
<glyph unicode="&#x2080;" horiz-adv-x="958" d="M123 -184v522q0 123 61.5 174t177.5 51h240q232 0 232 -225v-522q0 -71 -17 -118t-51 -69.5t-71.5 -30.5t-92.5 -8h-240q-42 0 -72 3.5t-63.5 17t-54.5 37t-35 66.5t-14 102zM252 -176q0 -63 23 -85t96 -22h223q73 0 94 23.5t21 83.5v506q0 58 -22.5 82t-92.5 24h-223 q-72 0 -95.5 -26t-23.5 -80v-506z" />
<glyph unicode="&#x2081;" horiz-adv-x="555" d="M33 354v101l262 112h127v-975h-127v834z" />
<glyph unicode="&#x2082;" horiz-adv-x="792" d="M63.5 477.5q-0.5 24.5 0.5 48.5t2 23q20 2 74 9t76.5 9.5t64.5 6t79.5 5t79.5 1.5q267 0 267 -279q0 -70 -33 -147t-75 -136t-105 -124t-99 -96.5t-81 -69.5q-8 -6 -11 -9h402v-127h-633v119q17 14 83 64.5t109.5 86t107.5 95.5t103 109.5t68.5 111.5t29.5 117 q0 84 -34 121t-121 37h-352q-2 0 -2.5 24.5z" />
<glyph unicode="&#x2083;" horiz-adv-x="831" d="M61 444v88q19 7 38 12t42.5 9t39.5 7t45 4.5t41.5 2.5t47.5 1.5t45 0.5h51.5h49.5q125 0 186.5 -68.5t61.5 -170.5v-72q0 -68 -29 -116t-72 -64q101 -64 101 -193v-57q0 -118 -57.5 -181t-200.5 -63h-48h-49t-42.5 0.5t-44.5 1.5t-38.5 2.5t-42.5 4.5t-37.5 7t-41 9 t-37.5 12l2 88l362 2q82 0 115 28.5t33 96.5v47q0 72 -39.5 106t-100.5 36l-290 10v96l290 14q69 3 105.5 36.5t36.5 94.5v46q0 122 -142 122h-381z" />
<glyph unicode="&#x2084;" horiz-adv-x="854" d="M33 -113l426 676h145l-371 -592h342v248l58 98h69v-346h121v-106l-121 -27v-246h-127v246h-497z" />
<glyph unicode="&#x2085;" horiz-adv-x="858" d="M113 -35l30 598h605v-127h-486l-16 -282q21 21 67.5 31t81 11t94 -1t64.5 -2q114 0 168.5 -66t54.5 -180v-131q0 -120 -60 -177t-163 -57q-115 0 -156 0.5t-120.5 7t-163.5 21.5v100h432q52 0 78 30t26 83v115q0 63 -15 88q-24 39 -89 39h-236q-41 0 -65.5 -25t-24.5 -76 h-106z" />
<glyph unicode="&#x2086;" horiz-adv-x="901" d="M113 104q1 117 16 202.5t37 135t56.5 80t67 40.5t75.5 13q226 13 419 -24v-102h-413q-35 0 -60 -23t-38 -53.5t-21 -79t-9.5 -81t-2.5 -77.5q273 29 362 29q65 0 109 -17t66 -48t31 -65t9 -77v-150q0 -106 -58.5 -160.5t-156.5 -54.5h-219q-48 0 -85.5 11t-74 44t-60 88 t-37.5 148.5t-13 220.5zM240 37q0 -31 1.5 -60t9 -80t20.5 -87t40.5 -63.5t65.5 -27.5h217q51 0 73.5 24.5t22.5 80.5v125q0 52 -23 70t-73 18h-354z" />
<glyph unicode="&#x2087;" horiz-adv-x="751" d="M31 440v127h653l35 -63l-373 -912h-143l350 848h-522z" />
<glyph unicode="&#x2088;" horiz-adv-x="954" d="M135 -80q0 114 113 148q-59 20 -86 71.5t-27 112.5v82q0 132 62.5 185.5t175.5 53.5h225q111 0 166 -55.5t55 -183.5v-82q1 -15 -1.5 -34t-10.5 -45.5t-30.5 -47t-55.5 -27.5q48 -8 73 -65.5t25 -112.5v-119q0 -213 -215 -213h-246q-68 0 -114 17t-68.5 48.5t-31.5 66.5 t-9 81v119zM262 -88v-102q0 -51 22 -72t83 -21h229q96 0 96 93v102q0 106 -94 106h-236q-49 0 -74.5 -24t-25.5 -82zM262 260q0 -61 29.5 -87t70.5 -26h228q34 0 56 10.5t31 29.5t12 35t3 38v66q0 71 -25.5 95.5t-86.5 24.5h-199q-69 0 -94 -25t-25 -95v-66z" />
<glyph unicode="&#x2089;" horiz-adv-x="901" d="M92 211v149q0 106 58.5 160.5t156.5 54.5h219q48 0 85.5 -11t74 -44t60.5 -88t38 -148.5t13 -220.5q-1 -117 -15 -202.5t-35 -135t-55 -79.5t-67 -40.5t-78 -13.5q-217 -16 -422 25v102h412q29 0 51.5 14.5t36.5 42.5t23 57t13.5 69t6 68t2.5 63q-273 -29 -363 -29 q-65 0 -109 17t-66 48t-31 65t-9 77zM219 219q0 -52 23 -70t73 -18h355q0 318 -131 318h-224q-51 0 -73.5 -24.5t-22.5 -80.5v-125z" />
<glyph unicode="&#x20ac;" horiz-adv-x="1251" d="M41 522v96l180 15v207l-180 16v88l180 19v17q0 50 1 81t10 93.5t25.5 104.5t52 95t84.5 85t128 54.5t178 22.5q75 0 229.5 -20t272.5 -42v-121q-334 31 -502 31q-56 0 -101.5 -7t-78.5 -22.5t-57.5 -34t-40.5 -47.5t-26 -57t-15 -69.5t-6.5 -77t-1.5 -86.5l479 -15v-94 l-479 -14v-207l479 -15v-96q-31 -1 -81 -2t-155.5 -3.5t-175 -5t-67.5 -3.5q0 -369 327 -369q88 0 215.5 8.5t210.5 17.5l84 9v-115q-251 -71 -510 -71q-39 0 -76.5 4.5t-87 18t-91.5 36t-84.5 62.5t-72.5 93t-48.5 131.5t-18.5 174.5z" />
<glyph unicode="&#x2113;" horiz-adv-x="790" d="M61 508q52 47 117 115v671q1 100 68 159.5t164 59.5q118 0 184 -83t68 -205q1 -150 -88 -317t-244 -306v-215q1 -62 5 -101t10 -63.5t22.5 -38t31.5 -19.5t47 -13q0 -2 91 -23t92 -20v-109q1 -1 -44 -1t-91 1h-45q-148 1 -209.5 90t-61.5 297v94q-34 -24 -63 -39z M330 811q233 316 166 500q-13 33 -53 48.5t-76.5 -4t-36.5 -73.5v-471z" />
<glyph unicode="&#x2116;" horiz-adv-x="2172" d="M147 0v1335q0 60 28 103t71.5 58.5t90.5 12.5t89.5 -34t65.5 -82l548 -1223q12 -27 31 -22.5t19 28.5v987q0 91 27 158.5t75 106.5t108.5 58t133.5 19l387 -2q152 -4 211 -90.5t59 -279.5q0 -176 -60 -264.5t-210 -88.5h-135q-157 0 -214 103.5t-57 376.5h127 q0 -99 8.5 -167t20 -104.5t34.5 -55t41.5 -22.5t51.5 -4h110q31 0 51 3.5t42 16t34.5 36.5t20.5 66.5t8 103.5q0 55 -4 94t-14 64.5t-21 41t-31.5 23.5t-38 10.5t-47.5 3.5q-231 2 -378 2q-86 0 -137.5 -51t-51.5 -154v-1005q0 -52 -26.5 -94t-68.5 -61t-87 -20.5 t-87.5 28.5t-66.5 85l-555 1235q-10 23 -30.5 17.5t-20.5 -31.5v-1321h-152z" />
<glyph unicode="&#x2122;" horiz-adv-x="1417" d="M41 1368v131h530v-131h-198v-584h-131v584h-201zM651 784l56 715h129l190 -485l164 485h133l63 -715h-131l-34 414l-138 -414h-108l-162 416l-31 -416h-131z" />
<glyph unicode="&#x212e;" horiz-adv-x="1478" d="M123 545q0 232 172 393q89 79 193.5 116.5t250.5 37.5q134 0 234.5 -33t191.5 -103q88 -68 136.5 -178.5t54.5 -249.5h-981h-6.5h-6t-5 -1t-4.5 -3.5t-2 -6.5t-1 -11v-273q0 -22 29 -53t77.5 -62t124.5 -53t158 -22q113 0 217.5 48t173.5 124h115q-119 -125 -231 -170 q-66 -25 -124 -35t-151 -10q-147 0 -254 36.5t-192 115.5q-170 156 -170 393zM350 582q0 -8 3 -12.5t6.5 -5.5t9.5 -1h731q5 0 10.5 -0.5t7.5 0t4.5 0.5t2.5 2t0.5 4.5t0.5 8.5v272q0 42 -60 90t-152 80.5t-177 32.5q-78 0 -153 -23t-124 -55t-79.5 -63t-30.5 -50v-280z" />
<glyph unicode="&#x2202;" horiz-adv-x="1323" d="M117 465q0 233 137.5 360t392.5 127q205 0 354 -116q-9 156 -35.5 258.5t-77.5 162t-119.5 83.5t-170.5 24q-101 0 -199.5 -31.5t-165.5 -72.5l-47 96q66 44 101.5 65t91 47.5t109 37t116.5 10.5q551 0 551 -723q0 -124 -18.5 -238.5t-60 -218t-102.5 -180t-150.5 -121.5 t-198.5 -45q-103 0 -193.5 29.5t-161.5 86t-112 149t-41 210.5zM268 471q0 -105 50 -181.5t128.5 -112.5t174.5 -36q63 0 117 24t92 63t69 91.5t50 106.5t31.5 110.5t18 101t5.5 81.5q-60 34 -154.5 58t-202.5 24q-196 0 -287.5 -89.5t-91.5 -240.5z" />
<glyph unicode="&#x2206;" horiz-adv-x="1482" d="M41 0l637 1499h151l613 -1499h-1401zM272 152h947l-463 1146z" />
<glyph unicode="&#x220f;" horiz-adv-x="1318" d="M41 1348v151h1237v-151h-178v-1348h-152v1348h-579v-1348h-152v1348h-176z" />
<glyph unicode="&#x2211;" horiz-adv-x="1200" d="M82 -252l438 805l-438 795v151h1077v-151h-895l436 -795l-436 -805h895v-158h-1077v158z" />
<glyph unicode="&#x2212;" horiz-adv-x="933" d="M41 653v152h852v-152h-852z" />
<glyph unicode="&#x221a;" horiz-adv-x="1286" d="M41 582v151h272l267 -522l514 1427h151l-583 -1638h-140l-301 582h-180z" />
<glyph unicode="&#x221e;" horiz-adv-x="1609" d="M102 698q0 58 8 106t30.5 95.5t59.5 80t98.5 53t143.5 20.5q111 0 205.5 -60t157.5 -155q63 96 157 155.5t205 59.5q82 0 143.5 -20.5t98.5 -53t59.5 -80t30.5 -95.5t8 -106q0 -74 -17 -135t-55 -111t-106 -78t-162 -28q-122 0 -210 52t-154 169q-66 -117 -154.5 -169 t-206.5 -52q-94 0 -162 28t-106 78t-55 111t-17 135zM254 698q0 -97 39.5 -148.5t148.5 -51.5q51 0 95.5 16.5t81.5 47t64 62t56 74.5q-54 83 -135.5 143t-161.5 60q-37 0 -66 -5.5t-49 -14.5t-33.5 -24.5t-21.5 -30.5t-12 -38.5t-5 -42.5t-1 -47zM870 698q29 -43 56 -74.5 t64 -62t81.5 -47t95.5 -16.5q105 0 147 53t42 147q0 39 -3 65t-13.5 54.5t-30.5 45t-55.5 27.5t-86.5 11q-80 0 -161.5 -60t-135.5 -143z" />
<glyph unicode="&#x222b;" horiz-adv-x="903" d="M41 -266h184q21 0 39 6.5t31.5 20.5t24.5 30.5t19 41.5t14 47.5t9.5 55.5t6 58t4 62.5t2 61.5t0.5 62v856q0 88 4.5 158.5t15.5 142t32 123.5t51.5 93.5t76 63t104.5 21.5q43 0 79.5 -6.5t54.5 -13.5t40 -17.5t29 -13.5v-100h-180q-34 0 -60 -18.5t-42.5 -54.5 t-27.5 -75.5t-16 -96t-7 -101.5t-3 -105v-856q0 -90 -3.5 -158.5t-13.5 -141t-30 -123t-49.5 -92t-75.5 -62.5t-106 -21q-131 0 -207 51v101z" />
<glyph unicode="&#x2248;" horiz-adv-x="1087" d="M102 512q46 38 66.5 53.5t63 42.5t83.5 38t88 11q61 0 153 -37.5t153 -37.5q43 0 76.5 10.5t78.5 34t76 35.5l45 -87q-19 -13 -59 -45t-66 -50.5t-69 -35t-86 -16.5q-61 0 -153 39t-153 39q-46 0 -85.5 -12t-87.5 -33.5t-81 -32.5zM102 874q39 33 51.5 43t50.5 36.5 t62 36.5t61.5 20t75.5 10q61 0 153 -38t153 -38q43 0 76.5 10.5t78.5 34t76 35.5l45 -86q-19 -13 -59 -45t-66 -50.5t-69 -35t-86 -16.5q-61 0 -152.5 38.5t-153.5 38.5q-46 0 -85 -11.5t-87.5 -33.5t-81.5 -32z" />
<glyph unicode="&#x2260;" horiz-adv-x="956" d="M41 434v162h301l156 256h-457v162h555l94 153h125l-94 -153h194v-162h-292l-156 -256h448v-162h-546l-107 -176h-125l107 176h-203z" />
<glyph unicode="&#x2264;" horiz-adv-x="972" d="M102 213v152h770v-152h-770zM102 807v164l768 332v-164l-565 -250l565 -271v-167z" />
<glyph unicode="&#x2265;" horiz-adv-x="972" d="M102 213v152h770v-152h-770zM104 451v167l566 271l-566 250v164l768 -332v-164z" />
<glyph unicode="&#x25ca;" horiz-adv-x="1069" d="M41 764l424 735h151l412 -735l-412 -764h-151zM223 764l318 -563l307 563l-307 545z" />
<glyph unicode="&#xe000;" horiz-adv-x="1085" d="M0 0v1085h1085v-1085h-1085z" />
<glyph unicode="&#xfb00;" horiz-adv-x="1601" d="M41 936v117l203 34v183q0 31 1 53t6 58t14.5 61.5t28 55t44.5 48t66.5 31t91.5 12.5q128 0 286 -49v-100l-252 2q-38 1 -64 -8.5t-40 -22.5t-21 -38.5t-8.5 -46t-1.5 -56.5v-183h627v203q0 31 1 53t6 58t14.5 62t28 55.5t44.5 48t66.5 31t91.5 12.5q129 0 287 -49v-101 l-252 2q-38 1 -64 -8.5t-40 -22.5t-21 -38.5t-8.5 -46t-1.5 -56.5v-203h299v-151h-304v-936h-151v936h-627v-936h-151v936h-199z" />
<glyph unicode="&#xfb03;" horiz-adv-x="1990" d="M41 936v117l203 34v183q0 31 1 53t6 58t14.5 61.5t28 55t44.5 48t66.5 31t91.5 12.5q128 0 286 -49v-100l-252 2q-38 1 -64 -8.5t-39.5 -22t-20.5 -39.5t-8.5 -45.5t-2.5 -56.5l-4 -183h590v109q0 184 109.5 299t291.5 115q70 0 186 -22t199 -48v-100l-350 22 q-53 3 -100 -8t-90 -38.5t-68.5 -84t-25.5 -135.5v-109l735 -20v-1067h-154v936h-586v-936h-151v936h-586v-936h-151v936h-199z" />
<glyph unicode="&#xfb04;" horiz-adv-x="2205" d="M41 936v117l203 34v183q0 31 1 53t6 58t14.5 61.5t28 55t44.5 48t66.5 31t91.5 12.5q128 0 286 -49v-100l-252 2q-38 1 -64 -8.5t-39.5 -22t-20.5 -39.5t-8.5 -45.5t-2.5 -56.5l-4 -183h590v109q0 86 18 157.5t56 129.5t104.5 90.5t155.5 32.5h551v-1219 q0 -89 11.5 -135.5t34.5 -66.5t70 -33q169 -43 183 -43v-109h-180q-147 0 -209 86.5t-62 300.5v1075h-364q-53 0 -90 -11t-67 -39t-45 -81.5t-15 -134.5v-109h299v-151h-304v-936h-151v936h-586v-936h-151v936h-199z" />
<glyph unicode="&#xfb06;" horiz-adv-x="1812" d="M82 721v98q0 133 65.5 202t217.5 69h925l37 303h115v-303h317v-148h-317v-553q1 -62 5.5 -101t11 -63.5t23.5 -38t32.5 -19.5t48.5 -13q157 -37 159 -37v-115h-159q-148 0 -210.5 87t-62.5 300v553l-925 -2q-47 0 -75.5 -8t-40 -27.5t-14 -36t-2.5 -49.5v-98q0 -41 9 -66 t29.5 -35.5t39.5 -13t54 -2.5h323q129 0 197.5 -72t68.5 -192v-88q0 -65 -15.5 -113t-40 -76t-61 -45t-71.5 -22.5t-78 -5.5q-66 0 -273 15.5t-288 23.5v112h561q1 2 12 0t28.5 4t34 15t28.5 33.5t12 58.5v88q0 57 -25.5 85t-89.5 28h-323q-151 0 -217 57.5t-66 210.5z" />
<glyph horiz-adv-x="550" d="M168 1333v117q0 47 47 47h113q22 0 35.5 -12.5t13.5 -34.5v-117q0 -51 -49 -51h-113q-23 0 -35 14t-12 37zM182 0l15 1096h153l15 -1096h-183z" />
<glyph horiz-adv-x="1316" d="M143 332v629q0 159 99.5 245t253.5 86h335q178 0 260.5 -90.5t82.5 -240.5v-629q0 -332 -343 -332h-335q-73 0 -134 18t-111.5 55.5t-79 103.5t-28.5 155zM295 332q0 -49 17 -85.5t47 -56.5t64 -29t73 -9h335q96 0 143.5 47t47.5 133v629q0 180 -191 180h-335 q-101 0 -151 -50.5t-50 -129.5v-629z" />
<glyph horiz-adv-x="731" d="M61 1012v108l345 174h151v-1294h-151v1122z" />
<glyph horiz-adv-x="1222" d="M84 1155v111q180 26 320 37t301 4q209 0 312 -101.5t103 -281.5q0 -72 -33.5 -150t-86 -145.5t-122.5 -136t-138 -121.5t-137.5 -100.5t-115.5 -75t-77 -43.5h700v-152h-1014v139q60 33 99.5 55.5t114.5 67.5t128.5 80t127 86.5t125 95t107.5 98t90 103t56.5 101.5 t22.5 102q0 116 -64 173.5t-201 53.5h-618z" />
<glyph horiz-adv-x="1257" d="M102 1157v94q84 30 195.5 44t221 14.5t235.5 -0.5q164 -3 257 -97.5t93 -240.5v-142q0 -110 -36 -181.5t-99 -96.5q135 -85 135 -295v-121q0 -344 -365 -344h-75h-79t-69.5 0.5t-75 2.5t-66 4.5t-71.5 7t-62 10t-67 14t-59 18.5l2 97h610q46 0 81.5 7.5t69 26.5t52 58.5 t18.5 97.5v121q0 112 -58 163t-151 54l-497 14v119l497 21q105 4 159 56t54 146v142q0 93 -62 139.5t-151 46.5h-637z" />
<glyph horiz-adv-x="1234" d="M41 254l657 1040h181l-603 -956h582v424l76 153h76v-577h184v-121l-184 -39v-379h-152v379h-747z" />
<glyph horiz-adv-x="1269" d="M156 -51h622q51 0 88 16.5t57.5 45t30 60.5t9.5 68v226q0 28 -1.5 47t-11.5 49t-28 48.5t-55 33t-89 14.5h-315q-68 0 -118 -38.5t-50 -115.5h-135l45 891h864v-151h-725l-25 -496q40 48 152 62q49 6 109 6t120.5 -3t77.5 -3q173 0 254.5 -91t81.5 -249v-234 q0 -80 -23 -143.5t-58.5 -101t-82 -61.5t-88.5 -33t-84 -9q-207 0 -317.5 8t-304.5 41v113z" />
<glyph horiz-adv-x="1275" d="M133 786q0 157 20.5 283t54.5 207t80 135.5t95 77t102 22.5q345 0 619 -38v-113h-592q-53 0 -94.5 -39t-65 -95.5t-39 -132.5t-21.5 -137t-7 -122q374 43 538 43q81 0 141 -17t95.5 -44t57 -68.5t29 -83t7.5 -93.5v-268q0 -305 -330 -305h-305q-71 1 -126 20.5 t-105.5 72.5t-83 139.5t-51.5 226.5t-19 329zM154 786zM285 725q0 -46 1 -81t4 -89.5t9.5 -97t17.5 -92t28.5 -85t41 -67t57 -47.5t74.5 -16h305q44 0 73 5.5t55.5 22t39.5 50.5t13 87v256q0 154 -181 154h-538z" />
<glyph horiz-adv-x="1118" d="M61 1143v151h940l56 -98l-543 -1401h-180l528 1348h-801z" />
<glyph horiz-adv-x="1298" d="M154 315v201q0 54 14.5 93.5t43 63.5t53.5 37t63 25q-90 31 -132 112t-42 175v133q0 100 26 170.5t75.5 110t112.5 56.5t146 17h299q168 0 250 -84t82 -270v-133q1 -24 -3 -53t-17.5 -70t-48 -72.5t-85.5 -42.5q52 -9 89 -58.5t51.5 -105t13.5 -104.5v-201 q0 -76 -22.5 -134.5t-56.5 -91.5t-81 -54t-88.5 -28t-85.5 -7h-297q-72 0 -130.5 13.5t-95 33.5t-63.5 51t-40.5 57.5t-20.5 61t-8.5 54t-1.5 44.5zM305 309q0 -77 50 -117t159 -40h297q73 0 127.5 40.5t54.5 116.5v215q0 82 -51 124t-125 42h-325q-80 0 -133.5 -39 t-53.5 -127v-215zM305 1012q0 -48 19 -84t49 -54t59.5 -26t59.5 -8h325q176 0 176 172v139q0 112 -43.5 159.5t-136.5 47.5h-299q-55 0 -89 -6.5t-63.5 -27.5t-43 -63.5t-13.5 -109.5v-139z" />
<glyph horiz-adv-x="1275" d="M123 721v268q0 305 330 305h305q71 -1 126 -20.5t105.5 -72.5t83 -139.5t51.5 -226.5t19 -329q0 -157 -20.5 -283t-54.5 -207t-80 -135.5t-95 -77t-102 -22.5q-409 0 -619 39v112h592q53 0 94.5 39t65 96t39 133t21.5 137t7 122q-374 -43 -538 -43q-81 0 -141 17 t-95.5 44t-57 68t-29 82.5t-7.5 93.5zM272 721q0 -154 181 -154h538q0 46 -1 81t-4 90t-9.5 97t-17.5 91.5t-28.5 85.5t-41 67.5t-57 47.5t-74.5 16h-305q-90 0 -135.5 -33t-45.5 -133v-256z" />
<glyph horiz-adv-x="1107" d="M82 367v206q0 101 39 173t106.5 107.5t158 48t194.5 -6.5v22q1 22 1.5 50.5t0.5 58t-0.5 51.5t-1.5 25h153v-332q-194 3 -291 0q-85 -3 -148 -52.5t-63 -144.5v-206q0 -120 66 -174t215 -54l555 2v-112q-27 -3 -84 -11t-82.5 -11t-73 -8.5t-79 -7.5t-76.5 -4t-89.5 -1.5 t-93.5 2.5q-91 0 -161.5 20.5t-116 55t-75.5 83.5t-42 103t-12 117zM557 1337v117q0 47 47 47h113q22 0 35.5 -12.5t13.5 -34.5v-117q0 -51 -49 -51h-113q-23 0 -35 14t-12 37z" />
<glyph horiz-adv-x="1732" d="M133 872q0 23 1 42.5t8 56t19.5 65.5t38.5 62.5t61.5 56t91.5 38t126 15.5h441q46 0 88.5 -8t84 -28.5t72 -51.5t49.5 -82t19 -116v-762h-115l-28 131l-21 -15q-21 -16 -56.5 -38t-79 -44t-100 -37.5t-108.5 -15.5q-114 -3 -189 66t-73 174v108q0 125 69.5 199t194.5 74 h358q2 156 0 156q0 82 -41 110.5t-131 28.5h-434q-33 0 -58 -3.5t-51.5 -14.5t-43.5 -30.5t-28 -54t-11 -82.5v-712q0 -211 192 -211h715q121 0 166 50.5t45 160.5v1048q0 115 -57 174.5t-154 59.5h-827v96q281 57 589 55l238 -2q168 -3 265 -99.5t97 -283.5v-1048 q0 -365 -362 -365h-715q-160 0 -252 94.5t-92 270.5zM614 393q0 -35 38.5 -68t86.5 -32q53 -1 120.5 18t98 32.5t109.5 51.5q12 5 18 8v252l-348 -32q-60 -6 -92.5 -44t-30.5 -94v-92z" />
<glyph horiz-adv-x="1136" d="M102 549q0 264 94.5 407.5t282.5 143.5q96 0 204 -9.5t207 -22.5t124 -15v-1266q0 -91 -30.5 -162t-79 -111t-104.5 -58t-112 -13l-528 49v100h528q83 0 128.5 49t45.5 146v272q-92 -37 -200 -58t-183 -21q-92 0 -159.5 29t-108.5 77.5t-66 123t-34 155t-9 184.5z M254 471q0 -21 2 -60t6 -62t11.5 -56.5t18.5 -53t28.5 -43t39.5 -36t52 -21t67 -8.5q114 0 185 9.5t198 41.5v766h-383q-45 0 -81 -16t-59.5 -40t-40 -61.5t-25 -70t-13 -77t-5.5 -71.5t-1 -63v-17v-61z" />
<glyph horiz-adv-x="1937" d="M90 586v182q0 60 10 106.5t27.5 80.5t46.5 58t62.5 39t80.5 23.5t94.5 11.5t110.5 3h903l37 303h115v-308h317v-106l-317 -41v-555q0 -88 -30 -156.5t-77 -110.5t-111.5 -69t-127.5 -37t-131 -10h-336q-75 0 -128 6.5t-104.5 26t-83 53.5t-50.5 91.5t-19 137.5 q-49 0 -97.5 15.5t-92.5 46.5t-71.5 85t-27.5 124zM242 586q0 -62 41 -92.5t96 -30.5q0 180 84.5 260t259.5 80h264q32 0 55 -1.5t54.5 -6.5t54 -15t46 -28.5t38 -44t24 -64.5t9.5 -88q0 -144 -61 -193t-220 -49h-457q0 -32 6.5 -57t15 -41.5t25 -28t29.5 -17.5t37 -9.5 t38.5 -4.5t42 -1.5t40.5 -1.5h336q90 0 160.5 22t117.5 76t47 133v555h-903q-45 0 -70 -0.5t-57.5 -2.5t-49 -7t-37.5 -13t-30.5 -20.5t-19 -30t-13 -41.5t-3.5 -55v-182zM530 463h457h11q34 0 48 1t31.5 5t23.5 14t10.5 27t4.5 45q0 63 -21.5 79.5t-107.5 16.5h-264 q-44 0 -67.5 -2t-51.5 -12t-41.5 -29.5t-23 -55t-9.5 -89.5z" />
<glyph horiz-adv-x="761" d="M63 948v94q0 84 55 134.5t150 50.5q287 0 287 2q2 61 0 63q0 103 -125 103q-111 0 -342 -15v86q86 24 161 33t197 14q103 2 169.5 -50.5t66.5 -159.5v-529h-82l-43 100q-1 0 -19.5 -11t-49.5 -27t-67 -32t-77.5 -27t-75.5 -11q-85 0 -145 48.5t-60 133.5zM190 975 q0 -82 91 -82q55 0 123.5 18t109.5 36l41 18v176l-274 -27q-47 -4 -69 -27.5t-22 -56.5v-55z" />
<glyph horiz-adv-x="815" d="M78 774v1073h127v-395q146 61 266 61q67 0 117 -22t79 -56.5t46 -86.5t22.5 -101.5t5.5 -111.5q0 -55 -6.5 -103.5t-24.5 -98.5t-47 -86t-78.5 -58.5t-113.5 -22.5q-68 0 -143.5 33.5t-122.5 66.5l-45 -92h-82zM205 952q14 -5 55.5 -20.5t60 -21t57 -11.5t81.5 -6 q155 0 155 242q0 78 -10 128.5t-31.5 77t-47.5 36t-66 9.5q-29 0 -53.5 -1t-40.5 -2.5t-39.5 -5.5t-33 -6t-41.5 -9t-46 -10v-400z" />
<glyph horiz-adv-x="743" d="M63 1137q0 93 13.5 160.5t35.5 108t57.5 64t73.5 31.5t89 8q98 0 332 -43v-94q-181 10 -318 10q-29 0 -44 -1.5t-36.5 -8.5t-32.5 -22.5t-22.5 -42.5t-16 -70.5t-4.5 -103.5q0 -99 16.5 -151.5t48.5 -71.5t91 -19q63 0 145 3.5t133 7.5l50 3v-96q-150 -42 -342 -45 q-50 0 -87 8t-73 31.5t-58.5 64t-36.5 108.5t-14 161z" />
<glyph horiz-adv-x="808" d="M63 1137q0 62 5.5 111.5t22.5 101.5t45.5 86.5t78.5 57t117 22.5q120 0 268 -62v397h123v-1077h-82l-43 92q-47 -33 -122.5 -66.5t-143.5 -33.5q-64 0 -113 23t-78 59t-47 86.5t-24.5 99t-6.5 103.5zM190 1137q0 -244 156 -244q43 0 81 6t56.5 11.5t59 21t55.5 20.5v402 q-11 3 -35.5 8.5t-32.5 7.5t-26.5 6t-27 5t-25.5 3.5t-31 3t-33 1t-41 0.5q-40 0 -66.5 -9.5t-48 -36t-31.5 -77.5t-10 -129z" />
<glyph horiz-adv-x="804" d="M63 1141q0 70 6 120t26.5 99.5t56.5 79.5t97.5 48.5t147.5 18.5q44 0 75 -1.5t69 -7.5t63.5 -17t51.5 -31t42 -47.5t25.5 -67.5t9.5 -92q0 -83 -56 -128.5t-159 -45.5h-328q0 -108 31 -143t125 -35q22 0 79 -0.5t82 0t67.5 1.5t76 3.5t66.5 7.5v-92q-168 -47 -383 -47 q-97 0 -154 31.5t-87 114.5t-30 231zM190 1196h320q96 0 96 61q0 78 -41 100.5t-168 22.5q-114 0 -160.5 -38.5t-46.5 -145.5z" />
<glyph horiz-adv-x="671" d="M53 1376v101l154 22v135q0 215 196 215q86 0 215 -34v-89l-184 5q-35 1 -56.5 -6.5t-30.5 -25.5t-11 -33.5t-2 -45.5v-117h219v-127h-223v-602h-127v602h-150z" />
<glyph horiz-adv-x="854" d="M63 596v86l56 90q-51 38 -51 123q0 26 8 51t30.5 47.5t55.5 26.5q-50 26 -71 86.5t-21 128.5q0 129 66 196.5t181 67.5h474v-78l-105 -45q13 -15 28 -58.5t15 -82.5q0 -46 -12 -91t-38 -90.5t-78 -73.5t-122 -28h-231q-51 0 -51 -43q0 -26 12 -35t39 -12l301 -35 q91 -11 146 -67t55 -139v-17q0 -29 -4 -55.5t-17 -58.5t-34.5 -55t-60.5 -38.5t-91 -15.5h-256q-102 0 -163 55t-61 160zM188 614q0 -38 10 -61.5t30 -32.5t36 -11.5t43 -2.5h215q59 0 82 23t23 75v10q0 47 -31 69t-92 30l-256 30l-60 7v-136zM199 1235q-1 -29 4 -54t19 -50 t43.5 -39.5t72.5 -14.5h133q40 0 68 16.5t40 43.5t16.5 50t4.5 48q0 61 -32.5 101t-96.5 40h-125q-81 0 -113 -36.5t-34 -104.5z" />
<glyph horiz-adv-x="825" d="M78 774v1071h127v-442q15 8 52.5 30.5t55.5 32t50.5 23t63.5 19t67 5.5q117 0 184 -68t67 -165v-506h-127v483q0 63 -39 96t-98 33q-21 0 -40 -1.5t-32 -2.5t-33.5 -6.5t-28.5 -7t-33 -11t-30.5 -12t-38 -16t-40.5 -16.5v-539h-127z" />
<glyph horiz-adv-x="296" d="M70 1630v88q0 39 36 39h82q35 0 35 -39v-88q0 -35 -35 -35h-82q-36 0 -36 35zM80 774v729h127v-729h-127z" />
<glyph horiz-adv-x="301" d="M72 1638v88q0 39 37 39h81q35 0 35 -39v-88q0 -36 -35 -36h-81q-37 0 -37 36zM80 401v1100h131v-733q3 -204 -39 -367h-92z" />
<glyph horiz-adv-x="796" d="M78 774v1067h127v-602h53l301 256h182l-368 -315l364 -406h-166l-299 338h-67v-338h-127z" />
<glyph horiz-adv-x="473" d="M76 1032v811h127v-794q0 -86 16 -115t66 -41q121 -29 131 -29v-90h-137q-110 0 -156.5 57.5t-46.5 200.5z" />
<glyph horiz-adv-x="1376" d="M78 774v725h88l39 -100q16 9 52 30.5t54.5 31t48.5 23t59.5 18.5t63.5 5q76 0 138 -32.5t88 -88.5q147 121 331 121q104 0 180 -65.5t76 -167.5v-500h-127v477q0 57 -39 93t-96 36q-86 0 -146.5 -15.5t-137.5 -57.5v-50v-483h-127v477q0 57 -41.5 93t-98.5 36 q-19 0 -35 -0.5t-32.5 -3t-27.5 -4t-29 -7t-26 -7.5t-29 -10.5t-28.5 -11.5t-34 -14t-36.5 -15v-533h-127z" />
<glyph horiz-adv-x="815" d="M63 1126q0 193 76.5 286t266.5 93q186 0 259.5 -92.5t73.5 -286.5q0 -179 -74 -268.5t-259 -89.5q-189 0 -266 88.5t-77 269.5zM190 1126q0 -76 13 -123t43.5 -70t66 -30.5t93.5 -7.5q38 0 62 2.5t50 10t41.5 23t28.5 41t18.5 63.5t5.5 91q0 81 -11 131t-39 76.5 t-64 35.5t-97 9q-80 0 -123 -19t-65.5 -74t-22.5 -159z" />
<glyph horiz-adv-x="808" d="M78 397v1106h82l39 -90q37 29 124 64.5t152 35.5q60 0 107 -23t75 -59.5t46.5 -87t25 -100t6.5 -104.5q0 -383 -260 -383q-55 0 -133 16t-143 45v-420h-121zM199 918q134 -35 262 -35q37 0 61.5 10t45 36.5t30.5 78.5t10 131q0 247 -147 247q-51 0 -105 -11.5t-75.5 -19 t-81.5 -30.5v-407z" />
<glyph horiz-adv-x="817" d="M63 1139q0 179 71.5 276.5t213.5 97.5q73 0 149.5 -7t145.5 -16t88 -11v-1082h-127v416q-146 -61 -256 -61q-285 0 -285 387zM190 1139q0 -114 18 -162q35 -98 154 -98q30 0 50.5 1t34 1.5t33.5 4t29 5.5t42 10t53 12v473h-242q-39 0 -69.5 -12t-48.5 -34t-29.5 -45.5 t-16.5 -55t-6.5 -52.5t-1.5 -48z" />
<glyph horiz-adv-x="684" d="M78 774v725h92l35 -104q13 7 52.5 30.5t57.5 32.5t51 23.5t64 20t66 5.5q87 0 114 -12v-123q-36 8 -114 8q-56 0 -106.5 -10.5t-77 -21t-107.5 -43.5v-531h-127z" />
<glyph horiz-adv-x="774" d="M63 1262v71q0 92 46 139.5t149 47.5q51 0 194.5 -10t206.5 -17v-100h-380q-32 0 -51 -5t-27 -17.5t-9.5 -23t-1.5 -30.5v-49q0 -25 6.5 -40.5t21 -22t27 -8t36.5 -1.5h241q88 0 134 -52.5t46 -137.5v-76q0 -54 -15 -91.5t-43 -55t-57 -24.5t-67 -7q-46 0 -206.5 13 t-215.5 19v97h400q3 -1 8.5 -2t18.5 -0.5t23 6t18.5 21.5t8.5 42v51q0 36 -16.5 53t-60.5 17h-244q-100 0 -145.5 43.5t-45.5 149.5z" />
<glyph horiz-adv-x="630" d="M55 1376v99l152 24l33 207h94v-203h229v-127h-229v-332q0 -66 7 -94t21.5 -37.5t53.5 -17.5q114 -25 116 -25v-94h-120q-110 0 -157.5 57.5t-47.5 196.5v346h-152z" />
<glyph horiz-adv-x="811" d="M74 1006v493h127v-485q0 -58 39.5 -92.5t95.5 -34.5q18 0 32.5 0.5t30 3t25.5 3.5t26.5 6t23.5 7t27 9.5t27.5 10.5t33.5 14t36 15v543h127v-725h-82l-45 94q-20 -11 -62 -37.5t-63.5 -37.5t-61 -22t-83.5 -11q-117 0 -185.5 74t-68.5 172z" />
<glyph horiz-adv-x="862" d="M51 1499h144l239 -534l232 534h141l-322 -725h-104z" />
<glyph horiz-adv-x="1255" d="M51 1499h144l239 -534l232 534h141l-109 -244l129 -290l232 534h141l-321 -725h-105l-147 320l-142 -320h-104z" />
<glyph horiz-adv-x="831" d="M53 774l289 367l-289 358h154l209 -256l196 256h158l-278 -358l284 -367h-155l-203 268l-209 -268h-156z" />
<glyph horiz-adv-x="899" d="M51 1501h139l220 -545q13 -30 27 -44.5t42 -14.5l226 604h139l-352 -960l-121 -140h-90l149 369q-45 4 -81 43.5t-58 91.5z" />
<glyph horiz-adv-x="774" d="M63 1372v127h635v-115l-438 -481h436v-127h-610v127l434 469h-457z" />
<glyph horiz-adv-x="1269" d="M119 332v835q0 159 99 245.5t253 86.5h336q73 0 131.5 -18t97.5 -48.5t65.5 -73t38 -90.5t11.5 -102v-835q0 -332 -344 -332h-336q-73 0 -134 18t-111 55.5t-78.5 103.5t-28.5 155zM270 332q0 -49 17 -85.5t47 -56.5t64 -29t73 -9h336q96 0 144 47.5t48 132.5v835 q0 181 -192 181h-336q-101 0 -151 -51t-50 -130v-835z" />
<glyph horiz-adv-x="1269" d="M279 1210v109l372 180h154v-1347h334v-152h-840v152h352v1175z" />
<glyph horiz-adv-x="1267" d="M115 1366v113q317 41 622 41q86 0 157 -25t118 -66.5t79.5 -97t47 -116t14.5 -125.5q0 -82 -33.5 -173t-85.5 -171t-123 -162.5t-139 -146.5t-141.5 -125.5t-121 -97t-87.5 -62.5h731v-152h-1024v139q61 41 119.5 83t149.5 112.5t168 137.5t160 151t140.5 160t95 158.5 t37.5 152.5q0 121 -65 196.5t-199 75.5h-620z" />
<glyph horiz-adv-x="1269" d="M135 1352v94q84 30 195.5 44t220.5 14t235 -1q164 -3 256.5 -97.5t92.5 -240.5v-141q0 -110 -36.5 -182t-99.5 -97q136 -86 136 -294v-121q0 -344 -365 -344h-75h-79t-69.5 0.5t-75 2.5t-65.5 4.5t-71 7t-62 10t-67 14t-59 18.5v96h611q38 0 65.5 3t58.5 14.5t51 31.5 t33 56t13 86v121q0 112 -58 163t-151 54l-496 14v119l496 20q105 4 159 56.5t54 146.5v141q0 93 -62.5 140t-150.5 47h-635z" />
<glyph horiz-adv-x="1269" d="M57 459l660 1040h180l-602 -956h582v424l73 153h78v-577h184v-121l-184 -39v-379h-151v379h-750z" />
<glyph horiz-adv-x="1269" d="M156 41v113h622q51 0 88 16.5t57.5 45t30 60.5t9.5 68v225q0 28 -1.5 47t-11.5 49.5t-28 49t-55 33t-89 14.5h-315q-68 0 -118 -38.5t-50 -115.5h-135l45 891h864v-151h-725l-25 -496q38 46 148 59q49 6 109.5 6.5t124 -2t77.5 -2.5q173 0 254.5 -91t81.5 -249v-233 q0 -80 -23 -143.5t-58.5 -101t-82 -61.5t-88.5 -33t-84 -9q-207 0 -317.5 8t-304.5 41z" />
<glyph horiz-adv-x="1269" d="M125 786q0 157 20.5 283t54.5 207t80 135.5t95 77t102 22.5q333 0 619 -38v-113h-592q-53 0 -94.5 -39t-65 -96t-39.5 -132.5t-22 -137t-7 -121.5q374 43 539 43q81 0 141 -17t95.5 -44t57 -68.5t29 -83t7.5 -93.5v-268q0 -305 -330 -305h-305q-71 1 -126 20.5 t-105.5 72.5t-83 139.5t-51.5 226.5t-19 329zM276 725q0 -53 1 -93.5t6 -104t14 -111t26.5 -100t41.5 -87t61.5 -57t83.5 -22.5h305q90 0 135 32.5t45 132.5v256q0 154 -180 154h-539z" />
<glyph horiz-adv-x="1269" d="M137 1348v151h940l56 -98l-543 -1401h-180l528 1348h-801z" />
<glyph horiz-adv-x="1269" d="M139 315v201q0 54 14.5 93.5t43 63.5t53.5 37t63 25q-90 31 -132 112t-42 175v133q0 100 26 170.5t76 110t113 56.5t146 17h299q167 0 249 -84t82 -270v-133q1 -18 -0.5 -39.5t-10.5 -54.5t-24 -60t-45.5 -51t-72.5 -33q52 -9 88.5 -58.5t51 -105t13.5 -104.5v-201 q0 -76 -22.5 -134.5t-56.5 -91.5t-80.5 -54t-88 -28t-85.5 -7h-297q-72 0 -130.5 13.5t-95.5 33.5t-64 51t-40 57.5t-20.5 61t-9 54t-1.5 44.5zM291 309q0 -77 50 -117t159 -40h297q73 0 127.5 40.5t54.5 116.5v215q0 82 -51 124t-125 42h-326q-80 0 -133 -39t-53 -127v-215 zM291 1012q0 -39 13 -70t32.5 -49.5t45 -31t49 -17t46.5 -4.5h326q176 0 176 172v139q0 112 -43.5 159.5t-136.5 47.5h-299q-55 0 -89 -6.5t-63.5 -27.5t-43 -63.5t-13.5 -109.5v-139z" />
<glyph horiz-adv-x="1269" d="M125 938v268q0 305 330 305h305q71 -1 126 -20.5t105.5 -72.5t83 -139.5t51.5 -226.5t19 -329q0 -157 -20.5 -283t-54.5 -207t-80 -135.5t-95 -77t-102 -22.5q-129 0 -211.5 2t-196.5 11t-211 26v113h592q53 0 94.5 39t65 95.5t39 132.5t21.5 137t7 122 q-374 -43 -538 -43q-81 0 -141 17t-95.5 44t-57 68t-29 82.5t-7.5 93.5zM274 938q0 -154 181 -154h538q0 46 -1 81t-4 90t-9.5 97t-17.5 91.5t-28.5 85.5t-41 67.5t-57 47.5t-74.5 16h-305q-90 0 -135.5 -33t-45.5 -133v-256z" />
<glyph horiz-adv-x="1269" d="M119 332v629q0 159 99 245t253 86h336q178 0 261 -90.5t83 -240.5v-629q0 -332 -344 -332h-336q-73 0 -134 18t-111 55.5t-78.5 103.5t-28.5 155zM270 332q0 -49 17 -85.5t47 -56.5t64 -29t73 -9h336q96 0 144 47.5t48 132.5v629q0 180 -192 180h-336q-101 0 -151 -50.5 t-50 -129.5v-629z" />
<glyph horiz-adv-x="1269" d="M293 1012v108l344 174h151v-1142h316v-152h-799v152h332v970z" />
<glyph horiz-adv-x="1269" d="M117 1155v111q180 26 319.5 37t300.5 4q209 0 312.5 -101.5t103.5 -281.5q0 -83 -43.5 -173.5t-115 -169.5t-151.5 -150.5t-164.5 -129.5t-142 -94t-94.5 -55h701v-152h-1014v139q59 33 99 55.5t114.5 67t128.5 80t127 87t125 95t107.5 98t90 103t56.5 101.5t22 102 q0 116 -63.5 173.5t-200.5 53.5h-618z" />
<glyph horiz-adv-x="1269" d="M135 1155v94q84 30 195 44t220.5 14.5t235.5 -0.5q164 -3 256.5 -97.5t92.5 -240.5v-142q0 -110 -36.5 -181.5t-99.5 -96.5q136 -86 136 -295v-121q0 -344 -365 -344h-75h-79t-69.5 0.5t-75 2.5t-65.5 4.5t-71 7t-62 10t-67 14t-59 18.5v97h611q38 0 65.5 3t59 14.5 t51 31t32.5 55.5t13 86v121q0 112 -58 163t-151 54l-496 14v119l496 21q105 4 159 56t54 146v142q0 93 -62 139.5t-151 46.5h-635z" />
<glyph horiz-adv-x="1269" d="M57 254l660 1040h180l-602 -956h582v424l73 153h78v-577h184v-121l-184 -39v-379h-151v379h-750z" />
<glyph horiz-adv-x="1269" d="M156 -51h622q51 0 88 16.5t57.5 45t30 60.5t9.5 68v226q0 28 -1.5 47t-11.5 49t-28 48.5t-55 33t-89 14.5h-315q-68 0 -118 -38.5t-50 -115.5h-135l45 891h864v-151h-725l-25 -496q40 48 152 62q49 6 109 6t120.5 -3t77.5 -3q173 0 254.5 -91t81.5 -249v-234 q0 -80 -23 -143.5t-58.5 -101t-82 -61.5t-88.5 -33t-84 -9q-207 0 -317.5 8t-304.5 41v113z" />
<glyph horiz-adv-x="1269" d="M125 786q0 157 20.5 283t54.5 207t80 135.5t95 77t102 22.5q333 0 619 -38v-113h-592q-53 0 -94.5 -39t-65 -96t-39.5 -132.5t-22 -137t-7 -121.5q374 43 539 43q81 0 141 -17t95.5 -44t57 -68.5t29 -83t7.5 -93.5v-268q0 -305 -330 -305h-305q-71 1 -126 20.5 t-105.5 72.5t-83 139.5t-51.5 226.5t-19 329zM276 725q0 -53 1 -93.5t6 -104t14 -111t26.5 -100t41.5 -87t61.5 -57t83.5 -22.5h305q90 0 135 32.5t45 132.5v256q0 154 -180 154h-539z" />
<glyph horiz-adv-x="1269" d="M137 1143v151h940l56 -98l-543 -1401h-180l528 1348h-801z" />
<glyph horiz-adv-x="1269" d="M139 315v201q0 54 14.5 93.5t43 63.5t53.5 37t63 25q-90 31 -132 112t-42 175v133q0 100 26 170.5t76 110t113 56.5t146 17h299q167 0 249 -84t82 -270v-133q1 -18 -0.5 -39.5t-10.5 -54.5t-24 -60t-45.5 -51t-72.5 -33q52 -9 88.5 -58.5t51 -105t13.5 -104.5v-201 q0 -76 -22.5 -134.5t-56.5 -91.5t-80.5 -54t-88 -28t-85.5 -7h-297q-72 0 -130.5 13.5t-95.5 33.5t-64 51t-40 57.5t-20.5 61t-9 54t-1.5 44.5zM291 309q0 -77 50 -117t159 -40h297q73 0 127.5 40.5t54.5 116.5v215q0 82 -51 124t-125 42h-326q-80 0 -133 -39t-53 -127v-215 zM291 1012q0 -39 13 -70t32.5 -49.5t45 -31t49 -17t46.5 -4.5h326q176 0 176 172v139q0 112 -43.5 159.5t-136.5 47.5h-299q-55 0 -89 -6.5t-63.5 -27.5t-43 -63.5t-13.5 -109.5v-139z" />
<glyph horiz-adv-x="1269" d="M125 721v268q0 305 330 305h305q71 -1 126 -20.5t105.5 -72.5t83 -139.5t51.5 -226.5t19 -329q0 -157 -20.5 -283t-54.5 -207t-80 -135.5t-95 -77t-102 -22.5q-409 0 -619 39v112h592q53 0 94.5 39t65 96t39 133t21.5 137t7 122q-374 -43 -538 -43q-81 0 -141 17 t-95.5 44t-57 68t-29 82.5t-7.5 93.5zM274 721q0 -154 181 -154h538q0 46 -1 81t-4 90t-9.5 97t-17.5 91.5t-28.5 85.5t-41 67.5t-57 47.5t-74.5 16h-305q-90 0 -135.5 -33t-45.5 -133v-256z" />
<glyph horiz-adv-x="1136" d="M102 549q0 264 94.5 407.5t282.5 143.5q96 0 204 -9.5t207 -22.5t124 -15v-1266q0 -91 -30.5 -162t-79 -111t-104.5 -58t-112 -13l-528 49v100h528q83 0 128.5 49t45.5 146v272q-92 -37 -200 -58t-183 -21q-92 0 -159.5 29t-108.5 77.5t-66 123t-34 155t-9 184.5z M254 471q0 -21 2 -60t6 -62t11.5 -56.5t18.5 -53t28.5 -43t39.5 -36t52 -21t67 -8.5q114 0 185 9.5t198 41.5v766h-383q-45 0 -81 -16t-59.5 -40t-40 -61.5t-25 -70t-13 -77t-5.5 -71.5t-1 -63v-17v-61zM367 1448h96q0 -58 42 -97.5t95 -39.5q60 0 100.5 37t40.5 100h97 q0 -110 -72.5 -172t-165.5 -62q-91 0 -162 64.5t-71 169.5z" />
<glyph horiz-adv-x="1136" d="M102 549q0 264 94.5 407.5t282.5 143.5q96 0 204 -9.5t207 -22.5t124 -15v-1266q0 -91 -30.5 -162t-79 -111t-104.5 -58t-112 -13l-528 49v100h528q83 0 128.5 49t45.5 146v272q-92 -37 -200 -58t-183 -21q-92 0 -159.5 29t-108.5 77.5t-66 123t-34 155t-9 184.5z M254 471q0 -21 2 -60t6 -62t11.5 -56.5t18.5 -53t28.5 -43t39.5 -36t52 -21t67 -8.5q114 0 185 9.5t198 41.5v766h-383q-45 0 -81 -16t-59.5 -40t-40 -61.5t-25 -70t-13 -77t-5.5 -71.5t-1 -63v-17v-61zM502 1266v110q0 51 49 51h102q23 0 35 -14t12 -37v-110q0 -47 -47 -47 h-102q-22 0 -35.5 12.5t-13.5 34.5z" />
<glyph horiz-adv-x="1136" d="M102 549q0 264 94.5 407.5t282.5 143.5q96 0 204 -9.5t207 -22.5t124 -15v-1266q0 -91 -30.5 -162t-79 -111t-104.5 -58t-112 -13l-528 49v100h528q83 0 128.5 49t45.5 146v272q-92 -37 -200 -58t-183 -21q-92 0 -159.5 29t-108.5 77.5t-66 123t-34 155t-9 184.5z M254 471q0 -21 2 -60t6 -62t11.5 -56.5t18.5 -53t28.5 -43t39.5 -36t52 -21t67 -8.5q114 0 185 9.5t198 41.5v766h-383q-45 0 -81 -16t-59.5 -40t-40 -61.5t-25 -70t-13 -77t-5.5 -71.5t-1 -63v-17v-61zM315 1214l240 267h145l213 -267h-145l-145 146l-160 -146h-148z" />
<glyph horiz-adv-x="1757" d="M82 535q0 139 18 240t47.5 161.5t77 96t97.5 47.5t118 12h807l37 301h115v-303h317v-156h-317v-545q0 -62 4.5 -101t11 -63.5t24 -38t33 -19.5t48.5 -13q157 -37 159 -37v-115h-159q-148 0 -210.5 87t-62.5 300v545h-807q-31 0 -50.5 -2t-44 -11t-39 -25.5t-30 -46.5 t-24 -73t-14 -105.5t-5.5 -144.5q0 -156 22 -240.5t65 -116.5t120 -32q84 0 204.5 5.5t199.5 11.5l78 6v-115q-197 -56 -482 -59q-67 0 -116 11t-97 45t-78 93t-48.5 160t-18.5 240z" />
<glyph horiz-adv-x="1511" d="M41 938v115l203 37l37 303h114v-303h606l37 303h115v-303h317v-152h-317v-549q1 -52 3 -86.5t9.5 -59.5t14 -39t23.5 -24t30 -14.5t41 -11.5q158 -37 160 -37v-115h-160q-148 0 -210.5 87t-62.5 300v549h-606v-549q1 -52 3 -86.5t9.5 -59.5t14 -39t23.5 -24t30 -14.5 t41 -11.5q158 -37 160 -37v-115h-160q-148 0 -210 87t-62 300v549h-203z" />
<glyph horiz-adv-x="1568" d="M41 936v117l203 34v203q0 31 1 53t6 58t14.5 62t28 55.5t44.5 48t66.5 31t91.5 12.5q128 0 286 -49v-101l-252 2q-38 1 -64 -8.5t-40 -22.5t-21 -38.5t-8.5 -46t-1.5 -56.5v-200h664l37 303h114v-303h318v-152h-318v-549q1 -52 3 -86.5t9.5 -59.5t14 -39t23.5 -24 t30 -14.5t41 -11.5q158 -37 160 -37v-115h-160q-148 0 -210 87t-62 300v549h-668v-938h-151v936h-199z" />
<glyph horiz-adv-x="1941" d="M41 938v115l203 37l37 303h114v-303h318q72 0 121.5 -8.5t82.5 -22t57 -44.5t39 -62t36 -89l233 -626q28 -78 112 -81l23 1l312 929h172l-478 -1431l-157 -209h-103l209 553q-19 0 -39 3.5t-51 17t-58 36.5t-56 66.5t-50 101.5l-219 590q-23 65 -63 94t-123 29h-318v-549 q1 -62 5.5 -101t11 -63.5t23.5 -38t32.5 -19.5t48.5 -13q158 -37 160 -37v-115h-160q-148 0 -210 87t-62 300v549h-203z" />
<glyph horiz-adv-x="1992" d="M41 936v117l203 34v203q0 31 1 53t6 58t14.5 62t28 55.5t44.5 48t66.5 31t91.5 12.5q35 0 75 -7.5t66 -15t74.5 -24t70.5 -23.5v-100l-252 22q-38 3 -64 -5t-40 -21.5t-21 -40t-8.5 -47.5t-1.5 -58v-203h350q61 0 104.5 -4.5t77 -17t56 -27t42.5 -43.5t33 -56.5t32 -74.5 l243 -624q28 -78 112 -81l23 1l310 930h172l-477 -1432l-158 -209h-103l209 553q-19 0 -39 3.5t-51 17t-58.5 36.5t-56.5 66.5t-49 101.5l-227 588q-24 63 -67.5 92t-127.5 29h-354v-936h-151v936h-199z" />
<glyph horiz-adv-x="1136" d="M102 549q0 264 94.5 407.5t282.5 143.5q96 0 204 -9.5t207 -22.5t124 -15v-1266q0 -91 -30.5 -162t-79 -111t-104.5 -58t-112 -13l-528 49v100h528q83 0 128.5 49t45.5 146v272q-92 -37 -200 -58t-183 -21q-92 0 -159.5 29t-108.5 77.5t-66 123t-34 155t-9 184.5z M254 471q0 -21 2 -60t6 -62t11.5 -56.5t18.5 -53t28.5 -43t39.5 -36t52 -21t67 -8.5q114 0 185 9.5t198 41.5v766h-383q-45 0 -81 -16t-59.5 -40t-40 -61.5t-25 -70t-13 -77t-5.5 -71.5t-1 -63v-17v-61zM500 1264v166q0 49 18 81.5t44 44.5t51.5 16.5t43.5 1.5l18 -2v-59 q-19 1 -31.5 -4.5t-17.5 -16t-6.5 -18.5t-1.5 -18v-46h20q20 0 33 -12t13 -34v-100q0 -50 -46 -50h-94q-44 0 -44 50z" />
<glyph horiz-adv-x="550" d="M168 47v117q0 51 49 51h113q23 0 35 -14t12 -37v-117q0 -47 -47 -47h-113q-22 0 -35.5 12.5t-13.5 34.5zM180 1167h182l-14 -825h-153z" />
<glyph horiz-adv-x="776" d="M174 1167v138h152v-138l-21 -274h-108zM451 1167v138h151v-138l-20 -274h-109z" />
<glyph horiz-adv-x="1157" d="M41 356l16 105h252l43 241h-256l15 105h258l61 360h107l-62 -360h254l59 360h107l-59 -360h282l-14 -105h-285l-41 -241h287l-16 -105h-287l-62 -358h-106l59 358h-252l-61 -358h-107l60 358h-252zM418 461h254l39 241h-252z" />
<glyph horiz-adv-x="1028" d="M102 795v63q0 79 21.5 138t54.5 92.5t82 54.5t94 27.5t101 7.5v133h131v-137q55 -5 165 -18t128 -15v-117h-424q-37 0 -63 -3t-54 -12.5t-45 -27t-28 -48.5t-11 -75v-63q0 -140 180 -140h168q78 0 140.5 -27t100 -70t57.5 -93.5t20 -102.5v-77q0 -101 -50 -172 t-124.5 -101t-159.5 -26v-127h-131v135q-56 6 -180.5 17t-135.5 12v114q20 0 193.5 1t255.5 1q29 0 55.5 5.5t56.5 19.5t48 45t18 76v77q0 66 -44.5 107t-119.5 41h-168q-172 0 -252 78.5t-80 206.5z" />
<glyph horiz-adv-x="1665" d="M59 784v127q0 136 57.5 196t207.5 60h92q146 0 203 -60.5t57 -195.5v-127q0 -136 -57 -196t-207 -60h-93q-146 0 -203 60.5t-57 195.5zM193 784q0 -74 26 -98t100 -24h93q45 0 71 5.5t39.5 21.5t17 36.5t3.5 58.5v127q0 74 -26.5 98.5t-100.5 24.5h-92q-85 0 -108 -24.5 t-23 -98.5v-127zM406 0l708 1167h146l-709 -1167h-145zM989 254v127q0 136 57 196t207 60h93q146 0 203 -60.5t57 -195.5v-127q0 -136 -57.5 -196t-207.5 -60h-92q-146 0 -203 60.5t-57 195.5zM1122 254q0 -74 26.5 -98.5t100.5 -24.5h92q85 0 108.5 25t23.5 98v127 q0 74 -26.5 98.5t-100.5 24.5h-93q-85 0 -108 -24.5t-23 -98.5v-127z" />
<glyph horiz-adv-x="1161" d="M69 367q17 120 136 217l149 123l-90 110q-69 90 -64.5 164.5t52 124.5t113.5 59q212 31 487 -30v-109h-385q-66 0 -91.5 -19t-15.5 -51.5t50 -81.5l368 -444l170 152l49 -54l-79 -170l-48 -47l242 -311h-180l-172 213l-146 -143q-65 -60 -150.5 -78.5t-173.5 15.5 t-149 120q-89 120 -72 240zM223 321.5q3 -34.5 14 -61t29 -47.5q19 -23 46.5 -41.5t63 -29.5t75.5 0t75 46l142 140l-213 260l-150 -119q-44 -35 -64.5 -74t-17.5 -73.5z" />
<glyph horiz-adv-x="499" d="M174 1167v138h152v-138l-21 -274h-108z" />
<glyph horiz-adv-x="899" d="M102 836v82l285 59l8 -152zM240 524l51 277l147 -35l-123 -266zM360 1145l80 33l154 -242l-139 -62zM426 651l84 129l225 -188l-43 -66zM514 848l244 153l41 -71l-187 -199z" />
<glyph horiz-adv-x="1193" d="M143 332v504q0 83 27.5 147.5t76 104t111.5 59.5t138 20h213q90 0 156.5 -26t100.5 -61.5t54.5 -85.5t25.5 -85t5 -73v-504q0 -332 -342 -332h-213q-73 0 -134 18t-111.5 55.5t-79 103.5t-28.5 155zM295 332q0 -49 17 -85.5t47 -56.5t64 -29t73 -9h213q96 0 143 47 t47 133v504q0 180 -190 180h-213q-201 0 -201 -180v-504z" />
<glyph horiz-adv-x="684" d="M82 889v108l287 174h151v-1171h-151v999z" />
<glyph horiz-adv-x="1046" d="M82 1016v104q64 8 152 23t149.5 20.5t165.5 5.5q395 0 395 -383q0 -70 -24.5 -138.5t-62 -123.5t-91.5 -109t-103.5 -92.5t-107.5 -75.5t-94.5 -57t-73.5 -38h547v-152h-840v139q44 34 123 83.5t150 91t149.5 99t135 111.5t93.5 124.5t37 142.5q0 117 -60 174t-196 53z " />
<glyph horiz-adv-x="1046" d="M61 1022v106q157 55 560 46q126 -3 199 -90t73 -205v-70q0 -87 -28.5 -147.5t-76.5 -79.5q105 -65 105 -240v-53q0 -137 -71 -218t-212 -81h-68.5h-74t-69 0.5t-74.5 2.5t-66.5 5t-69 7.5t-59 11.5t-57.5 16v108h487q37 0 64.5 5t55.5 19.5t43 45.5t15 78v53 q0 90 -46 125t-122 37l-399 10v133l399 8q89 2 130.5 35t41.5 119v70q0 76 -43.5 109.5t-128.5 33.5h-508z" />
<glyph horiz-adv-x="1112" d="M41 358l467 809h180l-412 -725h459v338l76 154h76v-492h184v-120l-184 -39v-279h-152v279h-624z" />
<glyph horiz-adv-x="1110" d="M156 47v113h510q99 0 135.5 40t36.5 115v121v28t-3 27.5t-9 29t-18.5 23.5t-30.5 20.5t-46 12t-65 5.5h-211q-66 0 -110 -38t-44 -116h-143l35 739h743v-151h-594l-16 -354q58 69 131 69h209q173 0 248 -76t75 -215v-129q0 -84 -25.5 -145.5t-71.5 -97t-102 -52.5 t-124 -18q-172 -2 -282 7t-228 42z" />
<glyph horiz-adv-x="1124" d="M133 614q0 130 20 231.5t51 162.5t74 101t84.5 55t86.5 16q220 3 516 -31v-121h-516q-40 0 -70.5 -27.5t-47.5 -67t-28 -90.5t-14.5 -91t-3.5 -76q203 24 440 24q79 0 134.5 -19t85.5 -54.5t43 -78t13 -97.5v-193q0 -133 -77 -196.5t-199 -63.5h-264q-57 0 -101.5 14 t-88.5 54.5t-73 107.5t-47 178.5t-18 261.5zM285 539q-1 -389 176 -389h264q62 0 93.5 23t31.5 93v185q0 58 -29.5 78t-95.5 20h-440v-10z" />
<glyph horiz-adv-x="974" d="M61 1016v151h797l55 -98l-413 -1069h-170l395 1016h-664z" />
<glyph horiz-adv-x="1181" d="M154 266v144q0 25 5 45.5t10.5 34.5t19 26.5t21.5 19t27 14.5t26 10t28 9q-70 24 -103.5 90.5t-33.5 139.5v88q0 158 67.5 224.5t210.5 66.5h340q258 0 258 -291v-88q0 -21 -3 -42.5t-13 -55.5t-36.5 -59t-66.5 -34q58 -11 88.5 -72.5t30.5 -125.5v-144q0 -74 -24 -128.5 t-63.5 -83t-82.5 -41.5t-90 -13h-338q-57 0 -102 11t-73.5 26.5t-49 41t-30.5 47t-15.5 51.5t-6.5 47t-1 42zM305 262q0 -60 31 -84t117 -24h297q129 0 129 108v133q0 121 -125 121h-320q-62 0 -95.5 -26.5t-33.5 -94.5v-133zM305 791q0 -121 129 -121h320q42 0 69 10 t38.5 29.5t15.5 37.5t4 44v92q0 86 -27.5 113.5t-101.5 27.5h-299h-29.5t-24.5 -1t-23 -2.5t-18.5 -5t-17 -8.5t-12.5 -12.5t-10.5 -18t-6.5 -24t-5 -31t-1 -38.5v-92z" />
<glyph horiz-adv-x="1124" d="M123 727v193q0 133 77 196.5t199 63.5h265q57 -1 101.5 -15t88.5 -54.5t72.5 -107.5t46.5 -178.5t18 -261.5q0 -130 -19.5 -231t-51 -162.5t-74 -101t-84 -54.5t-86.5 -16q-321 -4 -516 31v121h516q40 0 70.5 27.5t47.5 67t28 90.5t14.5 91t3.5 76q-211 -25 -441 -25 q-276 0 -276 250zM274 727q0 -58 29.5 -78t95.5 -20h441v10q1 389 -176 389h-265q-62 0 -93.5 -23.5t-31.5 -93.5v-184z" />
<glyph horiz-adv-x="944" d="M41 1022v119q9 1 63.5 8t68 8.5t59.5 7t68.5 6.5t61.5 3t73 2t71 -2q169 0 262.5 -91.5t93.5 -234.5v-92q0 -100 -55.5 -171.5t-145.5 -100t-194 -11.5l-1 -14q0 -14 -0.5 -32t-0.5 -36.5t0.5 -32.5t1.5 -16h-156v266q145 -3 217 0q69 4 126 41.5t57 106.5v92 q0 80 -49 127t-156 47h-465zM285 47v117q0 51 49 51h108q52 0 52 -51v-117q0 -47 -52 -47h-108q-22 0 -35.5 12.5t-13.5 34.5z" />
<glyph horiz-adv-x="1728" d="M133 86v713q0 24 1 42.5t8 55.5t19 65.5t38 63t61 56.5t91 37.5t126 15.5h441q59 0 111 -14t99 -44.5t75 -89.5t28 -139v-762h-115l-29 131l-21 -15q-21 -16 -56 -38t-79 -43.5t-100 -37t-108 -15.5q-114 -3 -189 65.5t-73 173.5v109q0 125 69 198.5t195 73.5h358 q2 156 0 156q0 82 -41 110.5t-131 28.5h-434q-42 0 -72 -6t-59.5 -24t-45 -56.5t-15.5 -97.5v-713q0 -211 192 -211h715q121 0 166 50.5t45 160.5v1049q0 115 -57 174t-154 59h-827v96q286 58 589 56h238q168 -3 265 -100.5t97 -284.5v-1049q0 -365 -362 -365h-715 q-160 0 -252 94.5t-92 270.5zM612 319q0 -35 38.5 -68t86.5 -32q18 0 37 2t35 4t37.5 8.5t34 9.5t37 12.5t33.5 13t35.5 16t32 15t34 16t30.5 14.5v252l-348 -33q-60 -6 -92.5 -43.5t-30.5 -93.5v-93z" />
<glyph horiz-adv-x="1210" d="M72 0l477 1167h151l439 -1167h-166l-123 311h-481l-131 -311h-166zM430 463h369l-176 487z" />
<glyph horiz-adv-x="1118" d="M164 0v1169h541q73 0 130 -19.5t91 -50.5t56 -74t30 -83.5t8 -85.5q0 -106 -31 -165t-96 -95q56 -25 94.5 -91t38.5 -173q0 -332 -321 -332h-541zM315 154h390q33 0 58 5.5t52.5 22t43 55t15.5 95.5q0 93 -37.5 144.5t-131.5 51.5q-316 -4 -390 0v-374zM315 680h390 q96 0 129.5 39t33.5 137q0 162 -163 162h-390v-338z" />
<glyph horiz-adv-x="1064" d="M113 604q0 80 7 147t23.5 135t47.5 120t76 93t111.5 63t151.5 22q72 0 230.5 -16.5t232.5 -34.5v-121q-24 5 -195.5 12.5t-267.5 7.5q-148 0 -207 -108t-59 -320q0 -55 2.5 -98.5t9.5 -92.5t18.5 -86.5t32 -73t47.5 -58.5t67 -37t89 -15l463 21v-117q-285 -55 -463 -55 q-77 0 -139.5 19.5t-105.5 51.5t-75 81t-50 99.5t-29 115.5t-14.5 121.5t-3.5 123.5z" />
<glyph horiz-adv-x="1230" d="M164 0v1171h506q104 -1 184.5 -39.5t129 -97.5t80 -139t43 -156.5t11.5 -158.5q0 -93 -12 -172t-30 -134.5t-47.5 -100.5t-56.5 -73t-65 -48.5t-65.5 -30t-66 -15t-57.5 -6t-48 -0.5h-506zM315 152h355q70 0 123 23.5t85.5 62t53 95t28 116t7.5 131.5q0 222 -80.5 331 t-216.5 109h-355v-868z" />
<glyph horiz-adv-x="1056" d="M164 170v815q0 88 57 136t156 48l588 -24v-125h-584q-43 0 -54.5 -14t-11.5 -54v-290l586 -17v-125l-586 -14v-293q0 -41 18.5 -53.5t55.5 -12.5h576v-122l-629 -29q-77 0 -124.5 47.5t-47.5 126.5z" />
<glyph horiz-adv-x="1056" d="M164 0v985q0 88 57 136t156 48l588 -24v-125h-584q-22 0 -35 -3.5t-19.5 -15t-8 -20t-3.5 -29.5v-297l586 -16v-125l-586 -14v-500h-151z" />
<glyph horiz-adv-x="1183" d="M113 586q0 150 19 254.5t66.5 185.5t134.5 120.5t216 39.5q68 0 237 -17t256 -34v-127q-275 26 -493 26q-81 0 -132.5 -18.5t-87 -68.5t-50.5 -135.5t-15 -221.5q0 -44 4.5 -89t15.5 -98.5t32.5 -99.5t51.5 -84.5t76.5 -61t104.5 -22.5q111 0 219 36.5t152 70.5v243h-365 v101q182 51 379 51q63 0 137 -6v-631h-115l-30 90q-79 -51 -180 -77.5t-197 -26.5q-87 0 -157.5 28.5t-114.5 71t-77 104.5t-49 115.5t-25.5 117.5t-11 97t-1.5 66z" />
<glyph horiz-adv-x="1226" d="M164 -2v1169h151v-528h637v528h152v-1169h-152v489h-637v-489h-151z" />
<glyph horiz-adv-x="438" d="M164 0v1167h151v-1167h-151z" />
<glyph horiz-adv-x="681" d="M72 43l8 111q47 -8 81 -12t70 -4.5t60.5 6t47.5 20t36.5 36.5t22.5 57.5t10 80.5v829h151v-829q0 -226 -117 -299q-59 -36 -128 -45t-129.5 4.5t-112.5 44.5z" />
<glyph horiz-adv-x="1142" d="M164 -2v1169h151v-520h150l416 520h190l-473 -594l473 -575h-190l-420 498h-146v-498h-151z" />
<glyph horiz-adv-x="1017" d="M164 176v991h151v-960q-1 -19 3.5 -30.5t17 -17t24 -6.5t33.5 -1h553v-152h-606q-82 0 -129 46t-47 130z" />
<glyph horiz-adv-x="1503" d="M113 0l112 1169h187l344 -915l342 915h182l111 -1169h-148l-84 903l-336 -903h-131l-340 905l-96 -905h-143z" />
<glyph horiz-adv-x="1234" d="M164 0v1169h145l654 -888v888h149v-1169h-143l-654 897v-897h-151z" />
<glyph horiz-adv-x="1247" d="M113 573q0 124 13.5 218t43.5 161t70 111t100 69.5t127 35.5t156 10q78 0 134 -5t113 -20t95.5 -42t73 -71t54 -106t31 -148.5t11.5 -197.5q0 -150 -21 -255t-59.5 -172t-103.5 -105t-141.5 -52t-186.5 -14q-76 0 -132.5 5.5t-112.5 21t-95 42.5t-73 70.5t-54 105 t-31.5 146t-11.5 192.5zM264 584q0 -87 7.5 -152.5t20.5 -113t37 -79.5t50 -51.5t67 -30t80 -13.5t97 -3q53 0 81.5 1.5t73.5 9.5t69 25t54 49t45 79t26 118.5t11 164.5q0 81 -5 144.5t-19.5 109t-27.5 77.5t-42 52t-49 31.5t-63 16.5t-69.5 6t-81.5 1h-3q-125 0 -172 -12 q-104 -26 -147 -137q-40 -102 -40 -293z" />
<glyph horiz-adv-x="1081" d="M123 0v1165h555q55 0 107.5 -19t99.5 -56.5t75.5 -104t28.5 -151.5q0 -74 -11 -133.5t-28 -98t-44 -67t-52 -43t-59.5 -23t-59 -10.5t-57.5 -2l-402 26v-483h-153zM276 608h402q22 0 37 1.5t36 7.5t34.5 20t26.5 36t19.5 58.5t6.5 85.5q4 96 -46 146.5t-114 50.5h-402 v-406z" />
<glyph horiz-adv-x="1247" d="M113 573q0 124 13.5 218t43.5 161t70 111t100 69.5t127 35.5t156 10q78 0 134 -5t113 -20t95.5 -42t73 -71t54 -106t31 -148.5t11.5 -197.5q0 -150 -21 -255t-59.5 -172t-103.5 -105t-141.5 -52t-186.5 -14q-76 0 -132.5 5.5t-112.5 21t-95 42.5t-73 70.5t-54 105 t-31.5 146t-11.5 192.5zM264 584q0 -87 7.5 -152.5t20.5 -113t37 -79.5t50 -51.5t67 -30t80 -13.5t97 -3q53 0 81.5 1.5t73.5 9.5t69 25t54 49t45 79t26 118.5t11 164.5q0 81 -5 144.5t-19.5 109t-27.5 77.5t-42 52t-49 31.5t-63 16.5t-69.5 6t-81.5 1h-3q-125 0 -172 -12 q-104 -26 -147 -137q-40 -102 -40 -293zM573 -68h107q62 -44 120.5 -60t109 -10t114.5 29v-163q-44 -17 -100 -20t-113 9.5t-107 38t-86 71.5t-45 105z" />
<glyph d="M123 0v1169h553q34 0 66.5 -5.5t69 -18.5t67.5 -38t56 -59.5t39.5 -88t14.5 -119.5q0 -70 -11.5 -130.5t-36.5 -112t-70.5 -83.5t-106.5 -37l278 -477h-172l-262 459q-54 4 -193.5 17t-140.5 16v-492h-151zM274 610h402q32 0 56.5 8t50.5 30t40.5 70t14.5 120q0 38 -9 69 t-20 49t-31 31.5t-32 19t-32.5 8.5t-23.5 3h-14h-402v-408z" />
<glyph horiz-adv-x="1122" d="M113 766v121q0 287 282 287q80 0 268.5 -14t290.5 -27v-117q-358 8 -559 8q-131 0 -131 -137v-121q0 -34 6.5 -57t15 -35t27.5 -17.5t31.5 -6.5t40.5 -1h10h348q130 0 198.5 -72t68.5 -192v-143q0 -64 -17.5 -112.5t-43.5 -76.5t-63.5 -45t-71 -22.5t-71.5 -5.5 q-101 0 -317.5 14t-267.5 31v112q388 -6 585 -6q24 0 44.5 11.5t32.5 27.5t21.5 32.5t12.5 27.5l4 12v143q0 57 -25.5 85t-89.5 28h-348q-148 0 -215 61.5t-67 206.5z" />
<glyph horiz-adv-x="1056" d="M72 1016v151h913v-151h-381v-1016h-151v1016h-381z" />
<glyph horiz-adv-x="1255" d="M164 532v635h153v-635q-1 -100 11.5 -168.5t36 -112.5t66.5 -68t94 -33t128 -9q66 0 112.5 8.5t89.5 33.5t68.5 68t40.5 113t15 168v635h154v-635q0 -100 -14 -180t-37.5 -136t-60 -97.5t-75.5 -65.5t-90 -38.5t-98 -19.5t-105 -5q-66 0 -115.5 4t-103.5 18t-92 37.5 t-74 64t-57.5 97t-34 137.5t-12.5 184z" />
<glyph horiz-adv-x="1220" d="M72 1167h166l378 -938l367 938h166l-457 -1167h-151z" />
<glyph horiz-adv-x="1742" d="M72 1167h166l352 -944l334 944h163l-137 -397l226 -547l342 944h153l-422 -1167h-151l-226 565l-198 -565h-160z" />
<glyph horiz-adv-x="1153" d="M72 0l409 586l-405 581h194l308 -444l309 444h196l-411 -581l405 -586h-188l-314 449l-315 -449h-188z" />
<glyph horiz-adv-x="1159" d="M72 1167h166l346 -618l338 618h165l-430 -778v-391h-151v391z" />
<glyph horiz-adv-x="1015" d="M72 0v152l671 864h-671v151h872v-151l-663 -864h663v-152h-872z" />
<glyph horiz-adv-x="495" d="M41 1360h195l219 -273h-142z" />
<glyph horiz-adv-x="1236" d="M72 0l477 1167h151l439 -1167h-166l-123 311h-481l-131 -311h-166zM430 463h369l-176 487zM855 -162q8 43 51 87t116 75h80q-83 -68 -110 -124.5t4 -89t112 -34.5v-123q-57 -8 -109 7t-87 45t-50 72t-7 85z" />
<glyph d="M123 0v1169h553q34 0 66.5 -5.5t69 -18.5t67.5 -38t56 -59.5t39.5 -88t14.5 -119.5q0 -70 -11.5 -130.5t-36.5 -112t-70.5 -83.5t-106.5 -37l278 -477h-172l-262 459q-54 4 -193.5 17t-140.5 16v-492h-151zM274 610h402q32 0 56.5 8t50.5 30t40.5 70t14.5 120q0 38 -9 69 t-20 49t-31 31.5t-32 19t-32.5 8.5t-23.5 3h-14h-402v-408zM462 -192q0 49 46 49h94q44 0 44 -49v-166q0 -49 -18 -81.5t-44 -44.5t-51.5 -16.5t-43.5 -1.5l-18 2v59q19 -1 31.5 4.5t17.5 16t6.5 18.5t1.5 18v46h-20q-20 0 -33 12t-13 34v100z" />
<glyph horiz-adv-x="438" d="M-127 1374q41 34 62.5 50.5t55.5 39t64 32t60 9.5q56 -3 125.5 -36.5t93.5 -34.5q23 -1 60 12.5t55 23t71 37.5l45 -86q-8 -6 -50.5 -40t-62.5 -47.5t-56 -28t-66 -13.5q-49 3 -88.5 21t-70 34t-60.5 15q-40 -1 -70 -12t-64.5 -30.5t-60.5 -29.5zM164 0v1167h151v-1167 h-151z" />
<glyph horiz-adv-x="1017" d="M164 176v991h151v-960q-1 -19 3.5 -30.5t17 -17t24 -6.5t33.5 -1h553v-152h-606q-82 0 -129 46t-47 130zM493 -192q0 49 46 49h94q44 0 44 -49v-166q0 -36 -9.5 -63t-25 -42t-34 -24.5t-37.5 -12t-34.5 -3t-24.5 0.5l-10 2v59q19 -1 31.5 4.5t17.5 16t6.5 18.5t1.5 18v46 h-20q-20 0 -33 12t-13 34v100z" />
<glyph horiz-adv-x="933" d="M102 1190q0 43 31 73.5t74 30.5t72.5 -30.5t29.5 -73.5t-30 -74t-72 -31q-43 0 -74 31t-31 74zM625 1190q0 43 30.5 73.5t73.5 30.5t72.5 -30.5t29.5 -73.5t-30 -74t-72 -31q-43 0 -73.5 31t-30.5 74z" />
<glyph horiz-adv-x="1122" d="M113 766v121q0 287 282 287q80 0 268.5 -14t290.5 -27v-117q-358 8 -559 8q-131 0 -131 -137v-121q0 -34 6.5 -57t15 -35t27.5 -17.5t31.5 -6.5t40.5 -1h10h348q130 0 198.5 -72t68.5 -192v-143q0 -64 -17.5 -112.5t-43.5 -76.5t-63.5 -45t-71 -22.5t-71.5 -5.5 q-101 0 -317.5 14t-267.5 31v112q388 -6 585 -6q24 0 44.5 11.5t32.5 27.5t21.5 32.5t12.5 27.5l4 12v143q0 57 -25.5 85t-89.5 28h-348q-148 0 -215 61.5t-67 206.5zM256 1563h147l164 -146l142 146h145l-213 -267h-145z" />
<glyph horiz-adv-x="1056" d="M164 170v815q0 88 57 136t156 48l588 -24v-125h-584q-43 0 -54.5 -14t-11.5 -54v-290l586 -17v-125l-586 -14v-293q0 -41 18.5 -53.5t55.5 -12.5h576v-122l-629 -29q-77 0 -124.5 47.5t-47.5 126.5zM293 1294v129h598v-129h-598z" />
<glyph horiz-adv-x="1183" d="M113 578v8q0 118 13 208t45.5 165.5t85 124t133 75.5t188.5 27q66 0 220.5 -17t243.5 -34v-125l-454 26q-89 0 -145.5 -17.5t-98.5 -66t-60 -136.5t-18 -226q0 -105 14 -181.5t48 -138t95.5 -94.5t151.5 -37q241 -11 345 70v274h-396v103q71 20 183.5 35.5t226.5 15.5 q63 0 137 -6v-631q-10 -3 -55 0t-60 0l-30 70q-131 -84 -363 -84q-73 0 -134.5 17t-105 43.5t-78 67.5t-56 79t-37.5 90t-23 88.5t-11 85t-4.5 69.5t-0.5 52zM529 -192q0 49 46 49h94q45 0 45 -49v-166q0 -49 -18 -81.5t-44 -44.5t-51.5 -16.5t-43.5 -1.5l-18 2v59 q19 -1 31.5 4.5t17.5 16t6.5 18.5t1.5 18v46h-21q-20 0 -33 12t-13 34v100z" />
<glyph horiz-adv-x="995" d="M41 1016v151h913v-151h-381v-295h199v-111h-199v-610h-151v610h-205v111h205v295h-381z" />
<glyph horiz-adv-x="1015" d="M72 0v152l671 864h-671v151h872v-151l-663 -864h663v-152h-872zM209 1556h147l164 -145l142 145h145l-213 -266h-145z" />
<glyph horiz-adv-x="802" d="M102 1085v129h598v-129h-598z" />
<glyph horiz-adv-x="618" d="M102 956q0 88 60.5 149.5t146.5 61.5t146.5 -61.5t60.5 -149.5t-60.5 -149.5t-146.5 -61.5t-146.5 61.5t-60.5 149.5zM199 956q0 -46 32 -78t78 -32t78.5 32t32.5 78t-32.5 78.5t-78.5 32.5t-78 -32.5t-32 -78.5z" />
<glyph horiz-adv-x="495" d="M41 1087l219 273h195l-273 -273h-141z" />
<glyph horiz-adv-x="802" d="M102 1415h123l168 -186l180 186h127l-239 -328h-146zM461 1087z" />
<glyph horiz-adv-x="1234" d="M164 0v1169h145l654 -888v888h149v-1169v-127q-4 -139 -111 -223t-272 -84v127q51 0 104 20.5t92.5 64.5t39.5 101v127l-650 891v-897h-151z" />
<glyph horiz-adv-x="1210" d="M72 0l477 1167h151l439 -1167h-166l-123 311h-481l-131 -311h-166zM326 1290v129h598v-129h-598zM430 463h369l-176 487z" />
<glyph horiz-adv-x="1210" d="M72 0l477 1167h151l439 -1167h-166l-123 311h-481l-131 -311h-166zM430 463h369l-176 487zM554 1290l219 273h195l-273 -273h-141z" />
<glyph horiz-adv-x="1210" d="M72 0l477 1167h151l439 -1167h-166l-123 311h-481l-131 -311h-166zM326 1290l239 266h146l213 -266h-146l-145 146l-160 -146h-147zM430 463h369l-176 487z" />
<glyph horiz-adv-x="1210" d="M72 0l477 1167h151l439 -1167h-166l-123 311h-481l-131 -311h-166zM279 1374q55 45 83 66.5t73.5 43t84.5 21.5q56 -3 125.5 -36.5t93.5 -34.5q23 -1 59.5 12.5t56.5 23.5t71 37l45 -86q-12 -9 -41 -32.5t-47.5 -37t-45.5 -30t-52 -23.5t-50 -6q-49 3 -88.5 21t-70 34 t-60.5 15q-40 -1 -69.5 -12t-64 -30.5t-60.5 -29.5zM430 463h369l-176 487z" />
<glyph horiz-adv-x="1210" d="M72 0l477 1167h151l439 -1167h-166l-123 311h-481l-131 -311h-166zM260 1395q0 42 31 72t74 30t72.5 -29.5t29.5 -72.5t-30 -74t-72 -31q-43 0 -74 31t-31 74zM430 463h369l-176 487zM782 1395q0 42 31 72t74 30t72.5 -29.5t29.5 -72.5t-30 -74t-72 -31q-43 0 -74 31 t-31 74z" />
<glyph horiz-adv-x="1210" d="M72 0l477 1167h151l439 -1167h-166l-123 311h-481l-131 -311h-166zM420 1364q0 88 61.5 149.5t147.5 61.5t146.5 -61.5t60.5 -149.5t-60.5 -148.5t-146.5 -60.5q-87 0 -148 61t-61 148zM430 463h369l-176 487zM516 1364q0 -46 33.5 -78.5t79.5 -32.5t78 32.5t32 78.5 t-32.5 79.5t-77.5 33.5q-46 0 -79.5 -33.5t-33.5 -79.5z" />
<glyph horiz-adv-x="1591" d="M47 0l500 987q29 57 65.5 93.5t88 54.5t104.5 24.5t133 7.5l569 -24v-125h-565q-23 0 -37 -3.5t-20.5 -14t-8.5 -19.5t-4 -29v-301l572 -14v-125l-572 -16v-285q0 -42 18.5 -53t59.5 -11l557 -2v-122l-600 -27q-90 -3 -139 43.5t-49 126.5v158h-336l-166 -324h-170z M457 475h262v524z" />
<glyph horiz-adv-x="438" d="M44 -162q8 43 51 87t116 75h80q-83 -68 -110 -124.5t4 -89t112 -34.5v-123q-57 -8 -109 7t-87 45t-50 72t-7 85zM164 0v1167h151v-1167h-151z" />
<glyph horiz-adv-x="1064" d="M113 604q0 80 7 147t23.5 135t47.5 120t76 93t111.5 63t151.5 22q72 0 230.5 -16.5t232.5 -34.5v-121q-24 5 -195.5 12.5t-267.5 7.5q-148 0 -207 -108t-59 -320q0 -55 2.5 -98.5t9.5 -92.5t18.5 -86.5t32 -73t47.5 -58.5t67 -37t89 -15l463 21v-117q-285 -55 -463 -55 q-77 0 -139.5 19.5t-105.5 51.5t-75 81t-50 99.5t-29 115.5t-14.5 121.5t-3.5 123.5zM295 1583h147l164 -145l142 145h145l-213 -266h-145z" />
<glyph horiz-adv-x="1056" d="M164 170v815q0 88 57 136t156 48l588 -24v-125h-584q-43 0 -54.5 -14t-11.5 -54v-290l586 -17v-125l-586 -14v-293q0 -41 18.5 -53.5t55.5 -12.5h576v-122l-629 -29q-77 0 -124.5 47.5t-47.5 126.5zM516 1294l219 273h195l-273 -273h-141z" />
<glyph horiz-adv-x="1056" d="M164 170v815q0 88 57 136t156 48l588 -24v-125h-584q-43 0 -54.5 -14t-11.5 -54v-290l586 -17v-125l-586 -14v-293q0 -41 18.5 -53.5t55.5 -12.5h576v-122l-629 -29q-77 0 -124.5 47.5t-47.5 126.5zM718 -137q8 43 51 87t116 75h80q-83 -68 -110 -124.5t4 -89t112 -34.5 v-123q-57 -8 -109 7t-87 45t-50 72t-7 85z" />
<glyph horiz-adv-x="1056" d="M164 170v815q0 88 57 136t156 48l588 -24v-125h-584q-43 0 -54.5 -14t-11.5 -54v-290l586 -17v-125l-586 -14v-293q0 -41 18.5 -53.5t55.5 -12.5h576v-122l-629 -29q-77 0 -124.5 47.5t-47.5 126.5zM225 1399q0 42 31 72t74 30t72.5 -29.5t29.5 -72.5t-30 -74t-72 -31 q-43 0 -74 31t-31 74zM748 1399q0 43 30.5 72.5t73.5 29.5t72.5 -29.5t29.5 -72.5t-30 -74t-72 -31q-43 0 -73.5 31t-30.5 74z" />
<glyph horiz-adv-x="1056" d="M164 170v815q0 88 57 136t156 48l588 -24v-125h-584q-43 0 -54.5 -14t-11.5 -54v-290l586 -17v-125l-586 -14v-293q0 -41 18.5 -53.5t55.5 -12.5h576v-122l-629 -29q-77 0 -124.5 47.5t-47.5 126.5zM506 1341v111q0 51 49 51h102q23 0 35.5 -14.5t12.5 -36.5v-111 q0 -47 -48 -47h-102q-22 0 -35.5 12.5t-13.5 34.5z" />
<glyph horiz-adv-x="438" d="M164 0v1167h151v-1167h-151zM188 1290l220 273h194l-272 -273h-142z" />
<glyph horiz-adv-x="438" d="M-41 1290l240 266h145l213 -266h-145l-146 146l-160 -146h-147zM164 0v1167h151v-1167h-151z" />
<glyph horiz-adv-x="438" d="M-41 1290v129h598v-129h-598zM164 0v1167h151v-1167h-151z" />
<glyph horiz-adv-x="1214" d="M41 539v110h137v522q37 1 126 0.5t218 -1.5t144 -1q98 0 175 -37.5t123 -96.5t76 -139.5t41 -157t11 -158.5q0 -119 -20.5 -214.5t-49.5 -154.5t-74 -102.5t-81.5 -63.5t-85.5 -31t-72 -12.5t-54 -1.5h-477v539h-137zM338 154h287q70 0 123 22t86.5 59.5t54.5 93t29 116 t8 135.5q0 432 -289 432h-299v-363h203v-110h-203v-385z" />
<glyph horiz-adv-x="1234" d="M164 0v1169h145l654 -888v888h149v-1169h-143l-654 897v-897h-151zM550 -192q0 49 46 49h94q44 0 44 -49v-166q0 -49 -18 -81.5t-44 -44.5t-51.5 -16.5t-43.5 -1.5l-18 2v59q19 -1 31.5 4.5t17.5 16t6.5 18.5t1.5 18v46h-20q-20 0 -33 12t-13 34v100z" />
<glyph horiz-adv-x="1247" d="M113 573q0 124 13.5 218t43.5 161t70 111t100 69.5t127 35.5t156 10q78 0 134 -5t113 -20t95.5 -42t73 -71t54 -106t31 -148.5t11.5 -197.5q0 -150 -21 -255t-59.5 -172t-103.5 -105t-141.5 -52t-186.5 -14q-76 0 -132.5 5.5t-112.5 21t-95 42.5t-73 70.5t-54 105 t-31.5 146t-11.5 192.5zM264 584q0 -87 7.5 -152.5t20.5 -113t37 -79.5t50 -51.5t67 -30t80 -13.5t97 -3q53 0 81.5 1.5t73.5 9.5t69 25t54 49t45 79t26 118.5t11 164.5q0 81 -5 144.5t-19.5 109t-27.5 77.5t-42 52t-49 31.5t-63 16.5t-69.5 6t-81.5 1h-3q-125 0 -172 -12 q-104 -26 -147 -137q-40 -102 -40 -293zM328 1323v129h598v-129h-598z" />
<glyph horiz-adv-x="1142" d="M164 -2v1169h151v-520h150l416 520h190l-473 -594l473 -575h-190l-420 498h-146v-498h-151zM490 -194q0 49 47 49h94q44 0 44 -49v-166q0 -36 -9.5 -63t-25 -42t-34 -24.5t-37.5 -12t-34.5 -3t-24.5 0.5l-10 2v59q19 -1 31.5 4.5t17.5 16t6.5 18.5t1.5 18v46h-20 q-21 0 -34 12t-13 34v100z" />
<glyph horiz-adv-x="1247" d="M113 573q0 124 13.5 218t43.5 161t70 111t100 69.5t127 35.5t156 10q78 0 134 -5t113 -20t95.5 -42t73 -71t54 -106t31 -148.5t11.5 -197.5q0 -150 -21 -255t-59.5 -172t-103.5 -105t-141.5 -52t-186.5 -14q-76 0 -132.5 5.5t-112.5 21t-95 42.5t-73 70.5t-54 105 t-31.5 146t-11.5 192.5zM264 584q0 -87 7.5 -152.5t20.5 -113t37 -79.5t50 -51.5t67 -30t80 -13.5t97 -3q53 0 81.5 1.5t73.5 9.5t69 25t54 49t45 79t26 118.5t11 164.5q0 81 -5 144.5t-19.5 109t-27.5 77.5t-42 52t-49 31.5t-63 16.5t-69.5 6t-81.5 1h-3q-125 0 -172 -12 q-104 -26 -147 -137q-40 -102 -40 -293zM317 1290l240 266h145l213 -266h-145l-145 146l-160 -146h-148z" />
<glyph horiz-adv-x="1247" d="M113 573q0 124 13.5 218t43.5 161t70 111t100 69.5t127 35.5t156 10q78 0 134 -5t113 -20t95.5 -42t73 -71t54 -106t31 -148.5t11.5 -197.5q0 -150 -21 -255t-59.5 -172t-103.5 -105t-141.5 -52t-186.5 -14q-76 0 -132.5 5.5t-112.5 21t-95 42.5t-73 70.5t-54 105 t-31.5 146t-11.5 192.5zM264 584q0 -87 7.5 -152.5t20.5 -113t37 -79.5t50 -51.5t67 -30t80 -13.5t97 -3q53 0 81.5 1.5t73.5 9.5t69 25t54 49t45 79t26 118.5t11 164.5q0 81 -5 144.5t-19.5 109t-27.5 77.5t-42 52t-49 31.5t-63 16.5t-69.5 6t-81.5 1h-3q-125 0 -172 -12 q-104 -26 -147 -137q-40 -102 -40 -293zM307 1384q42 35 63 51t55.5 39t64 32.5t59.5 9.5q56 -3 125.5 -37t93.5 -35q8 0 17 1t19 4t19 5.5t21.5 8t20.5 9.5t22.5 11t21.5 11t23 12.5t22 11.5l45 -86q-8 -6 -50.5 -40t-62.5 -47.5t-56 -28t-66 -13.5q-49 3 -88.5 20.5 t-70 33.5t-60.5 15q-40 -1 -70 -12t-64.5 -30.5t-60.5 -29.5z" />
<glyph horiz-adv-x="1247" d="M113 573q0 124 13.5 218t43.5 161t70 111t100 69.5t127 35.5t156 10q78 0 134 -5t113 -20t95.5 -42t73 -71t54 -106t31 -148.5t11.5 -197.5q0 -150 -21 -255t-59.5 -172t-103.5 -105t-141.5 -52t-186.5 -14q-76 0 -132.5 5.5t-112.5 21t-95 42.5t-73 70.5t-54 105 t-31.5 146t-11.5 192.5zM252 1405q0 43 30.5 72.5t73.5 29.5t73 -29.5t30 -72.5t-30 -74t-73 -31t-73.5 31t-30.5 74zM264 584q0 -87 7.5 -152.5t20.5 -113t37 -79.5t50 -51.5t67 -30t80 -13.5t97 -3q53 0 81.5 1.5t73.5 9.5t69 25t54 49t45 79t26 118.5t11 164.5 q0 81 -5 144.5t-19.5 109t-27.5 77.5t-42 52t-49 31.5t-63 16.5t-69.5 6t-81.5 1h-3q-125 0 -172 -12q-104 -26 -147 -137q-40 -102 -40 -293zM774 1405q0 42 31 72t74 30t72.5 -29.5t29.5 -72.5t-30 -74t-72 -31q-43 0 -74 31t-31 74z" />
<glyph horiz-adv-x="1216" d="M90 0q98 131 107 143q-84 134 -84 430q0 149 20 255t57 174t100 107t138.5 54t183.5 15q119 0 199 -13.5t137 -52.5l43 55h125q-17 -20 -48.5 -61t-47.5 -62q94 -128 94 -456q0 -150 -20 -255t-57 -172t-100.5 -105t-139 -52t-185.5 -14q-124 0 -207.5 17.5t-142.5 64.5 q-8 -10 -26 -34.5t-27 -37.5h-119zM264 584q0 -206 39 -301q98 129 286 366.5t265 337.5q-27 18 -69 27t-74.5 10.5t-98.5 1.5q-123 0 -168 -12q-98 -25 -140 -130q-40 -102 -40 -300zM358 199q40 -34 99.5 -46t154.5 -12q47 0 71.5 1t64 6t61 17.5t50.5 32.5t44.5 53.5 t31 79.5t22 110.5t6.5 146.5q0 223 -48 325q-421 -534 -557 -714z" />
<glyph horiz-adv-x="1161" d="M164 532v635h153v-635q-1 -100 11.5 -168.5t36 -112.5t66.5 -68t94 -33t128 -9q66 0 112.5 8.5t89.5 33.5t68.5 68t40.5 113t15 168v635h154v-635q0 -100 -14 -180t-37.5 -136t-60 -97.5t-75.5 -65.5t-90 -38.5t-98 -19.5t-105 -5q-66 0 -115.5 4t-103.5 18t-92 37.5 t-74 64t-57.5 97t-34 137.5t-12.5 184zM451 -166q8 43 51 87t116 75h80q-83 -68 -109.5 -124.5t4.5 -89t112 -34.5v-123q-57 -8 -109 7t-87 45t-50.5 72t-7.5 85z" />
<glyph horiz-adv-x="1255" d="M164 532v635h153v-635q-1 -100 11.5 -168.5t36 -112.5t66.5 -68t94 -33t128 -9q66 0 112.5 8.5t89.5 33.5t68.5 68t40.5 113t15 168v635h154v-635q0 -100 -14 -180t-37.5 -136t-60 -97.5t-75.5 -65.5t-90 -38.5t-98 -19.5t-105 -5q-66 0 -115.5 4t-103.5 18t-92 37.5 t-74 64t-57.5 97t-34 137.5t-12.5 184zM578 1290l219 273h194l-272 -273h-141z" />
<glyph horiz-adv-x="1255" d="M164 532v635h153v-635q-1 -100 11.5 -168.5t36 -112.5t66.5 -68t94 -33t128 -9q66 0 112.5 8.5t89.5 33.5t68.5 68t40.5 113t15 168v635h154v-635q0 -100 -14 -180t-37.5 -136t-60 -97.5t-75.5 -65.5t-90 -38.5t-98 -19.5t-105 -5q-66 0 -115.5 4t-103.5 18t-92 37.5 t-74 64t-57.5 97t-34 137.5t-12.5 184zM344 1290l240 266h145l213 -266h-145l-146 146l-159 -146h-148z" />
<glyph horiz-adv-x="1255" d="M164 532v635h153v-635q-1 -100 11.5 -168.5t36 -112.5t66.5 -68t94 -33t128 -9q66 0 112.5 8.5t89.5 33.5t68.5 68t40.5 113t15 168v635h154v-635q0 -100 -14 -180t-37.5 -136t-60 -97.5t-75.5 -65.5t-90 -38.5t-98 -19.5t-105 -5q-66 0 -115.5 4t-103.5 18t-92 37.5 t-74 64t-57.5 97t-34 137.5t-12.5 184zM276 1395q0 42 31 72t74 30t72.5 -29.5t29.5 -72.5t-30 -74t-72 -31q-43 0 -74 31t-31 74zM799 1395q0 43 30.5 72.5t73.5 29.5t73 -29.5t30 -72.5t-30 -74t-73 -31t-73.5 31t-30.5 74z" />
<glyph horiz-adv-x="1255" d="M164 532v635h153v-635q-1 -100 11.5 -168.5t36 -112.5t66.5 -68t94 -33t128 -9q66 0 112.5 8.5t89.5 33.5t68.5 68t40.5 113t15 168v635h154v-635q0 -100 -14 -180t-37.5 -136t-60 -97.5t-75.5 -65.5t-90 -38.5t-98 -19.5t-105 -5q-66 0 -115.5 4t-103.5 18t-92 37.5 t-74 64t-57.5 97t-34 137.5t-12.5 184zM297 1374q41 34 62.5 50.5t55.5 39t64 32t60 9.5q56 -3 125.5 -36.5t93.5 -34.5q23 -1 60 12.5t55 23t71 37.5l45 -86q-8 -6 -50.5 -40t-62.5 -47.5t-56 -28t-66 -13.5q-49 3 -88.5 21t-70 34t-60.5 15q-40 -1 -70 -12t-64.5 -30.5 t-60.5 -29.5z" />
<glyph horiz-adv-x="1255" d="M164 532v635h153v-635q-1 -100 11.5 -168.5t36 -112.5t66.5 -68t94 -33t128 -9q66 0 112.5 8.5t89.5 33.5t68.5 68t40.5 113t15 168v635h154v-635q0 -100 -14 -180t-37.5 -136t-60 -97.5t-75.5 -65.5t-90 -38.5t-98 -19.5t-105 -5q-66 0 -115.5 4t-103.5 18t-92 37.5 t-74 64t-57.5 97t-34 137.5t-12.5 184zM344 1290v129h598v-129h-598z" />
<glyph horiz-adv-x="2084" d="M76 766q0 -145 67 -206.5t215 -61.5h328q64 0 89.5 -28t25.5 -85v-143q0 -50 -28 -80.5t-87 -30.5l-565 6v-112q51 -17 258.5 -31t306.5 -14q38 0 71.5 5.5t70.5 22.5t63.5 45t43.5 76.5t17 112.5v143q0 120 -68.5 192t-197.5 72h-328h-10q-28 0 -41 1t-31.5 6.5 t-27 17.5t-15 35t-6.5 57v137q0 58 28.5 89.5t102.5 31.5l539 -8v117q-104 14 -282.5 27.5t-256.5 13.5q-152 0 -217 -69t-65 -202v-137zM1118 766v137q0 133 65.5 202t217.5 69q78 0 256 -13.5t282 -27.5v-117q-337 8 -538 8q-74 0 -102.5 -31.5t-28.5 -89.5v-137 q0 -34 6.5 -57t15 -35t27.5 -17.5t31.5 -6.5t40.5 -1h3.5h3h3.5h328q129 0 197.5 -72t68.5 -192v-143q0 -64 -17 -112.5t-43.5 -76.5t-63.5 -45t-70.5 -22.5t-71.5 -5.5q-99 0 -307 14t-259 31v112q369 -6 566 -6q59 0 86.5 30.5t27.5 80.5v143q0 58 -25 85.5t-89 27.5h-328 q-148 0 -215.5 61.5t-67.5 206.5z" />
<glyph horiz-adv-x="1210" d="M72 0l477 1167h151l439 -1167h-166l-123 311h-481l-131 -311h-166zM250 1563h194l220 -273h-142zM430 463h369l-176 487z" />
<glyph horiz-adv-x="1064" d="M113 604q0 80 7 147t23.5 135t47.5 120t76 93t111.5 63t151.5 22q72 0 230.5 -16.5t232.5 -34.5v-121q-24 5 -195.5 12.5t-267.5 7.5q-148 0 -207 -108t-59 -320q0 -55 2.5 -98.5t9.5 -92.5t18.5 -86.5t32 -73t47.5 -58.5t67 -37t89 -15l463 21v-117q-285 -55 -463 -55 q-77 0 -139.5 19.5t-105.5 51.5t-75 81t-50 99.5t-29 115.5t-14.5 121.5t-3.5 123.5zM389 -281l109 31q39 17 52 60t13 112h137q0 -159 -42.5 -218.5t-163.5 -59.5h-105v75z" />
<glyph horiz-adv-x="1214" d="M41 539v110h137v522q37 1 126 0.5t218 -1.5t144 -1q98 0 175 -37.5t123 -96.5t76 -139.5t41 -157t11 -158.5q0 -119 -20.5 -214.5t-49.5 -154.5t-74 -102.5t-81.5 -63.5t-85.5 -31t-72 -12.5t-54 -1.5h-477v539h-137zM338 154h287q70 0 123 22t86.5 59.5t54.5 93t29 116 t8 135.5q0 432 -289 432h-299v-363h203v-110h-203v-385z" />
<glyph horiz-adv-x="1056" d="M164 170v815q0 88 57 136t156 48l588 -24v-125h-584q-43 0 -54.5 -14t-11.5 -54v-290l586 -17v-125l-586 -14v-293q0 -41 18.5 -53.5t55.5 -12.5h576v-122l-629 -29q-77 0 -124.5 47.5t-47.5 126.5zM287 1567h194l219 -273h-141z" />
<glyph horiz-adv-x="1056" d="M164 170v815q0 88 57 136t156 48l588 -24v-125h-584q-43 0 -54.5 -14t-11.5 -54v-290l586 -17v-125l-586 -14v-293q0 -41 18.5 -53.5t55.5 -12.5h576v-122l-629 -29q-77 0 -124.5 47.5t-47.5 126.5zM299 1294l240 267h145l213 -267h-145l-146 146l-160 -146h-147z" />
<glyph horiz-adv-x="438" d="M-82 1563h195l219 -273h-142zM164 0v1167h151v-1167h-151z" />
<glyph horiz-adv-x="438" d="M-106 1395q0 43 30.5 72.5t73.5 29.5t72.5 -29.5t29.5 -72.5t-30 -74t-72 -31q-43 0 -73.5 31t-30.5 74zM164 0v1167h151v-1167h-151zM416 1395q0 43 30.5 72.5t73.5 29.5t73 -29.5t30 -72.5t-30 -74t-73 -31t-73.5 31t-30.5 74z" />
<glyph horiz-adv-x="1234" d="M164 0v1169h145l654 -888v888h149v-1169h-143l-654 897v-897h-151zM270 1376q41 34 62.5 50.5t55.5 39t64 32t60 9.5q56 -3 125.5 -36.5t93.5 -34.5q23 -1 59.5 12.5t56.5 23.5t71 37l45 -86q-12 -9 -41 -32.5t-47.5 -37t-45.5 -30t-52 -23.5t-50 -6q-49 3 -88.5 21 t-70 34t-60.5 15q-40 -1 -70 -12t-64.5 -30.5t-60.5 -29.5z" />
<glyph horiz-adv-x="1247" d="M113 573q0 124 13.5 218t43.5 161t70 111t100 69.5t127 35.5t156 10q78 0 134 -5t113 -20t95.5 -42t73 -71t54 -106t31 -148.5t11.5 -197.5q0 -150 -21 -255t-59.5 -172t-103.5 -105t-141.5 -52t-186.5 -14q-76 0 -132.5 5.5t-112.5 21t-95 42.5t-73 70.5t-54 105 t-31.5 146t-11.5 192.5zM264 584q0 -87 7.5 -152.5t20.5 -113t37 -79.5t50 -51.5t67 -30t80 -13.5t97 -3q53 0 81.5 1.5t73.5 9.5t69 25t54 49t45 79t26 118.5t11 164.5q0 81 -5 144.5t-19.5 109t-27.5 77.5t-42 52t-49 31.5t-63 16.5t-69.5 6t-81.5 1h-3q-125 0 -172 -12 q-104 -26 -147 -137q-40 -102 -40 -293zM311 1573h195l219 -273h-141z" />
<glyph horiz-adv-x="1247" d="M113 573q0 124 13.5 218t43.5 161t70 111t100 69.5t127 35.5t156 10q78 0 134 -5t113 -20t95.5 -42t73 -71t54 -106t31 -148.5t11.5 -197.5q0 -150 -21 -255t-59.5 -172t-103.5 -105t-141.5 -52t-186.5 -14q-76 0 -132.5 5.5t-112.5 21t-95 42.5t-73 70.5t-54 105 t-31.5 146t-11.5 192.5zM264 584q0 -87 7.5 -152.5t20.5 -113t37 -79.5t50 -51.5t67 -30t80 -13.5t97 -3q53 0 81.5 1.5t73.5 9.5t69 25t54 49t45 79t26 118.5t11 164.5q0 81 -5 144.5t-19.5 109t-27.5 77.5t-42 52t-49 31.5t-63 16.5t-69.5 6t-81.5 1h-3q-125 0 -172 -12 q-104 -26 -147 -137q-40 -102 -40 -293zM582 1300l219 273h194l-272 -273h-141z" />
<glyph horiz-adv-x="1255" d="M164 532v635h153v-635q-1 -100 11.5 -168.5t36 -112.5t66.5 -68t94 -33t128 -9q66 0 112.5 8.5t89.5 33.5t68.5 68t40.5 113t15 168v635h154v-635q0 -100 -14 -180t-37.5 -136t-60 -97.5t-75.5 -65.5t-90 -38.5t-98 -19.5t-105 -5q-66 0 -115.5 4t-103.5 18t-92 37.5 t-74 64t-57.5 97t-34 137.5t-12.5 184zM326 1563h194l219 -273h-141z" />
<glyph horiz-adv-x="1159" d="M72 1167h166l346 -618l338 618h165l-430 -778v-391h-151v391zM479 1290l219 273h195l-272 -273h-142z" />
<glyph horiz-adv-x="1099" d="M154 0v1165h149v-211h363q35 0 69.5 -7t77.5 -29.5t75.5 -58.5t54.5 -101.5t22 -151.5q0 -84 -13 -149.5t-37 -106t-51.5 -67t-64 -39t-66.5 -17t-67 -4.5q-245 0 -363 33v-256h-149zM303 383h363q80 0 113.5 46t33.5 179q0 101 -38.5 144t-108.5 51h-363v-420z" />
<glyph horiz-adv-x="552" d="M162 59v136q0 67 61 67h129q60 0 60 -67v-224q0 -66 -24.5 -110t-59.5 -60t-70 -22t-60 -3l-24 3v78q26 -1 43 6.5t24 21.5t9 24.5t2 24.5v64h-29q-27 0 -44 15t-17 46z" />
<glyph horiz-adv-x="892" d="M147 772v223q0 49 13 85.5t34 56.5t46 33t50 16t46 3.5t34 -1.5l13 -2v-78q-21 1 -36 -5t-22.5 -13.5t-12 -20t-5 -20.5t-0.5 -19v-61h27q27 0 45 -16t18 -46v-135q0 -67 -63 -67h-127q-60 0 -60 67zM496 772v223q0 49 13 85.5t34.5 56.5t47 33t50.5 16t46.5 3.5 t34.5 -1.5l13 -2v-78q-80 2 -80 -78v-61h31q26 0 42.5 -15.5t16.5 -46.5v-135q0 -67 -59 -67h-129q-61 0 -61 67z" />
<glyph horiz-adv-x="892" d="M147 987v135q0 68 60 68h129q61 0 61 -68v-223q0 -49 -13 -85.5t-34.5 -56.5t-46.5 -33t-50.5 -16.5t-47 -4t-34.5 1.5l-13 2v77q80 -2 80 78v64h-31q-27 0 -43.5 15t-16.5 46zM496 987v135q0 68 63 68h127q59 0 59 -68v-223q0 -49 -13 -85.5t-33.5 -56.5t-45.5 -33 t-50.5 -16.5t-46 -4t-33.5 1.5l-13 2v77q21 -1 36 5t22.5 13.5t12 20t5 20.5t0.5 19v64h-27q-27 0 -45 15.5t-18 45.5z" />
<glyph horiz-adv-x="892" d="M147 59v136q0 67 60 67h129q61 0 61 -67v-224q0 -48 -13 -84.5t-34.5 -56.5t-46.5 -33.5t-50.5 -16.5t-47 -4t-34.5 1l-13 2v78q80 -2 80 77v64h-31q-27 0 -43.5 15t-16.5 46zM496 59v136q0 67 63 67h127q59 0 59 -67v-224q0 -48 -13 -84.5t-33.5 -56.5t-45.5 -33.5 t-50.5 -16.5t-46 -4t-33.5 1l-13 2v78q26 -1 43 6.5t23 21.5t8 24.5t2 24.5v64h-27q-27 0 -45 15.5t-18 45.5z" />
<glyph horiz-adv-x="550" d="M168 1004v116q0 47 47 47h113q22 0 35.5 -12.5t13.5 -34.5v-116q0 -52 -49 -52h-113q-22 0 -34.5 14.5t-12.5 37.5zM182 0l15 825h153l15 -825h-183z" />
<glyph horiz-adv-x="862" d="M92 811q0 219 72.5 301t267.5 82q194 0 265 -82t71 -301q0 -200 -72 -281t-264 -81t-266 81.5t-74 280.5zM115 268v119h628v-119h-628zM219 811q0 -56 6 -97t21 -66.5t30.5 -40.5t44 -22t50.5 -8.5t61 -1.5q32 0 48.5 0.5t41 3.5t36.5 9.5t28 17.5t23.5 28t16 41.5 t11.5 58.5t4 77q1 47 -1.5 83.5t-10.5 63t-16 45.5t-24 31t-29 18.5t-37.5 10t-41.5 4t-49 0.5q-67 0 -96 -4.5t-62 -27.5t-44 -76.5t-11 -147.5z" />
<glyph horiz-adv-x="845" d="M123 272v119h663v-119h-663zM131 465l260 702h160l231 -702h-120l-60 186h-278l-64 -186h-129zM367 760h196l-90 293z" />
<glyph horiz-adv-x="1054" d="M33 408v96l139 10v121l-139 12v90l139 15q0 35 1 61t9 74t22.5 83.5t44 77.5t70 69.5t104.5 46t144 18.5q60 0 190 -15.5t222 -31.5v-127q-281 22 -412 22q-50 0 -88.5 -9.5t-63.5 -23t-42.5 -38t-26.5 -45t-13.5 -53.5t-5.5 -53.5t-1 -55.5l379 -13v-94l-379 -10v-121 l379 -10v-96q-11 0 -29.5 -0.5t-68.5 -2t-94 -2.5t-89.5 -2.5t-72 -3t-25.5 -2.5q0 -135 64.5 -191.5t176.5 -56.5q73 0 177.5 6.5t172.5 13.5l68 7v-127q-199 -57 -418 -57q-38 0 -80.5 7t-101 32.5t-104 67t-77.5 119t-32 179.5z" />
<glyph horiz-adv-x="1017" d="M164 176v991h151v-960q-1 -19 3.5 -30.5t17 -17t24 -6.5t33.5 -1h553v-152h-606q-82 0 -129 46t-47 130zM463 1114v137h151v-137l-20 -274h-109z" />
<glyph horiz-adv-x="1122" d="M113 766v121q0 287 282 287q80 0 268.5 -14t290.5 -27v-117q-358 8 -559 8q-131 0 -131 -137v-121q0 -34 6.5 -57t15 -35t27.5 -17.5t31.5 -6.5t40.5 -1h10h348q130 0 198.5 -72t68.5 -192v-143q0 -64 -17.5 -112.5t-43.5 -76.5t-63.5 -45t-71 -22.5t-71.5 -5.5 q-101 0 -317.5 14t-267.5 31v112q388 -6 585 -6q24 0 44.5 11.5t32.5 27.5t21.5 32.5t12.5 27.5l4 12v143q0 57 -25.5 85t-89.5 28h-348q-148 0 -215 61.5t-67 206.5zM463 1309l219 272h195l-273 -272h-141z" />
<glyph horiz-adv-x="1122" d="M113 766v121q0 287 282 287q80 0 268.5 -14t290.5 -27v-117q-358 8 -559 8q-131 0 -131 -137v-121q0 -34 6.5 -57t15 -35t27.5 -17.5t31.5 -6.5t40.5 -1h10h348q130 0 198.5 -72t68.5 -192v-143q0 -64 -17.5 -112.5t-43.5 -76.5t-63.5 -45t-71 -22.5t-71.5 -5.5 q-101 0 -317.5 14t-267.5 31v112q388 -6 585 -6q24 0 44.5 11.5t32.5 27.5t21.5 32.5t12.5 27.5l4 12v143q0 57 -25.5 85t-89.5 28h-348q-148 0 -215 61.5t-67 206.5zM295 -285l108 31q39 17 52.5 60t13.5 112h137q0 -159 -43 -218.5t-164 -59.5h-104v75z" />
<glyph horiz-adv-x="1241" d="M238 1016v151h913v-151h-381v-1016h-152v1016h-380zM391 1583h148l163 -145l142 145h145l-213 -266h-145z" />
<glyph horiz-adv-x="1015" d="M72 0v152l671 864h-671v151h872v-151l-663 -864h663v-152h-872zM442 1290l220 273h194l-272 -273h-142z" />
<glyph horiz-adv-x="1015" d="M72 0v152l671 864h-671v151h872v-151l-663 -864h663v-152h-872zM409 1337v111q0 51 49 51h102q23 0 35 -14t12 -37v-111q0 -47 -47 -47h-102q-22 0 -35.5 12.5t-13.5 34.5z" />
<glyph d="M123 0v1169h553q34 0 66.5 -5.5t69 -18.5t67.5 -38t56 -59.5t39.5 -88t14.5 -119.5q0 -70 -11.5 -130.5t-36.5 -112t-70.5 -83.5t-106.5 -37l278 -477h-172l-262 459q-54 4 -193.5 17t-140.5 16v-492h-151zM274 610h402q32 0 56.5 8t50.5 30t40.5 70t14.5 120q0 38 -9 69 t-20 49t-31 31.5t-32 19t-32.5 8.5t-23.5 3h-14h-402v-408zM463 1292l219 273h195l-273 -273h-141z" />
<glyph horiz-adv-x="1210" d="M72 0l477 1167h151l439 -1167h-166l-123 311h-481l-131 -311h-166zM389 1524h96q0 -58 42.5 -98t95.5 -40q60 0 100.5 37.5t40.5 100.5h96q0 -110 -72 -172t-165 -62q-91 0 -162.5 64.5t-71.5 169.5zM430 463h369l-176 487z" />
<glyph horiz-adv-x="1017" d="M164 176v991h151v-960q-1 -19 3.5 -30.5t17 -17t24 -6.5t33.5 -1h553v-152h-606q-82 0 -129 46t-47 130zM188 1290l220 273h194l-272 -273h-142z" />
<glyph horiz-adv-x="1064" d="M113 604q0 80 7 147t23.5 135t47.5 120t76 93t111.5 63t151.5 22q72 0 230.5 -16.5t232.5 -34.5v-121q-24 5 -195.5 12.5t-267.5 7.5q-148 0 -207 -108t-59 -320q0 -55 2.5 -98.5t9.5 -92.5t18.5 -86.5t32 -73t47.5 -58.5t67 -37t89 -15l463 21v-117q-285 -55 -463 -55 q-77 0 -139.5 19.5t-105.5 51.5t-75 81t-50 99.5t-29 115.5t-14.5 121.5t-3.5 123.5zM508 1317l219 272h195l-273 -272h-141z" />
<glyph horiz-adv-x="1056" d="M164 170v815q0 88 57 136t156 48l588 -24v-125h-584q-43 0 -54.5 -14t-11.5 -54v-290l586 -17v-125l-586 -14v-293q0 -41 18.5 -53.5t55.5 -12.5h576v-122l-629 -29q-77 0 -124.5 47.5t-47.5 126.5zM274 1559h148l164 -146l141 146h145l-213 -267h-145z" />
<glyph horiz-adv-x="1234" d="M283 0v1171h505q104 -1 184.5 -39.5t129.5 -97.5t80.5 -139t43 -156.5t11.5 -158.5q0 -93 -12 -172t-30 -134.5t-47.5 -100.5t-56.5 -73t-65.5 -48.5t-66 -30t-66 -15t-57.5 -6t-48 -0.5h-505zM412 1561h147l164 -146l141 146h146l-213 -267h-146zM434 152h354 q70 0 123 23.5t85.5 62t53 95t28 116t7.5 131.5q0 222 -80.5 331t-216.5 109h-354v-868z" />
<glyph horiz-adv-x="1234" d="M164 0v1169h145l654 -888v888h149v-1169h-143l-654 897v-897h-151zM602 1292l219 273h195l-273 -273h-141z" />
</font>
</defs>
</svg>
