<?xml version="1.0" standalone="no"?>
<!DOCTYPE svg PUBLIC "-//W3C//DTD SVG 1.1//EN" "http://www.w3.org/Graphics/SVG/1.1/DTD/svg11.dtd" >
<svg xmlns="http://www.w3.org/2000/svg">
<metadata></metadata>
<defs>
<font id="exomedium" horiz-adv-x="1116" >
<font-face units-per-em="2048" ascent="1638" descent="-410" />
<missing-glyph horiz-adv-x="512" />
<glyph unicode="fi" horiz-adv-x="1255" d="M38 918v135l193 34v102q0 185 113.5 302.5t301.5 118.5q75 0 206.5 -21.5t204.5 -45.5v-119l-358 19q-52 3 -98 -7.5t-89 -37t-68 -81t-25 -131.5v-99l732 -20v-1067h-190v918h-542v-918h-188v918h-193z" />
<glyph unicode="fl" horiz-adv-x="1470" d="M38 918v135l195 34v105q0 193 87.5 305.5t264.5 112.5l567 -1v-1210q0 -86 11.5 -131.5t33 -64.5t66.5 -33q156 -43 170 -43v-127h-196q-147 0 -210 86.5t-63 300.5v1056h-338q-51 0 -86 -10.5t-63.5 -37t-42 -77t-13.5 -126.5v-105h284v-169h-287v-918h-189v918h-191z " />
<glyph unicode="&#xd;" horiz-adv-x="1912" />
<glyph unicode=" "  horiz-adv-x="512" />
<glyph unicode="&#x09;" horiz-adv-x="512" />
<glyph unicode="&#xa0;" horiz-adv-x="512" />
<glyph unicode="!" horiz-adv-x="552" d="M159 47v135q0 51 49 51h132q23 0 35 -14t12 -37v-135q0 -47 -47 -47h-132q-22 0 -35.5 12.5t-13.5 34.5zM167 1497h212l-19 -1096h-175z" />
<glyph unicode="&#x22;" horiz-adv-x="813" d="M163 1362v137h187v-137l-21 -275h-143zM465 1362v137h187v-137l-21 -275h-144z" />
<glyph unicode="#" horiz-adv-x="1425" d="M38 463l20 131h322l50 313h-322l22 131h322l76 461h131l-76 -461h316l74 461h131l-74 -461h360l-22 -131h-359l-51 -315h360l-19 -131h-364l-75 -461h-132l76 461l-316 2l-76 -463h-131l76 463h-319zM511 594l316 -2l51 315h-317z" />
<glyph unicode="$" horiz-adv-x="1173" d="M105 1007v134q1 105 30.5 178.5t84.5 114t121.5 58t154.5 19.5v177h134v-182q162 -12 385 -46v-148q-47 1 -163.5 5.5t-214.5 9t-105 4.5q-58 2 -96.5 -4t-73 -25t-51.5 -60.5t-17 -106.5v-119q0 -185 199 -185h246q83 0 144.5 -22.5t96.5 -57t56 -85.5t27.5 -97.5 t6.5 -102.5v-128q0 -106 -37.5 -180.5t-103 -112t-139 -51.5t-160.5 -10v-168h-134v176q-187 16 -344 46v142q16 0 195.5 -7t291.5 -7q242 0 242 169v123q0 89 -35.5 137t-124.5 48h-245q-90 0 -158.5 24t-108 60t-64 86.5t-32.5 96.5t-8 97z" />
<glyph unicode="%" horiz-adv-x="1957" d="M80 974v266q0 136 59 197.5t209 61.5h207q146 0 204.5 -62t58.5 -197v-266q0 -136 -58.5 -197.5t-208.5 -61.5h-207q-146 0 -205 62t-59 197zM232 983q0 -69 25 -93t94 -24h192q79 0 101 24.5t22 92.5v248q0 70 -25.5 93.5t-93.5 23.5h-192q-78 0 -100.5 -23.5 t-22.5 -93.5v-248zM454 0l902 1499h162l-900 -1499h-164zM1142 263v267q0 136 58.5 197.5t208.5 61.5h207q146 0 205 -62t59 -197v-267q0 -136 -59 -197.5t-209 -61.5h-207q-146 0 -204.5 62t-58.5 197zM1294 273q0 -69 25 -93t94 -24h191q79 0 101.5 24.5t22.5 92.5v247 q0 70 -25.5 93.5t-94.5 23.5h-191q-78 0 -100.5 -23.5t-22.5 -93.5v-247z" />
<glyph unicode="&#x26;" horiz-adv-x="1327" d="M68.5 476.5q24.5 157.5 162.5 274.5l167 143l-123 168q-78 112 -66 206t74.5 156t140.5 71q86 9 164 9.5t148.5 -7.5t122 -17.5t116.5 -25.5v-131h-394q-89 0 -132 -22t-38 -75.5t69 -139.5l445 -602l237 241l62 -69l-109 -220l-83 -91l251 -345h-223l-162 219l-143 -132 q-79 -73 -192 -92t-226 26t-184 147q-109 151 -84.5 308.5zM311 272q39 -49 95 -77t121 -23t114 52l147 139l-289 384l-145 -122q-194 -161 -43 -353z" />
<glyph unicode="'" horiz-adv-x="399" d="M105 1362v137h191v-137l-21 -275h-147z" />
<glyph unicode="(" horiz-adv-x="708" d="M143 668q0 165 34.5 338t83.5 302.5t98.5 235.5t84.5 162l34 55h194q-14 -22 -37 -61t-81.5 -160.5t-103.5 -244.5t-81.5 -296t-36.5 -331q0 -173 35 -350t85 -305.5t100 -232.5t85 -157l35 -53h-194q-7 9 -19 25.5t-47 74t-66.5 121t-70 163t-66.5 203t-47 239 t-19 272.5z" />
<glyph unicode=")" horiz-adv-x="708" d="M38 -430q7 10 19.5 28.5t47.5 80.5t67 128.5t71.5 168t67.5 204t47.5 232.5t19.5 256q0 158 -35 328.5t-85 301t-100 239t-85 166.5l-35 58h194q14 -21 36.5 -58t80 -156t102 -240.5t80.5 -297.5t36 -341q0 -137 -18.5 -271.5t-48 -240.5t-65 -202t-71.5 -164t-65.5 -119 t-48.5 -76l-18 -25h-194z" />
<glyph unicode="*" horiz-adv-x="892" d="M96 1159v91l284 57l11 -158zM229 849l49 278l154 -37l-118 -268zM355 1470l88 35l149 -245l-145 -64zM416 970l87 132l227 -186l-50 -73zM508 1169l245 158l46 -79l-190 -199z" />
<glyph unicode="+" horiz-adv-x="1038" d="M93 641v176h336v338h176v-338h340v-176h-340v-338h-176v338h-336z" />
<glyph unicode="," horiz-adv-x="546" d="M163 51v129q0 56 51 56h123q49 0 49 -56v-203q0 -57 -22 -94t-53 -49.5t-62.5 -16.5t-53.5 -1l-22 4v75q28 -1 43 10.5t17.5 22.5t2.5 27v45h-22q-23 0 -37 13t-14 38z" />
<glyph unicode="-" horiz-adv-x="724" d="M41 506v176h643v-176h-643z" />
<glyph unicode="." horiz-adv-x="550" d="M163 47v135q0 51 49 51h127q51 0 51 -51v-135q0 -47 -51 -47h-127q-22 0 -35.5 12.5t-13.5 34.5z" />
<glyph unicode="/" horiz-adv-x="849" d="M38 -147l576 1724h198l-575 -1724h-199z" />
<glyph unicode="0" horiz-adv-x="1308" d="M134 341v814q0 165 100 254.5t259 89.5h336q93 0 162 -27t108.5 -75.5t58 -108t18.5 -130.5v-817q0 -176 -91.5 -258.5t-256.5 -82.5h-335q-77 0 -140 19t-113 58.5t-78 107t-28 156.5zM322 354q0 -92 54.5 -132t133.5 -40h299q179 0 179 171v793q0 171 -177 171h-303 q-96 0 -141 -48.5t-45 -122.5v-792z" />
<glyph unicode="1" horiz-adv-x="745" d="M76 1196v130l330 173h188v-1499h-189v1296z" />
<glyph unicode="2" horiz-adv-x="1216" d="M76 1335v141q319 44 623 44q87 0 159 -24.5t120 -66.5t81 -99t48 -119.5t15 -130.5q0 -79 -31 -165.5t-79 -162t-115.5 -155t-129.5 -139.5t-133 -120.5t-114 -93.5t-84 -62h686v-182h-1031v170q66 45 138 97.5t174.5 133t190 164.5t167 173.5t125.5 180t46 164.5 q0 116 -63 184t-196 68h-597z" />
<glyph unicode="3" horiz-adv-x="1210" d="M57 1321v125q84 29 196.5 43.5t222 14.5t236.5 -1q166 -3 261 -98t95 -246v-132q0 -111 -37 -183t-104 -99q141 -79 141 -298v-111q0 -172 -92.5 -261t-278.5 -89h-75h-79t-70 0.5t-75.5 2.5t-66.5 4.5t-72 7t-62.5 10t-67.5 14t-59 18.5l2 127h586q51 0 84.5 5.5 t67 22.5t50 54t16.5 95v105q0 193 -206 200l-473 15v149l473 21q210 9 210 187v123q0 90 -60.5 132t-149.5 42h-613z" />
<glyph unicode="4" horiz-adv-x="1243" d="M38 459l624 1040h217l-560 -941h524v402l73 154h115v-556h176v-148l-176 -42v-364h-188v364h-735z" />
<glyph unicode="5" horiz-adv-x="1230" d="M146 41v143h610q50 0 85.5 15.5t54.5 42.5t27 56.5t8 63.5v202q0 27 -1.5 45.5t-11 46t-26.5 44.5t-51 30t-82 13h-281q-65 0 -111 -35.5t-46 -108.5h-172l45 900h877v-182h-700l-22 -453q43 47 148 59q45 6 101 6t112.5 -3t71.5 -3q173 -2 255 -96t82 -254v-227 q0 -81 -23 -144.5t-59 -102t-84 -63.5t-92.5 -34.5t-89.5 -9.5q-208 0 -320 8t-305 41z" />
<glyph unicode="6" horiz-adv-x="1267" d="M125 786q0 157 20.5 282.5t54 206t79.5 134.5t95 77t103 24q309 7 627 -40v-141h-570q-53 0 -94 -35t-63.5 -86.5t-37.5 -121.5t-20 -126.5t-6 -116.5q297 43 505 43q102 0 171 -25t103.5 -72t48 -99t13.5 -122v-256q0 -314 -339 -314h-302q-73 1 -128 20.5t-106 72 t-83.5 139.5t-51.5 227t-19 329zM313 707q0 -51 1 -91.5t6 -98t14 -101t26 -90t39.5 -77t57.5 -50t79 -19.5h265q84 0 125 30.5t41 124.5v224q0 83 -44 115.5t-121 32.5h-489z" />
<glyph unicode="7" horiz-adv-x="1122" d="M57 1317v182h947l62 -107l-532 -1392h-216l509 1317h-770z" />
<glyph unicode="8" horiz-adv-x="1292" d="M143 323v187q0 99 47 149.5t124 72.5q-48 18 -83 50t-53.5 72.5t-26.5 81.5t-8 86v133q0 101 27 171.5t78 109.5t115 56t147 17h302q171 0 254.5 -84t83.5 -270v-127q1 -24 -3.5 -54t-18 -70t-47.5 -71.5t-85 -41.5q41 -7 72.5 -38.5t48.5 -73t25.5 -83t7.5 -77.5v-194 q0 -79 -22.5 -139.5t-56 -94.5t-81 -55.5t-90.5 -28.5t-90 -7h-300q-74 0 -133 13.5t-96.5 34t-65 51.5t-41 58t-21 62.5t-9 56.5t-1.5 47zM332 327q0 -74 45.5 -111t146.5 -37h268q71 0 120.5 38t49.5 110v195q0 76 -46.5 116t-117.5 40h-293q-77 0 -125 -37t-48 -119v-195 zM332 1012q0 -46 16.5 -79t44 -49.5t55.5 -24t57 -7.5h292q165 0 165 160v127q0 104 -41 147.5t-127 43.5h-270q-51 0 -82 -6t-58.5 -25t-39.5 -58t-12 -102v-127z" />
<glyph unicode="9" horiz-adv-x="1267" d="M115 940v256q0 314 339 314h302q73 -1 128.5 -20.5t106 -72.5t83 -140t51.5 -227t19 -329q0 -157 -20.5 -282.5t-54 -206t-79.5 -134t-95 -76.5t-103 -24q-392 -9 -628 39v142h570q66 0 112 50t68 132t31.5 154.5t10.5 149.5q-297 -43 -505 -43q-102 0 -171 25t-103.5 72 t-48 99t-13.5 122zM302 949q0 -83 43.5 -115.5t120.5 -32.5h490q0 51 -1 91.5t-6 98t-14 101t-26 90t-39.5 77t-57.5 50t-79 19.5h-265q-84 0 -125 -31t-41 -125v-223z" />
<glyph unicode=":" horiz-adv-x="550" d="M163 47v135q0 51 49 51h127q51 0 51 -51v-135q0 -47 -51 -47h-127q-22 0 -35.5 12.5t-13.5 34.5zM163 903v135q0 51 49 51h127q51 0 51 -51v-135q0 -47 -51 -47h-127q-22 0 -35.5 12.5t-13.5 34.5z" />
<glyph unicode=";" horiz-adv-x="555" d="M163 51v129q0 23 14 39.5t37 16.5h123q23 0 36 -16t13 -40v-203q0 -57 -22 -94t-53 -49.5t-62.5 -16.5t-53.5 -1l-22 4v75q28 -1 43 10.5t17.5 22.5t2.5 27v45h-22q-21 0 -36 15.5t-15 35.5zM166 905v135q0 51 49 51h127q52 0 52 -51v-135q0 -48 -52 -48h-127 q-22 0 -35.5 13t-13.5 35z" />
<glyph unicode="&#x3c;" horiz-adv-x="958" d="M96 628v192l768 322v-192l-538 -225l538 -246v-195z" />
<glyph unicode="=" horiz-adv-x="956" d="M41 419v176h874v-176h-874zM41 850v176h874v-176h-874z" />
<glyph unicode="&#x3e;" horiz-adv-x="958" d="M96 284v195l537 246l-537 225v192l768 -322v-192z" />
<glyph unicode="?" horiz-adv-x="1107" d="M38 1329v140q251 37 353 43q106 6 225 1q112 0 195.5 -31.5t130 -86.5t68.5 -121.5t22 -145.5v-191q0 -134 -63 -217.5t-171 -111t-254 -8.5v-201h-175v351h275q85 3 143.5 49.5t58.5 138.5v181q0 111 -62.5 160.5t-202.5 49.5h-543zM344 47v135q0 51 49 51h130 q23 0 35.5 -14t12.5 -37v-135q0 -47 -48 -47h-130q-22 0 -35.5 12.5t-13.5 34.5z" />
<glyph unicode="@" horiz-adv-x="1740" d="M125 6v688q0 27 2 52t10.5 62.5t23 68t42 64t65 56t94.5 37.5t128 15h428q50 0 93 -7.5t87 -28t75 -52.5t50.5 -85.5t19.5 -122.5v-753h-134l-31 128l-20 -15q-19 -15 -52.5 -36.5t-75.5 -43t-97 -36.5t-107 -15q-116 -2 -190 70t-72 178v103q0 128 71.5 201.5 t201.5 73.5h337q2 137 0 137q0 77 -38 104t-122 27h-424q-33 0 -58 -3.5t-51.5 -14.5t-43.5 -30.5t-28 -54t-11 -82.5v-679q0 -214 192 -214h706q120 0 165.5 51.5t45.5 162.5v1018q0 115 -57 175t-154 60h-828v118q282 57 599 55h229q174 -2 279 -104.5t105 -303.5v-1018 q0 -389 -381 -389h-709q-167 0 -266 97.5t-99 285.5zM640 249q0 -34 35 -64.5t82 -29.5q127 -2 317 104v227l-320 -29q-56 -6 -86 -40t-28 -86v-82z" />
<glyph unicode="A" horiz-adv-x="1384" d="M86 0l539 1499h199l515 -1499h-214l-123 394h-569l-127 -394h-220zM494 574h451l-222 654z" />
<glyph unicode="B" horiz-adv-x="1224" d="M153 0v1499h589q108 0 188.5 -35t124.5 -94t64.5 -124.5t20.5 -138.5q0 -123 -45.5 -212t-147.5 -117q84 -18 145 -108.5t61 -245.5q0 -90 -20.5 -163t-65.5 -133.5t-127.5 -94t-196.5 -33.5h-590zM343 179h397q33 0 60.5 4.5t59 20.5t53.5 42t36.5 73.5t14.5 110.5 q0 114 -56 190t-168 76h-397v-517zM343 872h394q106 0 161 57.5t55 170.5q0 65 -19.5 110.5t-53 68t-68 32t-75.5 9.5h-394v-448z" />
<glyph unicode="C" horiz-adv-x="1179" d="M105 754q0 151 13 264t46.5 210.5t90 158.5t144.5 95t209 34q102 0 249 -16t257 -40v-149l-18 1q-17 1 -46.5 3t-67.5 4.5t-84 5t-91.5 4.5t-93.5 3t-87 1q-64 0 -109.5 -9.5t-84.5 -34t-63.5 -65.5t-42 -106.5t-25 -155t-7.5 -212.5q0 -88 6.5 -160t21 -139t40 -117 t61.5 -87.5t87 -57t116 -19.5q96 0 218 4t196 8l74 3v-149q-101 -22 -249 -36q-138 -13 -242 -12h-15q-111 0 -197.5 37t-143.5 103t-94 163t-52.5 210.5t-15.5 252.5z" />
<glyph unicode="D" horiz-adv-x="1347" d="M153 0v1499h579q94 0 171.5 -25.5t131.5 -67.5t95 -103t65.5 -125.5t39.5 -143t20.5 -147t5.5 -144.5q0 -114 -17.5 -218.5t-57.5 -201.5t-100 -168t-151 -113t-203 -42h-579zM342 184h384q90 0 158 43.5t108.5 121t60.5 177t20 219.5q0 158 -23.5 270t-69.5 178.5 t-108 96.5t-146 30h-384v-1136z" />
<glyph unicode="E" horiz-adv-x="1161" d="M152 264v957q0 78 23 135t63.5 87.5t87.5 44.5q41 12 88 11h14q615 -28 651 -33v-151h-633q-38 0 -61 -9t-32 -28.5t-11 -34t-2 -42.5v-362l654 -21v-152l-654 -20v-362q1 -31 9.5 -52.5t18 -32t31 -15.5t32 -5.5t36.5 -0.5h612v-149l-630 -35q-17 -1 -34 -1 q-263 0 -263 271z" />
<glyph unicode="F" horiz-adv-x="1161" d="M152 0v1219q0 77 22.5 134t62 88.5t87.5 45.5q42 12 90 12h14q615 -28 651 -33v-151h-633q-38 0 -61 -9t-32 -28.5t-11 -34t-2 -42.5v-362l654 -21v-152l-654 -20v-646h-188z" />
<glyph unicode="G" horiz-adv-x="1257" d="M105 758q0 95 5 173.5t19 158.5t37 142t60 116.5t87 90.5t119 56.5t155 20.5q105 0 260 -17t276 -42v-148q-2 0 -37 3t-90 6.5t-119 7.5t-138 7t-133 3q-77 0 -131.5 -23t-90 -65.5t-55.5 -116t-27.5 -162t-7.5 -215.5q0 -134 9.5 -228.5t31 -164t59 -110t89 -59.5 t125.5 -20h6q65 0 150 22q89 24 144 48l56 24v371h-307v124q157 51 357 51q66 0 139 -6v-806h-140l-45 100q-168 -108 -375 -110h-9q-83 0 -152 18q-71 20 -121.5 55t-87.5 91t-59.5 117.5t-36 144.5t-18 162.5t-4.5 179.5z" />
<glyph unicode="H" horiz-adv-x="1304" d="M153 0v1499h189v-683h661v683h188v-1499h-188v634h-661v-634h-189z" />
<glyph unicode="I" horiz-adv-x="454" d="M153 0v1499h189v-1499h-189z" />
<glyph unicode="J" horiz-adv-x="733" d="M67 44l7 142q128 -25 179 -25h4q132 2 164 121q10 39 10 90v1127h188v-1161q0 -47 -2.5 -80.5t-12 -79.5t-33 -82t-59.5 -59q-78 -49 -209 -49h-15q-141 3 -221 56z" />
<glyph unicode="K" horiz-adv-x="1230" d="M153 0v1499h185v-659h155l447 659h225l-501 -748l501 -751h-225l-447 660h-153v-660h-187z" />
<glyph unicode="L" horiz-adv-x="1130" d="M153 267v1232h189v-1210q0 -31 8.5 -52.5t18 -32t30.5 -16t32.5 -6t36.5 -0.5h596v-182h-623q-48 0 -85.5 5.5t-77 22.5t-65.5 45t-43 77.5t-17 116.5z" />
<glyph unicode="M" horiz-adv-x="1665" d="M105 0l108 1499h260l359 -1186l349 1186h259l122 -1499h-188l-94 1164l-346 -1164h-200l-357 1164l-84 -1164h-188z" />
<glyph unicode="N" horiz-adv-x="1390" d="M153 0v1499h193l743 -1149v1149h188v-1499h-188l-745 1146v-1146h-191z" />
<glyph unicode="O" horiz-adv-x="1380" d="M125 739q0 116 9 211.5t25 169t42 131t55 98.5t70 70t80.5 46.5t93 27.5t101.5 13t111 3q65 0 113.5 -3t102.5 -13t93 -27.5t79.5 -46.5t68.5 -70t53.5 -98.5t41 -131t24 -169t8.5 -211.5q0 -140 -13.5 -249.5t-37 -188t-63.5 -134.5t-84.5 -89.5t-109 -53t-127.5 -26 t-149 -6.5q-60 0 -106 2.5t-96.5 9.5t-87.5 20.5t-75.5 34t-66.5 51t-54.5 71.5t-44 95.5t-31 122.5t-19.5 153t-6 187zM313 739q0 -126 8 -214t28.5 -152t48 -102t76 -60t102.5 -29.5t136 -7.5q79 0 133.5 8.5t101.5 31.5t75.5 62t49 103t28.5 151t8 209t-9 213t-22 154 t-42 105t-54.5 65t-75 34.5t-87.5 14t-106 2.5t-105 -2.5t-86.5 -13.5t-75.5 -34t-55.5 -65t-43.5 -105t-23.5 -154.5t-9.5 -213.5z" />
<glyph unicode="P" horiz-adv-x="1200" d="M118 0v1499h624q374 0 374 -442q0 -91 -13 -163t-33.5 -120t-52 -82.5t-62 -53t-71.5 -28.5q-40 -12 -71 -14q-22 -2 -49 -1h-22q-59 1 -243.5 18.5t-192.5 22.5v-636h-188zM306 774h430q34 0 59.5 5.5t51 23t42 47.5t27 82t10.5 124q-1 70 -14.5 120.5t-32.5 77 t-46.5 42t-48.5 19t-48 3.5h-430v-544z" />
<glyph unicode="Q" horiz-adv-x="1380" d="M125 739q0 116 9 211.5t24 169t40.5 131t54 98.5t69 70t80 46.5t93 27.5t102 13t112.5 3q65 0 114 -3t102.5 -13t93 -27.5t80.5 -46.5t69 -70t54 -98.5t41 -131t24 -169t9 -211.5q0 -123 -9.5 -222t-30.5 -174t-48 -131t-67.5 -94.5t-83 -63t-101.5 -38.5t-115.5 -19 t-131.5 -5q-67 0 -117.5 3t-105 12.5t-93.5 26.5t-79 45t-67.5 68t-52 95.5t-38.5 127t-22.5 164t-8.5 205.5zM313 739q0 -94 4 -166t15 -130.5t25.5 -99.5t39.5 -71.5t52.5 -49t69 -29.5t85.5 -15t105 -4q79 0 133.5 8.5t102 31.5t76.5 62t49.5 103t29 151t8.5 209t-9 213 t-22.5 154t-43 105t-55 65t-75 34.5t-87.5 14t-107 2.5q-68 0 -104.5 -2.5t-86 -13.5t-75 -34t-55 -65t-43 -105t-23 -154.5t-9.5 -213.5zM640 -68h122q53 -45 112 -62q44 -13 84 -13q14 0 28 2q52 6 117 28v-182q-49 -16 -107 -18h-15q-51 0 -103 12q-60 14 -110 42.5 t-85 78t-43 112.5z" />
<glyph unicode="R" horiz-adv-x="1220" d="M118 0v1499h644q363 0 363 -455q0 -79 -11.5 -144t-27.5 -107.5t-42 -76t-46 -50.5t-50 -30.5t-43 -17t-35 -7.5l307 -611h-207l-297 600l-367 29v-629h-188zM307 788h447q22 0 35.5 1t32.5 4t31 10.5t26.5 19.5t23 31t16.5 45t11.5 62.5t3.5 82.5q0 87 -14.5 144.5 t-42.5 84t-56 36t-67 9.5h-447v-530z" />
<glyph unicode="S" horiz-adv-x="1198" d="M125 1007v134q0 87 20.5 152.5t55.5 106t88 66t110.5 35.5t130.5 10h10q94 1 264 -17q179 -18 256 -34v-151q-85 6 -282.5 13t-225.5 7q-24 1 -44 1t-35 -1q-31 -2 -64 -12.5t-52 -31t-31.5 -58t-12.5 -92.5v-119q0 -61 12.5 -99.5t41 -56.5t59.5 -23.5t83 -5.5h276 q329 0 329 -365v-128q0 -88 -24.5 -153.5t-62.5 -103t-94.5 -60t-111 -30t-121.5 -7.5q-104 0 -274 17.5t-256 36.5v150q226 -22 515 -22q33 0 58.5 2t62.5 11.5t60.5 26t41.5 50t18 79.5v123q0 89 -35 137t-124 48h-272q-97 0 -167.5 23.5t-108.5 57.5t-60.5 86.5t-28 96 t-5.5 100.5z" />
<glyph unicode="T" horiz-adv-x="1191" d="M84 1317v182h1059v-182h-441v-1317h-188v1317h-430z" />
<glyph unicode="U" horiz-adv-x="1378" d="M153 655v844h189v-844q0 -88 5.5 -157t20.5 -119t29.5 -86t44 -58.5t52 -35.5t65 -18.5t72 -7t83.5 -1.5q39 0 65.5 1.5t60.5 6.5t57 14.5t49.5 27t44 42.5t35 61t27.5 83t16 109t6 138v844h190v-844q0 -138 -19 -245t-45.5 -176.5t-75.5 -118t-88.5 -72.5t-106.5 -36.5 t-106 -14.5t-110 -2q-164 0 -229 12q-161 29 -239 160q-93 157 -93 493z" />
<glyph unicode="V" horiz-adv-x="1380" d="M86 1499h204l409 -1220l431 1220h203l-535 -1499h-201z" />
<glyph unicode="W" horiz-adv-x="1986" d="M86 1499h204l408 -1201l343 1201h209l-130 -454l263 -758l353 1212h204l-454 -1499h-200l-260 724l-228 -724h-201z" />
<glyph unicode="X" horiz-adv-x="1245" d="M86 1499h207l346 -597l352 597h207l-444 -742l434 -757h-207l-342 596l-340 -596h-207l431 757z" />
<glyph unicode="Y" horiz-adv-x="1304" d="M86 1499h206l361 -768l399 768h205l-511 -985v-514h-188v514z" />
<glyph unicode="Z" horiz-adv-x="1148" d="M67 0v182l777 1135h-777v182h1016v-182l-768 -1135h768v-182h-1016z" />
<glyph unicode="[" horiz-adv-x="663" d="M163 -62v1425q0 49 6.5 93.5t26 95.5t50.5 87.5t86 60.5t128 24h167v-176h-149q-59 0 -93 -51t-34 -143v-1413q0 -92 34 -143.5t93 -51.5h149v-176h-167q-75 0 -131.5 26t-87 64t-49 91t-24 96t-5.5 91z" />
<glyph unicode="\" horiz-adv-x="849" d="M38 1577h199l575 -1724h-198z" />
<glyph unicode="]" horiz-adv-x="663" d="M38 -254h149q59 0 93 51.5t34 143.5v1413q0 92 -34 143t-93 51h-149v176h167q73 0 128 -24t86 -60.5t50.5 -87.5t26 -95.5t6.5 -93.5v-1425q0 -48 -5.5 -91t-24 -96t-49 -91t-87 -64t-131.5 -26h-167v176z" />
<glyph unicode="^" horiz-adv-x="796" d="M96 1087l234 270h164l209 -270h-158l-137 140l-153 -140h-159zM494 1357z" />
<glyph unicode="_" horiz-adv-x="1380" d="M41 -2v176h1298v-176h-1298z" />
<glyph unicode="`" horiz-adv-x="495" d="M38 1363h210l210 -276h-154z" />
<glyph unicode="a" horiz-adv-x="1062" d="M76 263v119q0 126 74.5 203t210.5 77q209 -1 313.5 -1t104.5 1q1 58 1 87.5t-1 30.5q0 87 -41.5 123t-120.5 36q-167 0 -505 -24v128q199 62 520 65h7q147 0 237 -78q92 -80 92 -247v-783h-144l-45 128q-3 -3 -28.5 -17t-71 -35t-96.5 -41t-112.5 -33.5t-112.5 -13.5 q-125 2 -203.5 77t-78.5 198zM265 282q0 -67 30.5 -94t84.5 -27q68 0 167.5 24.5t165.5 49.5l66 25v267l-402 -29q-112 -11 -112 -127v-89z" />
<glyph unicode="b" horiz-adv-x="1134" d="M115 0v1608h185v-583q86 36 197 57.5t186 21.5q89 0 155 -31.5t104 -81.5t61 -126.5t30.5 -152.5t7.5 -173q0 -87 -9 -162t-34 -149t-64 -125t-103 -83t-148 -32q-92 0 -210 45t-171 85l-44 -118h-143zM302 252q192 -87 361 -87q189 0 189 377q0 154 -23.5 242t-62.5 118 t-103 30q-185 0 -361 -50v-630z" />
<glyph unicode="c" horiz-adv-x="1019" d="M96 545q0 115 11.5 203.5t35 148t53.5 100t72.5 62.5t86 30.5t99.5 8.5q86 0 226.5 -16t249.5 -41v-129q-260 13 -442 13q-31 0 -51 -2t-44 -10.5t-38.5 -24t-29.5 -44t-23 -69.5t-13 -100.5t-5 -137.5q0 -151 21.5 -232.5t63.5 -111.5t119 -30q84 0 198 5.5t186 10.5 l73 5v-132q-77 -26 -166.5 -40t-154 -17.5t-170.5 -4.5q-66 0 -116 12.5t-97.5 48t-77.5 96t-48.5 161t-18.5 237.5z" />
<glyph unicode="d" horiz-adv-x="1134" d="M96 539q0 69 3.5 125.5t13.5 116t26.5 106t44 88.5t64.5 69.5t89 43.5t116 16q75 0 185.5 -21.5t196.5 -57.5v583h187v-1608h-144l-43 118q-53 -40 -171.5 -85t-210.5 -45q-357 0 -357 551zM284 542q0 -377 189 -377q170 0 362 87v630q-176 50 -362 50q-64 0 -103 -30 t-62.5 -118t-23.5 -242z" />
<glyph unicode="e" horiz-adv-x="1075" d="M96 549q0 120 11 207t37.5 148t61.5 98.5t92.5 58.5t119.5 28t153 7q57 0 97 -2t84.5 -8t74 -18t60 -31t49 -48t34 -68.5t22.5 -92.5t7 -120q0 -256 -287 -256h-428q0 -120 21 -182t64.5 -84.5t127.5 -22.5h73.5h77t64.5 0.5t72 2t61 3.5t70 5.5t63 8.5v-136 q-186 -57 -524 -57q-140 0 -216.5 53.5t-109 172t-32.5 333.5zM284 616h408q118 0 118 96q0 51 -3 83.5t-14 58t-25 38.5t-43 21.5t-61.5 10.5t-86.5 2q-38 0 -59.5 -0.5t-51.5 -2.5t-45.5 -6.5t-37 -12t-32.5 -19t-24.5 -28.5t-19.5 -39.5t-12.5 -52t-8.5 -66.5t-2 -83z " />
<glyph unicode="f" horiz-adv-x="821" d="M38 918v135l191 34v203q0 47 4.5 84.5t20.5 84t44 77.5t79.5 52.5t122.5 21.5q134 0 283 -49v-120l-236 2q-37 1 -62 -8t-38.5 -21t-20 -38t-7.5 -45.5t-1 -58.5v-185h287v-169h-287v-918h-189v918h-191z" />
<glyph unicode="g" horiz-adv-x="1136" d="M89 -73l86 124q-41 28 -62.5 75.5t-21.5 101.5q0 60 31.5 112t91.5 65q-62 39 -90.5 122.5t-28.5 177.5q0 192 94 289.5t266 97.5h645v-130l-154 -37q1 -3 13.5 -25.5t17 -34.5t13 -38t11.5 -58.5t3 -73.5q0 -46 -7.5 -92t-30.5 -101.5t-59 -97.5t-101 -70.5t-149 -28.5 h-301q-84 0 -84 -58q0 -65 84 -65h408q132 0 206 -78t74 -216v-126q0 -44 -7 -84t-28 -83.5t-54.5 -75t-92 -52t-135.5 -20.5h-307q-151 0 -241 80t-90 235v165zM278 22v-250q0 -49 14.5 -81.5t41 -46.5t51 -19t56.5 -5h270q81 0 113 39t32 111v108q0 70 -27 100t-104 30 h-356q-25 0 -48 3.5t-33 6.5zM283 705q0 -42 7.5 -78.5t25.5 -72t53.5 -56t86.5 -20.5h177q53 0 91 21t57 56.5t27 72.5q7 33 7 68v9q-4 110 -42.5 162t-141.5 52h-164q-184 0 -184 -214z" />
<glyph unicode="h" d="M115 0v1605h188v-641q123 75 171 96q105 46 215 46q161 0 247 -103t86 -254v-749h-188v750q0 92 -45 137.5t-122 45.5q-104 0 -174 -23.5t-190 -87.5v-822h-188z" />
<glyph unicode="i" horiz-adv-x="419" d="M96 1260v130q0 51 49 51h133q23 0 35 -14t12 -37v-130q0 -47 -47 -47h-133q-22 0 -35.5 12.5t-13.5 34.5zM113 0v1087h189v-1087h-189z" />
<glyph unicode="j" horiz-adv-x="458" d="M115 1260v130q0 51 49 51h133q23 0 35 -14t12 -37v-130q0 -47 -47 -47h-133q-22 0 -35.5 12.5t-13.5 34.5zM135 -553v1640h188v-1095v-43q0 -332 -59 -502h-129z" />
<glyph unicode="k" horiz-adv-x="1054" d="M115 0v1602h188v-895h76l387 380h252l-463 -465l463 -622h-230l-409 537h-76v-537h-188z" />
<glyph unicode="l" horiz-adv-x="620" d="M115 387v1217h188v-1205q0 -83 15 -132t37 -68t59 -29q156 -43 170 -43v-127h-196q-63 0 -111.5 20t-85.5 64.5t-56.5 120.5t-19.5 182z" />
<glyph unicode="m" horiz-adv-x="1824" d="M115 0v1087h140l48 -127q10 6 42 26t43.5 26.5t40.5 22.5t45 22.5t43.5 17t50 15t51 8t58.5 3.5q102 0 182 -41.5t114 -113.5q194 155 425 155q151 0 242 -99.5t91 -259.5v-742h-188v743q0 85 -46.5 135t-120.5 50q-114 0 -196 -23.5t-169 -83.5q0 -1 0.5 -37.5 t0.5 -38.5v-745h-189v743q0 85 -47 135t-121 50q-100 0 -166 -22.5t-186 -86.5v-819h-188z" />
<glyph unicode="n" d="M115 0v1087h140l48 -123q7 4 34 20.5t35.5 21.5t33 19t36 19.5t35 16.5t38.5 15.5t38.5 11.5t43 10t44 5.5t48.5 2.5q161 0 247 -103t86 -254v-749h-188v750q0 92 -45.5 137.5t-121.5 45.5q-104 0 -174 -23.5t-190 -87.5v-822h-188z" />
<glyph unicode="o" horiz-adv-x="1157" d="M96 528q0 135 16 230t50 162t92.5 105.5t136 55.5t188.5 17q113 0 192.5 -18t137 -57.5t90.5 -107.5t48.5 -161.5t15.5 -225.5q0 -155 -23 -255t-80.5 -164.5t-148.5 -91.5t-232 -27q-139 0 -231 28.5t-148.5 95t-80 165.5t-23.5 249zM284 528q0 -63 4.5 -113t14.5 -87.5 t22.5 -64.5t33 -45t41 -29t51.5 -16.5t59 -7.5t69 -2q49 0 81 2.5t66.5 10.5t55.5 24t40.5 42t30 65.5t16.5 93.5t6 127q0 69 -3.5 122t-12 94.5t-19.5 70t-30.5 49t-39.5 32.5t-52 18.5t-62.5 8.5t-76.5 2q-60 0 -96.5 -4t-74 -17.5t-57.5 -39t-37 -70t-23.5 -109.5 t-6.5 -157z" />
<glyph unicode="p" horiz-adv-x="1134" d="M115 -553v1640h143l42 -117q53 40 172 85t211 45q84 0 148 -32t103 -83.5t64 -125t34 -148.5t9 -162q0 -95 -7.5 -170t-30.5 -152t-61 -128t-104 -83t-155 -32q-76 0 -186.5 21t-196.5 57v-615h-185zM300 205q176 -50 363 -50q48 0 80.5 16.5t58.5 59t38 120.5t12 195 q0 377 -189 377q-171 0 -363 -87v-631z" />
<glyph unicode="q" horiz-adv-x="1136" d="M96 549q0 268 96 409.5t286 141.5q45 0 92 -2t95.5 -6t85 -7.5t86 -10t71 -9t66.5 -9.5t48 -7v-1602h-188v612q-83 -38 -182 -58.5t-174 -20.5q-92 0 -160 28t-110 75.5t-67.5 121.5t-35 155.5t-9.5 188.5zM284 539q0 -53 0.5 -80.5t4.5 -75.5t11.5 -74.5t22.5 -61 t37 -52.5t55.5 -31t77.5 -13q101 0 165 9.5t176 40.5v729h-340q-42 0 -75.5 -15t-55.5 -37t-37.5 -57.5t-23.5 -66t-12 -73t-5 -68.5t-1 -62v-12z" />
<glyph unicode="r" horiz-adv-x="866" d="M115 0v1087h143l45 -137q123 80 180 105q99 44 200 44q111 0 144 -15v-184q-52 10 -154 10q-109 0 -186 -26.5t-184 -92.5v-791h-188z" />
<glyph unicode="s" horiz-adv-x="1036" d="M76 727v94q0 134 66 205.5t217 71.5q111 0 294 -12t253 -27v-134h-523q-42 0 -67 -7t-35.5 -24t-13 -32.5t-2.5 -45.5v-82q0 -37 8 -59t26.5 -31t35.5 -11.5t48 -2.5h306q134 0 203 -73.5t69 -195.5v-103q0 -80 -22.5 -135.5t-62.5 -83t-83.5 -38.5t-97.5 -11 q-106 0 -313 15t-261 29v131h549q103 0 103 99v87q0 52 -22 76.5t-81 24.5h-305q-151 0 -220 61t-69 214z" />
<glyph unicode="t" horiz-adv-x="776" d="M38 920v127l196 43l40 303h148v-303h297v-170h-297v-519q0 -83 14.5 -132.5t36.5 -68.5t59 -29q156 -43 170 -43v-127h-199q-269 0 -269 388v531h-196z" />
<glyph unicode="u" d="M96 339v748h188v-749q0 -92 45.5 -137.5t121.5 -45.5q104 0 174 23.5t189 86.5v822h189v-1087h-140l-49 124q-10 -6 -49 -29t-52.5 -30.5t-47.5 -25t-54.5 -24.5t-53 -16.5t-63.5 -13t-66 -3.5q-109 0 -186 51t-111.5 130t-34.5 176z" />
<glyph unicode="v" horiz-adv-x="1112" d="M38 1087h204l312 -833l318 833h204l-425 -1087h-198z" />
<glyph unicode="w" horiz-adv-x="1652" d="M38 1087h204l294 -833l258 833h197l-101 -333l222 -500l300 833h205l-399 -1087h-197l-220 495l-163 -495h-209z" />
<glyph unicode="x" horiz-adv-x="1099" d="M46 0l388 545l-388 542h232l268 -392l277 392h231l-393 -548l377 -539h-215l-273 389l-272 -389h-232z" />
<glyph unicode="y" horiz-adv-x="1146" d="M40 1087h203l243 -825q5 -18 13 -31.5t16.5 -22.5t18 -15t19 -9t18 -4.5t16.5 -1t13.5 1t9.5 1.5l4 1l286 905h205l-451 -1431l-152 -209h-125l182 553q-196 0 -267 239z" />
<glyph unicode="z" horiz-adv-x="942" d="M57 911v176h830v-176l-550 -733h550v-176h-799v176l564 733h-595z" />
<glyph unicode="{" horiz-adv-x="655" d="M38 604v158q4 0 12 1q35 3 55.5 6.5t49.5 14t43.5 32.5t14.5 55v472q0 78 24 145.5t72 121t127.5 84t181.5 30.5v-176q-103 0 -159.5 -49.5t-56.5 -179.5v-453q0 -76 -49.5 -122.5t-131.5 -59.5q79 -12 129 -60.5t50 -115.5v-564q0 -100 58 -153t160 -48v-173 q-113 0 -195 30t-126.5 81.5t-65 111t-20.5 129.5v573q0 59 -52 86.5t-121 22.5z" />
<glyph unicode="|" horiz-adv-x="501" d="M164 -147v1724h177v-1724h-177z" />
<glyph unicode="}" horiz-adv-x="655" d="M38 -257q102 -5 160 48t58 153v564q0 68 49.5 116t128.5 60q-82 13 -131 59.5t-49 122.5v453q0 130 -56.5 179.5t-159.5 49.5v176q102 0 181.5 -30.5t127.5 -84t72 -121t24 -145.5v-472q0 -27 11.5 -47t25.5 -30.5t40 -17.5t42 -9t44 -4q8 -1 12 -1v-158 q-69 5 -121 -22.5t-52 -86.5v-573q0 -70 -20.5 -129.5t-65 -111t-126.5 -81.5t-195 -30v173z" />
<glyph unicode="~" horiz-adv-x="884" d="M96 1179q12 10 43 40t45.5 41.5t41 29t53.5 24.5t58 7q46 0 111.5 -36t105.5 -36q19 0 39.5 4t33 8t34.5 16t28 16t30.5 20.5t25.5 17.5l46 -96q-6 -6 -28 -29t-33.5 -34t-35 -30.5t-42 -29t-44.5 -17.5t-52 -8q-47 0 -116.5 36t-108.5 36q-36 0 -64.5 -9.5t-67.5 -31.5 t-59 -31z" />
<glyph unicode="&#xa1;" horiz-adv-x="552" d="M163 769v128q0 21 13.5 33t35.5 14h120q19 -2 34 -17t15 -36v-120q-4 -55 -47 -55h-122q-24 0 -36.5 14.5t-12.5 38.5zM168 -553l16 1089h176l20 -1089h-212z" />
<glyph unicode="&#xa2;" horiz-adv-x="1001" d="M76 545q0 141 18.5 242.5t50 163t82 96.5t106 46t130.5 8v197h138v-206q163 -19 310 -51v-129q-261 16 -443 16q-44 0 -70 -5t-54.5 -26.5t-43.5 -62.5t-25 -115t-10 -182q0 -152 21 -234t63 -113t119 -31q84 0 198 5.5t186 11.5l73 5v-133q-141 -49 -326 -57v-187h-137 v182q-74 -1 -128 10.5t-105.5 46t-83 95.5t-50.5 163t-19 244z" />
<glyph unicode="&#xa3;" horiz-adv-x="1212" d="M96 0v148l144 34v485h-144v107l144 38v210q0 73 7.5 133t20.5 105.5t34.5 81.5t45 61t57.5 42.5t66 28t76.5 16t83 7.5t91.5 2q52 0 151 -8.5t172 -16.5l73 -8v-147h-395q-41 0 -64.5 -0.5t-54 -2.5t-47 -6t-37.5 -11.5t-31 -18t-23 -27t-18 -37t-11 -48.5t-7.5 -62 t-1.5 -77v-217l528 -35v-110h-528v-485h688v-182h-1020z" />
<glyph unicode="&#xa4;" horiz-adv-x="931" d="M98 913l86 81l87 -87q84 60 187 60q110 0 197 -66l98 96l79 -86l-97 -98q48 -78 48 -170q0 -108 -58 -194l106 -105l-89 -83l-102 101q-81 -60 -182 -60q-97 0 -179 58l-96 -97l-82 91l93 92q-60 86 -60 197q0 99 54 179zM261 640q0 -85 57 -146.5t140 -61.5t140.5 61.5 t57.5 146.5q0 82 -57.5 139.5t-140.5 57.5q-81 0 -139 -58t-58 -139z" />
<glyph unicode="&#xa5;" horiz-adv-x="1247" d="M38 1499h206l361 -688l394 688h211l-490 -832h331v-133h-353v-95h353v-133h-353v-306h-188v306h-333v133h333v95h-333v133h312z" />
<glyph unicode="&#xa6;" horiz-adv-x="503" d="M164 -147v671h177v-671h-177zM164 879v698h177v-698h-177z" />
<glyph unicode="&#xa7;" horiz-adv-x="1124" d="M105 1208v131q0 140 76.5 203.5t196.5 63.5q82 0 288.5 -14.5t275.5 -24.5v-137h-543q-52 0 -78 -21t-27 -74v-124q0 -48 30 -68.5t76 -20.5h335q163 0 225 -66t60 -194v-111q0 -175 -96 -193q94 -15 94 -177v-140q0 -66 -17.5 -114.5t-43.5 -75.5t-66 -42.5t-75.5 -20 t-80.5 -4.5q-84 0 -285 14.5t-269 24.5v137h529q59 0 89 16t31 67v131q0 55 -24 71.5t-86 16.5h-336q-68 0 -115.5 10.5t-86 37.5t-57 77.5t-18.5 126.5v111q0 84 20.5 134t79.5 69q-102 35 -102 180zM294 730q0 -61 24 -78t84 -17h315q27 0 47 3t32 10t19.5 13.5t10.5 20 t3.5 23t0.5 27.5v114q0 30 -2.5 45.5t-13 31t-34 21.5t-63.5 6h-315q-66 0 -87 -20.5t-21 -87.5v-112z" />
<glyph unicode="&#xa8;" horiz-adv-x="927" d="M96 1192q0 45 32 76t77 31t76 -31t31 -76t-31 -77t-76 -32t-77 32t-32 77zM618 1192q0 45 32 76t77 31t76 -31t31 -76t-31 -77t-76 -32t-77 32t-32 77z" />
<glyph unicode="&#xa9;" horiz-adv-x="1654" d="M105 754q0 745 481 745h531q84 0 151 -27.5t111.5 -70t77.5 -107.5t50 -127.5t27.5 -142.5t13 -139t2.5 -131q0 -161 -25 -294.5t-75.5 -238t-135.5 -163t-197 -58.5h-531q-92 0 -167.5 34.5t-126.5 94.5t-88.5 134.5t-58.5 161.5t-30.5 168t-9.5 161zM252 754 q0 -116 20 -222t59 -194t105 -141t150 -54h528q129 2 209.5 156.5t80.5 454.5q0 62 -1.5 111.5t-8.5 115t-18.5 114.5t-33 100.5t-51 85t-74 54.5t-100.5 21h-531q-58 0 -105 -15.5t-91 -56.5t-73.5 -107.5t-47 -173.5t-17.5 -249zM469 748q0 234 79 340t216 106 q132 0 367 -49v-119q-179 25 -355 25q-83 0 -122 -75.5t-39 -234.5q0 -69 7 -119.5t24.5 -92.5t50.5 -63.5t81 -21.5q147 0 366 33v-119q-181 -57 -378 -57q-65 0 -115.5 19.5t-93 67t-65.5 138.5t-23 222z" />
<glyph unicode="&#xaa;" horiz-adv-x="745" d="M57 546v125h633v-125h-633zM57 950v88q0 84 55.5 135.5t155.5 51.5q265 -2 265 0q2 55 0 57q0 54 -29.5 75.5t-89.5 21.5q-69 0 -182.5 -7t-149.5 -8v100q19 4 63.5 13t68 13.5t62.5 10.5t77.5 8.5t81.5 3.5q112 2 181.5 -51.5t69.5 -165.5v-522h-105l-46 98 q-7 -7 -44.5 -30t-104.5 -49.5t-120 -26.5q-90 1 -149.5 51.5t-59.5 132.5zM207 980q0 -77 85 -77q51 0 111 15.5t95 31.5l35 15v161l-244 -18q-82 -8 -82 -80v-48z" />
<glyph unicode="&#xab;" horiz-adv-x="1140" d="M96 725l422 416l120 -120l-304 -296l313 -305l-119 -121zM495 725l422 416l121 -120l-304 -296l313 -305l-120 -121z" />
<glyph unicode="&#xac;" horiz-adv-x="1060" d="M93 515v173h875v-362h-173v189h-702z" />
<glyph unicode="&#xad;" horiz-adv-x="724" d="M41 506v176h643v-176h-643z" />
<glyph unicode="&#xae;" horiz-adv-x="1654" d="M105 754q0 745 481 745h531q84 0 151 -27.5t111.5 -70t77.5 -107.5t50 -127.5t27.5 -142.5t13 -139t2.5 -131q0 -161 -25 -294.5t-75.5 -238t-135.5 -163t-197 -58.5h-531q-92 0 -167.5 34.5t-126.5 94.5t-88.5 134.5t-58.5 161.5t-30.5 168t-9.5 161zM252 754 q0 -116 20 -222t59 -194t105 -141t150 -54h528q129 2 209.5 156.5t80.5 454.5q0 62 -1.5 111.5t-8.5 115t-18.5 114.5t-33 100.5t-51 85t-74 54.5t-100.5 21h-531q-58 0 -105 -15.5t-91 -56.5t-73.5 -107.5t-47 -173.5t-17.5 -249zM527 313v875h366q274 0 274 -265 q0 -47 -7 -85.5t-17 -64t-27.5 -46t-31 -31.5t-36 -20.5t-34.5 -13t-34 -8.5l185 -341h-163l-182 342l-146 25v-367h-147zM674 782h219q79 0 103.5 26.5t24.5 112.5q0 43 -10.5 69.5t-32.5 37.5t-39 13.5t-46 2.5h-219v-262z" />
<glyph unicode="&#xaf;" horiz-adv-x="788" d="M96 1087v139h598v-139h-598z" />
<glyph unicode="&#xb0;" horiz-adv-x="606" d="M96 1294q0 88 61.5 149.5t147.5 61.5t146 -61.5t60 -149.5t-60 -148.5t-146 -60.5q-87 0 -148 61t-61 148zM198 1294q0 -43 31.5 -73.5t75.5 -30.5q43 0 73.5 30t30.5 74t-30.5 75.5t-73.5 31.5t-75 -31.5t-32 -75.5z" />
<glyph unicode="&#xb1;" horiz-adv-x="1062" d="M107 169v176h852v-176h-852zM107 790v176h336v338h176v-338h340v-176h-340v-338h-176v338h-336z" />
<glyph unicode="&#xb2;" horiz-adv-x="798" d="M59.5 1687.5q-0.5 29.5 0 58.5t1.5 28q8 1 38 5t38 5.5t35 4.5t37 4.5t34.5 4t38 3.5t36 2.5t41 2t41 1t45.5 0.5q275 0 275 -284q0 -50 -18.5 -105.5t-42 -99t-67 -97t-71 -83.5t-78 -76t-63 -56.5t-50.5 -41.5h388v-148h-651v139q16 13 58.5 45t75.5 57t80.5 64.5 t83.5 73t75 76t64 80.5t41.5 80.5t16.5 80.5q0 79 -34.5 112.5t-121.5 33.5h-345q-1 0 -1.5 29.5z" />
<glyph unicode="&#xb3;" horiz-adv-x="831" d="M57 1650v108q55 20 131 28.5t122 9.5t157 0q124 0 187.5 -68.5t63.5 -172.5v-69q0 -70 -29 -118t-75 -65q104 -58 104 -196v-54q0 -119 -60 -182.5t-201 -63.5h-48.5h-50t-43.5 0.5t-46.5 1.5t-40 3t-43.5 4.5t-38.5 6.5t-42.5 9.5t-38 12.5l2 109l352 1q82 0 114 25 t32 88v42q0 123 -137 127l-281 10v119l281 14q139 6 139 119v39q0 112 -139 112h-372z" />
<glyph unicode="&#xb4;" horiz-adv-x="495" d="M38 1087l210 276h210l-266 -276h-154z" />
<glyph unicode="&#xb5;" horiz-adv-x="1212" d="M172 339v748h189v-749q0 -92 45.5 -137.5t121.5 -45.5q104 0 174 23.5t189 86.5v822h189v-1087h-141l-48 124q-9 -5 -41.5 -24t-43.5 -25.5t-40 -22t-44.5 -21.5t-42.5 -16.5t-48 -15t-48.5 -8.5t-54.5 -5q-94 -3 -167 40v-579h-189v892z" />
<glyph unicode="&#xb6;" horiz-adv-x="1185" d="M76 1022v190q0 93 47 160t117.5 97t155.5 30h754v-171h-133v-1328h-166v1332h-178v-1885h-167v1315q-1 0 -18 -10.5t-40.5 -18t-51.5 -6.5q-154 0 -237 84t-83 211zM243 1032q0 -42 15.5 -71.5t41.5 -43t49.5 -18.5t49.5 -5h107v438h-107q-85 0 -120.5 -39t-35.5 -95 v-166z" />
<glyph unicode="&#xb7;" horiz-adv-x="550" d="M163 717v135q0 51 49 51h127q51 0 51 -51v-135q0 -47 -51 -47h-127q-22 0 -35.5 12.5t-13.5 34.5z" />
<glyph unicode="&#xb8;" horiz-adv-x="509" d="M96 -269l103 31q39 17 52 56t13 106h152q0 -159 -44.5 -220t-168.5 -61h-107v88z" />
<glyph unicode="&#xb9;" horiz-adv-x="552" d="M31 1572v109l247 113h152v-978h-152v820z" />
<glyph unicode="&#xba;" horiz-adv-x="800" d="M57 1126q0 218 74 300.5t271 82.5q196 0 269 -82.5t73 -300.5q0 -200 -73.5 -280.5t-268.5 -80.5t-270 81t-75 280zM81 551v125h638v-125h-638zM210 1127q0 -63 9.5 -105t23 -65t41 -34.5t51.5 -14t67 -2.5q34 0 51 1t41 5t35.5 12.5t25.5 24t20 39.5t10.5 58t5.5 81 q1 58 -3.5 99t-16.5 67.5t-24.5 41.5t-38.5 22.5t-47 9t-59 1.5q-41 0 -61.5 -1.5t-47 -8.5t-38.5 -22t-24.5 -41.5t-16.5 -67.5t-4 -100z" />
<glyph unicode="&#xbb;" horiz-adv-x="1140" d="M96 420l312 305l-303 296l120 120l422 -416l-432 -426zM495 420l313 305l-304 296l121 120l422 -416l-433 -426z" />
<glyph unicode="&#xbc;" horiz-adv-x="1863" d="M31 1280v110l247 112h152v-978h-152v821zM426 0l749 1511h153l-749 -1511h-153zM1021 294l407 681h169l-347 -589h307v237l55 100h98v-337h115v-125l-115 -29v-233h-153v233h-491z" />
<glyph unicode="&#xbd;" horiz-adv-x="2002" d="M31 1280v110l247 112h152v-978h-152v821zM414 0l749 1511h153l-749 -1511h-153zM1263.5 872q-0.5 29 0 58t1.5 28q8 1 42 5.5t43 6t38 5t41.5 4.5t38.5 4t43 3.5t41.5 2t48 2t49.5 0.5q276 0 276 -284q0 -50 -18.5 -105t-42.5 -99.5t-66.5 -96.5t-71.5 -84t-77 -75.5 t-64.5 -57t-50.5 -41.5h389v-148h-652v140q12 10 68 51.5t90.5 69t91.5 75.5t94 88.5t75.5 89t57.5 96t19 90.5q0 77 -34.5 110t-121.5 33h-347q-1 0 -1.5 29z" />
<glyph unicode="&#xbe;" horiz-adv-x="2101" d="M57 1358v109q55 20 131 28.5t122 9.5t158 0q124 0 188 -69t64 -173v-69q0 -70 -29 -118t-75 -65q104 -58 104 -195v-55q0 -119 -60 -182.5t-202 -63.5h-49h-50t-43.5 0.5t-46.5 1.5t-40 3t-44 4.5t-38 6.5t-42.5 9.5t-38.5 12.5l2 109l354 2q82 0 114 25t32 88v41 q0 123 -138 127l-282 11v118l282 14q140 6 140 119v40q0 111 -140 111h-373zM630 0l749 1511h154l-749 -1511h-154zM1198 296l405 679h163l-348 -594h323v244l49 99h97v-343h115v-118l-115 -30v-232h-146v232h-498z" />
<glyph unicode="&#xbf;" horiz-adv-x="1112" d="M76 35q-2 181 132.5 270t352.5 60v201h179l2 -351q-167 3 -278 0q-74 -3 -123 -57.5t-54 -135.5q-2 -144 -2 -179q0 -88 60 -150t183 -59l546 2q-1 0 -1.5 -14.5t-0.5 -35.5v-42v-35.5t-1 -13.5q-251 -37 -353 -43q-106 -6 -225 -1q-98 -1 -174 23t-120.5 62.5t-73.5 92 t-39 105t-10 108.5v193zM540 788v125q0 22 14.5 36t34.5 16h120q22 -2 35.5 -14t13.5 -33v-130q-3 -48 -44 -51h-132q-39 10 -42 51z" />
<glyph unicode="&#xc0;" horiz-adv-x="1384" d="M86 0l539 1499h199l515 -1499h-214l-123 394h-569l-127 -394h-220zM381 1908h210l210 -276h-154zM494 574h451l-222 654z" />
<glyph unicode="&#xc1;" horiz-adv-x="1384" d="M86 0l539 1499h199l515 -1499h-214l-123 394h-569l-127 -394h-220zM494 574h451l-222 654zM647 1632l210 276h210l-266 -276h-154z" />
<glyph unicode="&#xc2;" horiz-adv-x="1384" d="M86 0l539 1499h199l515 -1499h-214l-123 394h-569l-127 -394h-220zM421 1632l234 270h164l209 -270h-158l-139 140l-151 -140h-159zM494 574h451l-222 654z" />
<glyph unicode="&#xc3;" horiz-adv-x="1384" d="M86 0l539 1499h199l515 -1499h-214l-123 394h-569l-127 -394h-220zM377 1724q48 43 79 67t76.5 45.5t87.5 21.5q55 -3 124 -36.5t95 -34.5q58 -2 187 75l46 -96q-6 -5 -28 -24t-32 -27t-31 -24t-35 -24t-33.5 -17t-38.5 -13t-37 -3q-59 3 -123 37t-99 33 q-40 -1 -69 -10.5t-66 -30.5t-59 -31zM494 574h451l-222 654z" />
<glyph unicode="&#xc4;" horiz-adv-x="1384" d="M86 0l539 1499h199l515 -1499h-214l-123 394h-569l-127 -394h-220zM355 1741q0 45 32 76t77 31t76 -31t31 -76t-31 -77t-76 -32t-77 32t-32 77zM494 574h451l-222 654zM877 1741q0 45 32 76t77 31t76 -31t31 -76t-31 -77t-76 -32t-77 32t-32 77z" />
<glyph unicode="&#xc5;" horiz-adv-x="1384" d="M86 0l539 1499h199l515 -1499h-214l-123 394h-569l-127 -394h-220zM494 574h451l-222 654zM516 1704q0 88 61.5 149.5t147.5 61.5t146.5 -61.5t60.5 -149.5t-60.5 -148.5t-146.5 -60.5q-87 0 -148 61t-61 148zM619 1704q0 -43 31 -73.5t75 -30.5q43 0 73.5 30t30.5 74 t-30.5 75t-73.5 31t-74.5 -31t-31.5 -75z" />
<glyph unicode="&#xc6;" horiz-adv-x="1904" d="M57 0l602 1221q43 87 92.5 144.5t97.5 84t101.5 39.5t106 11t110.5 -1q616 -28 652 -33v-152h-633q-21 0 -37 -3.5t-26.5 -8t-18 -15t-11 -16.5t-6 -21.5t-3 -21.5t-1.5 -24v-374l651 -21v-152l-651 -20v-356q0 -18 2 -32t7.5 -24t10 -17.5t14.5 -12t15 -7.5t19 -4 t18.5 -1h21h19.5l607 -2v-156l-626 -35q-297 -17 -297 258v198h-410l-220 -446h-207zM572 626h322v657z" />
<glyph unicode="&#xc7;" horiz-adv-x="1179" d="M105 754q0 151 13 264t46.5 210.5t90 158.5t144.5 95t209 34q102 0 249 -16t257 -40v-149l-18 1q-17 1 -46.5 3t-67.5 4.5t-84 5t-91.5 4.5t-93.5 3t-87 1q-64 0 -109.5 -9.5t-84.5 -34t-63.5 -65.5t-42 -106.5t-25 -155t-7.5 -212.5q0 -88 6.5 -160t21 -139t40 -117 t61.5 -87.5t87 -57t116 -19.5q96 0 218 4t196 8l74 3v-149q-101 -22 -249 -35.5t-257 -12.5q-111 0 -197.5 37t-143.5 103t-94 163t-52.5 210.5t-15.5 252.5zM388 -267l104 31q39 17 51.5 55.5t12.5 106.5h153q0 -160 -44.5 -221t-168.5 -61h-108v89z" />
<glyph unicode="&#xc8;" horiz-adv-x="1161" d="M152 264v957q0 78 23 135t63.5 87.5t87.5 44t102 11.5q615 -28 651 -33v-151h-633q-38 0 -61 -9t-32 -28.5t-11 -34t-2 -42.5v-362l654 -21v-152l-654 -20v-362q1 -31 9.5 -52.5t18 -32t31 -15.5t32 -5.5t36.5 -0.5h612v-149l-630 -35q-297 -18 -297 270zM354 1899h210 l210 -275h-154z" />
<glyph unicode="&#xc9;" horiz-adv-x="1161" d="M152 264v957q0 78 23 135t63.5 87.5t87.5 44t102 11.5q615 -28 651 -33v-151h-633q-38 0 -61 -9t-32 -28.5t-11 -34t-2 -42.5v-362l654 -21v-152l-654 -20v-362q1 -31 9.5 -52.5t18 -32t31 -15.5t32 -5.5t36.5 -0.5h612v-149l-630 -35q-297 -18 -297 270zM581 1624 l210 275h210l-266 -275h-154z" />
<glyph unicode="&#xca;" horiz-adv-x="1161" d="M152 264v957q0 78 23 135t63.5 87.5t87.5 44t102 11.5q615 -28 651 -33v-151h-633q-38 0 -61 -9t-32 -28.5t-11 -34t-2 -42.5v-362l654 -21v-152l-654 -20v-362q1 -31 9.5 -52.5t18 -32t31 -15.5t32 -5.5t36.5 -0.5h612v-149l-630 -35q-297 -18 -297 270zM344 1632 l235 270h164l209 -270h-158l-139 140l-151 -140h-160z" />
<glyph unicode="&#xcb;" horiz-adv-x="1161" d="M152 264v957q0 78 23 135t63.5 87.5t87.5 44t102 11.5q615 -28 651 -33v-151h-633q-38 0 -61 -9t-32 -28.5t-11 -34t-2 -42.5v-362l654 -21v-152l-654 -20v-362q1 -31 9.5 -52.5t18 -32t31 -15.5t32 -5.5t36.5 -0.5h612v-149l-630 -35q-297 -18 -297 270zM278 1733 q0 45 32 76t77 31t76 -31t31 -76t-31 -77t-76 -32t-77 32t-32 77zM800 1733q0 45 32 76t77 31t76 -31t31 -76t-31 -77t-76 -32t-77 32t-32 77z" />
<glyph unicode="&#xcc;" horiz-adv-x="454" d="M-96 1908h210l210 -276h-154zM153 0v1499h189v-1499h-189z" />
<glyph unicode="&#xcd;" horiz-adv-x="454" d="M153 0v1499h189v-1499h-189zM170 1632l210 276h210l-266 -276h-154z" />
<glyph unicode="&#xce;" horiz-adv-x="454" d="M-56 1632l234 270h164l209 -270h-158l-138 140l-152 -140h-159zM153 0v1499h189v-1499h-189z" />
<glyph unicode="&#xcf;" horiz-adv-x="454" d="M-122 1741q0 45 32 76t77 31t76 -31t31 -76t-31 -77t-76 -32t-77 32t-32 77zM153 0v1499h189v-1499h-189zM400 1741q0 45 32 76t77 31t76 -31t31 -76t-31 -77t-76 -32t-77 32t-32 77z" />
<glyph unicode="&#xd0;" horiz-adv-x="1347" d="M20 706v116h133v675q0 2 581 2q94 0 171.5 -25.5t131.5 -67.5t94.5 -103t65 -125.5t39.5 -143t20 -147t5 -144.5q0 -114 -17 -218.5t-57 -201.5t-99.5 -167.5t-150.5 -113t-203 -42.5h-581v706h-133zM342 184h386q72 0 130 28.5t96.5 79t64 122t37 153.5t11.5 178 q0 154 -24 265.5t-70 176t-106.5 94.5t-138.5 30l-386 -2v-487h269v-116h-269v-522z" />
<glyph unicode="&#xd1;" horiz-adv-x="1390" d="M153 0v1499h193l743 -1149v1149h188v-1499h-188l-745 1146v-1146h-191zM367 1724q73 65 128.5 99.5t115.5 34.5q55 -3 123.5 -36.5t94.5 -34.5q58 -2 187 75l47 -96q-6 -5 -28 -24t-32 -27t-31 -24t-35 -24t-33.5 -17t-38.5 -13t-37 -3q-59 3 -123 37t-99 33 q-40 -1 -69 -10.5t-66 -30.5t-59 -31z" />
<glyph unicode="&#xd2;" horiz-adv-x="1380" d="M125 739q0 116 9 211.5t25 169t42 131t55 98.5t70 70t80.5 46.5t93 27.5t101.5 13t111 3q65 0 113.5 -3t102.5 -13t93 -27.5t79.5 -46.5t68.5 -70t53.5 -98.5t41 -131t24 -169t8.5 -211.5q0 -140 -13.5 -249.5t-37 -188t-63.5 -134.5t-84.5 -89.5t-109 -53t-127.5 -26 t-149 -6.5q-60 0 -106 2.5t-96.5 9.5t-87.5 20.5t-75.5 34t-66.5 51t-54.5 71.5t-44 95.5t-31 122.5t-19.5 153t-6 187zM313 739q0 -126 8 -214t28.5 -152t48 -102t76 -60t102.5 -29.5t136 -7.5q79 0 133.5 8.5t101.5 31.5t75.5 62t49 103t28.5 151t8 209t-9 213t-22 154 t-42 105t-54.5 65t-75 34.5t-87.5 14t-106 2.5t-105 -2.5t-86.5 -13.5t-75.5 -34t-55.5 -65t-43.5 -105t-23.5 -154.5t-9.5 -213.5zM369 1908h210l210 -276h-154z" />
<glyph unicode="&#xd3;" horiz-adv-x="1380" d="M125 739q0 116 9 211.5t25 169t42 131t55 98.5t70 70t80.5 46.5t93 27.5t101.5 13t111 3q65 0 113.5 -3t102.5 -13t93 -27.5t79.5 -46.5t68.5 -70t53.5 -98.5t41 -131t24 -169t8.5 -211.5q0 -140 -13.5 -249.5t-37 -188t-63.5 -134.5t-84.5 -89.5t-109 -53t-127.5 -26 t-149 -6.5q-60 0 -106 2.5t-96.5 9.5t-87.5 20.5t-75.5 34t-66.5 51t-54.5 71.5t-44 95.5t-31 122.5t-19.5 153t-6 187zM313 739q0 -126 8 -214t28.5 -152t48 -102t76 -60t102.5 -29.5t136 -7.5q79 0 133.5 8.5t101.5 31.5t75.5 62t49 103t28.5 151t8 209t-9 213t-22 154 t-42 105t-54.5 65t-75 34.5t-87.5 14t-106 2.5t-105 -2.5t-86.5 -13.5t-75.5 -34t-55.5 -65t-43.5 -105t-23.5 -154.5t-9.5 -213.5zM635 1632l210 276h210l-266 -276h-154z" />
<glyph unicode="&#xd4;" horiz-adv-x="1380" d="M125 739q0 116 9 211.5t25 169t42 131t55 98.5t70 70t80.5 46.5t93 27.5t101.5 13t111 3q65 0 113.5 -3t102.5 -13t93 -27.5t79.5 -46.5t68.5 -70t53.5 -98.5t41 -131t24 -169t8.5 -211.5q0 -140 -13.5 -249.5t-37 -188t-63.5 -134.5t-84.5 -89.5t-109 -53t-127.5 -26 t-149 -6.5q-60 0 -106 2.5t-96.5 9.5t-87.5 20.5t-75.5 34t-66.5 51t-54.5 71.5t-44 95.5t-31 122.5t-19.5 153t-6 187zM313 739q0 -126 8 -214t28.5 -152t48 -102t76 -60t102.5 -29.5t136 -7.5q79 0 133.5 8.5t101.5 31.5t75.5 62t49 103t28.5 151t8 209t-9 213t-22 154 t-42 105t-54.5 65t-75 34.5t-87.5 14t-106 2.5t-105 -2.5t-86.5 -13.5t-75.5 -34t-55.5 -65t-43.5 -105t-23.5 -154.5t-9.5 -213.5zM408 1632l235 270h164l209 -270h-158l-139 140l-151 -140h-160z" />
<glyph unicode="&#xd5;" horiz-adv-x="1380" d="M125 739q0 116 9 211.5t25 169t42 131t55 98.5t70 70t80.5 46.5t93 27.5t101.5 13t111 3q65 0 113.5 -3t102.5 -13t93 -27.5t79.5 -46.5t68.5 -70t53.5 -98.5t41 -131t24 -169t8.5 -211.5q0 -140 -13.5 -249.5t-37 -188t-63.5 -134.5t-84.5 -89.5t-109 -53t-127.5 -26 t-149 -6.5q-60 0 -106 2.5t-96.5 9.5t-87.5 20.5t-75.5 34t-66.5 51t-54.5 71.5t-44 95.5t-31 122.5t-19.5 153t-6 187zM313 739q0 -126 8 -214t28.5 -152t48 -102t76 -60t102.5 -29.5t136 -7.5q79 0 133.5 8.5t101.5 31.5t75.5 62t49 103t28.5 151t8 209t-9 213t-22 154 t-42 105t-54.5 65t-75 34.5t-87.5 14t-106 2.5t-105 -2.5t-86.5 -13.5t-75.5 -34t-55.5 -65t-43.5 -105t-23.5 -154.5t-9.5 -213.5zM364 1724q73 65 128.5 99.5t115.5 34.5q55 -3 123.5 -36.5t94.5 -34.5q58 -2 187 75l47 -96q-6 -5 -28 -24t-32 -27t-31 -24t-35 -24 t-33.5 -17t-38.5 -13t-37 -3q-59 3 -123 37t-99 33q-40 -1 -69 -10.5t-66 -30.5t-59 -31z" />
<glyph unicode="&#xd6;" horiz-adv-x="1380" d="M125 739q0 116 9 211.5t25 169t42 131t55 98.5t70 70t80.5 46.5t93 27.5t101.5 13t111 3q65 0 113.5 -3t102.5 -13t93 -27.5t79.5 -46.5t68.5 -70t53.5 -98.5t41 -131t24 -169t8.5 -211.5q0 -140 -13.5 -249.5t-37 -188t-63.5 -134.5t-84.5 -89.5t-109 -53t-127.5 -26 t-149 -6.5q-60 0 -106 2.5t-96.5 9.5t-87.5 20.5t-75.5 34t-66.5 51t-54.5 71.5t-44 95.5t-31 122.5t-19.5 153t-6 187zM313 739q0 -126 8 -214t28.5 -152t48 -102t76 -60t102.5 -29.5t136 -7.5q79 0 133.5 8.5t101.5 31.5t75.5 62t49 103t28.5 151t8 209t-9 213t-22 154 t-42 105t-54.5 65t-75 34.5t-87.5 14t-106 2.5t-105 -2.5t-86.5 -13.5t-75.5 -34t-55.5 -65t-43.5 -105t-23.5 -154.5t-9.5 -213.5zM343 1741q0 45 32 76t77 31t76 -31t31 -76t-31 -77t-76 -32t-77 32t-32 77zM865 1741q0 45 32 76t77 31t76 -31t31 -76t-31 -77t-76 -32 t-77 32t-32 77z" />
<glyph unicode="&#xd7;" horiz-adv-x="940" d="M107 490l239 237l-239 239l124 126l239 -239l241 239l124 -124l-241 -241l239 -237l-124 -126l-239 239l-237 -237z" />
<glyph unicode="&#xd8;" horiz-adv-x="1384" d="M127 739q0 116 9 211.5t24.5 169t41 131t54 98.5t69 70t80 46.5t93 27.5t102.5 13t113 3q127 0 215 -15t155 -60l44 65h132l-94 -142q134 -173 134 -618q0 -140 -13.5 -249.5t-37.5 -188t-64 -134.5t-85 -89.5t-109.5 -53t-127.5 -26t-149 -6.5q-135 0 -226.5 16 t-159.5 63l-47 -71h-133l99 152q-119 166 -119 587zM316 739q0 -290 54 -402l609 941q-43 32 -102 40.5t-164 8.5q-68 0 -105 -2.5t-86 -13.5t-75 -34t-55.5 -65t-43 -105t-23 -154.5t-9.5 -213.5zM436 236q44 -35 110 -48.5t167 -13.5q79 0 133.5 8.5t101.5 31.5t75.5 62 t49 103t29 151t8.5 209q0 319 -60 443z" />
<glyph unicode="&#xd9;" horiz-adv-x="1378" d="M153 655v844h189v-844q0 -88 5.5 -157t20.5 -119t29.5 -86t44 -58.5t52 -35.5t65 -18.5t72 -7t83.5 -1.5q39 0 65.5 1.5t60.5 6.5t57 14.5t49.5 27t44 42.5t35 61t27.5 83t16 109t6 138v844h190v-844q0 -138 -19 -245t-45.5 -176.5t-75.5 -118t-88.5 -72.5t-106.5 -36.5 t-106 -14.5t-110 -2q-164 0 -229 12q-161 29 -239 160q-93 157 -93 493zM366 1908h210l210 -276h-154z" />
<glyph unicode="&#xda;" horiz-adv-x="1378" d="M153 655v844h189v-844q0 -88 5.5 -157t20.5 -119t29.5 -86t44 -58.5t52 -35.5t65 -18.5t72 -7t83.5 -1.5q39 0 65.5 1.5t60.5 6.5t57 14.5t49.5 27t44 42.5t35 61t27.5 83t16 109t6 138v844h190v-844q0 -138 -19 -245t-45.5 -176.5t-75.5 -118t-88.5 -72.5t-106.5 -36.5 t-106 -14.5t-110 -2q-164 0 -229 12q-161 29 -239 160q-93 157 -93 493zM632 1632l210 276h210l-266 -276h-154z" />
<glyph unicode="&#xdb;" horiz-adv-x="1378" d="M153 655v844h189v-844q0 -88 5.5 -157t20.5 -119t29.5 -86t44 -58.5t52 -35.5t65 -18.5t72 -7t83.5 -1.5q39 0 65.5 1.5t60.5 6.5t57 14.5t49.5 27t44 42.5t35 61t27.5 83t16 109t6 138v844h190v-844q0 -138 -19 -245t-45.5 -176.5t-75.5 -118t-88.5 -72.5t-106.5 -36.5 t-106 -14.5t-110 -2q-164 0 -229 12q-161 29 -239 160q-93 157 -93 493zM406 1632l234 270h164l209 -270h-158l-139 140l-151 -140h-159z" />
<glyph unicode="&#xdc;" horiz-adv-x="1378" d="M153 655v844h189v-844q0 -88 5.5 -157t20.5 -119t29.5 -86t44 -58.5t52 -35.5t65 -18.5t72 -7t83.5 -1.5q39 0 65.5 1.5t60.5 6.5t57 14.5t49.5 27t44 42.5t35 61t27.5 83t16 109t6 138v844h190v-844q0 -138 -19 -245t-45.5 -176.5t-75.5 -118t-88.5 -72.5t-106.5 -36.5 t-106 -14.5t-110 -2q-164 0 -229 12q-161 29 -239 160q-93 157 -93 493zM340 1741q0 45 32 76t77 31t76 -31t31 -76t-31 -77t-76 -32t-77 32t-32 77zM862 1741q0 45 32 76t77 31t76 -31t31 -76t-31 -77t-76 -32t-77 32t-32 77z" />
<glyph unicode="&#xdd;" horiz-adv-x="1304" d="M86 1499h206l361 -768l399 768h205l-511 -985v-514h-188v514zM595 1632l210 276h210l-266 -276h-154z" />
<glyph unicode="&#xde;" horiz-adv-x="1134" d="M115 0v1493h188v-289h376q361 -4 361 -436q0 -120 -24 -208t-58.5 -135.5t-86.5 -76t-95 -36t-97 -7.5q-12 0 -41 -0.5t-39.5 -0.5t-36.5 1t-46 3.5t-52.5 6.5t-71.5 11.5t-89 17.5v-344h-188zM303 484h352q44 -1 75.5 9.5t60.5 39.5t43.5 88.5t14.5 149.5 q-1 70 -15 119.5t-32.5 74.5t-48 39t-49.5 16.5t-49 2.5h-352v-539z" />
<glyph unicode="&#xdf;" horiz-adv-x="1167" d="M115 0v1159q0 186 124 310t342 124q144 0 247.5 -37.5t153.5 -97t69 -133.5t3.5 -148.5t-53.5 -141t-93 -110.5q-20 -18 -58 -49t-52.5 -44.5t-34 -35.5t-26.5 -41t-7 -42q0 -26 22 -44.5t57.5 -30.5t78 -24t85.5 -30t78.5 -44t57.5 -71t22 -105v-88q1 -66 -20.5 -118.5 t-54.5 -84t-78.5 -52.5t-88.5 -29t-88 -8q-62 0 -125.5 7t-132 18.5t-83.5 13.5v144q27 0 142 -5t186 -5q61 0 106.5 35t47.5 94v84q0 31 -22 51.5t-57 33t-77 23.5t-84.5 27.5t-77.5 40.5t-57 66.5t-22 101.5q0 96 44 156.5t186 167.5q97 76 97 195q0 179 -288 179 q-128 0 -204.5 -67t-76.5 -213v-1132h-188z" />
<glyph unicode="&#xe0;" horiz-adv-x="1062" d="M76 263v119q0 126 74.5 203t210.5 77q418 -2 418 0q2 116 0 118q0 87 -41.5 123t-120.5 36q-167 0 -505 -24v128q199 62 520 65q151 2 243.5 -77.5t92.5 -247.5v-783h-144l-45 128q-3 -3 -28.5 -17t-71 -35t-96.5 -41t-112.5 -33.5t-112.5 -13.5q-125 2 -203.5 77 t-78.5 198zM203 1506h210l210 -275h-154zM265 282q0 -67 30.5 -94t84.5 -27q68 0 167.5 24.5t165.5 49.5l66 25v267l-402 -29q-112 -11 -112 -127v-89z" />
<glyph unicode="&#xe1;" horiz-adv-x="1062" d="M76 263v119q0 126 74.5 203t210.5 77q418 -2 418 0q2 116 0 118q0 87 -41.5 123t-120.5 36q-167 0 -505 -24v128q199 62 520 65q151 2 243.5 -77.5t92.5 -247.5v-783h-144l-45 128q-3 -3 -28.5 -17t-71 -35t-96.5 -41t-112.5 -33.5t-112.5 -13.5q-125 2 -203.5 77 t-78.5 198zM265 282q0 -67 30.5 -94t84.5 -27q68 0 167.5 24.5t165.5 49.5l66 25v267l-402 -29q-112 -11 -112 -127v-89zM461 1231l210 275h210l-267 -275h-153z" />
<glyph unicode="&#xe2;" horiz-adv-x="1062" d="M76 263v119q0 126 74.5 203t210.5 77q418 -2 418 0q2 116 0 118q0 87 -41.5 123t-120.5 36q-167 0 -505 -24v128q199 62 520 65q151 2 243.5 -77.5t92.5 -247.5v-783h-144l-45 128q-3 -3 -28.5 -17t-71 -35t-96.5 -41t-112.5 -33.5t-112.5 -13.5q-125 2 -203.5 77 t-78.5 198zM237 1231l234 269h164l209 -269h-158l-139 139l-151 -139h-159zM265 282q0 -67 30.5 -94t84.5 -27q68 0 167.5 24.5t165.5 49.5l66 25v267l-402 -29q-112 -11 -112 -127v-89z" />
<glyph unicode="&#xe3;" horiz-adv-x="1062" d="M76 263v119q0 126 74.5 203t210.5 77q418 -2 418 0q2 116 0 118q0 87 -41.5 123t-120.5 36q-167 0 -505 -24v128q199 62 520 65q151 2 243.5 -77.5t92.5 -247.5v-783h-144l-45 128q-3 -3 -28.5 -17t-71 -35t-96.5 -41t-112.5 -33.5t-112.5 -13.5q-125 2 -203.5 77 t-78.5 198zM184 1323q48 43 79 67t76.5 45.5t87.5 21.5q55 -3 124 -37t95 -35q58 -2 187 75l46 -96q-6 -5 -28 -24t-31.5 -26.5t-30.5 -24t-35.5 -24t-34 -17t-38 -13t-36.5 -2.5q-59 3 -123 37t-99 33q-40 -1 -69 -10.5t-66 -30.5t-59 -31zM265 282q0 -67 30.5 -94 t84.5 -27q68 0 167.5 24.5t165.5 49.5l66 25v267l-402 -29q-112 -11 -112 -127v-89z" />
<glyph unicode="&#xe4;" horiz-adv-x="1062" d="M76 263v119q0 126 74.5 203t210.5 77q418 -2 418 0q2 116 0 118q0 87 -41.5 123t-120.5 36q-167 0 -505 -24v128q199 62 520 65q151 2 243.5 -77.5t92.5 -247.5v-783h-144l-45 128q-3 -3 -28.5 -17t-71 -35t-96.5 -41t-112.5 -33.5t-112.5 -13.5q-125 2 -203.5 77 t-78.5 198zM168 1340q0 45 32 76t77 31t76 -31t31 -76t-31 -77t-76 -32t-77 32t-32 77zM265 282q0 -67 30.5 -94t84.5 -27q68 0 167.5 24.5t165.5 49.5l66 25v267l-402 -29q-112 -11 -112 -127v-89zM690 1340q0 45 32 76t77 31t76 -31t31 -76t-31 -77t-76 -32t-77 32t-32 77 z" />
<glyph unicode="&#xe5;" horiz-adv-x="1062" d="M76 263v119q0 126 74.5 203t210.5 77q418 -2 418 0q2 116 0 118q0 87 -41.5 123t-120.5 36q-167 0 -505 -24v128q199 62 520 65q151 2 243.5 -77.5t92.5 -247.5v-783h-144l-45 128q-3 -3 -28.5 -17t-71 -35t-96.5 -41t-112.5 -33.5t-112.5 -13.5q-125 2 -203.5 77 t-78.5 198zM265 282q0 -67 30.5 -94t84.5 -27q68 0 167.5 24.5t165.5 49.5l66 25v267l-402 -29q-112 -11 -112 -127v-89zM332 1388q0 88 61 149t148 61q86 0 146.5 -61t60.5 -149t-60.5 -148.5t-146.5 -60.5q-87 0 -148 61t-61 148zM435 1388q0 -43 31 -74t75 -31 q43 0 73.5 30.5t30.5 74.5t-30.5 75t-73.5 31t-74.5 -31t-31.5 -75z" />
<glyph unicode="&#xe6;" horiz-adv-x="1767" d="M76 274v79q0 125 74.5 202t210.5 77q418 -2 418 0q2 157 0 159q0 87 -41 122.5t-121 35.5q-157 0 -505 -24v129q172 61 520 64q185 2 268 -110q55 58 139.5 78t223.5 20q50 0 86.5 -1.5t77 -6t69 -13t58 -22.5t49.5 -34.5t38 -49t28.5 -65.5t16.5 -85t6 -107 q0 -127 -70 -190t-217 -63h-428q0 -121 21 -184.5t65 -87.5t127 -24h52.5h53.5h48t50.5 0.5t45.5 1.5t48.5 2t44 2.5t48 3.5t43.5 5t47 6v-136q-189 -58 -524 -58q-82 0 -141.5 19t-94 47t-74.5 77q-6 -9 -85 -43t-196.5 -68t-197.5 -34q-125 2 -203.5 77.5t-78.5 198.5z M265 291q0 -67 30.5 -93.5t84.5 -26.5q68 0 167.5 24.5t165.5 49.5l66 25v238l-402 -29q-112 -11 -112 -127v-61zM977 631h407q119 0 119 95q0 51 -3 83.5t-14 57t-25 37.5t-44 20.5t-61.5 9.5t-86.5 2q-66 0 -96 -1.5t-72 -10t-58.5 -26.5t-35.5 -52t-24.5 -86.5 t-5.5 -128.5z" />
<glyph unicode="&#xe7;" horiz-adv-x="1019" d="M96 545q0 137 17.5 237t47.5 161t77 97t97.5 48.5t118.5 12.5q83 0 224 -17.5t252 -42.5v-129q-260 16 -442 16q-44 0 -70 -5t-55 -26.5t-44 -62.5t-25 -115t-10 -182q0 -152 21 -234t63.5 -113t119.5 -31q84 0 198 5.5t186 11.5l73 5v-133q-77 -26 -166.5 -40 t-154 -17.5t-170.5 -4.5q-66 0 -116 12.5t-97.5 49t-77.5 97.5t-48.5 162t-18.5 238zM349 -269l104 31q39 17 51.5 55.5t12.5 106.5h152q0 -160 -44.5 -221t-168.5 -61h-107v89z" />
<glyph unicode="&#xe8;" horiz-adv-x="1075" d="M96 549q0 120 11 207t37.5 148t61.5 98.5t92.5 58.5t119.5 28t153 7q57 0 97 -2t84.5 -8t74 -18t60 -31t49 -48t34 -68.5t22.5 -92.5t7 -120q0 -256 -287 -256h-428q0 -120 21 -182t64.5 -84.5t127.5 -22.5h73.5h77t64.5 0.5t72 2t61 3.5t70 5.5t63 8.5v-136 q-186 -57 -524 -57q-140 0 -216.5 53.5t-109 172t-32.5 333.5zM230 1496h210l210 -275h-154zM284 616h408q118 0 118 96q0 51 -3 83.5t-14 58t-25 38.5t-43 21.5t-61.5 10.5t-86.5 2q-38 0 -59.5 -0.5t-51.5 -2.5t-45.5 -6.5t-37 -12t-32.5 -19t-24.5 -28.5t-19.5 -39.5 t-12.5 -52t-8.5 -66.5t-2 -83z" />
<glyph unicode="&#xe9;" horiz-adv-x="1075" d="M96 549q0 120 11 207t37.5 148t61.5 98.5t92.5 58.5t119.5 28t153 7q57 0 97 -2t84.5 -8t74 -18t60 -31t49 -48t34 -68.5t22.5 -92.5t7 -120q0 -256 -287 -256h-428q0 -120 21 -182t64.5 -84.5t127.5 -22.5h73.5h77t64.5 0.5t72 2t61 3.5t70 5.5t63 8.5v-136 q-186 -57 -524 -57q-140 0 -216.5 53.5t-109 172t-32.5 333.5zM284 616h408q118 0 118 96q0 51 -3 83.5t-14 58t-25 38.5t-43 21.5t-61.5 10.5t-86.5 2q-38 0 -59.5 -0.5t-51.5 -2.5t-45.5 -6.5t-37 -12t-32.5 -19t-24.5 -28.5t-19.5 -39.5t-12.5 -52t-8.5 -66.5t-2 -83z M479 1221l210 275h210l-267 -275h-153z" />
<glyph unicode="&#xea;" horiz-adv-x="1075" d="M96 549q0 120 11 207t37.5 148t61.5 98.5t92.5 58.5t119.5 28t153 7q57 0 97 -2t84.5 -8t74 -18t60 -31t49 -48t34 -68.5t22.5 -92.5t7 -120q0 -256 -287 -256h-428q0 -120 21 -182t64.5 -84.5t127.5 -22.5h73.5h77t64.5 0.5t72 2t61 3.5t70 5.5t63 8.5v-136 q-186 -57 -524 -57q-140 0 -216.5 53.5t-109 172t-32.5 333.5zM253 1221l235 269h163l209 -269h-157l-139 139l-151 -139h-160zM284 616h408q118 0 118 96q0 51 -3 83.5t-14 58t-25 38.5t-43 21.5t-61.5 10.5t-86.5 2q-38 0 -59.5 -0.5t-51.5 -2.5t-45.5 -6.5t-37 -12 t-32.5 -19t-24.5 -28.5t-19.5 -39.5t-12.5 -52t-8.5 -66.5t-2 -83z" />
<glyph unicode="&#xeb;" horiz-adv-x="1075" d="M96 549q0 120 11 207t37.5 148t61.5 98.5t92.5 58.5t119.5 28t153 7q57 0 97 -2t84.5 -8t74 -18t60 -31t49 -48t34 -68.5t22.5 -92.5t7 -120q0 -256 -287 -256h-428q0 -120 21 -182t64.5 -84.5t127.5 -22.5h73.5h77t64.5 0.5t72 2t61 3.5t70 5.5t63 8.5v-136 q-186 -57 -524 -57q-140 0 -216.5 53.5t-109 172t-32.5 333.5zM182 1330q0 45 32.5 76t77.5 31t76 -31t31 -76t-31 -77t-76 -32t-77.5 32t-32.5 77zM284 616h408q118 0 118 96q0 51 -3 83.5t-14 58t-25 38.5t-43 21.5t-61.5 10.5t-86.5 2q-38 0 -59.5 -0.5t-51.5 -2.5 t-45.5 -6.5t-37 -12t-32.5 -19t-24.5 -28.5t-19.5 -39.5t-12.5 -52t-8.5 -66.5t-2 -83zM705 1330q0 45 32 76t77 31t76 -31t31 -76t-31 -77t-76 -32t-77 32t-32 77z" />
<glyph unicode="&#xec;" horiz-adv-x="417" d="M-134 1496h210l210 -275h-154zM115 0v1087h188v-1087h-188z" />
<glyph unicode="&#xed;" horiz-adv-x="417" d="M115 0v1087h188v-1087h-188zM132 1221l210 275h210l-266 -275h-154z" />
<glyph unicode="&#xee;" horiz-adv-x="417" d="M-95 1221l235 269h164l209 -269h-158l-139 139l-151 -139h-160zM115 0v1087h188v-1087h-188z" />
<glyph unicode="&#xef;" horiz-adv-x="417" d="M-160 1330q0 45 32 76t77 31t76 -31t31 -76t-31 -77t-76 -32t-77 32t-32 77zM115 0v1087h188v-1087h-188zM362 1330q0 45 32 76t77 31t76 -31t31 -76t-31 -77t-76 -32t-77 32t-32 77z" />
<glyph unicode="&#xf0;" horiz-adv-x="1101" d="M76 541q0 273 85 409.5t285 136.5h180q117 0 147 -27q-47 158 -143 251l-279 -117l-52 122l203 84q-103 51 -264 43v161q289 0 454 -122l228 94l53 -121l-173 -71q227 -274 227 -843q0 -149 -27 -256t-78 -168t-117 -89t-151 -28h-208q-205 0 -287.5 128.5t-82.5 412.5z M265 541q0 -98 10 -165t25 -104.5t42.5 -57t52 -24t64.5 -4.5h182q114 0 155.5 85t41.5 270q0 217 -39 290.5t-158 73.5h-182q-51 0 -84 -14t-59.5 -52t-38.5 -111t-12 -187z" />
<glyph unicode="&#xf1;" d="M115 0v1087h140l48 -123q7 4 34 20.5t35.5 21.5t33 19t36 19.5t35 16.5t38.5 15.5t38.5 11.5t43 10t44 5.5t48.5 2.5q161 0 247 -103t86 -254v-749h-188v750q0 92 -45.5 137.5t-121.5 45.5q-104 0 -174 -23.5t-190 -87.5v-822h-188zM221 1321q48 43 79 67t76.5 45.5 t87.5 21.5q55 -3 124 -37t95 -35q58 -2 187 75l46 -96q-6 -5 -28 -24t-31.5 -26.5t-30.5 -24t-35.5 -24t-34 -17t-38 -13t-36.5 -2.5q-59 3 -123 36.5t-99 32.5q-40 -1 -69 -10.5t-66 -30.5t-59 -30z" />
<glyph unicode="&#xf2;" horiz-adv-x="1157" d="M96 528q0 135 16 230t50 162t92.5 105.5t136 55.5t188.5 17q113 0 192.5 -18t137 -57.5t90.5 -107.5t48.5 -161.5t15.5 -225.5q0 -155 -23 -255t-80.5 -164.5t-148.5 -91.5t-232 -27q-139 0 -231 28.5t-148.5 95t-80 165.5t-23.5 249zM254 1496h210l210 -275h-154z M284 528q0 -63 4.5 -113t14.5 -87.5t22.5 -64.5t33 -45t41 -29t51.5 -16.5t59 -7.5t69 -2q49 0 81 2.5t66.5 10.5t55.5 24t40.5 42t30 65.5t16.5 93.5t6 127q0 69 -3.5 122t-12 94.5t-19.5 70t-30.5 49t-39.5 32.5t-52 18.5t-62.5 8.5t-76.5 2q-60 0 -96.5 -4t-74 -17.5 t-57.5 -39t-37 -70t-23.5 -109.5t-6.5 -157z" />
<glyph unicode="&#xf3;" horiz-adv-x="1157" d="M96 528q0 135 16 230t50 162t92.5 105.5t136 55.5t188.5 17q113 0 192.5 -18t137 -57.5t90.5 -107.5t48.5 -161.5t15.5 -225.5q0 -155 -23 -255t-80.5 -164.5t-148.5 -91.5t-232 -27q-139 0 -231 28.5t-148.5 95t-80 165.5t-23.5 249zM284 528q0 -63 4.5 -113t14.5 -87.5 t22.5 -64.5t33 -45t41 -29t51.5 -16.5t59 -7.5t69 -2q49 0 81 2.5t66.5 10.5t55.5 24t40.5 42t30 65.5t16.5 93.5t6 127q0 69 -3.5 122t-12 94.5t-19.5 70t-30.5 49t-39.5 32.5t-52 18.5t-62.5 8.5t-76.5 2q-60 0 -96.5 -4t-74 -17.5t-57.5 -39t-37 -70t-23.5 -109.5 t-6.5 -157zM503 1221l210 275h210l-267 -275h-153z" />
<glyph unicode="&#xf4;" horiz-adv-x="1157" d="M96 528q0 135 16 230t50 162t92.5 105.5t136 55.5t188.5 17q113 0 192.5 -18t137 -57.5t90.5 -107.5t48.5 -161.5t15.5 -225.5q0 -155 -23 -255t-80.5 -164.5t-148.5 -91.5t-232 -27q-139 0 -231 28.5t-148.5 95t-80 165.5t-23.5 249zM284 528q0 -63 4.5 -113t14.5 -87.5 t22.5 -64.5t33 -45t41 -29t51.5 -16.5t59 -7.5t69 -2q49 0 81 2.5t66.5 10.5t55.5 24t40.5 42t30 65.5t16.5 93.5t6 127q0 69 -3.5 122t-12 94.5t-19.5 70t-30.5 49t-39.5 32.5t-52 18.5t-62.5 8.5t-76.5 2q-60 0 -96.5 -4t-74 -17.5t-57.5 -39t-37 -70t-23.5 -109.5 t-6.5 -157zM285 1221l234 269h164l209 -269h-158l-139 139l-151 -139h-159z" />
<glyph unicode="&#xf5;" horiz-adv-x="1157" d="M96 528q0 135 16 230t50 162t92.5 105.5t136 55.5t188.5 17q113 0 192.5 -18t137 -57.5t90.5 -107.5t48.5 -161.5t15.5 -225.5q0 -155 -23 -255t-80.5 -164.5t-148.5 -91.5t-232 -27q-139 0 -231 28.5t-148.5 95t-80 165.5t-23.5 249zM248 1313q48 43 79 67t76.5 45.5 t87.5 21.5q55 -3 124 -37t95 -35q58 -2 187 75l46 -96q-6 -5 -28 -24t-32 -27t-31 -24t-35 -24t-33.5 -17t-38.5 -13t-37 -3q-59 3 -123 37t-99 33q-40 -1 -69 -10.5t-66 -30.5t-59 -30zM284 528q0 -63 4.5 -113t14.5 -87.5t22.5 -64.5t33 -45t41 -29t51.5 -16.5t59 -7.5 t69 -2q49 0 81 2.5t66.5 10.5t55.5 24t40.5 42t30 65.5t16.5 93.5t6 127q0 69 -3.5 122t-12 94.5t-19.5 70t-30.5 49t-39.5 32.5t-52 18.5t-62.5 8.5t-76.5 2q-60 0 -96.5 -4t-74 -17.5t-57.5 -39t-37 -70t-23.5 -109.5t-6.5 -157z" />
<glyph unicode="&#xf6;" horiz-adv-x="1157" d="M96 528q0 135 16 230t50 162t92.5 105.5t136 55.5t188.5 17q113 0 192.5 -18t137 -57.5t90.5 -107.5t48.5 -161.5t15.5 -225.5q0 -155 -23 -255t-80.5 -164.5t-148.5 -91.5t-232 -27q-139 0 -231 28.5t-148.5 95t-80 165.5t-23.5 249zM212 1330q0 45 32 76t77 31t76 -31 t31 -76t-31 -77t-76 -32t-77 32t-32 77zM284 528q0 -63 4.5 -113t14.5 -87.5t22.5 -64.5t33 -45t41 -29t51.5 -16.5t59 -7.5t69 -2q49 0 81 2.5t66.5 10.5t55.5 24t40.5 42t30 65.5t16.5 93.5t6 127q0 69 -3.5 122t-12 94.5t-19.5 70t-30.5 49t-39.5 32.5t-52 18.5 t-62.5 8.5t-76.5 2q-60 0 -96.5 -4t-74 -17.5t-57.5 -39t-37 -70t-23.5 -109.5t-6.5 -157zM734 1330q0 45 32 76t77 31t76 -31t31 -76t-31 -77t-76 -32t-77 32t-32 77z" />
<glyph unicode="&#xf7;" horiz-adv-x="1046" d="M96 635v176h855v-176h-855zM420 344v118q0 51 49 51h115q23 0 35.5 -14t12.5 -37v-118q0 -47 -48 -47h-115q-22 0 -35.5 12.5t-13.5 34.5zM420 970v118q0 51 49 51h115q23 0 35.5 -14t12.5 -37v-118q0 -47 -48 -47h-115q-22 0 -35.5 12.5t-13.5 34.5z" />
<glyph unicode="&#xf8;" horiz-adv-x="1169" d="M97 0l96 128q-91 119 -91 400q0 169 24.5 277t83.5 174t148 92.5t228 26.5q192 0 294 -53l33 42h141l-86 -114q54 -64 77.5 -171.5t23.5 -273.5q0 -155 -23 -255t-80 -164.5t-148 -91.5t-232 -27q-207 0 -314 65l-42 -55h-133zM290 528q0 -155 35 -230l444 600 q-54 27 -183 27q-60 0 -96.5 -4t-74 -17.5t-58 -39t-37.5 -70t-23.5 -109.5t-6.5 -157zM385 202q32 -24 79 -31.5t122 -7.5q58 0 94 3.5t73 16t58 36t38.5 64t24.5 100.5t7 145q0 205 -42 281z" />
<glyph unicode="&#xf9;" d="M96 339v748h188v-749q0 -92 45.5 -137.5t121.5 -45.5q104 0 174 23.5t189 86.5v822h189v-1087h-140l-49 124q-10 -6 -49 -29t-52.5 -30.5t-47.5 -25t-54.5 -24.5t-53 -16.5t-63.5 -13t-66 -3.5q-109 0 -186 51t-111.5 130t-34.5 176zM224 1496h210l209 -275h-153z" />
<glyph unicode="&#xfa;" d="M96 339v748h188v-749q0 -92 45.5 -137.5t121.5 -45.5q104 0 174 23.5t189 86.5v822h189v-1087h-140l-49 124q-10 -6 -49 -29t-52.5 -30.5t-47.5 -25t-54.5 -24.5t-53 -16.5t-63.5 -13t-66 -3.5q-109 0 -186 51t-111.5 130t-34.5 176zM472 1221l210 275h210l-266 -275 h-154z" />
<glyph unicode="&#xfb;" d="M96 339v748h188v-749q0 -92 45.5 -137.5t121.5 -45.5q104 0 174 23.5t189 86.5v822h189v-1087h-140l-49 124q-10 -6 -49 -29t-52.5 -30.5t-47.5 -25t-54.5 -24.5t-53 -16.5t-63.5 -13t-66 -3.5q-109 0 -186 51t-111.5 130t-34.5 176zM246 1221l234 269h164l209 -269h-158 l-138 139l-152 -139h-159z" />
<glyph unicode="&#xfc;" d="M96 339v748h188v-749q0 -92 45.5 -137.5t121.5 -45.5q104 0 174 23.5t189 86.5v822h189v-1087h-140l-49 124q-10 -6 -49 -29t-52.5 -30.5t-47.5 -25t-54.5 -24.5t-53 -16.5t-63.5 -13t-66 -3.5q-109 0 -186 51t-111.5 130t-34.5 176zM180 1330q0 45 32 76t77 31t76 -31 t31 -76t-31 -77t-76 -32t-77 32t-32 77zM702 1330q0 45 32 76t77 31t76 -31t31 -76t-31 -77t-76 -32t-77 32t-32 77z" />
<glyph unicode="&#xfd;" horiz-adv-x="1146" d="M40 1087h203l243 -825q5 -18 13 -31.5t16.5 -22.5t18 -15t19 -9t18 -4.5t16.5 -1t13.5 1t9.5 1.5l4 1l286 905h205l-451 -1431l-152 -209h-125l182 553q-196 0 -267 239zM496 1221l210 275h210l-266 -275h-154z" />
<glyph unicode="&#xfe;" horiz-adv-x="1134" d="M134 -553v2155h188v-636q56 42 172.5 89.5t207.5 47.5q80 0 142 -30t102 -81t66 -123.5t36.5 -152t10.5 -171.5q0 -79 -5 -142t-18 -131t-38.5 -118t-64 -91.5t-97 -63t-134.5 -21.5t-185 21t-195 57v-609h-188zM322 198q35 -10 72 -18t62 -12.5t65 -8t54 -4.5t57.5 -3 t49.5 -2q46 0 78.5 17t58.5 59.5t39 121.5t13 197q0 186 -50 283.5t-139 97.5q-159 -9 -360 -94v-634z" />
<glyph unicode="&#xff;" horiz-adv-x="1146" d="M40 1087h203l243 -825q5 -18 13 -31.5t16.5 -22.5t18 -15t19 -9t18 -4.5t16.5 -1t13.5 1t9.5 1.5l4 1l286 905h205l-451 -1431l-152 -209h-125l182 553q-196 0 -267 239zM204 1330q0 45 32 76t77 31t76 -31t31 -76t-31 -77t-76 -32t-77 32t-32 77zM726 1330q0 45 32 76 t77 31t76 -31t31 -76t-31 -77t-76 -32t-77 32t-32 77z" />
<glyph unicode="&#x100;" horiz-adv-x="1384" d="M86 0l539 1499h199l515 -1499h-214l-123 394h-569l-127 -394h-220zM425 1632v138h598v-138h-598zM494 574h451l-222 654z" />
<glyph unicode="&#x101;" horiz-adv-x="1062" d="M76 263v119q0 126 74.5 203t210.5 77q418 -2 418 0q2 116 0 118q0 87 -41.5 123t-120.5 36q-167 0 -505 -24v128q199 62 520 65q151 2 243.5 -77.5t92.5 -247.5v-783h-144l-45 128q-3 -3 -28.5 -17t-71 -35t-96.5 -41t-112.5 -33.5t-112.5 -13.5q-125 2 -203.5 77 t-78.5 198zM259 1231v138h598v-138h-598zM265 282q0 -67 30.5 -94t84.5 -27q68 0 167.5 24.5t165.5 49.5l66 25v267l-402 -29q-112 -11 -112 -127v-89z" />
<glyph unicode="&#x102;" horiz-adv-x="1384" d="M86 0l539 1499h199l515 -1499h-214l-123 394h-569l-127 -394h-220zM489 1866h102q0 -56 39.5 -93.5t91.5 -37.5q60 0 97.5 35.5t37.5 95.5h103q0 -109 -71.5 -171.5t-166.5 -62.5q-93 0 -163 64.5t-70 169.5zM494 574h451l-222 654z" />
<glyph unicode="&#x103;" horiz-adv-x="1062" d="M76 263v119q0 126 74.5 203t210.5 77q418 -2 418 0q2 116 0 118q0 87 -41.5 123t-120.5 36q-167 0 -505 -24v128q199 62 520 65q151 2 243.5 -77.5t92.5 -247.5v-783h-144l-45 128q-3 -3 -28.5 -17t-71 -35t-96.5 -41t-112.5 -33.5t-112.5 -13.5q-125 2 -203.5 77 t-78.5 198zM265 282q0 -67 30.5 -94t84.5 -27q68 0 167.5 24.5t165.5 49.5l66 25v267l-402 -29q-112 -11 -112 -127v-89zM322 1464h102q0 -56 40 -93.5t92 -37.5q60 0 97.5 35.5t37.5 95.5h102q0 -109 -70.5 -171t-166.5 -62q-93 0 -163.5 64t-70.5 169z" />
<glyph unicode="&#x104;" horiz-adv-x="1384" d="M86 0l539 1499h199l515 -1499h-214l-123 394h-569l-127 -394h-220zM494 574h451l-222 654zM1033 -165.5q7 43.5 48 88.5t113 77h89q-81 -65 -105 -121t7.5 -87.5t106.5 -32.5v-132q-56 -9 -108 5.5t-88 44.5t-53 72t-10 85.5z" />
<glyph unicode="&#x105;" horiz-adv-x="1062" d="M76 263v119q0 126 74.5 203t210.5 77q418 -2 418 0q2 116 0 118q0 87 -41.5 123t-120.5 36q-167 0 -505 -24v128q199 62 520 65q151 2 243.5 -77.5t92.5 -247.5v-783h-144l-45 128q-3 -3 -28.5 -17t-71 -35t-96.5 -41t-112.5 -33.5t-112.5 -13.5q-125 2 -203.5 77 t-78.5 198zM265 282q0 -67 30.5 -94t84.5 -27q68 0 167.5 24.5t165.5 49.5l66 25v267l-402 -29q-112 -11 -112 -127v-89zM693 -165.5q7 43.5 48 88.5t113 77h89q-61 -49 -90 -94t-25 -77t36.5 -51t87.5 -20v-132q-56 -9 -108 5.5t-88 44.5t-53 72.5t-10 86z" />
<glyph unicode="&#x106;" horiz-adv-x="1179" d="M105 754q0 151 13 264t46.5 210.5t90 158.5t144.5 95t209 34q102 0 249 -16t257 -40v-149l-18 1q-17 1 -46.5 3t-67.5 4.5t-84 5t-91.5 4.5t-93.5 3t-87 1q-64 0 -109.5 -9.5t-84.5 -34t-63.5 -65.5t-42 -106.5t-25 -155t-7.5 -212.5q0 -88 6.5 -160t21 -139t40 -117 t61.5 -87.5t87 -57t116 -19.5q96 0 218 4t196 8l74 3v-149q-101 -22 -249 -35.5t-257 -12.5q-111 0 -197.5 37t-143.5 103t-94 163t-52.5 210.5t-15.5 252.5zM599 1638l209 276h210l-266 -276h-153z" />
<glyph unicode="&#x107;" horiz-adv-x="1019" d="M96 545q0 115 11.5 203.5t35 148t53.5 100t72.5 62.5t86 30.5t99.5 8.5q86 0 226.5 -16t249.5 -41v-129q-260 13 -442 13q-31 0 -51 -2t-44 -10.5t-38.5 -24t-29.5 -44t-23 -69.5t-13 -100.5t-5 -137.5q0 -151 21.5 -232.5t63.5 -111.5t119 -30q84 0 198 5.5t186 10.5 l73 5v-132q-77 -26 -166.5 -40t-154 -17.5t-170.5 -4.5q-66 0 -116 12.5t-97.5 48t-77.5 96t-48.5 161t-18.5 237.5zM476 1224l210 276h210l-266 -276h-154z" />
<glyph unicode="&#x108;" horiz-adv-x="1179" d="M105 754q0 151 13 264t46.5 210.5t90 158.5t144.5 95t209 34q102 0 249 -16t257 -40v-149l-18 1q-17 1 -46.5 3t-67.5 4.5t-84 5t-91.5 4.5t-93.5 3t-87 1q-64 0 -109.5 -9.5t-84.5 -34t-63.5 -65.5t-42 -106.5t-25 -155t-7.5 -212.5q0 -88 6.5 -160t21 -139t40 -117 t61.5 -87.5t87 -57t116 -19.5q96 0 218 4t196 8l74 3v-149q-101 -22 -249 -35.5t-257 -12.5q-111 0 -197.5 37t-143.5 103t-94 163t-52.5 210.5t-15.5 252.5zM371 1638l234 270h164l209 -270h-157l-139 140l-151 -140h-160z" />
<glyph unicode="&#x109;" horiz-adv-x="1019" d="M96 545q0 115 11.5 203.5t35 148t53.5 100t72.5 62.5t86 30.5t99.5 8.5q86 0 226.5 -16t249.5 -41v-129q-260 13 -442 13q-31 0 -51 -2t-44 -10.5t-38.5 -24t-29.5 -44t-23 -69.5t-13 -100.5t-5 -137.5q0 -151 21.5 -232.5t63.5 -111.5t119 -30q84 0 198 5.5t186 10.5 l73 5v-132q-77 -26 -166.5 -40t-154 -17.5t-170.5 -4.5q-66 0 -116 12.5t-97.5 48t-77.5 96t-48.5 161t-18.5 237.5zM269 1224l234 269h164l209 -269h-158l-139 139l-151 -139h-159z" />
<glyph unicode="&#x10a;" horiz-adv-x="1179" d="M105 754q0 151 13 264t46.5 210.5t90 158.5t144.5 95t209 34q102 0 249 -16t257 -40v-149l-18 1q-17 1 -46.5 3t-67.5 4.5t-84 5t-91.5 4.5t-93.5 3t-87 1q-64 0 -109.5 -9.5t-84.5 -34t-63.5 -65.5t-42 -106.5t-25 -155t-7.5 -212.5q0 -88 6.5 -160t21 -139t40 -117 t61.5 -87.5t87 -57t116 -19.5q96 0 218 4t196 8l74 3v-149q-101 -22 -249 -35.5t-257 -12.5q-111 0 -197.5 37t-143.5 103t-94 163t-52.5 210.5t-15.5 252.5zM583 1689v123q0 51 50 51h114q23 0 35 -14t12 -37v-123q0 -47 -47 -47h-114q-22 0 -36 13t-14 34z" />
<glyph unicode="&#x10b;" horiz-adv-x="1019" d="M96 545q0 115 11.5 203.5t35 148t53.5 100t72.5 62.5t86 30.5t99.5 8.5q86 0 226.5 -16t249.5 -41v-129q-260 13 -442 13q-31 0 -51 -2t-44 -10.5t-38.5 -24t-29.5 -44t-23 -69.5t-13 -100.5t-5 -137.5q0 -151 21.5 -232.5t63.5 -111.5t119 -30q84 0 198 5.5t186 10.5 l73 5v-132q-77 -26 -166.5 -40t-154 -17.5t-170.5 -4.5q-66 0 -116 12.5t-97.5 48t-77.5 96t-48.5 161t-18.5 237.5zM490 1275v123q0 51 50 51h114q23 0 35 -14t12 -37v-123q0 -47 -47 -47h-114q-22 0 -36 13t-14 34z" />
<glyph unicode="&#x10c;" horiz-adv-x="1179" d="M105 754q0 151 13 264t46.5 210.5t90 158.5t144.5 95t209 34q102 0 249 -16t257 -40v-149l-18 1q-17 1 -46.5 3t-67.5 4.5t-84 5t-91.5 4.5t-93.5 3t-87 1q-64 0 -109.5 -9.5t-84.5 -34t-63.5 -65.5t-42 -106.5t-25 -155t-7.5 -212.5q0 -88 6.5 -160t21 -139t40 -117 t61.5 -87.5t87 -57t116 -19.5q96 0 218 4t196 8l74 3v-149q-101 -22 -249 -35.5t-257 -12.5q-111 0 -197.5 37t-143.5 103t-94 163t-52.5 210.5t-15.5 252.5zM383 1908h159l155 -140l135 140h158l-212 -270h-163z" />
<glyph unicode="&#x10d;" horiz-adv-x="1019" d="M96 545q0 115 11.5 203.5t35 148t53.5 100t72.5 62.5t86 30.5t99.5 8.5q86 0 226.5 -16t249.5 -41v-129q-260 13 -442 13q-31 0 -51 -2t-44 -10.5t-38.5 -24t-29.5 -44t-23 -69.5t-13 -100.5t-5 -137.5q0 -151 21.5 -232.5t63.5 -111.5t119 -30q84 0 198 5.5t186 10.5 l73 5v-132q-77 -26 -166.5 -40t-154 -17.5t-170.5 -4.5q-66 0 -116 12.5t-97.5 48t-77.5 96t-48.5 161t-18.5 237.5zM247 1493h159l155 -139l135 139h158l-212 -269h-164z" />
<glyph unicode="&#x10e;" horiz-adv-x="1347" d="M153 0v1499h579q94 0 171.5 -25.5t131.5 -67.5t95 -103t65.5 -125.5t39.5 -143t20.5 -147t5.5 -144.5q0 -114 -17.5 -218.5t-57.5 -201.5t-100 -168t-151 -113t-203 -42h-579zM342 184h384q90 0 158 43.5t108.5 121t60.5 177t20 219.5q0 158 -23.5 270t-69.5 178.5 t-108 96.5t-146 30h-384v-1136zM348 1893h159l154 -139l136 139h158l-212 -269h-164z" />
<glyph unicode="&#x10f;" horiz-adv-x="1163" d="M96 539q0 69 3.5 125.5t13.5 116t26.5 106t44 88.5t64.5 69.5t89 43.5t116 16q75 0 185.5 -21.5t196.5 -57.5v583h187v-1608h-144l-43 118q-53 -40 -171.5 -85t-210.5 -45q-357 0 -357 551zM284 542q0 -377 189 -377q170 0 362 87v630q-176 50 -362 50q-64 0 -103 -30 t-62.5 -118t-23.5 -242zM1120 1598h166v-137l-23 -275h-121l-20 275z" />
<glyph unicode="&#x110;" horiz-adv-x="1347" d="M20 706v116h133v675q0 2 581 2q94 0 171.5 -25.5t131.5 -67.5t94.5 -103t65 -125.5t39.5 -143t20 -147t5 -144.5q0 -114 -17 -218.5t-57 -201.5t-99.5 -167.5t-150.5 -113t-203 -42.5h-581v706h-133zM342 184h386q72 0 130 28.5t96.5 79t64 122t37 153.5t11.5 178 q0 154 -24 265.5t-70 176t-106.5 94.5t-138.5 30l-386 -2v-487h269v-116h-269v-522z" />
<glyph unicode="&#x111;" horiz-adv-x="1138" d="M94 539q0 69 3.5 125.5t13.5 116t26.5 106t44 88.5t64.5 69.5t89 43.5t116 16q75 0 185.5 -21.5t196.5 -57.5v230h-241v117h241v236h187v-236h143v-117h-143v-1255h-144l-43 118q-53 -40 -171.5 -85t-210.5 -45q-357 0 -357 551zM282 542q0 -377 190 -377q169 0 361 87 v630q-176 50 -361 50q-48 0 -81 -16.5t-58.5 -59t-38 -120t-12.5 -194.5z" />
<glyph unicode="&#x112;" horiz-adv-x="1161" d="M152 264v957q0 78 23 135t63.5 87.5t87.5 44t102 11.5q615 -28 651 -33v-151h-633q-38 0 -61 -9t-32 -28.5t-11 -34t-2 -42.5v-362l654 -21v-152l-654 -20v-362q1 -31 9.5 -52.5t18 -32t31 -15.5t32 -5.5t36.5 -0.5h612v-149l-630 -35q-297 -18 -297 270zM350 1629v138 h598v-138h-598z" />
<glyph unicode="&#x113;" horiz-adv-x="1075" d="M96 549q0 120 11 207t37.5 148t61.5 98.5t92.5 58.5t119.5 28t153 7q57 0 97 -2t84.5 -8t74 -18t60 -31t49 -48t34 -68.5t22.5 -92.5t7 -120q0 -256 -287 -256h-428q0 -120 21 -182t64.5 -84.5t127.5 -22.5h73.5h77t64.5 0.5t72 2t61 3.5t70 5.5t63 8.5v-136 q-186 -57 -524 -57q-140 0 -216.5 53.5t-109 172t-32.5 333.5zM263 1219v138h598v-138h-598zM284 616h408q118 0 118 96q0 51 -3 83.5t-14 58t-25 38.5t-43 21.5t-61.5 10.5t-86.5 2q-38 0 -59.5 -0.5t-51.5 -2.5t-45.5 -6.5t-37 -12t-32.5 -19t-24.5 -28.5t-19.5 -39.5 t-12.5 -52t-8.5 -66.5t-2 -83z" />
<glyph unicode="&#x116;" horiz-adv-x="1161" d="M152 264v957q0 78 23 135t63.5 87.5t87.5 44t102 11.5q615 -28 651 -33v-151h-633q-38 0 -61 -9t-32 -28.5t-11 -34t-2 -42.5v-362l654 -21v-152l-654 -20v-362q1 -31 9.5 -52.5t18 -32t31 -15.5t32 -5.5t36.5 -0.5h612v-149l-630 -35q-297 -18 -297 270zM553 1674v123 q0 51 50 51h114q23 0 35 -14t12 -37v-123q0 -47 -47 -47h-114q-22 0 -36 13t-14 34z" />
<glyph unicode="&#x117;" horiz-adv-x="1075" d="M96 549q0 120 11 207t37.5 148t61.5 98.5t92.5 58.5t119.5 28t153 7q57 0 97 -2t84.5 -8t74 -18t60 -31t49 -48t34 -68.5t22.5 -92.5t7 -120q0 -256 -287 -256h-428q0 -120 21 -182t64.5 -84.5t127.5 -22.5h73.5h77t64.5 0.5t72 2t61 3.5t70 5.5t63 8.5v-136 q-186 -57 -524 -57q-140 0 -216.5 53.5t-109 172t-32.5 333.5zM284 616h408q118 0 118 96q0 51 -3 83.5t-14 58t-25 38.5t-43 21.5t-61.5 10.5t-86.5 2q-38 0 -59.5 -0.5t-51.5 -2.5t-45.5 -6.5t-37 -12t-32.5 -19t-24.5 -28.5t-19.5 -39.5t-12.5 -52t-8.5 -66.5t-2 -83z M453 1268v123q0 51 49 51h115q23 0 35 -14t12 -37v-123q0 -47 -47 -47h-115q-22 0 -35.5 12.5t-13.5 34.5z" />
<glyph unicode="&#x118;" horiz-adv-x="1161" d="M152 264v957q0 78 23 135t63.5 87.5t87.5 44t102 11.5q615 -28 651 -33v-151h-633q-38 0 -61 -9t-32 -28.5t-11 -34t-2 -42.5v-362l654 -21v-152l-654 -20v-362q1 -31 9.5 -52.5t18 -32t31 -15.5t32 -5.5t36.5 -0.5h612v-149l-630 -35q-297 -18 -297 270zM828.5 -137.5 q6.5 43.5 47.5 88.5t113 77h89q-122 -101 -114 -170t124 -71v-132q-56 -9 -108 5.5t-88 44.5t-53 72t-10.5 85.5z" />
<glyph unicode="&#x119;" horiz-adv-x="1075" d="M96 549q0 120 11 207t37.5 148t61.5 98.5t92.5 58.5t119.5 28t153 7q57 0 97 -2t84.5 -8t74 -18t60 -31t49 -48t34 -68.5t22.5 -92.5t7 -120q0 -256 -287 -256h-428q0 -120 21 -182t64.5 -84.5t127.5 -22.5h73.5h77t64.5 0.5t72 2t61 3.5t70 5.5t63 8.5v-136 q-186 -57 -524 -57q-140 0 -216.5 53.5t-109 172t-32.5 333.5zM284 616h408q118 0 118 96q0 51 -3 83.5t-14 58t-25 38.5t-43 21.5t-61.5 10.5t-86.5 2q-38 0 -59.5 -0.5t-51.5 -2.5t-45.5 -6.5t-37 -12t-32.5 -19t-24.5 -28.5t-19.5 -39.5t-12.5 -52t-8.5 -66.5t-2 -83z M728.5 -118.5q6.5 43.5 47.5 88.5t113 77h89q-61 -49 -90 -94t-24.5 -77t37 -51t87.5 -20v-132q-56 -9 -108 5.5t-88 44.5t-53 72.5t-10.5 86z" />
<glyph unicode="&#x11a;" horiz-adv-x="1161" d="M152 264v957q0 78 23 135t63.5 87.5t87.5 44t102 11.5q615 -28 651 -33v-151h-633q-38 0 -61 -9t-32 -28.5t-11 -34t-2 -42.5v-362l654 -21v-152l-654 -20v-362q1 -31 9.5 -52.5t18 -32t31 -15.5t32 -5.5t36.5 -0.5h612v-149l-630 -35q-297 -18 -297 270zM344 1893h159 l155 -139l135 139h158l-212 -269h-163z" />
<glyph unicode="&#x11b;" horiz-adv-x="1075" d="M96 549q0 120 11 207t37.5 148t61.5 98.5t92.5 58.5t119.5 28t153 7q57 0 97 -2t84.5 -8t74 -18t60 -31t49 -48t34 -68.5t22.5 -92.5t7 -120q0 -256 -287 -256h-428q0 -120 21 -182t64.5 -84.5t127.5 -22.5h73.5h77t64.5 0.5t72 2t61 3.5t70 5.5t63 8.5v-136 q-186 -57 -524 -57q-140 0 -216.5 53.5t-109 172t-32.5 333.5zM261 1481h160l154 -139l136 139h158l-212 -269h-164zM284 616h408q118 0 118 96q0 51 -3 83.5t-14 58t-25 38.5t-43 21.5t-61.5 10.5t-86.5 2q-38 0 -59.5 -0.5t-51.5 -2.5t-45.5 -6.5t-37 -12t-32.5 -19 t-24.5 -28.5t-19.5 -39.5t-12.5 -52t-8.5 -66.5t-2 -83z" />
<glyph unicode="&#x11c;" horiz-adv-x="1257" d="M105 758q0 95 5 173.5t19 158.5t37 142t60 116.5t87 90.5t119 56.5t155 20.5q105 0 260 -17t276 -42v-148q-2 0 -37 3t-90 6.5t-119 7.5t-138 7t-133 3q-77 0 -131.5 -23t-90 -65.5t-55.5 -116t-27.5 -162t-7.5 -215.5q0 -134 9.5 -228.5t31 -164t59 -110t89 -59.5 t125.5 -20q67 -1 156 22.5t144 47.5l56 24v371h-307v124q157 51 357 51q66 0 139 -6v-806h-140l-45 100q-168 -108 -375 -110q-89 -1 -160.5 18.5t-122 54.5t-87.5 91t-59.5 117.5t-36 144.5t-18 162.5t-4.5 179.5zM383 1638l235 270h164l209 -270h-158l-139 140l-151 -140 h-160z" />
<glyph unicode="&#x11d;" horiz-adv-x="1136" d="M89 -73l86 124q-41 28 -62.5 75.5t-21.5 101.5q0 60 31.5 112t91.5 65q-62 39 -90.5 122.5t-28.5 177.5q0 192 94 289.5t266 97.5h645v-130l-154 -37q1 -3 13.5 -25.5t17 -34.5t13 -38t11.5 -58.5t3 -73.5q0 -46 -7.5 -92t-30.5 -101.5t-59 -97.5t-101 -70.5t-149 -28.5 h-301q-84 0 -84 -58q0 -65 84 -65h408q132 0 206 -78t74 -216v-126q0 -44 -7 -84t-28 -83.5t-54.5 -75t-92 -52t-135.5 -20.5h-307q-151 0 -241 80t-90 235v165zM261 1222l235 270h163l209 -270h-157l-139 140l-151 -140h-160zM278 22v-250q0 -49 14.5 -81.5t41 -46.5 t51 -19t56.5 -5h270q81 0 113 39t32 111v108q0 70 -27 100t-104 30h-356q-25 0 -48 3.5t-33 6.5zM283 705q0 -42 7.5 -78.5t25.5 -72t53.5 -56t86.5 -20.5h177q53 0 91 21t57 56.5t27 72.5t7 77q-4 110 -42.5 162t-141.5 52h-164q-184 0 -184 -214z" />
<glyph unicode="&#x11e;" horiz-adv-x="1257" d="M105 758q0 95 5 173.5t19 158.5t37 142t60 116.5t87 90.5t119 56.5t155 20.5q105 0 260 -17t276 -42v-148q-2 0 -37 3t-90 6.5t-119 7.5t-138 7t-133 3q-77 0 -131.5 -23t-90 -65.5t-55.5 -116t-27.5 -162t-7.5 -215.5q0 -134 9.5 -228.5t31 -164t59 -110t89 -59.5 t125.5 -20q67 -1 156 22.5t144 47.5l56 24v371h-307v124q157 51 357 51q66 0 139 -6v-806h-140l-45 100q-168 -108 -375 -110q-89 -1 -160.5 18.5t-122 54.5t-87.5 91t-59.5 117.5t-36 144.5t-18 162.5t-4.5 179.5zM447 1872h103q0 -56 39.5 -93.5t91.5 -37.5 q60 0 97.5 35.5t37.5 95.5h102q0 -109 -71 -171.5t-166 -62.5q-93 0 -163.5 64.5t-70.5 169.5z" />
<glyph unicode="&#x11f;" horiz-adv-x="1136" d="M89 -73l86 124q-41 28 -62.5 75.5t-21.5 101.5q0 60 31.5 112t91.5 65q-62 39 -90.5 122.5t-28.5 177.5q0 192 94 289.5t266 97.5h645v-130l-154 -37q1 -3 13.5 -25.5t17 -34.5t13 -38t11.5 -58.5t3 -73.5q0 -46 -7.5 -92t-30.5 -101.5t-59 -97.5t-101 -70.5t-149 -28.5 h-301q-84 0 -84 -58q0 -65 84 -65h408q132 0 206 -78t74 -216v-126q0 -44 -7 -84t-28 -83.5t-54.5 -75t-92 -52t-135.5 -20.5h-307q-151 0 -241 80t-90 235v165zM278 22v-250q0 -49 14.5 -81.5t41 -46.5t51 -19t56.5 -5h270q81 0 113 39t32 111v108q0 70 -27 100t-104 30 h-356q-25 0 -48 3.5t-33 6.5zM283 705q0 -42 7.5 -78.5t25.5 -72t53.5 -56t86.5 -20.5h177q53 0 91 21t57 56.5t27 72.5t7 77q-4 110 -42.5 162t-141.5 52h-164q-184 0 -184 -214zM328 1456h102q0 -56 40 -93.5t92 -37.5q60 0 97.5 35.5t37.5 95.5h102q0 -109 -71 -171.5 t-166 -62.5q-93 0 -163.5 64.5t-70.5 169.5z" />
<glyph unicode="&#x120;" horiz-adv-x="1257" d="M105 758q0 95 5 173.5t19 158.5t37 142t60 116.5t87 90.5t119 56.5t155 20.5q105 0 260 -17t276 -42v-148q-2 0 -37 3t-90 6.5t-119 7.5t-138 7t-133 3q-77 0 -131.5 -23t-90 -65.5t-55.5 -116t-27.5 -162t-7.5 -215.5q0 -134 9.5 -228.5t31 -164t59 -110t89 -59.5 t125.5 -20q67 -1 156 22.5t144 47.5l56 24v371h-307v124q157 51 357 51q66 0 139 -6v-806h-140l-45 100q-168 -108 -375 -110q-89 -1 -160.5 18.5t-122 54.5t-87.5 91t-59.5 117.5t-36 144.5t-18 162.5t-4.5 179.5zM564 1686v122q0 52 49 52h115q22 0 34.5 -14.5t12.5 -37.5 v-122q0 -48 -47 -48h-115q-22 0 -35.5 13t-13.5 35z" />
<glyph unicode="&#x121;" horiz-adv-x="1136" d="M89 -73l86 124q-41 28 -62.5 75.5t-21.5 101.5q0 60 31.5 112t91.5 65q-62 39 -90.5 122.5t-28.5 177.5q0 192 94 289.5t266 97.5h645v-130l-154 -37q1 -3 13.5 -25.5t17 -34.5t13 -38t11.5 -58.5t3 -73.5q0 -46 -7.5 -92t-30.5 -101.5t-59 -97.5t-101 -70.5t-149 -28.5 h-301q-84 0 -84 -58q0 -65 84 -65h408q132 0 206 -78t74 -216v-126q0 -44 -7 -84t-28 -83.5t-54.5 -75t-92 -52t-135.5 -20.5h-307q-151 0 -241 80t-90 235v165zM278 22v-250q0 -49 14.5 -81.5t41 -46.5t51 -19t56.5 -5h270q81 0 113 39t32 111v108q0 70 -27 100t-104 30 h-356q-25 0 -48 3.5t-33 6.5zM283 705q0 -42 7.5 -78.5t25.5 -72t53.5 -56t86.5 -20.5h177q53 0 91 21t57 56.5t27 72.5t7 77q-4 110 -42.5 162t-141.5 52h-164q-184 0 -184 -214zM465 1273v123q0 51 49 51h115q23 0 35 -14t12 -37v-123q0 -47 -47 -47h-115 q-22 0 -35.5 12.5t-13.5 34.5z" />
<glyph unicode="&#x122;" horiz-adv-x="1257" d="M105 758q0 95 5 173.5t19 158.5t37 142t60 116.5t87 90.5t119 56.5t155 20.5q105 0 260 -17t276 -42v-148q-2 0 -37 3t-90 6.5t-119 7.5t-138 7t-133 3q-77 0 -131.5 -23t-90 -65.5t-55.5 -116t-27.5 -162t-7.5 -215.5q0 -134 9.5 -228.5t31 -164t59 -110t89 -59.5 t125.5 -20q67 -1 156 22.5t144 47.5l56 24v371h-307v124q157 51 357 51q66 0 139 -6v-806h-140l-45 100q-168 -108 -375 -110q-89 -1 -160.5 18.5t-122 54.5t-87.5 91t-59.5 117.5t-36 144.5t-18 162.5t-4.5 179.5zM553 -204q0 50 46 50h111q44 0 44 -50v-182 q0 -51 -20 -84.5t-48 -45t-56 -15t-48 -0.5l-20 3v67q19 -1 32 4t18 15t6.5 17.5t1.5 17.5v41h-21q-20 0 -33 12t-13 34v116z" />
<glyph unicode="&#x123;" horiz-adv-x="1136" d="M89 -70l89 123q-87 60 -87 174q0 62 31.5 113.5t91.5 64.5q-62 39 -90.5 122.5t-28.5 177.5q0 192 94 289.5t266 97.5h645v-130l-154 -37q1 -3 13.5 -25.5t17 -34.5t13 -38t11.5 -58.5t3 -73.5q0 -46 -7.5 -92t-30.5 -101.5t-59 -97.5t-101 -70.5t-149 -28.5h-301 q-84 0 -84 -61q0 -19 6 -31.5t19.5 -19t26 -9.5t32.5 -6l383 -47q142 -17 223.5 -92.5t81.5 -208.5v-68q0 -44 -7 -84t-28 -83.5t-54.5 -75t-92 -52t-135.5 -20.5h-307q-151 0 -241 80t-90 235v168zM278 19v-247q0 -49 14.5 -81.5t41 -46.5t51 -19t56.5 -5h270q81 0 113 39 t32 111v53q0 118 -166 140l-304 40zM283 705q0 -42 7.5 -79t25.5 -73t53.5 -57t86.5 -21h177q53 0 91.5 22t57 58t26.5 73t7 77q-4 112 -42.5 164.5t-141.5 52.5h-164q-184 0 -184 -217zM460 1264v183q0 51 20 84.5t48 45t56 15t48 0.5l20 -3v-68q-25 1 -39 -9.5t-16 -20.5 t-2 -24v-41h20q20 0 33 -12t13 -34v-116q0 -50 -46 -50h-111q-44 0 -44 50z" />
<glyph unicode="&#x124;" horiz-adv-x="1304" d="M153 0v1499h189v-683h661v683h188v-1499h-188v634h-661v-634h-189zM369 1632l234 270h164l209 -270h-158l-138 140l-152 -140h-159z" />
<glyph unicode="&#x125;" d="M-120 1728l235 269h163l209 -269h-157l-139 139l-151 -139h-160zM91 0v1605h188v-641q123 75 174 97q104 45 213 45q161 0 247 -103t86 -254v-749h-189v750q0 92 -45 137.5t-122 45.5q-104 0 -173.5 -23.5t-189.5 -87.5v-822h-189z" />
<glyph unicode="&#x126;" horiz-adv-x="1361" d="M36 1057v117h127v325h188v-325h662v325h188v-325h123v-117h-123v-1057h-188v634h-662v-634h-188v1057h-127zM351 816h662v241h-662v-241z" />
<glyph unicode="&#x127;" horiz-adv-x="1124" d="M-30 1246v117h153v242h193v-242h263v-117h-263v-282q116 68 209.5 105.5t187.5 36.5q80 3 142.5 -25.5t99.5 -79t56 -113.5t19 -136v-752h-193v748q-4 93 -44 140.5t-132 47.5q-141 -7 -344 -114v-822h-194v1246h-153z" />
<glyph unicode="&#x128;" horiz-adv-x="454" d="M-100 1724q48 43 79 67t76.5 45.5t87.5 21.5q55 -3 124 -36.5t95 -34.5q58 -2 187 75l46 -96q-6 -5 -28 -24t-32 -27t-31 -24t-35 -24t-33.5 -17t-38.5 -13t-37 -3q-59 3 -123 37t-99 33q-40 -1 -69 -10.5t-66 -30.5t-59 -31zM153 0v1499h189v-1499h-189z" />
<glyph unicode="&#x129;" horiz-adv-x="417" d="M-139 1313q73 65 128.5 99.5t115.5 34.5q55 -3 123.5 -37t94.5 -35q58 -2 187 75l47 -96q-6 -5 -28 -24t-32 -27t-31 -24t-35 -24t-33.5 -17t-38.5 -13t-37 -3q-59 3 -123 37t-99 33q-40 -1 -69 -10.5t-66 -30.5t-59 -30zM115 0v1087h188v-1087h-188z" />
<glyph unicode="&#x12a;" horiz-adv-x="454" d="M-52 1632v138h598v-138h-598zM153 0v1499h189v-1499h-189z" />
<glyph unicode="&#x12b;" horiz-adv-x="417" d="M-90 1221v138h598v-138h-598zM115 0v1087h188v-1087h-188z" />
<glyph unicode="&#x12e;" horiz-adv-x="454" d="M49 -165.5q7 43.5 48 88.5t113 77h89q-61 -49 -90 -94t-25 -77t36.5 -51t87.5 -20v-132q-56 -9 -108 5.5t-88 44.5t-53 72.5t-10 86zM153 0v1499h189v-1499h-189z" />
<glyph unicode="&#x12f;" horiz-adv-x="419" d="M11.5 -165.5q6.5 43.5 47.5 88.5t113 77h89q-61 -49 -90 -94t-24.5 -77t37 -51t87.5 -20v-132q-56 -9 -108 5.5t-88 44.5t-53 72.5t-10.5 86zM96 1260v130q0 51 49 51h133q23 0 35 -14t12 -37v-130q0 -47 -47 -47h-133q-22 0 -35.5 12.5t-13.5 34.5zM113 0v1087h189 v-1087h-189z" />
<glyph unicode="&#x130;" horiz-adv-x="454" d="M142 1679v123q0 51 49 51h115q23 0 35 -14t12 -37v-123q0 -47 -47 -47h-115q-22 0 -35.5 12.5t-13.5 34.5zM153 0v1499h189v-1499h-189z" />
<glyph unicode="&#x131;" horiz-adv-x="417" d="M115 0v1087h188v-1087h-188z" />
<glyph unicode="&#x134;" horiz-adv-x="733" d="M67 44l7 142q133 -26 183 -25q132 2 164 121q10 39 10 90v1127h188v-1161q0 -47 -2.5 -80.5t-12 -79.5t-33 -82t-59.5 -59q-83 -52 -224 -49t-221 56zM222 1632l234 270h164l209 -270h-158l-139 140l-151 -140h-159z" />
<glyph unicode="&#x135;" horiz-adv-x="458" d="M-76 1225l234 322h164l209 -322h-139l-158 174l-168 -174h-142zM133 -553v1640h197v-1095q4 -323 -59 -545h-138zM322 1547z" />
<glyph unicode="&#x136;" horiz-adv-x="1230" d="M153 0v1499h185v-659h155l447 659h225l-501 -748l501 -751h-225l-447 660h-153v-660h-187zM531 -194q0 50 46 50h110q44 0 44 -50v-182q0 -51 -19.5 -84.5t-47.5 -45t-56.5 -15t-47.5 -0.5l-20 3v67q19 -1 31.5 4.5t17.5 15.5t6.5 17.5t1.5 17.5v40h-20q-20 0 -33 12 t-13 34v116z" />
<glyph unicode="&#x137;" horiz-adv-x="1054" d="M115 0v1602h188v-895h76l387 380h252l-463 -465l463 -622h-230l-409 537h-76v-537h-188zM440 -194q0 50 46 50h110q45 0 45 -50v-182q0 -51 -20 -84.5t-48 -45t-56 -15t-48 -0.5l-20 3v67q19 -1 31.5 4.5t17.5 15.5t6.5 17.5t1.5 17.5v40h-20q-20 0 -33 12t-13 34v116z " />
<glyph unicode="&#x138;" horiz-adv-x="1087" d="M115 0v1087h189v-463h153l363 463h231l-424 -546l392 -541h-229l-339 454h-146l-1 -454h-189z" />
<glyph unicode="&#x139;" horiz-adv-x="1130" d="M153 267v1232h189v-1210q0 -31 8.5 -52.5t18 -32t30.5 -16t32.5 -6t36.5 -0.5h596v-182h-623q-48 0 -85.5 5.5t-77 22.5t-65.5 45t-43 77.5t-17 116.5zM170 1632l210 276h210l-266 -276h-154z" />
<glyph unicode="&#x13a;" horiz-adv-x="620" d="M115 387v1217h188v-1205q0 -83 15 -132t37 -68t59 -29q156 -43 170 -43v-127h-196q-63 0 -111.5 20t-85.5 64.5t-56.5 120.5t-19.5 182zM187 1726l210 276h210l-266 -276h-154z" />
<glyph unicode="&#x13b;" horiz-adv-x="1130" d="M153 267v1232h189v-1210q0 -31 8.5 -52.5t18 -32t30.5 -16t32.5 -6t36.5 -0.5h596v-182h-623q-48 0 -85.5 5.5t-77 22.5t-65.5 45t-43 77.5t-17 116.5zM525 -192q0 50 46 50h110q45 0 45 -50v-182q0 -51 -20 -84.5t-48 -45t-56 -15t-48 -0.5l-20 3v67q25 -1 39 9.5 t16 20.5t2 24v41h-20q-20 0 -33 12t-13 34v116z" />
<glyph unicode="&#x13c;" horiz-adv-x="620" d="M115 387v1217h188v-1205q0 -83 15 -132t37 -68t59 -29q156 -43 170 -43v-127h-196q-63 0 -111.5 20t-85.5 64.5t-56.5 120.5t-19.5 182zM246 -192q0 49 46 49h111q44 0 44 -49v-183q0 -51 -19.5 -84.5t-48 -45t-56.5 -15t-47 -0.5l-20 3v68q25 -1 39 9.5t16 20.5t2 24v40 h-21q-20 0 -33 12.5t-13 34.5v116z" />
<glyph unicode="&#x13d;" horiz-adv-x="1130" d="M153 267v1232h189v-1210q0 -31 8.5 -52.5t18 -32t30.5 -16t32.5 -6t36.5 -0.5h596v-182h-623q-48 0 -85.5 5.5t-77 22.5t-65.5 45t-43 77.5t-17 116.5zM491 1444v137h164v-137l-21 -275h-121z" />
<glyph unicode="&#x13e;" horiz-adv-x="645" d="M115 387v1217h188v-1205q0 -86 11.5 -131.5t33 -64.5t66.5 -33q156 -43 170 -43v-127h-196q-147 0 -210 86.5t-63 300.5zM453 1463v137h164v-137l-21 -275h-121z" />
<glyph unicode="&#x141;" horiz-adv-x="1144" d="M3 647v131l168 72v649h188v-567l271 116l-1 -130l-270 -118v-511q0 -31 8.5 -52.5t18.5 -32t31 -16t32.5 -6t36.5 -0.5h596v-182h-624q-48 0 -85.5 5.5t-77 22.5t-65.5 45t-42.5 77.5t-16.5 116.5v452z" />
<glyph unicode="&#x142;" horiz-adv-x="690" d="M21 745v131l161 69v659h188v-578l278 120l-2 -129l-276 -121v-497q0 -83 15 -132t37 -68t59 -29q156 -43 170 -43v-127h-196q-63 0 -111.5 20t-85.5 64.5t-56.5 120.5t-19.5 182v428z" />
<glyph unicode="&#x143;" horiz-adv-x="1390" d="M153 0v1499h193l743 -1149v1149h188v-1499h-188l-745 1146v-1146h-191zM656 1632l210 276h210l-267 -276h-153z" />
<glyph unicode="&#x144;" d="M115 0v1087h140l48 -123q7 4 34 20.5t35.5 21.5t33 19t36 19.5t35 16.5t38.5 15.5t38.5 11.5t43 10t44 5.5t48.5 2.5q161 0 247 -103t86 -254v-749h-188v750q0 92 -45.5 137.5t-121.5 45.5q-104 0 -174 -23.5t-190 -87.5v-822h-188zM486 1229l210 275h209l-266 -275h-153 z" />
<glyph unicode="&#x145;" horiz-adv-x="1390" d="M153 0v1499h193l743 -1149v1149h188v-1499h-188l-745 1146v-1146h-191zM612 -194q0 50 46 50h111q44 0 44 -50v-182q0 -51 -20 -84.5t-48 -45t-56 -15t-48 -0.5l-20 3v67q19 -1 31.5 4.5t17.5 15.5t6.5 17.5t1.5 17.5v40h-20q-20 0 -33 12t-13 34v116z" />
<glyph unicode="&#x146;" d="M115 0v1087h140l48 -123q7 4 34 20.5t35.5 21.5t33 19t36 19.5t35 16.5t38.5 15.5t38.5 11.5t43 10t44 5.5t48.5 2.5q161 0 247 -103t86 -254v-749h-188v750q0 92 -45.5 137.5t-121.5 45.5q-104 0 -174 -23.5t-190 -87.5v-822h-188zM469 -194q0 50 46 50h110q45 0 45 -50 v-182q0 -51 -20 -84.5t-48 -45t-56 -15t-48 -0.5l-20 3v67q19 -1 31.5 4.5t17.5 15.5t6.5 17.5t1.5 17.5v40h-20q-20 0 -33 12t-13 34v116z" />
<glyph unicode="&#x147;" horiz-adv-x="1390" d="M153 0v1499h193l743 -1149v1149h188v-1499h-188l-745 1146v-1146h-191zM429 1902h159l155 -140l135 140h158l-212 -270h-163z" />
<glyph unicode="&#x148;" d="M115 0v1087h140l48 -123q7 4 34 20.5t35.5 21.5t33 19t36 19.5t35 16.5t38.5 15.5t38.5 11.5t43 10t44 5.5t48.5 2.5q161 0 247 -103t86 -254v-749h-188v750q0 92 -45.5 137.5t-121.5 45.5q-104 0 -174 -23.5t-190 -87.5v-822h-188zM284 1498h159l155 -139l135 139h158 l-211 -269h-164z" />
<glyph unicode="&#x14a;" horiz-adv-x="1386" d="M153 0v1499h193l739 -1131v1131h189v-1499v-166q0 -94 -25.5 -162t-65.5 -106t-103.5 -60t-124 -27.5t-141.5 -4.5v141q16 4 44.5 9.5t47.5 9t45 11.5t43 18t36 27.5t30 39.5t18 55.5t7 74.5v140l-740 1146l-3 -1146h-189z" />
<glyph unicode="&#x14b;" horiz-adv-x="1136" d="M115 0v1087h140l48 -123q10 6 49 29t52.5 30.5t47.5 25t54.5 24.5t53 16.5t63.5 13t66 3.5q161 0 247 -103t86 -254v-749l-2 -172q-2 -47 -11.5 -88.5t-22.5 -72.5t-34 -58.5t-39.5 -46t-47 -36t-48.5 -27.5t-52 -20.5t-49.5 -15t-47.5 -12.5l-65 99q5 3 30 15t34.5 17.5 t33 19t34.5 23.5t29.5 26t28 32.5t20.5 37.5t15.5 46t5.5 53v180v750q0 92 -45.5 137.5t-121.5 45.5q-104 0 -174 -23.5t-190 -87.5v-822h-188z" />
<glyph unicode="&#x14c;" horiz-adv-x="1380" d="M125 739q0 116 9 211.5t25 169t42 131t55 98.5t70 70t80.5 46.5t93 27.5t101.5 13t111 3q65 0 113.5 -3t102.5 -13t93 -27.5t79.5 -46.5t68.5 -70t53.5 -98.5t41 -131t24 -169t8.5 -211.5q0 -140 -13.5 -249.5t-37 -188t-63.5 -134.5t-84.5 -89.5t-109 -53t-127.5 -26 t-149 -6.5q-60 0 -106 2.5t-96.5 9.5t-87.5 20.5t-75.5 34t-66.5 51t-54.5 71.5t-44 95.5t-31 122.5t-19.5 153t-6 187zM313 739q0 -126 8 -214t28.5 -152t48 -102t76 -60t102.5 -29.5t136 -7.5q79 0 133.5 8.5t101.5 31.5t75.5 62t49 103t28.5 151t8 209t-9 213t-22 154 t-42 105t-54.5 65t-75 34.5t-87.5 14t-106 2.5t-105 -2.5t-86.5 -13.5t-75.5 -34t-55.5 -65t-43.5 -105t-23.5 -154.5t-9.5 -213.5zM413 1632v138h598v-138h-598z" />
<glyph unicode="&#x14d;" horiz-adv-x="1157" d="M96 528q0 135 16 230t50 162t92.5 105.5t136 55.5t188.5 17q113 0 192.5 -18t137 -57.5t90.5 -107.5t48.5 -161.5t15.5 -225.5q0 -155 -23 -255t-80.5 -164.5t-148.5 -91.5t-232 -27q-139 0 -231 28.5t-148.5 95t-80 165.5t-23.5 249zM280 1221v138h598v-138h-598z M284 528q0 -63 4.5 -113t14.5 -87.5t22.5 -64.5t33 -45t41 -29t51.5 -16.5t59 -7.5t69 -2q49 0 81 2.5t66.5 10.5t55.5 24t40.5 42t30 65.5t16.5 93.5t6 127q0 69 -3.5 122t-12 94.5t-19.5 70t-30.5 49t-39.5 32.5t-52 18.5t-62.5 8.5t-76.5 2q-60 0 -96.5 -4t-74 -17.5 t-57.5 -39t-37 -70t-23.5 -109.5t-6.5 -157z" />
<glyph unicode="&#x150;" horiz-adv-x="1380" d="M125 739q0 116 9 211.5t25 169t42 131t55 98.5t70 70t80.5 46.5t93 27.5t101.5 13t111 3q65 0 113.5 -3t102.5 -13t93 -27.5t79.5 -46.5t68.5 -70t53.5 -98.5t41 -131t24 -169t8.5 -211.5q0 -140 -13.5 -249.5t-37 -188t-63.5 -134.5t-84.5 -89.5t-109 -53t-127.5 -26 t-149 -6.5q-60 0 -106 2.5t-96.5 9.5t-87.5 20.5t-75.5 34t-66.5 51t-54.5 71.5t-44 95.5t-31 122.5t-19.5 153t-6 187zM313 739q0 -126 8 -214t28.5 -152t48 -102t76 -60t102.5 -29.5t136 -7.5q79 0 133.5 8.5t101.5 31.5t75.5 62t49 103t28.5 151t8 209t-9 213t-22 154 t-42 105t-54.5 65t-75 34.5t-87.5 14t-106 2.5t-105 -2.5t-86.5 -13.5t-75.5 -34t-55.5 -65t-43.5 -105t-23.5 -154.5t-9.5 -213.5zM491 1632l210 276h210l-266 -276h-154zM779 1632l210 276h210l-266 -276h-154z" />
<glyph unicode="&#x151;" horiz-adv-x="1157" d="M96 528q0 135 16 230t50 162t92.5 105.5t136 55.5t188.5 17q113 0 192.5 -18t137 -57.5t90.5 -107.5t48.5 -161.5t15.5 -225.5q0 -155 -23 -255t-80.5 -164.5t-148.5 -91.5t-232 -27q-139 0 -231 28.5t-148.5 95t-80 165.5t-23.5 249zM284 528q0 -63 4.5 -113t14.5 -87.5 t22.5 -64.5t33 -45t41 -29t51.5 -16.5t59 -7.5t69 -2q49 0 81 2.5t66.5 10.5t55.5 24t40.5 42t30 65.5t16.5 93.5t6 127q0 69 -3.5 122t-12 94.5t-19.5 70t-30.5 49t-39.5 32.5t-52 18.5t-62.5 8.5t-76.5 2q-60 0 -96.5 -4t-74 -17.5t-57.5 -39t-37 -70t-23.5 -109.5 t-6.5 -157zM359 1221l210 275h209l-266 -275h-153zM647 1221l210 275h210l-267 -275h-153z" />
<glyph unicode="&#x152;" horiz-adv-x="2134" d="M125 739q0 116 9 211.5t25 169t42 131t54.5 98.5t69.5 70t80.5 46.5t92.5 27.5t101 13t111 3q158 0 262 -28t173 -110q32 70 95 101.5t144 26.5q610 -28 646 -33v-151h-628q-38 0 -61 -9t-32 -28.5t-11 -34t-2 -42.5v-362l649 -21v-152l-649 -20v-362q1 -31 9.5 -52.5 t18 -32t31 -15.5t32 -5.5t36.5 -0.5h607v-149l-626 -35q-206 -12 -264 128q-69 -76 -172 -103t-258 -27q-103 0 -172.5 8t-142 33.5t-117.5 76.5t-82.5 132t-54 205t-16.5 292zM313 739q0 -126 7.5 -214t28 -152t48 -102t75.5 -60t102 -29.5t136 -7.5q79 0 133.5 8.5 t101.5 31.5t75.5 62t49 103t29 151t8.5 209t-9 213t-22.5 154t-42.5 105t-54.5 65t-75 34.5t-87.5 14t-106 2.5t-105 -2.5t-86 -13.5t-75 -34t-55.5 -65t-43 -105t-23 -154.5t-9.5 -213.5z" />
<glyph unicode="&#x153;" horiz-adv-x="1849" d="M96 528q0 135 16 230t50 162t92.5 105.5t136 55.5t188.5 17q143 0 235.5 -31t145.5 -100q51 76 141.5 102.5t245.5 26.5q57 0 97 -2t84.5 -8t74 -18t60 -31t49 -48t34 -68.5t22.5 -92.5t7 -120q0 -256 -287 -256h-426q-5 -163 42 -226t169 -63h73.5h77t64.5 0.5t72 2 t61 3.5t70 5.5t63 8.5v-136q-186 -57 -524 -57q-103 0 -169.5 28.5t-105.5 92.5q-101 -121 -376 -121q-139 0 -231 28.5t-148.5 95t-80 165.5t-23.5 249zM284 528q0 -63 4.5 -113t14.5 -87.5t22.5 -64.5t33 -45t41 -29t51.5 -16.5t59 -7.5t69 -2q67 0 111.5 6t78.5 24.5 t53 43.5t30.5 72.5t15 101t3.5 138.5q0 121 -12.5 192t-47.5 113.5t-88 56.5t-144 14q-60 0 -96.5 -4t-74 -17.5t-57.5 -39t-37 -70t-23.5 -109.5t-6.5 -157zM1062 616h406q118 0 118 96q0 51 -3 83.5t-14 58t-25 38.5t-43 21.5t-61.5 10.5t-86.5 2q-60 0 -96.5 -3 t-74.5 -13.5t-58.5 -30.5t-37 -54.5t-22 -85.5t-2.5 -123z" />
<glyph unicode="&#x154;" horiz-adv-x="1220" d="M118 0v1499h644q363 0 363 -455q0 -79 -11.5 -144t-27.5 -107.5t-42 -76t-46 -50.5t-50 -30.5t-43 -17t-35 -7.5l307 -611h-207l-297 600l-367 29v-629h-188zM307 788h447q22 0 35.5 1t32.5 4t31 10.5t26.5 19.5t23 31t16.5 45t11.5 62.5t3.5 82.5q0 87 -14.5 144.5 t-42.5 84t-56 36t-67 9.5h-447v-530zM526 1624l210 275h210l-267 -275h-153z" />
<glyph unicode="&#x155;" horiz-adv-x="866" d="M115 0v1087h143l45 -137q123 80 180 105q99 44 200 44q111 0 144 -15v-184q-52 10 -154 10q-109 0 -186 -26.5t-184 -92.5v-791h-188zM428 1224l210 276h210l-267 -276h-153z" />
<glyph unicode="&#x156;" horiz-adv-x="1220" d="M118 0v1499h644q363 0 363 -455q0 -79 -11.5 -144t-27.5 -107.5t-42 -76t-46 -50.5t-50 -30.5t-43 -17t-35 -7.5l307 -611h-207l-297 600l-367 29v-629h-188zM307 788h447q22 0 35.5 1t32.5 4t31 10.5t26.5 19.5t23 31t16.5 45t11.5 62.5t3.5 82.5q0 87 -14.5 144.5 t-42.5 84t-56 36t-67 9.5h-447v-530zM513 -191q0 49 46 49h110q44 0 44 -49v-183q0 -51 -19.5 -84.5t-47.5 -45t-56.5 -15t-47.5 -0.5l-20 3v67q19 -1 31.5 4.5t17.5 15.5t6.5 17.5t1.5 17.5v40h-20q-20 0 -33 12t-13 34v117z" />
<glyph unicode="&#x157;" horiz-adv-x="866" d="M105 -194q0 50 46 50h111q44 0 44 -50v-182q0 -51 -20 -84.5t-48 -45t-56 -15t-48 -0.5l-20 3v67q19 -1 31.5 4.5t17.5 15.5t6.5 17.5t1.5 17.5v40h-20q-20 0 -33 12t-13 34v116zM112 0v1087h144l45 -137q123 80 180 105q99 44 200 44q111 0 143 -15v-184q-52 10 -153 10 q-109 0 -186 -26.5t-184 -92.5v-791h-189z" />
<glyph unicode="&#x158;" horiz-adv-x="1220" d="M118 0v1499h644q363 0 363 -455q0 -79 -11.5 -144t-27.5 -107.5t-42 -76t-46 -50.5t-50 -30.5t-43 -17t-35 -7.5l307 -611h-207l-297 600l-367 29v-629h-188zM294 1902h160l154 -140l136 140h158l-212 -270h-164zM307 788h447q22 0 35.5 1t32.5 4t31 10.5t26.5 19.5 t23 31t16.5 45t11.5 62.5t3.5 82.5q0 87 -14.5 144.5t-42.5 84t-56 36t-67 9.5h-447v-530z" />
<glyph unicode="&#x159;" horiz-adv-x="866" d="M115 0v1087h143l45 -137q123 80 180 105q99 44 200 44q111 0 144 -15v-184q-52 10 -154 10q-109 0 -186 -26.5t-184 -92.5v-791h-188zM167 1492h160l154 -140l135 140h158l-211 -270h-164z" />
<glyph unicode="&#x15a;" horiz-adv-x="1198" d="M125 1007v134q0 87 20.5 152.5t55.5 106t88 66t110.5 35.5t130.5 10q95 1 274 -17.5t256 -33.5v-151q-85 6 -282.5 13t-225.5 7q-48 2 -79 0t-64 -12.5t-52 -31t-31.5 -58t-12.5 -92.5v-119q0 -61 12.5 -99.5t41 -56.5t59.5 -23.5t83 -5.5h276q329 0 329 -365v-128 q0 -88 -24.5 -153.5t-62.5 -103t-94.5 -60t-111 -30t-121.5 -7.5q-104 0 -274 17.5t-256 36.5v150q226 -22 515 -22q33 0 58.5 2t62.5 11.5t60.5 26t41.5 50t18 79.5v123q0 89 -35 137t-124 48h-272q-97 0 -167.5 23.5t-108.5 57.5t-60.5 86.5t-28 96t-5.5 100.5zM551 1635 l210 275h210l-266 -275h-154z" />
<glyph unicode="&#x15b;" horiz-adv-x="1036" d="M76 727v94q0 134 66 205.5t217 71.5q111 0 294 -12t253 -27v-134h-523q-42 0 -67 -7t-35.5 -24t-13 -32.5t-2.5 -45.5v-82q0 -37 8 -59t26.5 -31t35.5 -11.5t48 -2.5h306q134 0 203 -73.5t69 -195.5v-103q0 -80 -22.5 -135.5t-62.5 -83t-83.5 -38.5t-97.5 -11 q-106 0 -313 15t-261 29v131h549q103 0 103 99v87q0 52 -22 76.5t-81 24.5h-305q-151 0 -220 61t-69 214zM438 1229l210 276h210l-267 -276h-153z" />
<glyph unicode="&#x15c;" horiz-adv-x="1198" d="M125 1007v134q0 87 20.5 152.5t55.5 106t88 66t110.5 35.5t130.5 10q95 1 274 -17.5t256 -33.5v-151q-85 6 -282.5 13t-225.5 7q-48 2 -79 0t-64 -12.5t-52 -31t-31.5 -58t-12.5 -92.5v-119q0 -61 12.5 -99.5t41 -56.5t59.5 -23.5t83 -5.5h276q329 0 329 -365v-128 q0 -88 -24.5 -153.5t-62.5 -103t-94.5 -60t-111 -30t-121.5 -7.5q-104 0 -274 17.5t-256 36.5v150q226 -22 515 -22q33 0 58.5 2t62.5 11.5t60.5 26t41.5 50t18 79.5v123q0 89 -35 137t-124 48h-272q-97 0 -167.5 23.5t-108.5 57.5t-60.5 86.5t-28 96t-5.5 100.5zM335 1635 l235 269h164l209 -269h-158l-139 139l-151 -139h-160z" />
<glyph unicode="&#x15d;" horiz-adv-x="1036" d="M76 727v94q0 134 66 205.5t217 71.5q111 0 294 -12t253 -27v-134h-523q-42 0 -67 -7t-35.5 -24t-13 -32.5t-2.5 -45.5v-82q0 -37 8 -59t26.5 -31t35.5 -11.5t48 -2.5h306q134 0 203 -73.5t69 -195.5v-103q0 -80 -22.5 -135.5t-62.5 -83t-83.5 -38.5t-97.5 -11 q-106 0 -313 15t-261 29v131h549q103 0 103 99v87q0 52 -22 76.5t-81 24.5h-305q-151 0 -220 61t-69 214zM216 1221l234 269h164l209 -269h-158l-138 139l-151 -139h-160z" />
<glyph unicode="&#x15e;" horiz-adv-x="1198" d="M125 1007v134q0 87 20.5 152.5t55.5 106t88 66t110.5 35.5t130.5 10q95 1 274 -17.5t256 -33.5v-151q-85 6 -282.5 13t-225.5 7q-48 2 -79 0t-64 -12.5t-52 -31t-31.5 -58t-12.5 -92.5v-119q0 -61 12.5 -99.5t41 -56.5t59.5 -23.5t83 -5.5h276q329 0 329 -365v-128 q0 -88 -24.5 -153.5t-62.5 -103t-94.5 -60t-111 -30t-121.5 -7.5q-104 0 -274 17.5t-256 36.5v150q226 -22 515 -22q33 0 58.5 2t62.5 11.5t60.5 26t41.5 50t18 79.5v123q0 89 -35 137t-124 48h-272q-97 0 -167.5 23.5t-108.5 57.5t-60.5 86.5t-28 96t-5.5 100.5zM401 -284 l104 30q39 17 51.5 55.5t12.5 106.5h153q0 -159 -44.5 -220t-168.5 -61h-108v89z" />
<glyph unicode="&#x15f;" horiz-adv-x="1036" d="M76 727v94q0 134 66 205.5t217 71.5q111 0 294 -12t253 -27v-134h-523q-42 0 -67 -7t-35.5 -24t-13 -32.5t-2.5 -45.5v-82q0 -37 8 -59t26.5 -31t35.5 -11.5t48 -2.5h306q134 0 203 -73.5t69 -195.5v-103q0 -80 -22.5 -135.5t-62.5 -83t-83.5 -38.5t-97.5 -11 q-106 0 -313 15t-261 29v131h549q103 0 103 99v87q0 52 -22 76.5t-81 24.5h-305q-151 0 -220 61t-69 214zM268 -272l104 31q39 17 51.5 55.5t12.5 106.5h152q0 -160 -44 -221t-168 -61h-108v89z" />
<glyph unicode="&#x160;" horiz-adv-x="1198" d="M125 1007v134q0 87 20.5 152.5t55.5 106t88 66t110.5 35.5t130.5 10q95 1 274 -17.5t256 -33.5v-151q-85 6 -282.5 13t-225.5 7q-48 2 -79 0t-64 -12.5t-52 -31t-31.5 -58t-12.5 -92.5v-119q0 -61 12.5 -99.5t41 -56.5t59.5 -23.5t83 -5.5h276q329 0 329 -365v-128 q0 -88 -24.5 -153.5t-62.5 -103t-94.5 -60t-111 -30t-121.5 -7.5q-104 0 -274 17.5t-256 36.5v150q226 -22 515 -22q33 0 58.5 2t62.5 11.5t60.5 26t41.5 50t18 79.5v123q0 89 -35 137t-124 48h-272q-97 0 -167.5 23.5t-108.5 57.5t-60.5 86.5t-28 96t-5.5 100.5zM324 1904 h159l154 -139l136 139h158l-212 -269h-164z" />
<glyph unicode="&#x161;" horiz-adv-x="1036" d="M76 727v94q0 134 66 205.5t217 71.5q111 0 294 -12t253 -27v-134h-523q-42 0 -67 -7t-35.5 -24t-13 -32.5t-2.5 -45.5v-82q0 -37 8 -59t26.5 -31t35.5 -11.5t48 -2.5h306q134 0 203 -73.5t69 -195.5v-103q0 -80 -22.5 -135.5t-62.5 -83t-83.5 -38.5t-97.5 -11 q-106 0 -313 15t-261 29v131h549q103 0 103 99v87q0 52 -22 76.5t-81 24.5h-305q-151 0 -220 61t-69 214zM223 1499h159l155 -140l135 140h158l-212 -270h-164z" />
<glyph unicode="&#x162;" horiz-adv-x="1191" d="M84 1317v182h1059v-182h-441v-1317h-188v1317h-430zM315 -290l104 31q39 17 51.5 55.5t12.5 106.5h152q0 -160 -44 -220.5t-168 -60.5h-108v88z" />
<glyph unicode="&#x163;" horiz-adv-x="776" d="M38 920v127l196 43l40 303h148v-303h297v-170h-297v-519q0 -83 14.5 -132.5t36.5 -68.5t59 -29q156 -43 170 -43v-127h-199q-269 0 -269 388v531h-196zM169 -293l103 31q39 17 52 56t13 106h152q0 -160 -44.5 -221t-168.5 -61h-107v89z" />
<glyph unicode="&#x164;" horiz-adv-x="1191" d="M84 1317v182h1059v-182h-441v-1317h-188v1317h-430zM293 1902h159l155 -140l135 140h158l-212 -270h-164z" />
<glyph unicode="&#x165;" horiz-adv-x="778" d="M38 920v127l196 43l40 303h148v-303h297v-170h-297v-519q0 -83 14.5 -132.5t36.5 -68.5t59 -29q156 -43 170 -43v-127h-199q-269 0 -269 388v531h-196zM546 1639h165v-138l-22 -274h-121l-20 274z" />
<glyph unicode="&#x166;" horiz-adv-x="1185" d="M64 1317v182h1059v-182h-441v-414h233v-117h-233v-786h-189v786h-233v117h233v414h-429z" />
<glyph unicode="&#x167;" horiz-adv-x="755" d="M38 920v127l196 43l40 303h148v-303h297v-170h-297v-261h202v-116h-202v-142q1 -59 5.5 -96.5t10.5 -61t22 -37.5t31 -20.5t45 -14.5q147 -37 151 -37v-133h-182q-145 0 -208 88t-63 300v154h-160v116h160v261h-196z" />
<glyph unicode="&#x168;" horiz-adv-x="1378" d="M153 655v844h189v-844q0 -88 5.5 -157t20.5 -119t29.5 -86t44 -58.5t52 -35.5t65 -18.5t72 -7t83.5 -1.5q39 0 65.5 1.5t60.5 6.5t57 14.5t49.5 27t44 42.5t35 61t27.5 83t16 109t6 138v844h190v-844q0 -138 -19 -245t-45.5 -176.5t-75.5 -118t-88.5 -72.5t-106.5 -36.5 t-106 -14.5t-110 -2q-164 0 -229 12q-161 29 -239 160q-93 157 -93 493zM361 1716q48 43 79 67t76.5 45.5t87.5 21.5q55 -3 124 -37t95 -35q58 -2 187 75l46 -96q-6 -5 -28 -24t-32 -27t-31 -24t-35 -24t-33.5 -17t-38.5 -13t-37 -3q-59 3 -123 37t-99 33q-40 -1 -69 -10.5 t-66 -30.5t-59 -30z" />
<glyph unicode="&#x169;" d="M96 339v748h188v-749q0 -92 45.5 -137.5t121.5 -45.5q104 0 174 23.5t189 86.5v822h189v-1087h-140l-49 124q-10 -6 -49 -29t-52.5 -30.5t-47.5 -25t-54.5 -24.5t-53 -16.5t-63.5 -13t-66 -3.5q-109 0 -186 51t-111.5 130t-34.5 176zM202 1313q48 43 79 67t76.5 45.5 t87.5 21.5q55 -3 124 -37t95 -35q58 -2 187 75l46 -96q-6 -5 -28 -24t-32 -27t-31 -24t-35 -24t-33.5 -17t-38.5 -13t-37 -3q-59 3 -123 37t-99 33q-40 -1 -69 -10.5t-66 -30.5t-59 -30z" />
<glyph unicode="&#x16a;" horiz-adv-x="1378" d="M153 655v844h189v-844q0 -88 5.5 -157t20.5 -119t29.5 -86t44 -58.5t52 -35.5t65 -18.5t72 -7t83.5 -1.5q39 0 65.5 1.5t60.5 6.5t57 14.5t49.5 27t44 42.5t35 61t27.5 83t16 109t6 138v844h190v-844q0 -138 -19 -245t-45.5 -176.5t-75.5 -118t-88.5 -72.5t-106.5 -36.5 t-106 -14.5t-110 -2q-164 0 -229 12q-161 29 -239 160q-93 157 -93 493zM410 1632v138h598v-138h-598z" />
<glyph unicode="&#x16b;" d="M96 339v748h188v-749q0 -92 45.5 -137.5t121.5 -45.5q104 0 174 23.5t189 86.5v822h189v-1087h-140l-49 124q-10 -6 -49 -29t-52.5 -30.5t-47.5 -25t-54.5 -24.5t-53 -16.5t-63.5 -13t-66 -3.5q-109 0 -186 51t-111.5 130t-34.5 176zM250 1221v138h598v-138h-598z" />
<glyph unicode="&#x16c;" horiz-adv-x="1378" d="M153 655v844h189v-844q0 -88 5.5 -157t20.5 -119t29.5 -86t44 -58.5t52 -35.5t65 -18.5t72 -7t83.5 -1.5q39 0 65.5 1.5t60.5 6.5t57 14.5t49.5 27t44 42.5t35 61t27.5 83t16 109t6 138v844h190v-844q0 -138 -19 -245t-45.5 -176.5t-75.5 -118t-88.5 -72.5t-106.5 -36.5 t-106 -14.5t-110 -2q-164 0 -229 12q-161 29 -239 160q-93 157 -93 493zM474 1866h102q0 -56 39.5 -93.5t91.5 -37.5q60 0 97.5 35.5t37.5 95.5h103q0 -109 -71.5 -171.5t-166.5 -62.5q-93 0 -163 64.5t-70 169.5z" />
<glyph unicode="&#x16d;" d="M96 339v748h188v-749q0 -92 45.5 -137.5t121.5 -45.5q104 0 174 23.5t189 86.5v822h189v-1087h-140l-49 124q-10 -6 -49 -29t-52.5 -30.5t-47.5 -25t-54.5 -24.5t-53 -16.5t-63.5 -13t-66 -3.5q-109 0 -186 51t-111.5 130t-34.5 176zM328 1454h102q0 -56 39.5 -93.5 t91.5 -37.5q60 0 97.5 35.5t37.5 95.5h103q0 -109 -71 -171t-167 -62q-93 0 -163 64t-70 169z" />
<glyph unicode="&#x16e;" horiz-adv-x="1378" d="M153 655v844h189v-844q0 -88 5.5 -157t20.5 -119t29.5 -86t44 -58.5t52 -35.5t65 -18.5t72 -7t83.5 -1.5q39 0 65.5 1.5t60.5 6.5t57 14.5t49.5 27t44 42.5t35 61t27.5 83t16 109t6 138v844h190v-844q0 -138 -19 -245t-45.5 -176.5t-75.5 -118t-88.5 -72.5t-106.5 -36.5 t-106 -14.5t-110 -2q-164 0 -229 12q-161 29 -239 160q-93 157 -93 493zM501 1841q0 88 61.5 149.5t147.5 61.5t146.5 -61.5t60.5 -149.5t-60.5 -148.5t-146.5 -60.5q-87 0 -148 61t-61 148zM604 1841q0 -43 31 -73.5t75 -30.5t74 30.5t30 73.5q0 44 -30.5 75t-73.5 31 q-44 0 -75 -31.5t-31 -74.5z" />
<glyph unicode="&#x16f;" d="M96 339v748h188v-749q0 -92 45.5 -137.5t121.5 -45.5q104 0 174 23.5t189 86.5v822h189v-1087h-140l-49 124q-10 -6 -49 -29t-52.5 -30.5t-47.5 -25t-54.5 -24.5t-53 -16.5t-63.5 -13t-66 -3.5q-109 0 -186 51t-111.5 130t-34.5 176zM341 1430q0 88 61.5 149t147.5 61 t146.5 -61t60.5 -149t-60.5 -148.5t-146.5 -60.5q-87 0 -148 61t-61 148zM444 1430q0 -43 31 -74t75 -31q43 0 73.5 30.5t30.5 74.5t-30.5 75t-73.5 31q-44 0 -75 -31t-31 -75z" />
<glyph unicode="&#x170;" horiz-adv-x="1378" d="M153 655v844h189v-844q0 -88 5.5 -157t20.5 -119t29.5 -86t44 -58.5t52 -35.5t65 -18.5t72 -7t83.5 -1.5q39 0 65.5 1.5t60.5 6.5t57 14.5t49.5 27t44 42.5t35 61t27.5 83t16 109t6 138v844h190v-844q0 -138 -19 -245t-45.5 -176.5t-75.5 -118t-88.5 -72.5t-106.5 -36.5 t-106 -14.5t-110 -2q-164 0 -229 12q-161 29 -239 160q-93 157 -93 493zM488 1632l210 276h210l-266 -276h-154zM776 1632l210 276h210l-266 -276h-154z" />
<glyph unicode="&#x171;" d="M96 339v748h188v-749q0 -92 45.5 -137.5t121.5 -45.5q104 0 174 23.5t189 86.5v822h189v-1087h-140l-49 124q-10 -6 -49 -29t-52.5 -30.5t-47.5 -25t-54.5 -24.5t-53 -16.5t-63.5 -13t-66 -3.5q-109 0 -186 51t-111.5 130t-34.5 176zM328 1221l210 275h210l-266 -275 h-154zM617 1221l209 275h210l-266 -275h-153z" />
<glyph unicode="&#x172;" horiz-adv-x="1378" d="M153 655v844h189v-844q0 -88 5.5 -157t20.5 -119t29.5 -86t44 -58.5t52 -35.5t65 -18.5t72 -7t83.5 -1.5q39 0 65.5 1.5t60.5 6.5t57 14.5t49.5 27t44 42.5t35 61t27.5 83t16 109t6 138v844h190v-844q0 -138 -19 -245t-45.5 -176.5t-75.5 -118t-88.5 -72.5t-106.5 -36.5 t-106 -14.5t-110 -2q-164 0 -229 12q-161 29 -239 160q-93 157 -93 493zM500 -172.5q7 43.5 48 88.5t113 77h89q-61 -49 -90 -94t-25 -77t36.5 -51t87.5 -20v-132q-56 -9 -108 5.5t-88 44.5t-53 72.5t-10 86z" />
<glyph unicode="&#x173;" d="M96 339v748h188v-749q0 -92 45.5 -137.5t121.5 -45.5q104 0 174 23.5t189 86.5v822h189v-1087h-140l-49 124q-10 -6 -49 -29t-52.5 -30.5t-47.5 -25t-54.5 -24.5t-53 -16.5t-63.5 -13t-66 -3.5q-109 0 -186 51t-111.5 130t-34.5 176zM729 -166.5q7 43.5 48 88.5t113 77 h89q-81 -65 -105 -121t7.5 -87.5t106.5 -32.5v-133q-56 -9 -108 5.5t-88 44.5t-53 72.5t-10 86z" />
<glyph unicode="&#x174;" horiz-adv-x="1986" d="M86 1499h204l408 -1201l343 1201h209l-130 -454l263 -758l353 1212h204l-454 -1499h-200l-260 724l-228 -724h-201zM729 1624l235 269h163l209 -269h-157l-139 139l-151 -139h-160z" />
<glyph unicode="&#x175;" horiz-adv-x="1652" d="M38 1087h204l294 -833l258 833h197l-101 -333l222 -500l300 833h205l-399 -1087h-197l-220 495l-163 -495h-209zM536 1212l235 269h164l209 -269h-158l-139 139l-151 -139h-160z" />
<glyph unicode="&#x176;" horiz-adv-x="1304" d="M86 1499h206l361 -768l399 768h205l-511 -985v-514h-188v514zM351 1624l234 269h164l209 -269h-158l-138 139l-152 -139h-159z" />
<glyph unicode="&#x177;" horiz-adv-x="1146" d="M40 1087h203l243 -825q5 -18 13 -31.5t16.5 -22.5t18 -15t19 -9t18 -4.5t16.5 -1t13.5 1t9.5 1.5l4 1l286 905h205l-451 -1431l-152 -209h-125l182 553q-196 0 -267 239zM270 1221l234 269h164l209 -269h-157l-139 139l-151 -139h-160z" />
<glyph unicode="&#x178;" horiz-adv-x="1304" d="M86 1499h206l361 -768l399 768h205l-511 -985v-514h-188v514zM303 1741q0 45 32 76t77 31t76 -31t31 -76t-31 -77t-76 -32t-77 32t-32 77zM825 1741q0 45 32 76t77 31t76 -31t31 -76t-31 -77t-76 -32t-77 32t-32 77z" />
<glyph unicode="&#x179;" horiz-adv-x="1148" d="M67 0v182l777 1135h-777v182h1016v-182l-768 -1135h768v-182h-1016zM498 1632l210 276h210l-266 -276h-154z" />
<glyph unicode="&#x17a;" horiz-adv-x="942" d="M57 911v176h830v-176l-550 -733h550v-176h-799v176l564 733h-595zM395 1221l210 275h210l-266 -275h-154z" />
<glyph unicode="&#x17b;" horiz-adv-x="1148" d="M67 0v182l777 1135h-777v182h1016v-182l-768 -1135h768v-182h-1016zM470 1679v123q0 51 49 51h114q23 0 35 -14t12 -37v-123q0 -47 -47 -47h-114q-22 0 -35.5 12.5t-13.5 34.5z" />
<glyph unicode="&#x17c;" horiz-adv-x="942" d="M57 911v176h830v-176l-550 -733h550v-176h-799v176l564 733h-595zM367 1268v123q0 51 49 51h115q23 0 35 -14t12 -37v-123q0 -47 -47 -47h-115q-22 0 -35.5 12.5t-13.5 34.5z" />
<glyph unicode="&#x17d;" horiz-adv-x="1148" d="M67 0v182l777 1135h-777v182h1016v-182l-768 -1135h768v-182h-1016zM271 1902h160l154 -140l136 140h158l-212 -270h-164z" />
<glyph unicode="&#x17e;" horiz-adv-x="942" d="M57 911v176h830v-176l-550 -733h550v-176h-799v176l564 733h-595zM169 1490h159l154 -139l136 139h158l-212 -269h-164z" />
<glyph unicode="&#x192;" horiz-adv-x="1212" d="M38 -367l18 122h169q30 0 55.5 14t45 36t36.5 57t28.5 69t22 80.5t17 83.5t13.5 85l96 621h-200l29 171h201l9 64q21 133 50 234t74 188t112 133.5t154 46.5q32 0 63 -4.5t55 -12t41 -14t32 -13t16 -7.5l-18 -122h-165q-30 0 -55.5 -14t-44.5 -35t-36 -58t-28 -69 t-22.5 -82t-18 -84t-15.5 -87l-10 -65h275l-29 -170h-275l-96 -621q-12 -80 -23.5 -139t-29 -125t-38 -112.5t-49.5 -91t-63.5 -71.5t-81.5 -43t-103 -16q-59 0 -126 19.5t-85 31.5z" />
<glyph unicode="&#x2c6;" horiz-adv-x="796" d="M96 1087l234 270h164l209 -270h-158l-138 140l-152 -140h-159zM494 1357z" />
<glyph unicode="&#x2c7;" horiz-adv-x="796" d="M96 1357h159l154 -139l136 139h158l-212 -270h-164zM491 1087z" />
<glyph unicode="&#x2d8;" horiz-adv-x="659" d="M96 1319h102q0 -56 39.5 -93.5t91.5 -37.5q60 0 97.5 35.5t37.5 95.5h103q0 -109 -71.5 -171.5t-166.5 -62.5q-93 0 -163 64.5t-70 169.5z" />
<glyph unicode="&#x2d9;" horiz-adv-x="401" d="M96 1133v122q0 52 49 52h114q23 0 35.5 -14.5t12.5 -37.5v-122q0 -23 -13 -35.5t-35 -12.5h-114q-22 0 -35.5 13t-13.5 35z" />
<glyph unicode="&#x2da;" horiz-adv-x="606" d="M96 1294q0 88 61.5 149.5t147.5 61.5t146 -61.5t60 -149.5t-60 -148.5t-146 -60.5q-87 0 -148 61t-61 148zM198 1294q0 -43 31.5 -73.5t75.5 -30.5q43 0 73.5 30t30.5 74t-30.5 75.5t-73.5 31.5t-75 -31.5t-32 -75.5z" />
<glyph unicode="&#x2db;" horiz-adv-x="448" d="M96 -165.5q7 43.5 48 88.5t113 77h89q-61 -49 -90 -94t-25 -77t36.5 -51t87.5 -20v-132q-56 -9 -108 5.5t-88 44.5t-53 72.5t-10 86z" />
<glyph unicode="&#x2dc;" horiz-adv-x="884" d="M96 1179q49 44 79.5 68t76 45.5t87.5 21.5q55 -3 124 -37t95 -35q58 -2 187 75l46 -96q-6 -5 -28 -24t-32 -27t-31 -24t-35 -24t-33.5 -17t-38.5 -13t-37 -3q-59 3 -123 37t-99 33q-40 -1 -69 -10.5t-66 -30.5t-59 -31z" />
<glyph unicode="&#x2dd;" horiz-adv-x="788" d="M38 1087l210 276h210l-266 -276h-154zM326 1087l210 276h210l-266 -276h-154z" />
<glyph unicode="&#x338;" horiz-adv-x="1308" d="M134 341v814q0 165 100 254.5t259 89.5h336q93 0 162 -27t108.5 -75.5t58 -108t18.5 -130.5v-817q0 -176 -91.5 -258.5t-256.5 -82.5h-335q-77 0 -140 19t-113 58.5t-78 107t-28 156.5zM322 390q0 -60 18 -92l512 1015q-17 4 -41 4h-303q-96 0 -141 -48.5t-45 -122.5 v-756zM434 194q38 -12 76 -12h299q179 0 179 171v761q0 79 -30 116z" />
<glyph unicode="&#x3a9;" horiz-adv-x="1585" d="M124 798q0 102 17.5 196t64.5 191t119.5 167.5t193 115.5t275.5 45q148 0 263 -40t188.5 -107.5t121 -162.5t66.5 -196.5t19 -219.5q0 -68 -2.5 -117.5t-10.5 -108t-24 -105t-42 -95.5t-66 -92.5t-94 -83.5l250 -20v-165h-480v187q65 45 112.5 88.5t78 91t49 90.5 t27.5 101.5t11.5 106.5t2.5 123q0 543 -470 543q-481 0 -481 -553q0 -65 1.5 -103t7 -87t17 -81.5t31.5 -74t51 -77.5t75 -78.5t103 -89.5v-187h-463v167l261 20q-45 29 -81 60.5t-63 60t-47.5 65.5t-34 65t-23 69.5t-14 68.5t-7 73t-3 72.5t-0.5 76.5z" />
<glyph unicode="&#x3c0;" horiz-adv-x="1310" d="M38 905v182h1136v-182h-243v-553q0 -106 33 -146.5t108 -40.5h200v-112q-92 -63 -230 -63q-146 0 -222.5 82.5t-76.5 276.5v556h-346v-905h-189v905h-170z" />
<glyph unicode="&#x1e02;" horiz-adv-x="1224" d="M153 0v1499h589q108 0 188.5 -35t124.5 -94t64.5 -124.5t20.5 -138.5q0 -123 -45.5 -212t-147.5 -117q84 -18 145 -108.5t61 -245.5q0 -90 -20.5 -163t-65.5 -133.5t-127.5 -94t-196.5 -33.5h-590zM343 179h397q33 0 60.5 4.5t59 20.5t53.5 42t36.5 73.5t14.5 110.5 q0 114 -56 190t-168 76h-397v-517zM343 872h394q106 0 161 57.5t55 170.5q0 65 -19.5 110.5t-53 68t-68 32t-75.5 9.5h-394v-448zM522 1672v123q0 51 50 51h114q23 0 35 -14t12 -37v-123q0 -47 -47 -47h-114q-22 0 -36 13t-14 34z" />
<glyph unicode="&#x1e03;" horiz-adv-x="1134" d="M103 1793v123q0 51 49 51h115q23 0 35 -14t12 -37v-123q0 -47 -47 -47h-115q-22 0 -35.5 12.5t-13.5 34.5zM112 0v1608h185v-583q86 36 197 57.5t186 21.5q89 0 155 -31.5t104 -81.5t61 -126.5t30.5 -152.5t7.5 -173q0 -87 -9 -162t-34 -149t-64 -125t-103 -83t-148 -32 q-92 0 -210 45t-171 85l-44 -118h-143zM299 252q192 -87 361 -87q189 0 189 377q0 154 -23.5 242t-62.5 118t-103 30q-185 0 -361 -50v-630z" />
<glyph unicode="&#x1e0a;" horiz-adv-x="1347" d="M153 0v1499h579q94 0 171.5 -25.5t131.5 -67.5t95 -103t65.5 -125.5t39.5 -143t20.5 -147t5.5 -144.5q0 -114 -17.5 -218.5t-57.5 -201.5t-100 -168t-151 -113t-203 -42h-579zM342 184h384q90 0 158 43.5t108.5 121t60.5 177t20 219.5q0 158 -23.5 270t-69.5 178.5 t-108 96.5t-146 30h-384v-1136zM545 1688v123q0 51 49 51h115q23 0 35 -14t12 -37v-123q0 -47 -47 -47h-115q-22 0 -35.5 12.5t-13.5 34.5z" />
<glyph unicode="&#x1e0b;" horiz-adv-x="1134" d="M96 539q0 69 3.5 125.5t13.5 116t26.5 106t44 88.5t64.5 69.5t89 43.5t116 16q75 0 185.5 -21.5t196.5 -57.5v583h187v-1608h-144l-43 118q-53 -40 -171.5 -85t-210.5 -45q-357 0 -357 551zM284 542q0 -377 189 -377q170 0 362 87v630q-176 50 -362 50q-64 0 -103 -30 t-62.5 -118t-23.5 -242zM818 1779v123q0 51 49 51h115q23 0 35 -14t12 -37v-123q0 -47 -47 -47h-115q-22 0 -35.5 12.5t-13.5 34.5z" />
<glyph unicode="&#x1e1e;" horiz-adv-x="1161" d="M152 0v1219q0 77 22.5 134t62 88.5t87.5 45.5t104 12q615 -28 651 -33v-151h-633q-38 0 -61 -9t-32 -28.5t-11 -34t-2 -42.5v-362l654 -21v-152l-654 -20v-646h-188zM541 1672v123q0 51 50 51h114q23 0 35 -14t12 -37v-123q0 -47 -47 -47h-114q-22 0 -36 13t-14 34z" />
<glyph unicode="&#x1e1f;" horiz-adv-x="821" d="M38 918v135l191 34v203q0 47 4.5 84.5t20.5 84t44 77.5t79.5 52.5t122.5 21.5q134 0 283 -49v-120l-236 2q-37 1 -62 -8t-38.5 -21t-20 -38t-7.5 -45.5t-1 -58.5v-185h287v-169h-287v-918h-189v918h-191zM415 1816v123q0 51 49 51h115q23 0 35 -14t12 -37v-123 q0 -47 -47 -47h-115q-22 0 -35.5 12.5t-13.5 34.5z" />
<glyph unicode="&#x1e40;" horiz-adv-x="1665" d="M105 0l108 1499h260l359 -1186l349 1186h259l122 -1499h-188l-94 1164l-346 -1164h-200l-357 1164l-84 -1164h-188zM721 1679v123q0 51 49 51h115q23 0 35 -14t12 -37v-123q0 -47 -47 -47h-115q-22 0 -35.5 12.5t-13.5 34.5z" />
<glyph unicode="&#x1e41;" horiz-adv-x="1824" d="M115 0v1087h140l48 -127q10 6 42 26t43.5 26.5t40.5 22.5t45 22.5t43.5 17t50 15t51 8t58.5 3.5q102 0 182 -41.5t114 -113.5q194 155 425 155q151 0 242 -99.5t91 -259.5v-742h-188v743q0 85 -46.5 135t-120.5 50q-114 0 -196 -23.5t-169 -83.5q0 -1 0.5 -37.5 t0.5 -38.5v-745h-189v743q0 85 -47 135t-121 50q-100 0 -166 -22.5t-186 -86.5v-819h-188zM901 1271v123q0 51 49 51h115q23 0 35 -14t12 -37v-123q0 -47 -47 -47h-115q-22 0 -35.5 12.5t-13.5 34.5z" />
<glyph unicode="&#x1e56;" horiz-adv-x="1200" d="M118 0v1499h624q374 0 374 -442q0 -91 -13 -163t-33.5 -120t-52 -82.5t-62 -53t-71 -29t-71.5 -13t-71 -1.5q-59 1 -243.5 18.5t-192.5 22.5v-636h-188zM306 774h430q34 0 59.5 5.5t51 23t42 47.5t27 82t10.5 124q-1 70 -14.5 120.5t-32.5 77t-46.5 42t-48.5 19t-48 3.5 h-430v-544zM488 1692v122q0 52 49 52h115q22 0 34.5 -14.5t12.5 -37.5v-122q0 -48 -47 -48h-115q-22 0 -35.5 13t-13.5 35z" />
<glyph unicode="&#x1e57;" horiz-adv-x="1134" d="M115 -553v1640h143l42 -117q53 40 172 85t211 45q84 0 148 -32t103 -83.5t64 -125t34 -148.5t9 -162q0 -95 -7.5 -170t-30.5 -152t-61 -128t-104 -83t-155 -32q-76 0 -186.5 21t-196.5 57v-615h-185zM300 205q176 -50 363 -50q48 0 80.5 16.5t58.5 59t38 120.5t12 195 q0 377 -189 377q-171 0 -363 -87v-631zM501 1291v123q0 51 49 51h115q23 0 35 -14t12 -37v-123q0 -47 -47 -47h-115q-22 0 -35.5 12.5t-13.5 34.5z" />
<glyph unicode="&#x1e60;" horiz-adv-x="1198" d="M125 1007v134q0 87 20.5 152.5t55.5 106t88 66t110.5 35.5t130.5 10q95 1 274 -17.5t256 -33.5v-151q-85 6 -282.5 13t-225.5 7q-48 2 -79 0t-64 -12.5t-52 -31t-31.5 -58t-12.5 -92.5v-119q0 -61 12.5 -99.5t41 -56.5t59.5 -23.5t83 -5.5h276q329 0 329 -365v-128 q0 -88 -24.5 -153.5t-62.5 -103t-94.5 -60t-111 -30t-121.5 -7.5q-104 0 -274 17.5t-256 36.5v150q226 -22 515 -22q33 0 58.5 2t62.5 11.5t60.5 26t41.5 50t18 79.5v123q0 89 -35 137t-124 48h-272q-97 0 -167.5 23.5t-108.5 57.5t-60.5 86.5t-28 96t-5.5 100.5zM507 1699 v123q0 51 49 51h115q23 0 35 -14t12 -37v-123q0 -47 -47 -47h-115q-22 0 -35.5 12.5t-13.5 34.5z" />
<glyph unicode="&#x1e61;" horiz-adv-x="1036" d="M76 727v94q0 134 66 205.5t217 71.5q111 0 294 -12t253 -27v-134h-523q-42 0 -67 -7t-35.5 -24t-13 -32.5t-2.5 -45.5v-82q0 -37 8 -59t26.5 -31t35.5 -11.5t48 -2.5h306q134 0 203 -73.5t69 -195.5v-103q0 -80 -22.5 -135.5t-62.5 -83t-83.5 -38.5t-97.5 -11 q-106 0 -313 15t-261 29v131h549q103 0 103 99v87q0 52 -22 76.5t-81 24.5h-305q-151 0 -220 61t-69 214zM451 1289v122q0 52 49 52h115q22 0 34.5 -14.5t12.5 -37.5v-122q0 -48 -47 -48h-115q-22 0 -35.5 13t-13.5 35z" />
<glyph unicode="&#x1e6a;" horiz-adv-x="1191" d="M84 1317v182h1059v-182h-441v-1317h-188v1317h-430zM491 1679v123q0 51 49 51h115q23 0 35 -14t12 -37v-123q0 -47 -47 -47h-115q-22 0 -35.5 12.5t-13.5 34.5z" />
<glyph unicode="&#x1e6b;" horiz-adv-x="776" d="M38 920v127l196 43l40 303h148v-303h297v-170h-297v-519q0 -83 14.5 -132.5t36.5 -68.5t59 -29q156 -43 170 -43v-127h-199q-269 0 -269 388v531h-196zM237 1564v123q0 51 49 51h115q23 0 35 -14t12 -37v-123q0 -47 -47 -47h-115q-22 0 -35.5 12.5t-13.5 34.5z" />
<glyph unicode="&#x1e80;" horiz-adv-x="1986" d="M86 1499h204l408 -1201l343 1201h209l-130 -454l263 -758l353 1212h204l-454 -1499h-200l-260 724l-228 -724h-201zM686 1899h210l210 -275h-153z" />
<glyph unicode="&#x1e81;" horiz-adv-x="1652" d="M38 1087h204l294 -833l258 833h197l-101 -333l222 -500l300 833h205l-399 -1087h-197l-220 495l-163 -495h-209zM494 1487h209l210 -275h-153z" />
<glyph unicode="&#x1e82;" horiz-adv-x="1986" d="M86 1499h204l408 -1201l343 1201h209l-130 -454l263 -758l353 1212h204l-454 -1499h-200l-260 724l-228 -724h-201zM954 1624l210 275h210l-266 -275h-154z" />
<glyph unicode="&#x1e83;" horiz-adv-x="1652" d="M38 1087h204l294 -833l258 833h197l-101 -333l222 -500l300 833h205l-399 -1087h-197l-220 495l-163 -495h-209zM762 1212l209 275h210l-266 -275h-153z" />
<glyph unicode="&#x1e84;" horiz-adv-x="1986" d="M86 1499h204l408 -1201l343 1201h209l-130 -454l263 -758l353 1212h204l-454 -1499h-200l-260 724l-228 -724h-201zM659 1733q0 45 32 76t77 31t76 -31t31 -76t-31 -77t-76 -32t-77 32t-32 77zM1181 1733q0 45 32 76t77 31t76 -31t31 -76t-31 -77t-76 -32t-77 32t-32 77z " />
<glyph unicode="&#x1e85;" horiz-adv-x="1652" d="M38 1087h204l294 -833l258 833h197l-101 -333l222 -500l300 833h205l-399 -1087h-197l-220 495l-163 -495h-209zM469 1321q0 45 32 76t77 31t76 -31t31 -76t-31 -77t-76 -32t-77 32t-32 77zM991 1321q0 45 32 76t77 31t76 -31t31 -76t-31 -77t-76 -32t-77 32t-32 77z" />
<glyph unicode="&#x1ef2;" horiz-adv-x="1304" d="M86 1499h206l361 -768l399 768h205l-511 -985v-514h-188v514zM329 1908h210l210 -276h-154z" />
<glyph unicode="&#x1ef3;" horiz-adv-x="1146" d="M40 1087h203l243 -825q5 -18 13 -31.5t16.5 -22.5t18 -15t19 -9t18 -4.5t16.5 -1t13.5 1t9.5 1.5l4 1l286 905h205l-451 -1431l-152 -209h-125l182 553q-196 0 -267 239zM247 1496h210l210 -275h-154z" />
<glyph unicode="&#x2000;" horiz-adv-x="1026" />
<glyph unicode="&#x2001;" horiz-adv-x="2052" />
<glyph unicode="&#x2002;" horiz-adv-x="1026" />
<glyph unicode="&#x2003;" horiz-adv-x="2052" />
<glyph unicode="&#x2004;" horiz-adv-x="684" />
<glyph unicode="&#x2005;" horiz-adv-x="513" />
<glyph unicode="&#x2006;" horiz-adv-x="342" />
<glyph unicode="&#x2007;" horiz-adv-x="342" />
<glyph unicode="&#x2008;" horiz-adv-x="256" />
<glyph unicode="&#x2009;" horiz-adv-x="410" />
<glyph unicode="&#x200a;" horiz-adv-x="114" />
<glyph unicode="&#x2010;" horiz-adv-x="724" d="M41 506v176h643v-176h-643z" />
<glyph unicode="&#x2011;" horiz-adv-x="724" d="M41 506v176h643v-176h-643z" />
<glyph unicode="&#x2012;" horiz-adv-x="724" d="M41 506v176h643v-176h-643z" />
<glyph unicode="&#x2013;" horiz-adv-x="1050" d="M41 500v178h969v-178h-969z" />
<glyph unicode="&#x2014;" horiz-adv-x="1507" d="M41 504v178h1425v-178h-1425z" />
<glyph unicode="&#x2018;" horiz-adv-x="546" d="M153 1118v221q0 62 23.5 103t57.5 55.5t67.5 20t56.5 2.5l24 -4v-84q-24 1 -39 -5.5t-21 -19t-7.5 -21.5t-1.5 -22v-54h24q24 0 40.5 -13.5t16.5 -40.5v-138q0 -61 -57 -61h-131q-53 0 -53 61z" />
<glyph unicode="&#x2019;" horiz-adv-x="546" d="M153 1322v138q0 60 57 60h131q53 0 53 -60v-222q0 -45 -12.5 -79.5t-33 -53t-44.5 -30.5t-48.5 -15t-45 -3.5t-32.5 1.5l-13 2v84q24 -1 39 6t21 20t7.5 22t1.5 22v52h-24q-24 0 -40.5 14.5t-16.5 41.5z" />
<glyph unicode="&#x201a;" horiz-adv-x="546" d="M153 55v137q0 61 57 61h131q53 0 53 -61v-221q0 -46 -12.5 -80t-33 -53t-44.5 -30.5t-48.5 -14.5t-45 -3.5t-32.5 1.5l-13 2v83q24 -1 39 6t21 20.5t7.5 22.5t1.5 22v51h-24q-24 0 -40.5 15t-16.5 42z" />
<glyph unicode="&#x201c;" horiz-adv-x="860" d="M140 1117v222q0 62 23.5 103t57 55t67 19.5t56.5 1.5l24 -3v-83q-24 1 -39 -6t-20.5 -19.5t-7 -21.5t-1.5 -22v-51h24q24 0 40 -15t16 -42v-138q0 -60 -56 -60h-132q-52 0 -52 60zM480 1117v222q0 45 12.5 79.5t33 53t45 30t49.5 14t45.5 3t32.5 -1.5l13 -2v-83 q-71 2 -71 -69v-51h26q24 0 39.5 -15t15.5 -42v-138q0 -60 -55 -60h-131q-55 0 -55 60z" />
<glyph unicode="&#x201d;" horiz-adv-x="860" d="M140 1321v138q0 61 54 61h132q54 0 54 -61v-221q0 -45 -12.5 -79.5t-33 -53t-45 -30.5t-49 -15t-45 -3.5t-33.5 1.5l-12 2v83q24 -1 39 6t21 20t7.5 22t1.5 22v52h-25q-24 0 -39 14.5t-15 41.5zM480 1321v138q0 61 57 61h131q53 0 53 -61v-221q0 -45 -12.5 -79.5t-33 -53 t-45 -30.5t-48.5 -15t-44.5 -3.5t-33.5 1.5l-12 2v83q24 -1 39 6t21 20t7.5 22t1.5 22v52h-24q-24 0 -40.5 14.5t-16.5 41.5z" />
<glyph unicode="&#x201e;" horiz-adv-x="860" d="M140 55v137q0 61 54 61h132q54 0 54 -61v-221q0 -46 -12.5 -80t-33 -53t-45 -30.5t-49 -14.5t-45 -3.5t-33.5 1.5l-12 2v83q24 -1 39 6t21 20.5t7.5 22.5t1.5 22v51h-25q-24 0 -39 15t-15 42zM480 55v137q0 61 57 61h131q53 0 53 -61v-221q0 -62 -23.5 -103.5t-57.5 -56 t-67.5 -20t-56.5 -1.5l-24 3v83q24 -1 39 6t21 20.5t7.5 22.5t1.5 22v51h-24q-24 0 -40.5 15t-16.5 42z" />
<glyph unicode="&#x2020;" horiz-adv-x="817" d="M38 982v148l273 22l17 425h163l18 -425l271 -22v-148l-271 -23l-20 -1106h-163l-15 1106z" />
<glyph unicode="&#x2021;" horiz-adv-x="854" d="M38 341v148l275 24l-2 446l-273 23v148l273 22l19 425h161l18 -425l271 -22v-148l-271 -23l-6 -447l277 -23v-148l-282 -23l-9 -465h-163l-8 465z" />
<glyph unicode="&#x2022;" horiz-adv-x="636" d="M163 688v185q0 33 17 52.5t50 19.5h173q72 0 72 -72v-185q0 -66 -72 -66h-173q-31 0 -49 17.5t-18 48.5z" />
<glyph unicode="&#x2026;" horiz-adv-x="1665" d="M322 47v135q0 51 50 51h127q51 0 51 -51v-135q0 -47 -51 -47h-127q-22 0 -36 13t-14 34zM712 47v135q0 51 50 51h127q51 0 51 -51v-135q0 -47 -51 -47h-127q-22 0 -36 13t-14 34zM1102 47v135q0 51 49 51h127q52 0 52 -51v-135q0 -47 -52 -47h-127q-22 0 -35.5 12.5 t-13.5 34.5z" />
<glyph unicode="&#x202f;" horiz-adv-x="410" />
<glyph unicode="&#x2030;" horiz-adv-x="2826" d="M80 974v266q0 136 59 197.5t209 61.5h207q146 0 204.5 -62t58.5 -197v-266q0 -136 -58.5 -197.5t-208.5 -61.5h-207q-146 0 -205 62t-59 197zM232 983q0 -69 25 -93t94 -24h192q79 0 101 24.5t22 92.5v248q0 70 -25.5 93.5t-93.5 23.5h-192q-78 0 -100.5 -23.5 t-22.5 -93.5v-248zM454 0l902 1499h162l-900 -1499h-164zM1142 263v267q0 136 58.5 197.5t208.5 61.5h207q146 0 205 -62t59 -197v-267q0 -136 -59 -197.5t-209 -61.5h-207q-146 0 -204.5 62t-58.5 197zM1294 273q0 -69 25 -93t94 -24h191q79 0 101.5 24.5t22.5 92.5v247 q0 70 -25.5 93.5t-94.5 23.5h-191q-78 0 -100.5 -23.5t-22.5 -93.5v-247zM2010 263v267q0 136 58.5 197.5t208.5 61.5h207q146 0 204.5 -62t58.5 -197v-267q0 -136 -58.5 -197.5t-208.5 -61.5h-207q-146 0 -204.5 62t-58.5 197zM2161 273q0 -69 25.5 -93t94.5 -24h191 q79 0 101.5 24.5t22.5 92.5v247q0 70 -25.5 93.5t-94.5 23.5h-191q-78 0 -101 -23.5t-23 -93.5v-247z" />
<glyph unicode="&#x2039;" horiz-adv-x="729" d="M96 725l422 416l120 -120l-304 -296l313 -305l-119 -121z" />
<glyph unicode="&#x203a;" horiz-adv-x="729" d="M96 420l312 305l-303 296l120 120l422 -416l-432 -426z" />
<glyph unicode="&#x2044;" horiz-adv-x="526" d="M-172 0l718 1511h153l-718 -1511h-153z" />
<glyph unicode="&#x205f;" horiz-adv-x="513" />
<glyph unicode="&#x2070;" horiz-adv-x="956" d="M115 1045v513q0 124 63.5 178.5t183.5 54.5h240q238 0 238 -231v-515q0 -69 -17 -116t-51 -71.5t-74 -34t-96 -9.5h-240q-55 0 -95 8.5t-77 32t-56 71t-19 119.5zM269 1064q0 -60 23 -81t90 -21h198q68 0 88.5 22t20.5 79v478q0 55 -21.5 78t-85.5 23h-201 q-69 0 -90.5 -25.5t-21.5 -75.5v-477z" />
<glyph unicode="&#x2074;" horiz-adv-x="860" d="M31 1111l405 680h168l-349 -587h310v237l56 99h97v-336h115v-125l-115 -24v-239h-153v233h-489z" />
<glyph unicode="&#x2075;" horiz-adv-x="856" d="M105 836v121h422q100 0 100 104v102q0 20 -0.5 30t-5.5 29.5t-14.5 29.5t-29 18.5t-48.5 8.5h-209q-86 0 -86 -92h-128l30 604h613v-149h-473l-15 -255q17 16 45.5 25.5t66.5 12.5t64 3.5t67.5 -1.5t48.5 -2q115 -1 171 -68t56 -182v-131q0 -122 -64 -180t-169 -58 q-109 0 -155 1t-123.5 7.5t-163.5 21.5z" />
<glyph unicode="&#x2076;" horiz-adv-x="899" d="M105 1330q1 115 15.5 200t36.5 135t56.5 80.5t67 42t76.5 14.5q164 14 432 -26v-121h-400q-25 0 -45.5 -11t-34 -27t-23 -42t-14.5 -48.5t-8.5 -55.5t-4 -53t-1.5 -50q206 30 340 30q67 0 113.5 -17.5t69.5 -49.5t32 -67.5t9 -81.5v-146q0 -111 -60.5 -165.5 t-164.5 -54.5h-218q-50 0 -88 11.5t-75 44.5t-60.5 88.5t-37.5 149t-13 220.5zM258 1252q0 -30 1.5 -58.5t9 -73.5t21 -76.5t39.5 -55.5t62 -24h188q48 0 69 22.5t21 73.5v109q0 49 -20.5 66t-68.5 17h-322z" />
<glyph unicode="&#x2077;" horiz-adv-x="768" d="M29 1646v148h669l40 -72l-373 -906h-171l345 830h-510z" />
<glyph unicode="&#x2078;" horiz-adv-x="952" d="M126 1030v112q0 118 113 149q-113 40 -113 187v83q0 133 65 186.5t181 53.5h226q115 0 172 -55.5t57 -183.5v-79q1 -15 -1.5 -34.5t-11.5 -45.5t-31.5 -46.5t-56.5 -27.5q51 -9 76 -66.5t25 -114.5v-116q0 -65 -17.5 -110t-50.5 -68t-70 -32.5t-85 -9.5h-244 q-59 0 -102 13t-68 32.5t-40 49.5t-19.5 58.5t-4.5 64.5zM279 1046q0 -47 20.5 -66.5t77.5 -19.5h206q91 0 91 86v93q0 98 -89 98h-211q-48 0 -71.5 -22.5t-23.5 -75.5v-93zM279 1484q0 -56 27.5 -79t67.5 -23h204q32 0 53 9t29.5 26t11 31.5t2.5 35.5v61q0 65 -24 87.5 t-81 22.5h-179q-64 0 -87.5 -23t-23.5 -87v-61z" />
<glyph unicode="&#x2079;" horiz-adv-x="899" d="M86 1436v146q0 111 61 166t165 55h217q50 0 88 -11.5t75 -44.5t60.5 -89t37.5 -150t13 -221q-1 -116 -15 -201t-35.5 -135t-55.5 -80.5t-67 -42t-78 -15.5q-210 -18 -433 26v121h398q43 0 71.5 27.5t40.5 78.5t16 89.5t5 93.5q-206 -30 -339 -30q-67 0 -113.5 17.5 t-69.5 49.5t-32.5 68t-9.5 82zM239 1450q0 -50 21 -67t69 -17h321q0 289 -127 289h-193q-48 0 -69.5 -22.5t-21.5 -73.5v-109z" />
<glyph unicode="&#x207f;" horiz-adv-x="825" d="M73 774v725h105l44 -92q7 4 41.5 25.5t44 26.5t39.5 20t48.5 19.5t48 9.5t59.5 5q122 0 185.5 -68.5t63.5 -170.5v-500h-153v480q0 59 -34 89.5t-88 30.5q-15 0 -29.5 -1t-25.5 -1.5t-26 -4t-22 -5t-23.5 -7.5t-21.5 -7.5t-24 -9.5t-23.5 -10t-28 -13t-28.5 -13v-528 h-152z" />
<glyph unicode="&#x2080;" horiz-adv-x="956" d="M115 -179v513q0 124 63.5 178.5t183.5 54.5h240q238 0 238 -231v-515q0 -69 -17 -116t-51 -71.5t-74 -34t-96 -9.5h-240q-55 0 -95 8.5t-77 32t-56 71t-19 119.5zM269 -160q0 -60 23 -80.5t90 -20.5h198q68 0 88.5 22t20.5 79v478q0 55 -21.5 78t-85.5 23h-201 q-69 0 -90.5 -25.5t-21.5 -75.5v-478z" />
<glyph unicode="&#x2081;" horiz-adv-x="552" d="M31 348v110l247 112h152v-978h-152v821z" />
<glyph unicode="&#x2082;" horiz-adv-x="800" d="M59.5 464q-0.5 29 0 58t1.5 28q8 1 42 5.5t43 6t38 5t41.5 4.5t38.5 4t43 3.5t41.5 2t48 2t49.5 0.5q276 0 276 -284q0 -50 -18.5 -105t-42.5 -99.5t-67 -96.5t-71.5 -83.5t-77.5 -75.5t-64.5 -57t-50.5 -42h390v-148h-653v140q15 12 68.5 51.5t90 68.5t92.5 75.5 t94 87.5t75.5 88.5t57 95t19.5 90.5q0 79 -35 112.5t-122 33.5h-346q-1 0 -1.5 29z" />
<glyph unicode="&#x2083;" horiz-adv-x="833" d="M57 426v109q55 20 131 28.5t122 9.5t158 0q124 0 188 -69t64 -173v-69q0 -70 -29 -118t-75 -65q104 -58 104 -195v-55q0 -119 -60 -182t-202 -63h-55h-55.5t-48.5 0.5t-51.5 2t-45 4.5t-48 6.5t-42.5 9.5t-46 14l2 109l354 2q82 0 114 25t32 88v41q0 124 -138 128 l-282 10v118l282 14q140 6 140 119v39q0 112 -140 112h-373z" />
<glyph unicode="&#x2084;" horiz-adv-x="862" d="M31 -113l405 680h169l-347 -587h309v237l55 100h98v-337h115v-125l-115 -24v-238h-153v233h-491z" />
<glyph unicode="&#x2085;" horiz-adv-x="856" d="M105 -267h423q101 0 101 104v102q0 24 -2 38t-10 35.5t-30 32.5t-57 11h-209q-40 0 -63 -22t-23 -67h-129l30 600h614v-148h-474l-15 -255q17 16 45.5 25.5t66.5 12t65 3t67.5 -1.5t48.5 -2q115 -1 171 -67.5t56 -181.5v-131q0 -122 -64 -180t-169 -58q-116 0 -157 0.5 t-120.5 7t-165.5 21.5v121z" />
<glyph unicode="&#x2086;" horiz-adv-x="899" d="M105 106q1 115 15.5 200t36.5 135t56.5 80.5t67 42t76.5 14.5q212 17 432 -25v-121h-400q-25 0 -45.5 -11t-34 -27t-23 -42t-14.5 -48.5t-8.5 -55.5t-4 -53t-1.5 -50q199 29 340 29q54 0 95 -12t65 -31t39 -48t20 -58.5t5 -65.5v-147q0 -111 -60.5 -165.5t-164.5 -54.5 h-218q-50 0 -88 11.5t-75 44.5t-60.5 88.5t-37.5 149t-13 220.5zM258 28q0 -30 1.5 -58.5t9 -73.5t21 -76.5t39.5 -55.5t62 -24h188q48 0 69 22.5t21 73.5v109q0 49 -20.5 66t-68.5 17h-322z" />
<glyph unicode="&#x2087;" horiz-adv-x="768" d="M29 422v148h669l40 -72l-373 -906h-171l345 830h-510z" />
<glyph unicode="&#x2088;" horiz-adv-x="952" d="M126 -82q0 118 113 149q-113 40 -113 188v83q0 132 65 185.5t181 53.5h226q115 0 172 -55.5t57 -183.5v-78q1 -15 -1.5 -34.5t-11.5 -45.5t-31.5 -46.5t-56.5 -27.5q51 -9 76 -66.5t25 -114.5v-117q0 -52 -12 -91.5t-32.5 -63.5t-50 -38.5t-60 -20t-68.5 -5.5h-244 q-73 0 -122 18t-72 51.5t-31.5 67.5t-8.5 80v112zM279 -85v-93q0 -47 20.5 -66.5t77.5 -19.5h206q91 0 91 86v93q0 98 -89 98h-211q-48 0 -71.5 -22.5t-23.5 -75.5zM279 261q0 -56 27.5 -79.5t67.5 -23.5h204q32 0 53 9t29.5 26.5t11 32t2.5 35.5v60q0 65 -24 87.5t-81 22.5 h-179q-64 0 -87.5 -23t-23.5 -87v-60z" />
<glyph unicode="&#x2089;" horiz-adv-x="899" d="M86 212v147q0 111 61 166t165 55h217q50 0 88 -11.5t75 -44.5t60.5 -89t37.5 -150t13 -221q-1 -116 -15 -200.5t-35.5 -134.5t-55.5 -80.5t-67 -42t-78 -15.5q-211 -18 -433 24v121h398q43 0 71.5 27.5t40.5 78.5t16 89.5t5 93.5q-199 -29 -339 -29q-67 0 -113.5 17.5 t-69.5 49.5t-32.5 67.5t-9.5 81.5zM239 226q0 -50 21 -67t69 -17h321q0 290 -127 290h-193q-48 0 -69.5 -22.5t-21.5 -74.5v-109z" />
<glyph unicode="&#x20ac;" horiz-adv-x="1253" d="M38 519v109l174 14v188l-174 17v100l174 19q0 148 20 229q77 321 466 321q79 0 239 -20.5t272 -44.5v-145q-325 30 -493 30q-49 0 -89 -5.5t-70.5 -15t-54 -26t-40 -33.5t-28 -43.5t-18 -50.5t-10 -59t-4.5 -65t-1 -72l479 -15v-106l-479 -15v-188l479 -14v-109 q-31 -1 -81 -2t-155.5 -3.5t-175 -5t-67.5 -3.5q0 -184 83.5 -262.5t231.5 -78.5q87 0 212 9.5t207 18.5l82 10v-140q-231 -74 -519 -74q-39 0 -77 4t-88 17.5t-93 36t-86 62t-73.5 92t-49.5 131t-19 174.5z" />
<glyph unicode="&#x2113;" horiz-adv-x="831" d="M57 511q52 47 117 115v644q1 113 75.5 178t192.5 65q122 0 195.5 -85t75.5 -219q1 -154 -97 -319.5t-253 -299.5v-184q1 -97 12 -142.5t37 -65t85 -31.5q0 -2 85.5 -21.5t88.5 -18.5v-127q1 -1 -53.5 -1t-109.5 1h-54q-150 2 -215 89.5t-65 293.5v83q-31 -22 -64 -39z M363 823q98 130 143 249.5t16 210.5q-7 26 -32.5 42t-53.5 17.5t-50.5 -19.5t-22.5 -62v-438z" />
<glyph unicode="&#x2116;" horiz-adv-x="2197" d="M138 0v1310q0 71 36 121t90 66.5t111.5 11t107.5 -43.5t71 -99l480 -1166q11 -27 30 -22t19 29v955q0 177 95 260t249 83l421 -2q153 -4 213 -89.5t60 -280.5q0 -178 -62 -265t-217 -88h-123q-110 1 -169 43.5t-85 141.5t-26 282h152q0 -90 7 -151t17.5 -94t31 -49.5 t37.5 -20t47 -3.5h99q37 0 58.5 5.5t42.5 25t30 62t9 111.5q0 60 -6 99t-15.5 62.5t-30 35t-39.5 15t-54 4.5q-213 2 -356 2q-197 0 -197 -196v-967q0 -52 -25 -95.5t-64 -68.5t-87 -33t-93 3t-83.5 46.5t-56.5 91.5l-485 1178q-10 23 -31 17t-21 -32v-1295h-188z" />
<glyph unicode="&#x2122;" horiz-adv-x="1423" d="M38 1359v140h543v-140h-197v-575h-147v575h-199zM648 784l62 715h147l172 -467l146 467h151l70 -715h-146l-36 404l-121 -404h-124l-143 405l-31 -405h-147z" />
<glyph unicode="&#x212e;" horiz-adv-x="1462" d="M115 545q0 232 172 393q89 79 193.5 116.5t250.5 37.5q134 0 234.5 -33t191.5 -103q88 -68 136.5 -178.5t54.5 -249.5h-981h-6.5h-6t-5 -1t-4.5 -3.5t-2 -6.5t-1 -11v-273q0 -22 29 -53t77.5 -62t124.5 -53t158 -22q113 0 218.5 48t173.5 124h114q-119 -125 -231 -170 q-66 -25 -124 -35t-151 -10q-147 0 -254 36.5t-192 115.5q-170 156 -170 393zM342 582q0 -8 3 -12.5t6.5 -5.5t9.5 -1h731q5 0 10.5 -0.5t7.5 0t4.5 0.5t2.5 2t0.5 4.5t0.5 8.5v272q0 42 -60 90t-152 80.5t-177 32.5q-78 0 -153 -23t-124 -55t-79.5 -63t-30.5 -50v-280z" />
<glyph unicode="&#x2202;" horiz-adv-x="1314" d="M109 465q0 232 135.5 359.5t384.5 127.5q206 0 340 -116q-9 192 -52 301.5t-118.5 152.5t-200.5 43q-102 0 -202 -31.5t-167 -72.5l-47 127q64 42 102 64.5t93 48t109.5 36.5t117.5 11q556 0 556 -723q0 -128 -19 -243.5t-61.5 -218.5t-104.5 -178t-153.5 -119 t-203.5 -44q-103 0 -193.5 29.5t-162 86t-112.5 149t-41 210.5zM297 471q0 -142 92.5 -221t227.5 -79q79 0 142.5 41.5t100.5 102t62 136t34 136t10 109.5q-54 31 -140 53t-184 22q-180 0 -262.5 -81t-82.5 -219z" />
<glyph unicode="&#x2206;" horiz-adv-x="1476" d="M38 0l637 1499h152l612 -1499h-1401zM314 179h872l-428 1057z" />
<glyph unicode="&#x220f;" horiz-adv-x="1320" d="M38 1317v182h1246v-182h-172v-1317h-188v1317h-527v-1317h-189v1317h-170z" />
<glyph unicode="&#x2211;" horiz-adv-x="1189" d="M76 -221l439 774l-439 764v182h1078v-182h-849l436 -764l-436 -774h849v-189h-1078v189z" />
<glyph unicode="&#x2212;" horiz-adv-x="933" d="M41 641v176h852v-176h-852z" />
<glyph unicode="&#x221a;" horiz-adv-x="1302" d="M38 557v182h290l241 -479l502 1378h194l-592 -1638h-178l-288 557h-169z" />
<glyph unicode="&#x221e;" horiz-adv-x="1595" d="M96 698q0 58 8 106t30.5 95.5t59.5 80t98.5 53t143.5 20.5q111 0 203.5 -57.5t157.5 -152.5q61 95 156 152.5t208 57.5q82 0 143.5 -20.5t98.5 -53t59.5 -80t30.5 -95.5t8 -106q0 -74 -17 -135t-55 -111t-106 -78t-162 -28q-119 0 -208.5 50t-157.5 165 q-66 -115 -153.5 -165t-205.5 -50q-94 0 -162 28t-106 78t-55 111t-17 135zM265 698q0 -89 37 -137t138 -48q89 0 153 50t121 135q-50 77 -125 132.5t-149 55.5q-48 0 -81.5 -10.5t-51.5 -25.5t-28 -42t-12 -50t-2 -60zM881 698q56 -84 121 -134.5t154 -50.5q97 0 136 49 t39 136q0 36 -2.5 60t-12.5 50.5t-28.5 42t-51.5 25.5t-80 10q-75 0 -150 -55t-125 -133z" />
<glyph unicode="&#x222b;" horiz-adv-x="903" d="M38 -245h169q26 0 47.5 9.5t36 30t26 43t18.5 58t11.5 64t6.5 73t3 73t1 74.5v856q0 87 5.5 159t17.5 142.5t34 123t54 93.5t78 62.5t105 21.5q47 0 86 -6.5t57.5 -13t42 -18t29.5 -13.5v-122h-165q-34 0 -60 -17t-42.5 -51t-27.5 -71t-16 -91t-7 -97.5t-3 -101.5v-856 q0 -109 -6 -191.5t-24.5 -162.5t-49.5 -131t-83.5 -82t-124.5 -31q-143 0 -219 51v122z" />
<glyph unicode="&#x2248;" horiz-adv-x="1075" d="M96 518q43 36 65 52.5t64 43t83.5 38t88.5 11.5q62 0 152.5 -38t152.5 -38q44 0 75.5 9.5t81.5 35t74 35.5l47 -97q-12 -9 -57.5 -46t-69.5 -53t-68 -33t-87 -17q-58 0 -150.5 39t-154.5 39q-46 0 -85.5 -12t-87.5 -33.5t-81 -32.5zM96 882q44 37 65 53t63.5 43t84 38.5 t88.5 11.5q62 0 152.5 -38t152.5 -38q44 0 75.5 9.5t81.5 35t74 35.5l47 -98q-11 -8 -57.5 -45.5t-69.5 -53t-67.5 -32.5t-87.5 -17q-58 0 -150.5 39t-154.5 39q-46 0 -85.5 -12t-87.5 -33.5t-81 -32.5z" />
<glyph unicode="&#x2260;" horiz-adv-x="950" d="M38 419v185h303l144 237h-447v185h557l91 148h131l-91 -148h187v-185h-297l-144 -237h441v-185h-551l-103 -171h-131l103 171h-193z" />
<glyph unicode="&#x2264;" horiz-adv-x="958" d="M96 200v170h769v-170h-769zM96 792v192l768 315v-191l-538 -219l538 -240v-195z" />
<glyph unicode="&#x2265;" horiz-adv-x="958" d="M96 200v170h769v-170h-769zM97 454v195l538 240l-538 219v191l768 -315v-192z" />
<glyph unicode="&#x25ca;" horiz-adv-x="1062" d="M38 764l424 735h152l411 -735l-411 -764h-152zM248 764l290 -517l279 517l-279 499z" />
<glyph unicode="&#xe000;" horiz-adv-x="1085" d="M0 0v1085h1085v-1085h-1085z" />
<glyph unicode="&#xfb00;" horiz-adv-x="1607" d="M38 918v135l203 34v183q0 43 3.5 78.5t19 83t42 79.5t78 55t121.5 23q138 0 287 -49v-120l-234 2q-36 1 -61 -8t-38.5 -21.5t-20 -38t-8 -45.5t-1.5 -56v-166h588v203q0 47 4.5 84.5t20.5 84t44 77.5t79.5 52.5t122.5 21.5q134 0 283 -49v-120l-237 2q-37 1 -62 -8 t-38.5 -21t-20 -38t-7.5 -45.5t-1 -58.5v-185h285v-169h-288v-918h-188v918h-589v-918h-188v918h-199z" />
<glyph unicode="&#xfb03;" horiz-adv-x="2009" d="M38 918v135l203 34v183q0 43 3.5 78.5t19 83t42 79.5t78 55t121.5 23q138 0 287 -49v-120l-234 2q-36 1 -61 -8.5t-37.5 -21t-19.5 -38.5t-8.5 -44.5t-2.5 -56.5l-3 -166h553v102q0 185 113 302.5t301 118.5q75 0 205.5 -21.5t203.5 -45.5v-119l-357 19q-41 2 -78 -3 t-74 -22.5t-64 -45.5t-44 -76t-17 -110v-99l728 -20v-1067h-190v918h-542v-918h-188v918h-550v-918h-189v918h-199z" />
<glyph unicode="&#xfb04;" horiz-adv-x="2217" d="M38 918v135l203 34v183q0 43 3.5 78.5t19 83t42 79.5t78 55t121.5 23q138 0 287 -49v-120l-234 2q-26 0 -46 -4.5t-33.5 -10.5t-23 -20t-14.5 -25t-7.5 -32.5t-3 -35.5t-1.5 -41l-3 -166h555v105q0 192 87.5 303t265.5 111l567 -1v-1206q0 -86 11.5 -131.5t33 -64.5 t65.5 -33q156 -43 170 -43v-127h-195q-147 0 -210.5 86.5t-63.5 300.5v1056h-338q-51 0 -86 -10.5t-63.5 -37t-42 -77t-13.5 -126.5v-105h285v-169h-288v-918h-188v918h-552v-918h-189v918h-199z" />
<glyph unicode="&#xfb06;" horiz-adv-x="1812" d="M76 717v97q0 133 67 204t219 71h917l40 303h149v-303h297v-166h-297v-522q1 -59 5 -96.5t10.5 -61.5t22 -38t30.5 -20.5t45 -13.5q147 -38 151 -38v-132h-182q-145 0 -208 88t-63 300v530l-896 -1q-42 0 -67 -7t-35.5 -24t-13 -32.5t-2.5 -45.5v-85q0 -37 8 -59t26.5 -31 t35.5 -11.5t48 -2.5h306q134 0 203 -73.5t69 -195.5v-93q0 -80 -22.5 -135.5t-62.5 -83t-83.5 -38.5t-97.5 -11q-97 0 -309 15t-265 29v131h549q103 0 103 99v77q0 52 -22 76.5t-81 24.5h-305q-151 0 -220 61t-69 214z" />
<glyph horiz-adv-x="552" d="M161 1315v135q0 47 47 47h131q22 0 36 -13t14 -34v-135q0 -51 -50 -51h-131q-23 0 -35 14t-12 37zM169 0l19 1096h175l18 -1096h-212z" />
<glyph horiz-adv-x="1308" d="M134 341v608q0 165 100 254.5t259 89.5h336q93 0 162 -26t108.5 -73.5t58 -107.5t18.5 -134v-611q0 -176 -91.5 -258.5t-256.5 -82.5h-335q-77 0 -140 19t-113 58.5t-78 107t-28 156.5zM322 354q0 -92 54.5 -132t133.5 -40h299q179 0 179 171v587q0 171 -177 171h-303 q-96 0 -141 -48.5t-45 -122.5v-586z" />
<glyph horiz-adv-x="735" d="M57 991v130l330 173h188v-1294h-189v1091z" />
<glyph horiz-adv-x="1216" d="M78 1125v139q175 27 314.5 38.5t306.5 5.5q214 0 319 -101t105 -286q0 -70 -31 -145t-80 -139.5t-114 -129.5t-128 -115t-129 -95.5t-109 -71.5t-74 -43h656v-182h-1023v170q60 33 95.5 53t110 64t124.5 76.5t122 82.5t121.5 90.5t104.5 92.5t87.5 97.5t54.5 95.5t22 95 q0 109 -62 160.5t-198 47.5h-595z" />
<glyph horiz-adv-x="1247" d="M96 1126v125q84 30 196 44t221.5 14.5t236.5 -0.5q166 -3 261 -98t95 -246v-132q0 -111 -37 -183t-104 -99q141 -79 141 -298v-112q0 -350 -370 -350h-75h-79t-70.5 0.5t-76 2.5t-66.5 4.5t-72 7t-62.5 10t-67.5 14t-59 18.5l2 127h586q49 0 84 6.5t67.5 24.5t49.5 54.5 t17 91.5v106q0 193 -206 200l-473 14v150l473 20q210 9 210 187v123q0 90 -60.5 132t-149.5 42h-612z" />
<glyph horiz-adv-x="1243" d="M38 254l624 1040h217l-560 -941h524v402l73 154h115v-556h176v-148l-176 -42v-364h-188v364h-735z" />
<glyph horiz-adv-x="1263" d="M146 -20h610q50 0 85.5 15.5t54.5 42.5t27 56.5t8 63.5v201q0 27 -1.5 45.5t-11 46.5t-26.5 45t-51 30t-82 13h-281q-65 0 -111 -36t-46 -109h-172l45 900h877v-182h-700l-22 -453q43 47 148 59q45 6 101 6t112.5 -3t71.5 -3q173 -2 255 -95.5t82 -253.5v-228 q0 -81 -23 -144.5t-59 -102t-84 -63.5t-92.5 -34.5t-89.5 -9.5q-208 0 -320 8t-305 41v144z" />
<glyph horiz-adv-x="1267" d="M125 786q0 157 20.5 282.5t54 206t79.5 134.5t95 77t103 24q309 7 627 -40v-141h-570q-53 0 -94 -35t-63.5 -86.5t-37.5 -121.5t-20 -126.5t-6 -116.5q297 43 505 43q102 0 171 -25t103.5 -72t48 -99t13.5 -122v-256q0 -314 -339 -314h-302q-73 1 -128 20.5t-106 72 t-83.5 139.5t-51.5 227t-19 329zM313 707q0 -51 1 -91.5t6 -98t14 -101t26 -90t39.5 -77t57.5 -50t79 -19.5h265q84 0 125 30.5t41 124.5v224q0 83 -44 115.5t-121 32.5h-489z" />
<glyph horiz-adv-x="1122" d="M57 1112v182h947l62 -107l-532 -1392h-216l509 1317h-770z" />
<glyph horiz-adv-x="1292" d="M143 323v187q0 99 47 149.5t124 72.5q-48 18 -83 50t-53.5 72.5t-26.5 81.5t-8 86v133q0 101 27 171.5t78 109.5t115 56t147 17h302q171 0 254.5 -84t83.5 -270v-127q1 -24 -3.5 -54t-18 -70t-47.5 -71.5t-85 -41.5q41 -7 72.5 -38.5t48.5 -73t25.5 -83t7.5 -77.5v-194 q0 -79 -22.5 -139.5t-56 -94.5t-81 -55.5t-90.5 -28.5t-90 -7h-300q-74 0 -133 13.5t-96.5 34t-65 51.5t-41 58t-21 62.5t-9 56.5t-1.5 47zM332 327q0 -74 45.5 -111t146.5 -37h268q71 0 120.5 38t49.5 110v195q0 76 -46.5 116t-117.5 40h-293q-77 0 -125 -37t-48 -119v-195 zM332 1012q0 -46 16.5 -79t44 -49.5t55.5 -24t57 -7.5h292q165 0 165 160v127q0 104 -41 147.5t-127 43.5h-270q-51 0 -82 -6t-58.5 -25t-39.5 -58t-12 -102v-127z" />
<glyph horiz-adv-x="1267" d="M115 724v256q0 315 339 315h302q73 -1 128.5 -20.5t106 -72.5t83 -140t51.5 -227t19 -329q0 -157 -20.5 -282.5t-54 -206t-79.5 -134t-95 -76.5t-103 -24q-372 -9 -628 39v141h570q65 0 111.5 50t68.5 132.5t31.5 155t10.5 149.5q-297 -43 -505 -43q-69 0 -123 11.5 t-90 33.5t-60.5 50t-38 65t-19 74.5t-5.5 82.5zM302 733q0 -83 43.5 -115t120.5 -32h490q0 51 -1 91.5t-6 98t-14 100.5t-26 90t-39.5 77t-57.5 49.5t-79 19.5h-265q-84 0 -125 -30.5t-41 -124.5v-224z" />
<glyph horiz-adv-x="1107" d="M76 372v192q0 134 63.5 217.5t171.5 111t254 8.5v200h175v-350q-166 3 -276 0q-84 -3 -142.5 -49.5t-58.5 -139.5v-180q0 -112 62.5 -162t202.5 -50l543 1v-140q-251 -37 -353 -43q-106 -6 -225 -1q-112 0 -195.5 31.5t-130.5 86.5t-69 121.5t-22 145.5zM544 1318v135 q0 48 47 48h131q22 0 35.5 -13t13.5 -35v-135q0 -51 -49 -51h-131q-23 0 -35 14t-12 37z" />
<glyph horiz-adv-x="1744" d="M125 868q0 27 2 52t11 62t23.5 68t42.5 64t65 56t94.5 37.5t128.5 14.5h427q63 0 116.5 -13t103 -44t78 -91.5t28.5 -146.5v-753h-134l-32 128l-19 -15q-20 -15 -53.5 -37t-75 -43.5t-96.5 -36.5t-107 -15q-116 -2 -190 70.5t-72 178.5v103q0 128 71.5 201.5t201.5 73.5 h336q2 137 0 137q0 77 -37.5 103.5t-121.5 26.5h-424q-42 0 -72 -6t-60 -24t-45.5 -56.5t-15.5 -97.5v-679q0 -214 193 -214h705q120 0 165.5 51.5t45.5 162.5v1018q0 115 -57 175t-154 60h-827v118q282 57 599 55l228 -2q174 -2 279 -103.5t105 -302.5v-1018 q0 -389 -381 -389h-708q-167 0 -266.5 97.5t-99.5 285.5zM642 423q0 -34 35 -65t82 -30q125 -2 316 105v227l-320 -29q-56 -6 -85.5 -40t-27.5 -86v-82z" />
<glyph horiz-adv-x="1136" d="M96 554q0 266 96 407t286 141q45 0 92 -2t95.5 -6t85 -7.5t86 -10t71 -9t66.5 -9.5t48 -7v-1239q0 -94 -30.5 -169.5t-80.5 -120t-112.5 -65.5t-129.5 -14l-519 49v125h510q83 0 128.5 49t45.5 146v252q-84 -38 -182.5 -59t-173.5 -21q-92 0 -160 28t-110 76t-67.5 122 t-35 155.5t-9.5 188.5zM284 544q0 -53 0.5 -80.5t4.5 -75.5t11.5 -74.5t22.5 -61t37 -52.5t55.5 -31t77.5 -13q101 0 165 9.5t176 40.5v726h-340q-42 0 -75.5 -15t-55.5 -37t-37.5 -56.5t-23.5 -65t-12 -72.5t-5 -68t-1 -62v-12z" />
<glyph horiz-adv-x="1955" d="M84 604v181q0 88 20 149.5t55 99t94.5 59t124.5 29t160 7.5h897l37 290h151v-294h293v-130l-293 -41v-554q0 -93 -30 -165t-77.5 -115.5t-114 -71.5t-132 -38.5t-138.5 -10.5h-336q-73 0 -128 7.5t-107 28.5t-85.5 56t-53.5 92.5t-20 136.5q-57 0 -110.5 15.5t-101.5 47 t-76.5 89t-28.5 132.5zM273 607q0 -61 37.5 -90t90.5 -29q0 180 88.5 259.5t267.5 79.5h234q50 0 87 -4t80 -19.5t70.5 -42.5t46 -77t18.5 -119q0 -77 -17.5 -126t-57.5 -75t-92.5 -35t-135.5 -9h-401q0 -25 3.5 -45t12 -34.5t16 -25t23 -17.5t25 -11t30 -6t30.5 -3t34 -2 t33 -1h335q136 0 220 56t84 170v553h-894q-56 0 -89.5 -1.5t-68 -7t-52 -16.5t-32.5 -30t-20.5 -46.5t-5.5 -67.5v-178zM589 487h400h34.5t26 1.5t22 4.5t14 9t11.5 15.5t4.5 22.5t2.5 32q0 56 -19.5 71.5t-95.5 15.5h-229q-39 0 -60 -2t-46 -11t-37 -27t-20 -50.5t-8 -81.5 z" />
<glyph horiz-adv-x="761" d="M59 950v88q0 84 55.5 135.5t155.5 51.5q265 0 265 2q2 53 0 55q0 54 -29.5 75.5t-89.5 21.5q-114 0 -332 -15v100q83 26 157.5 35.5t194.5 13.5q113 2 182.5 -51.5t69.5 -165.5v-522h-105l-46 98q-7 -7 -44.5 -30t-104.5 -49.5t-120 -26.5q-90 1 -149.5 51.5t-59.5 132.5 zM208 980q0 -77 85 -77q51 0 111.5 16.5t95.5 33.5l35 17v161l-244 -23q-43 -4 -63 -26t-20 -54v-48z" />
<glyph horiz-adv-x="817" d="M73 774v1073h152v-391q142 60 256 60q67 0 116 -21t78 -55t46 -85.5t22.5 -102.5t5.5 -116q0 -75 -12 -136t-40.5 -116.5t-83 -86.5t-132.5 -31q-67 0 -138 32t-117 66l-45 -90h-108zM226 965q8 -3 48.5 -19t55.5 -20t50.5 -10t74.5 -6q70 0 105.5 54t35.5 174 q0 74 -9 122t-28.5 72.5t-43.5 33.5t-61 9q-26 0 -48.5 -1t-36 -2t-36 -5.5t-29.5 -6t-37.5 -9t-40.5 -9.5v-377z" />
<glyph horiz-adv-x="737" d="M59 1137q0 91 13 158t35 108t57 65t73 32.5t88 8.5q148 0 338 -45v-106q-165 10 -300 10q-25 0 -38 -1t-32 -5t-28.5 -13t-21.5 -25.5t-17.5 -41.5t-9.5 -62.5t-4 -86.5q0 -136 33 -181.5t118 -45.5q62 0 139.5 3t123.5 7l47 3v-107q-83 -28 -157.5 -36.5t-190.5 -10.5 q-62 0 -106 14.5t-82.5 53t-58 114.5t-19.5 190z" />
<glyph horiz-adv-x="811" d="M59 1138q0 66 5.5 117t22 102.5t45 84.5t77.5 54t116 21q119 0 258 -59v392h149v-1076h-108l-43 90q-46 -34 -117.5 -66t-138.5 -32q-266 0 -266 372zM212 1140q0 -120 35.5 -175t105.5 -55q39 0 74 6t50.5 10.5t54.5 19.5t49 19v379q-8 2 -28.5 7t-26 6.5t-22 5 t-22.5 4.5t-20.5 3.5t-23.5 3t-23.5 1.5t-29 1.5t-32.5 0.5q-36 0 -60 -9t-43.5 -33.5t-28.5 -72.5t-9 -122z" />
<glyph horiz-adv-x="800" d="M59 1140q0 73 7 125t28 100.5t57.5 77.5t97.5 46.5t146 17.5q46 0 79.5 -2t71.5 -8t64 -17.5t51.5 -31t40.5 -47.5t24.5 -68.5t9.5 -91.5q0 -87 -56.5 -132t-161.5 -45h-306q0 -98 29 -128.5t121 -30.5h64.5h65t56.5 0.5t60 1.5t53.5 3.5t58.5 6.5v-106 q-152 -46 -391 -46q-98 0 -155 32.5t-86 115t-29 227.5zM212 1200h284q87 0 87 56q0 70 -36 91t-148 21q-104 0 -146 -34.5t-41 -133.5z" />
<glyph horiz-adv-x="663" d="M50 1364v113l145 19v136q0 217 208 217q95 0 211 -35v-101l-171 4q-34 1 -54 -6t-28.5 -24.5t-10.5 -32.5t-2 -45v-106h206v-139h-210v-590h-152v590h-142z" />
<glyph horiz-adv-x="854" d="M61 598v88l63 83q-61 38 -61 128q0 26 8 51.5t30.5 48t55.5 26.5q-50 26 -71 86t-21 128q0 131 67.5 197.5t184.5 66.5h479v-90l-99 -44q13 -16 26 -59t13 -82q0 -35 -7 -70t-25 -72.5t-45 -65.5t-72.5 -46t-102.5 -18h-220q-53 0 -53 -40q0 -25 12.5 -33t40.5 -12 l287 -32q97 -11 151.5 -67.5t54.5 -147.5v-16q0 -223 -215 -223h-250q-105 0 -168 54t-63 161zM212 623q0 -34 8.5 -55.5t26.5 -31t34 -12t41 -2.5h190q53 0 74.5 21t21.5 69v10q0 43 -28.5 63t-84.5 27l-225 27l-58 6v-122zM220 1236q-4 -145 127 -145h118q118 0 118 146 q0 57 -30 93t-88 36h-112q-72 0 -101.5 -33.5t-31.5 -96.5z" />
<glyph horiz-adv-x="825" d="M73 774v1071h152v-438q11 6 48 29.5t53.5 31.5t48 22.5t62 19.5t66.5 5q121 0 185 -69t64 -171v-501h-153v479q0 59 -35 89.5t-89 30.5q-49 0 -90 -9t-68.5 -20t-91.5 -40v-530h-152z" />
<glyph horiz-adv-x="309" d="M65 1622v101q0 39 37 39h104q35 0 35 -39v-101q0 -35 -35 -35h-104q-37 0 -37 35zM74 774v729h153v-729h-153z" />
<glyph horiz-adv-x="313" d="M67 1629v102q0 39 37 39h104q35 0 35 -39v-102q0 -36 -35 -36h-104q-37 0 -37 36zM75 401v1100h156v-733q4 -212 -44 -367h-112z" />
<glyph horiz-adv-x="806" d="M73 774v1067h152v-598h50l278 252h203l-349 -316l346 -405h-188l-278 335h-62v-335h-152z" />
<glyph horiz-adv-x="475" d="M71 1032v811h153v-786q0 -82 15.5 -110.5t61.5 -40.5q111 -29 121 -29v-103h-147q-110 0 -157 57.5t-47 200.5z" />
<glyph horiz-adv-x="1359" d="M73 774v725h112l39 -97q12 7 41 25.5t42 26t39 20.5t45 18.5t46 10.5t56 5q76 0 136 -31.5t85 -85.5q143 117 321 117q110 0 181 -67t71 -172v-495h-153v473q0 54 -35 87t-87 33q-77 0 -133 -15t-124 -54v-46v-478h-153v473q0 54 -36.5 87t-88.5 33q-49 0 -91.5 -9.5 t-68.5 -20t-92 -40.5v-523h-152z" />
<glyph horiz-adv-x="815" d="M59 1126q0 196 77 287.5t270 91.5q189 0 264.5 -91t75.5 -288q0 -183 -75.5 -270.5t-264.5 -87.5q-192 0 -269.5 87.5t-77.5 270.5zM212 1127q0 -71 11.5 -115.5t38.5 -66.5t59 -29t85 -7q35 0 57.5 2.5t46 9.5t37 22t25 38.5t16.5 59.5t5 86q0 77 -10 123.5t-34.5 71.5 t-57.5 33.5t-89 8.5q-73 0 -112 -18t-58.5 -69.5t-19.5 -149.5z" />
<glyph horiz-adv-x="811" d="M73 396v1108h108l39 -88q38 31 118.5 64.5t145.5 33.5q59 0 105 -21.5t75 -57t47.5 -85t25.5 -101t7 -110.5q0 -64 -6 -116t-23.5 -103.5t-45.5 -86.5t-75 -56.5t-110 -21.5q-54 0 -128.5 15.5t-135.5 43.5v-418h-147zM220 927q121 -33 236 -33q46 0 73 17t44.5 72 t17.5 154q0 233 -135 233q-47 0 -93 -9.5t-72 -19t-71 -28.5v-386z" />
<glyph horiz-adv-x="817" d="M59 1139q0 182 72.5 278.5t215.5 96.5q57 0 123.5 -5t102 -9.5t100 -14t65.5 -9.5v-1080h-153v416q-128 -61 -239 -61q-68 0 -119.5 21.5t-83 56.5t-51 86.5t-26.5 105t-7 118.5zM212 1140q0 -29 0.5 -42t2 -41.5t5.5 -43.5t11 -37.5t19 -35t28 -25.5t39.5 -18.5 t52.5 -5.5q26 0 44.5 1t30.5 1.5t30 4t27 5.5t37 9.5t46 11.5v451h-215q-43 0 -74 -17.5t-47 -40.5t-25 -59t-10.5 -60.5t-1.5 -57.5z" />
<glyph horiz-adv-x="671" d="M73 774v725h118l33 -104q7 5 34.5 23t37 23.5t34 19.5t39 19.5t37.5 13t44.5 10.5t45.5 3q78 0 107 -12v-147q-44 7 -113 7q-76 0 -129.5 -16.5t-135.5 -59.5v-505h-152z" />
<glyph horiz-adv-x="768" d="M59 1260v70q0 91 45.5 139t149.5 48q69 0 208.5 -10.5t196.5 -20.5v-111h-371q-28 0 -45 -4.5t-24.5 -15t-9 -20t-1.5 -28.5v-43q0 -22 5.5 -35.5t18.5 -19t24 -7t33 -1.5h228q91 0 137.5 -51.5t46.5 -135.5v-77q0 -183 -182 -183q-64 0 -226.5 13.5t-198.5 23.5v107h388 h4q4 -1 8.5 -1.5t11 0t13 2t12.5 6t10.5 11t7.5 18t3 25.5v45q0 33 -15 47.5t-55 14.5h-227q-101 0 -148.5 44.5t-47.5 149.5z" />
<glyph horiz-adv-x="624" d="M52 1365v105l144 27l34 208h119v-201h213v-139h-213v-313q0 -63 7 -90.5t20.5 -37t49.5 -17.5q106 -25 109 -25v-106h-136q-108 0 -155.5 57.5t-47.5 196.5v335h-144z" />
<glyph horiz-adv-x="813" d="M69 1010v489h153v-480q0 -55 34.5 -86.5t86.5 -31.5q48 0 86.5 8.5t62 18t89.5 39.5v532h153v-725h-107l-46 93q-14 -9 -47.5 -31.5t-48.5 -31t-43.5 -22t-57.5 -18t-65 -4.5q-120 0 -185 73.5t-65 176.5z" />
<glyph horiz-adv-x="856" d="M48 1499h164l219 -519l213 519h162l-309 -725h-135z" />
<glyph horiz-adv-x="1249" d="M48 1499h164l219 -519l209 519h159l-98 -232l124 -287l210 519h163l-308 -725h-132l-135 301l-128 -301h-133z" />
<glyph horiz-adv-x="833" d="M50 774l281 367l-281 358h178l190 -243l179 243h182l-274 -359l277 -366h-178l-185 255l-190 -255h-179z" />
<glyph horiz-adv-x="897" d="M48 1501h159l199 -533q22 -58 68 -58l209 591h163l-332 -961l-120 -139h-109l140 369q-55 3 -95.5 45.5t-61.5 101.5z" />
<glyph horiz-adv-x="765" d="M59 1358v141h637v-131l-409 -451h407v-141h-613v141l410 441h-432z" />
<glyph horiz-adv-x="1265" d="M111 341v814q0 165 100 254.5t259 89.5h336q93 0 162.5 -27t109.5 -75.5t59 -108t19 -130.5v-817q0 -176 -92.5 -258.5t-257.5 -82.5h-336q-77 0 -140 19t-113 58.5t-78 107t-28 156.5zM300 354q0 -92 54.5 -132t133.5 -40h298q181 0 181 171v793q0 171 -178 171h-304 q-96 0 -140.5 -48.5t-44.5 -122.5v-792z" />
<glyph horiz-adv-x="1251" d="M248 1191v130l353 178h190v-1323h323v-176h-852v176h339v1120z" />
<glyph horiz-adv-x="1259" d="M107 1335v141q319 44 623 44q87 0 159 -24.5t120 -66.5t81 -99t48 -119.5t15 -130.5q0 -79 -31 -165.5t-79 -162t-115.5 -155t-129.5 -139.5t-133 -120.5t-114 -93.5t-84 -62h686v-182h-1032v170q55 37 115 80t145.5 109.5t162 132.5t155.5 146t135.5 153t92.5 150.5 t36 141.5q0 116 -63.5 184t-196.5 68h-596z" />
<glyph horiz-adv-x="1259" d="M126 1321v125q84 29 196.5 43.5t222 14.5t236.5 -1q165 -3 259.5 -98t94.5 -246v-132q0 -111 -37 -183t-104 -99q141 -79 141 -298v-111q0 -350 -370 -350h-75h-79t-70 0.5t-75.5 2.5t-66 4.5t-71.5 7t-62.5 10t-67.5 14t-59 18.5v127h586q51 0 84.5 5.5t67 22.5t50 54 t16.5 95v105q0 193 -206 200l-471 15v149l471 21q210 9 210 187v123q0 90 -60.5 132t-149.5 42h-611z" />
<glyph horiz-adv-x="1275" d="M54 459l625 1040h217l-560 -941h524v402l71 154h118v-556h175v-148l-175 -42v-364h-189v364h-737z" />
<glyph horiz-adv-x="1263" d="M146 41v143h610q50 0 85.5 15.5t54.5 42.5t27 56.5t8 63.5v202q0 27 -1.5 45.5t-11 46t-26.5 44.5t-51 30t-82 13h-281q-65 0 -111 -35.5t-46 -108.5h-172l45 900h877v-182h-700l-22 -453q41 45 145 57q45 6 101 6.5t115 -2t72 -2.5q173 -2 255 -96t82 -254v-227 q0 -81 -23 -144.5t-59 -102t-84 -63.5t-92.5 -34.5t-89.5 -9.5q-208 0 -320 8t-305 41z" />
<glyph horiz-adv-x="1261" d="M117 786q0 157 20.5 282.5t54 206t79.5 134.5t95 77t103 24q300 7 628 -40v-141h-571q-53 0 -94 -35t-63.5 -86.5t-37.5 -121.5t-20 -126.5t-6 -116.5q297 43 505 43q102 0 171 -25t103.5 -72t48 -99t13.5 -122v-256q0 -314 -339 -314h-302q-73 1 -128 20.5t-106 72 t-83.5 139.5t-51.5 227t-19 329zM305 707q0 -51 1 -91.5t6 -98t14 -101t26 -90t39.5 -77t57.5 -50t79 -19.5h265q84 0 125 30.5t41 124.5v224q0 83 -44 115.5t-121 32.5h-489z" />
<glyph horiz-adv-x="1263" d="M128 1317v182h947l62 -107l-532 -1392h-217l510 1317h-770z" />
<glyph horiz-adv-x="1265" d="M130 323v187q0 99 47 149.5t124 72.5q-48 18 -83 50t-53.5 72.5t-26.5 81.5t-8 86v133q0 101 27 171.5t78 109.5t115 56t147 17h302q171 0 254.5 -84t83.5 -270v-127q1 -24 -3.5 -54t-18 -70t-47.5 -71.5t-85 -41.5q41 -7 72.5 -38.5t48.5 -73t25.5 -83t7.5 -77.5v-194 q0 -79 -22.5 -139.5t-56 -94.5t-81 -55.5t-90.5 -28.5t-90 -7h-300q-74 0 -133 13.5t-96.5 34t-65 51.5t-41 58t-21 62.5t-9 56.5t-1.5 47zM318 327q0 -74 45.5 -111t146.5 -37h269q71 0 120 38t49 110v195q0 76 -46 116t-117 40h-294q-77 0 -125 -37t-48 -119v-195z M318 1012q0 -46 16.5 -79t44 -49.5t55.5 -24t57 -7.5h293q164 0 164 160v127q0 105 -40.5 148t-126.5 43h-271q-51 0 -82 -6t-58.5 -25t-39.5 -58t-12 -102v-127z" />
<glyph horiz-adv-x="1261" d="M117 940v256q0 314 339 314h301q73 -1 128.5 -20.5t106 -72.5t83.5 -140t52 -227t19 -329q0 -157 -20.5 -282.5t-54 -206t-80 -134t-95.5 -76.5t-103 -24q-364 -9 -627 39v142h570q53 0 94 35t63.5 86.5t37.5 121.5t20 126.5t6 116.5q-297 -43 -504 -43q-102 0 -171 25 t-103.5 72t-48 99t-13.5 122zM303 949q0 -83 44 -115.5t121 -32.5h489q0 51 -1 91.5t-6 98t-14 101t-26 90t-39.5 77t-57.5 50t-79 19.5h-264q-84 0 -125.5 -31t-41.5 -125v-223z" />
<glyph horiz-adv-x="1265" d="M111 341v608q0 165 100 254.5t259 89.5h336q182 0 266 -93.5t84 -247.5v-611q0 -176 -92.5 -258.5t-257.5 -82.5h-336q-77 0 -140 19t-113 58.5t-78 107t-28 156.5zM300 354q0 -92 54.5 -132t133.5 -40h298q181 0 181 171v587q0 171 -178 171h-304q-96 0 -140.5 -48.5 t-44.5 -122.5v-586z" />
<glyph horiz-adv-x="1255" d="M269 991v130l329 173h188v-1118h307v-176h-817v176h321v915z" />
<glyph horiz-adv-x="1257" d="M107 1125v139q175 27 314.5 38.5t306.5 5.5q214 0 319 -101t105 -286q0 -70 -31 -145t-80 -139.5t-114 -129.5t-128 -115t-129 -95.5t-109 -71.5t-74 -43h656v-182h-1023v170q59 33 95 53.5t110 64t124.5 76t122.5 82.5t121 91t104 92.5t87.5 97t54.5 95.5t22 95 q0 109 -62 160.5t-198 47.5h-594z" />
<glyph horiz-adv-x="1259" d="M126 1125v125q84 29 196.5 43.5t222 14.5t236.5 -1q165 -3 259.5 -98t94.5 -246v-132q0 -111 -37 -183t-104 -99q141 -79 141 -298v-111q0 -172 -92 -261.5t-278 -89.5q-281 0 -381 9q-142 13 -245 49v127h586q40 0 68 2.5t58.5 13t49 29t30.5 51.5t12 80v106 q0 193 -206 200l-471 14v150l471 20q210 9 210 188v123q0 90 -60.5 132t-149.5 42h-611z" />
<glyph horiz-adv-x="1275" d="M54 254l625 1040h217l-560 -941h524v402l71 154h118v-556h175v-148l-175 -42v-364h-189v364h-737z" />
<glyph horiz-adv-x="1263" d="M166 -20h610q50 0 85.5 15.5t54.5 42.5t27 56.5t8 63.5v201q0 27 -1.5 45.5t-11 46.5t-26 45t-50.5 30t-82 13h-282q-65 0 -110.5 -36t-45.5 -109h-172l45 900h877v-182h-701l-22 -453q43 47 149 59q45 6 100.5 6t112 -3t71.5 -3q173 -2 255.5 -96t82.5 -253v-228 q0 -81 -23 -144.5t-59 -102t-84 -63.5t-92.5 -34.5t-89.5 -9.5q-208 0 -320.5 8t-305.5 41v144z" />
<glyph horiz-adv-x="1261" d="M117 786q0 157 20.5 282.5t54 206t79.5 134.5t95 77t103 24q300 7 628 -40v-141h-571q-53 0 -94 -35t-63.5 -86.5t-37.5 -121.5t-20 -126.5t-6 -116.5q297 43 505 43q102 0 171 -25t103.5 -72t48 -99t13.5 -122v-256q0 -314 -339 -314h-302q-73 1 -128 20.5t-106 72 t-83.5 139.5t-51.5 227t-19 329zM305 707q0 -51 1 -91.5t6 -98t14 -101t26 -90t39.5 -77t57.5 -50t79 -19.5h265q84 0 125 30.5t41 124.5v224q0 83 -44 115.5t-121 32.5h-489z" />
<glyph horiz-adv-x="1263" d="M128 1112v182h947l62 -107l-532 -1392h-217l510 1317h-770z" />
<glyph horiz-adv-x="1265" d="M130 323v187q0 99 47 149.5t124 72.5q-48 18 -83 50t-53.5 72.5t-26.5 81.5t-8 86v133q0 101 27 171.5t78 109.5t115 56t147 17h302q171 0 254.5 -84t83.5 -270v-127q1 -24 -3.5 -54t-18 -70t-47.5 -71.5t-85 -41.5q41 -7 72.5 -38.5t48.5 -73t25.5 -83t7.5 -77.5v-194 q0 -79 -22.5 -139.5t-56 -94.5t-81 -55.5t-90.5 -28.5t-90 -7h-300q-74 0 -133 13.5t-96.5 34t-65 51.5t-41 58t-21 62.5t-9 56.5t-1.5 47zM318 327q0 -74 45.5 -111t146.5 -37h269q71 0 120 38t49 110v195q0 76 -46 116t-117 40h-294q-77 0 -125 -37t-48 -119v-195z M318 1012q0 -46 16.5 -79t44 -49.5t55.5 -24t57 -7.5h293q164 0 164 160v127q0 105 -40.5 148t-126.5 43h-271q-51 0 -82 -6t-58.5 -25t-39.5 -58t-12 -102v-127z" />
<glyph horiz-adv-x="1261" d="M117 724v256q0 315 339 315h301q73 -1 128.5 -20.5t106 -72.5t83.5 -140t52 -227t19 -329q0 -157 -20.5 -282.5t-54 -206t-80 -134t-95.5 -76.5t-103 -24q-372 -9 -627 39v141h570q53 0 94 35.5t63.5 86.5t37.5 121.5t20 127t6 116.5q-297 -43 -504 -43q-69 0 -123 11.5 t-90 33.5t-60.5 50t-38 65t-19 74.5t-5.5 82.5zM303 733q0 -83 44 -115t121 -32h489q0 51 -1 91.5t-6 98t-14 100.5t-26 90t-39.5 77t-57.5 49.5t-79 19.5h-264q-41 0 -68.5 -5.5t-51.5 -21t-35.5 -47.5t-11.5 -81v-224z" />
<glyph horiz-adv-x="1136" d="M96 554q0 266 96 407t286 141q45 0 92 -2t95.5 -6t85 -7.5t86 -10t71 -9t66.5 -9.5t48 -7v-1239q0 -94 -30.5 -169.5t-80.5 -120t-112.5 -65.5t-129.5 -14l-519 49v125h510q83 0 128.5 49t45.5 146v252q-84 -38 -182.5 -59t-173.5 -21q-92 0 -160 28t-110 76t-67.5 122 t-35 155.5t-9.5 188.5zM284 544q0 -53 0.5 -80.5t4.5 -75.5t11.5 -74.5t22.5 -61t37 -52.5t55.5 -31t77.5 -13q101 0 165 9.5t176 40.5v726h-340q-42 0 -75.5 -15t-55.5 -37t-37.5 -56.5t-23.5 -65t-12 -72.5t-5 -68t-1 -62v-12zM364 1451h103q0 -56 39.5 -93.5t91.5 -37.5 q60 0 97.5 35.5t37.5 95.5h102q0 -109 -70.5 -171t-166.5 -62q-93 0 -163.5 64t-70.5 169z" />
<glyph horiz-adv-x="1136" d="M96 554q0 266 96 407t286 141q45 0 92 -2t95.5 -6t85 -7.5t86 -10t71 -9t66.5 -9.5t48 -7v-1239q0 -94 -30.5 -169.5t-80.5 -120t-112.5 -65.5t-129.5 -14l-519 49v125h510q83 0 128.5 49t45.5 146v252q-84 -38 -182.5 -59t-173.5 -21q-92 0 -160 28t-110 76t-67.5 122 t-35 155.5t-9.5 188.5zM284 544q0 -53 0.5 -80.5t4.5 -75.5t11.5 -74.5t22.5 -61t37 -52.5t55.5 -31t77.5 -13q101 0 165 9.5t176 40.5v726h-340q-42 0 -75.5 -15t-55.5 -37t-37.5 -56.5t-23.5 -65t-12 -72.5t-5 -68t-1 -62v-12zM493 1268v123q0 51 49 51h115q23 0 35 -14 t12 -37v-123q0 -47 -47 -47h-115q-22 0 -35.5 12.5t-13.5 34.5z" />
<glyph horiz-adv-x="1136" d="M96 554q0 266 96 407t286 141q45 0 92 -2t95.5 -6t85 -7.5t86 -10t71 -9t66.5 -9.5t48 -7v-1239q0 -94 -30.5 -169.5t-80.5 -120t-112.5 -65.5t-129.5 -14l-519 49v125h510q83 0 128.5 49t45.5 146v252q-84 -38 -182.5 -59t-173.5 -21q-92 0 -160 28t-110 76t-67.5 122 t-35 155.5t-9.5 188.5zM284 544q0 -53 0.5 -80.5t4.5 -75.5t11.5 -74.5t22.5 -61t37 -52.5t55.5 -31t77.5 -13q101 0 165 9.5t176 40.5v726h-340q-42 0 -75.5 -15t-55.5 -37t-37.5 -56.5t-23.5 -65t-12 -72.5t-5 -68t-1 -62v-12zM306 1218l234 269h164l209 -269h-158 l-138 139l-151 -139h-160z" />
<glyph horiz-adv-x="1755" d="M76 535q0 139 18 240t48.5 161.5t78.5 96t98.5 47.5t118.5 12l794 -1l40 301h149v-303h297v-173h-297v-515q0 -59 4 -97t11 -61.5t23 -37.5t31 -20.5t45 -13.5q147 -38 151 -38v-132h-182q-145 0 -208.5 88t-63.5 300v527l-760 -1q-32 0 -51 -2t-43.5 -9.5t-39 -23 t-30.5 -43.5t-24 -69.5t-13.5 -102t-5.5 -139.5q0 -115 11 -186.5t37 -111.5t62.5 -54.5t94.5 -14.5q84 0 198 5.5t186 10.5l73 5v-132q-116 -35 -227 -47.5t-264 -14.5q-56 0 -98 8t-85.5 28.5t-73.5 59.5t-54.5 98.5t-36.5 148.5t-12 206z" />
<glyph horiz-adv-x="1519" d="M38 920v127l196 43l40 303h148v-303h575l40 303h149v-303h297v-170h-297v-519q1 -59 5.5 -96.5t10.5 -61t22 -37.5t31 -20.5t45 -14.5q147 -37 151 -37v-133h-182q-145 0 -208.5 88t-63.5 300v531h-575v-519q1 -59 5.5 -96.5t10.5 -61t22 -37.5t31 -20.5t45 -14.5 q147 -37 151 -37v-133h-182q-145 0 -208 88t-63 300v531h-196z" />
<glyph horiz-adv-x="1564" d="M38 918v135l195 34v203q0 47 4 84.5t20.5 84t44 77.5t79 52.5t122.5 21.5q135 0 284 -49v-120l-237 2q-37 1 -62 -8t-38.5 -21t-20 -38t-7.5 -45.5t-1 -58.5v-182h621l40 303h149v-303h297v-170h-297v-519q1 -59 5 -96.5t10.5 -61t22.5 -37.5t30.5 -20.5t44.5 -14.5 q147 -37 151 -37v-133h-182q-145 0 -208 88t-63 300v531h-624v-920h-189v918h-191z" />
<glyph horiz-adv-x="1947" d="M38 920v127l196 43l40 303h148v-303h312q72 0 123.5 -9t86 -24.5t60.5 -46.5t42 -65t35 -90l210 -593q10 -31 30.5 -50t40 -23.5t36.5 -7t20 0.5h1l286 905h207l-450 -1431l-156 -209h-131l196 553q-34 0 -67.5 9.5t-72.5 33.5t-75 74t-60 122l-197 551q-23 70 -63 100 t-125 30h-289v-519q1 -96 13 -142t32.5 -61t68.5 -27q147 -37 151 -37v-133h-182q-145 0 -208 88t-63 300v531h-196z" />
<glyph horiz-adv-x="1996" d="M38 918v135l195 34v203q0 47 4 84.5t20.5 84t44 77.5t79 52.5t122.5 21.5q29 0 55.5 -3t63 -12.5t49.5 -13t62.5 -20.5t53.5 -18v-119l-237 19q-27 2 -47.5 -1t-34 -9.5t-22.5 -20.5t-14 -25.5t-7.5 -34t-3 -37.5t-0.5 -43v-185h344q91 0 149 -11.5t97.5 -42.5t62 -70 t47.5 -108l218 -591q10 -31 30.5 -50t40 -23.5t36.5 -7t20 0.5h1l284 905h207l-450 -1431l-155 -209h-132l196 553q-34 0 -67.5 9.5t-73 33.5t-74.5 74t-59 122l-204 549q-24 69 -67 98.5t-129 29.5h-325v-918h-189v918h-191z" />
<glyph horiz-adv-x="1136" d="M96 554q0 266 96 407t286 141q45 0 92 -2t95.5 -6t85 -7.5t86 -10t71 -9t66.5 -9.5t48 -7v-1239q0 -94 -30.5 -169.5t-80.5 -120t-112.5 -65.5t-129.5 -14l-519 49v125h510q83 0 128.5 49t45.5 146v252q-84 -38 -182.5 -59t-173.5 -21q-92 0 -160 28t-110 76t-67.5 122 t-35 155.5t-9.5 188.5zM284 544q0 -53 0.5 -80.5t4.5 -75.5t11.5 -74.5t22.5 -61t37 -52.5t55.5 -31t77.5 -13q101 0 165 9.5t176 40.5v726h-340q-42 0 -75.5 -15t-55.5 -37t-37.5 -56.5t-23.5 -65t-12 -72.5t-5 -68t-1 -62v-12zM491 1264v183q0 51 20 84.5t48 45t56 15 t48 0.5l20 -3v-68q-25 1 -39 -9.5t-16 -20.5t-2 -24v-41h20q20 0 33 -12t13 -34v-116q0 -50 -46 -50h-111q-44 0 -44 50z" />
<glyph horiz-adv-x="552" d="M159 47v135q0 51 49 51h131q23 0 35 -14t12 -37v-135q0 -47 -47 -47h-131q-22 0 -35.5 12.5t-13.5 34.5zM167 1167h211l-18 -816h-176z" />
<glyph horiz-adv-x="811" d="M163 1147v137h185v-137l-20 -274h-142zM465 1147v137h185v-137l-20 -274h-143z" />
<glyph horiz-adv-x="1181" d="M38 343l20 130h251l40 228h-254l18 129h256l58 344h131l-58 -344h238l57 344h131l-57 -344h277l-18 -129h-279l-38 -228l279 -1l-19 -129h-281l-58 -345h-131l57 345h-237l-59 -345h-131l57 345h-250zM441 473h239l36 228h-236z" />
<glyph horiz-adv-x="1036" d="M96 787v66q0 94 28 159.5t79.5 100t109.5 49t132 15.5v139h145v-144q47 -4 304 -34v-141q-397 2 -432 2q-41 0 -69.5 -5t-55 -19.5t-40 -45.5t-13.5 -78v-58q0 -125 161 -125h176q80 0 143 -27t99.5 -71.5t55 -96.5t18.5 -107v-75q0 -66 -19 -119.5t-51.5 -89t-77 -58.5 t-94.5 -32t-105 -7v-133h-145v141q-32 3 -110.5 10t-131 12.5t-69.5 8.5v139h453q27 0 52 5.5t51 18.5t41.5 40t15.5 65v71q0 60 -40 95.5t-107 35.5h-174q-89 0 -154.5 22.5t-103 63.5t-55 92.5t-17.5 114.5z" />
<glyph horiz-adv-x="1726" d="M55 766v142q0 136 59 197.5t209 61.5h109q146 0 204.5 -62t58.5 -197v-142q0 -136 -58.5 -197.5t-208.5 -61.5h-109q-146 0 -205 62t-59 197zM207 775q0 -69 25 -93t94 -24h94q79 0 101.5 24.5t22.5 92.5v124q0 70 -25.5 93.5t-94.5 23.5h-94q-78 0 -100.5 -23.5 t-22.5 -93.5v-124zM441 0l682 1167h162l-680 -1167h-164zM1031 258v143q0 136 59 197.5t209 61.5h109q146 0 204.5 -62t58.5 -197v-143q0 -136 -58.5 -197.5t-208.5 -61.5h-109q-146 0 -205 62t-59 197zM1183 267q0 -69 25 -92.5t94 -23.5h94q79 0 101.5 24t22.5 92v125 q0 70 -25 93t-94 23h-95q-78 0 -100.5 -23t-22.5 -93v-125z" />
<glyph horiz-adv-x="1175" d="M65.5 376.5q19.5 120.5 138.5 218.5l140 116l-83 102q-67 89 -62.5 164.5t52.5 127t114 61.5q211 31 487 -33v-133h-352q-168 0 -55 -137l335 -408l178 153l65 -71l-88 -172l-48 -48l244 -317h-215l-161 199l-133 -130q-63 -58 -150 -77t-180.5 14.5t-155.5 122.5 q-90 127 -70.5 247.5zM246.5 330.5q2.5 -30.5 12 -54.5t25.5 -44q24 -30 59 -49.5t84 -16.5t90 44l130 126l-190 234l-137 -109q-39 -31 -57.5 -65.5t-16 -65z" />
<glyph horiz-adv-x="509" d="M163 1147v137h185v-137l-20 -274h-143z" />
<glyph horiz-adv-x="890" d="M96 831v91l284 56l9 -157zM227 521l51 277l154 -37l-120 -267zM355 1142l88 34l149 -244l-145 -62zM416 641l87 134l227 -187l-50 -73zM508 843l243 155l48 -78l-190 -199z" />
<glyph horiz-adv-x="1185" d="M134 332v504q0 110 48 186.5t125.5 110.5t178.5 34h225q90 0 156.5 -26t100.5 -61.5t54.5 -85.5t25.5 -85t5 -73v-504q0 -332 -342 -332h-225q-73 0 -134 18t-111 55.5t-78.5 103.5t-28.5 155zM322 348q0 -89 51.5 -127.5t129.5 -38.5h191q171 0 171 167v467 q0 77 -37.5 123t-134.5 46h-190q-181 0 -181 -168v-469z" />
<glyph horiz-adv-x="696" d="M76 868v130l281 173h188v-1171h-189v968z" />
<glyph horiz-adv-x="1048" d="M76 988v133q58 8 147.5 24t152.5 21.5t172 5.5q406 0 406 -389q0 -66 -22 -131t-56 -117.5t-82.5 -103t-94.5 -87.5t-98.5 -71.5t-88 -54t-69.5 -36.5h503v-182h-857v170q42 31 119 77t145 85t145 93.5t131.5 106t91 117t36.5 132.5q0 109 -56 160.5t-190 47.5z" />
<glyph horiz-adv-x="1042" d="M57 993v135q158 55 566 46q128 -3 203 -89.5t75 -205.5v-67q0 -90 -27.5 -151t-79.5 -79q107 -62 107 -243v-50q0 -138 -71.5 -218t-217.5 -81q-99 0 -191 -0.5t-190 10t-163 33.5v137h480q33 0 58 4.5t50.5 17.5t39 40.5t13.5 68.5v47q0 80 -41 110.5t-112 32.5l-390 10 v160l390 8q82 2 119.5 30.5t37.5 106.5v60q0 68 -39 97.5t-117 29.5h-500z" />
<glyph horiz-adv-x="1118" d="M38 368l446 799h215l-387 -706h409v313l76 160h113v-473h172v-149l-172 -39v-269h-189v269h-609z" />
<glyph horiz-adv-x="1103" d="M146 47v140h502q89 0 122 35.5t33 104.5v105q0 22 -0.5 32t-4.5 29t-13.5 28.5t-26 20.5t-44 16t-65.5 5h-189q-60 0 -100.5 -33.5t-40.5 -104.5h-171l34 742h756v-182h-579l-16 -317q56 66 134 66h188q174 0 250 -77t76 -223v-123q0 -85 -26 -147t-72.5 -97 t-102.5 -51.5t-125 -17.5q-174 -2 -287.5 7t-231.5 42z" />
<glyph horiz-adv-x="1118" d="M125 614q0 109 13.5 198t38.5 149t55.5 104t68 68t73.5 35t75 12q261 3 519 -31v-152h-500q-47 0 -80 -34t-48 -87.5t-21 -100t-6 -91.5q184 24 415 24q277 0 277 -261v-177q0 -138 -80 -205t-203 -67h-261q-60 0 -106.5 14t-91.5 54.5t-74 107.5t-46.5 178t-17.5 262z M313 537q0 -167 28 -246q39 -111 131 -111h232q57 0 85 21.5t28 86.5v158q0 54 -26.5 72.5t-86.5 18.5h-391z" />
<glyph horiz-adv-x="974" d="M57 985v182h798l63 -107l-406 -1060h-208l380 985h-627z" />
<glyph horiz-adv-x="1173" d="M143 266v144q0 42 11 71t36.5 46.5t40.5 24t50 17.5q-70 24 -104 90.5t-34 139.5v88q0 161 69.5 226t214.5 65h340q131 0 198 -70.5t67 -220.5v-88q0 -22 -3 -42.5t-12.5 -55t-36 -59.5t-66.5 -34q58 -11 88 -72.5t30 -125.5v-144q0 -61 -17 -108.5t-43.5 -76.5 t-62.5 -48t-70.5 -26t-71.5 -7h-343q-56 0 -101 10.5t-74 26t-50 40t-31.5 46.5t-16.5 51.5t-7 48t-1 43.5zM332 279q0 -57 28 -79t106 -22h260q118 0 118 100v118q0 111 -114 111h-281q-57 0 -87 -23.5t-30 -86.5v-118zM332 788q0 -110 117 -110h282q38 0 62.5 9t35 26.5 t13.5 33.5t3 40v86q0 77 -25 101.5t-91 24.5h-264q-29 0 -42.5 -0.5t-32.5 -4t-26.5 -11t-16.5 -21.5t-12 -36t-3 -53v-85z" />
<glyph horiz-adv-x="1118" d="M115 730v177q0 138 79.5 205.5t202.5 67.5h262q60 -1 107 -15t91.5 -54.5t74 -107.5t47 -178t17.5 -262q0 -130 -19.5 -231t-50.5 -162.5t-74.5 -101t-85.5 -54.5t-89 -16q-330 -4 -525 31v151h500q47 0 80 34t48 88t21 100.5t6 91.5q-179 -24 -416 -24q-79 0 -134.5 20 t-85.5 57t-43 81.5t-13 101.5zM303 732q0 -54 26.5 -72.5t86.5 -18.5h391v7q0 31 -0.5 50.5t-3.5 59.5t-8.5 68t-17.5 63t-28 56.5t-42.5 36.5t-59.5 15h-231q-57 0 -85 -21t-28 -86v-158z" />
<glyph horiz-adv-x="946" d="M38 990v150q103 14 155.5 20.5t143 12t172.5 1.5q173 0 268 -89.5t95 -242.5v-85q0 -154 -115 -234t-277 -53v-119h-175v273q133 -3 214 0q65 3 114.5 35t49.5 96v81q0 154 -186 154h-459zM279 47v135q0 51 49 51h127q51 0 51 -51v-135q0 -47 -51 -47h-127 q-22 0 -35.5 12.5t-13.5 34.5z" />
<glyph horiz-adv-x="1740" d="M125 92v688q0 27 2 52t10.5 62t23 68t42 64t65 56t94.5 37.5t128 14.5h428q50 0 93 -7.5t87 -28t75 -52.5t50.5 -85.5t19.5 -122.5v-753h-134l-31 128l-20 -15q-19 -15 -52.5 -36.5t-75.5 -43t-97 -36.5t-107 -15q-116 -2 -190 70.5t-72 178.5v102q0 128 71.5 202 t201.5 74h337q2 137 0 137q0 77 -38 103.5t-122 26.5h-424q-42 0 -72 -6t-59.5 -24t-45 -56.5t-15.5 -97.5v-679q0 -214 192 -214h706q120 0 165.5 51.5t45.5 162.5v1018q0 115 -57 175t-154 60h-828v117q286 58 599 56h229q174 -2 279 -104.5t105 -303.5v-1018 q0 -389 -381 -389h-709q-167 0 -266 97.5t-99 285.5zM640 335q0 -34 35 -65t82 -30q127 -2 317 104v228l-320 -30q-56 -6 -86 -39.5t-28 -85.5v-82z" />
<glyph horiz-adv-x="1218" d="M67 0l459 1167h204l423 -1167h-203l-111 291h-450l-119 -291h-203zM453 464h331l-158 449z" />
<glyph horiz-adv-x="1118" d="M153 0v1169h544q91 0 158 -26.5t103.5 -73t53 -99t16.5 -114.5q0 -109 -34.5 -169.5t-102.5 -90.5q60 -22 101.5 -88.5t41.5 -175.5q0 -155 -77.5 -243.5t-259.5 -88.5h-544zM342 178h349q30 0 52.5 5t47.5 20.5t39 50.5t14 88q0 85 -34.5 132t-118.5 47q-286 -3 -349 0 v-343zM342 688h349q86 0 117 35.5t31 123.5q0 146 -148 146h-349v-305z" />
<glyph horiz-adv-x="1060" d="M105 604q0 100 10.5 180t39 157t75 128.5t123.5 83t179 31.5q87 0 235.5 -16.5t227.5 -38.5v-142q-26 5 -189 14.5t-255 9.5q-62 0 -107 -18.5t-74 -51.5t-46 -85t-23.5 -112t-6.5 -140q0 -54 2 -94.5t8 -88.5t17 -82.5t30 -68.5t45.5 -55.5t66 -35t88.5 -14.5 q68 1 179 7t188 11l77 5v-138q-230 -58 -463 -58q-79 0 -143 19t-107.5 50.5t-76.5 79.5t-51.5 98t-30 115.5t-15 122.5t-3.5 127z" />
<glyph horiz-adv-x="1224" d="M153 0v1171h518q105 -1 186 -38.5t129.5 -95.5t79.5 -137.5t42.5 -157t11.5 -162.5q0 -94 -11.5 -172.5t-29 -134.5t-46.5 -101t-55.5 -73t-64.5 -48t-65 -29.5t-66.5 -15t-58.5 -6t-51 -0.5h-1h-518zM342 179h321q64 0 112 22t77 58t47.5 89t25 108.5t6.5 123.5 q0 210 -72 311t-196 101h-321v-813z" />
<glyph horiz-adv-x="1054" d="M153 182v791q0 96 60 145.5t165 50.5q562 -21 591 -26v-151h-562q-43 0 -54 -13.5t-11 -53.5v-252l561 -16v-149l-561 -15v-252q0 -41 18 -53.5t55 -12.5h554v-149q-16 -4 -174 -11.5t-308 -12.5l-150 -6q-84 1 -134 50t-50 136z" />
<glyph horiz-adv-x="1054" d="M153 0v973q0 96 59.5 145.5t165.5 50.5q562 -21 591 -26v-151h-562q-22 0 -35 -3.5t-19 -14t-8 -19.5t-3 -30v-263l561 -16v-150l-561 -14v-482h-189z" />
<glyph horiz-adv-x="1177" d="M105 586q0 119 11.5 207.5t40.5 165t77.5 124.5t123.5 75t177 28q82 2 251 -14.5t258 -36.5v-149q-262 27 -478 27q-105 0 -161 -32.5t-83.5 -124t-27.5 -266.5q0 -43 4 -84.5t13 -92t28.5 -92.5t46.5 -78t70.5 -56.5t97.5 -20.5q103 0 200 34.5t131 68.5v215h-322v116 q171 48 373 48q64 0 137 -6v-642h-142l-40 90q-147 -104 -359 -104q-86 0 -156 28.5t-113.5 71t-75.5 105t-47 115t-23.5 117.5t-10 96.5t-1.5 66.5z" />
<glyph horiz-adv-x="1218" d="M153 -2v1169h189v-513h575v513h188v-1169h-188v474h-575v-474h-189z" />
<glyph horiz-adv-x="454" d="M153 0v1167h189v-1167h-189z" />
<glyph horiz-adv-x="681" d="M67 43l7 141q99 -15 166.5 -11.5t103 48.5t37.5 141v805h188v-829q0 -231 -118 -300q-61 -36 -133.5 -45t-135.5 5t-115 45z" />
<glyph horiz-adv-x="1153" d="M153 -2v1169h185v-508h141l382 508h227l-444 -594l444 -575h-227l-386 485h-137v-485h-185z" />
<glyph horiz-adv-x="1019" d="M153 195v972h189v-917q-1 -45 19.5 -56.5t70.5 -11.5h522v-182h-606q-90 0 -142.5 50.5t-52.5 144.5z" />
<glyph horiz-adv-x="1519" d="M105 0l112 1169h237l310 -874l309 874h233l110 -1169h-184l-81 858l-297 -858h-175l-302 859l-89 -859h-183z" />
<glyph horiz-adv-x="1232" d="M153 0v1169h182l598 -823v823h187v-1169h-180l-598 832v-832h-189z" />
<glyph horiz-adv-x="1241" d="M105 573q0 149 21.5 255t61 174t105 107t142.5 54t185 15q91 0 155 -7.5t126.5 -29t102.5 -62t72 -105.5t46 -160.5t14 -225.5q0 -125 -14 -218.5t-44 -159.5t-70.5 -109t-101.5 -67.5t-128 -34t-158 -9.5q-66 0 -117 4t-102.5 15t-89 31t-72.5 50.5t-58.5 74t-41 102 t-26 135t-8.5 171.5zM294 584q0 -93 7.5 -160t26.5 -112.5t42.5 -73t64 -42.5t81.5 -19.5t104 -4.5q57 0 89 3t76.5 14.5t68.5 38.5t48.5 71.5t35 117t10.5 171.5q0 100 -8 170.5t-30.5 115t-43 69.5t-67 36.5t-79 13.5t-100.5 2h-6q-51 0 -76 -1t-65.5 -8.5t-61 -22.5 t-47.5 -44.5t-39 -73t-21.5 -109.5t-9.5 -152z" />
<glyph horiz-adv-x="1081" d="M115 0v1165h558q61 0 116 -19t103 -57.5t76.5 -107t28.5 -157.5q0 -75 -11.5 -135t-29 -99.5t-45 -68t-53 -43.5t-61 -24t-60.5 -11t-58 -2q-10 0 -191.5 13t-182.5 14v-468h-190zM305 611h358q25 0 42 2.5t38 13.5t34 31t22 57.5t9 89.5q3 90 -40.5 137t-104.5 47h-358 v-378z" />
<glyph horiz-adv-x="1241" d="M105 573q0 149 21.5 255t61 174t105 107t142.5 54t185 15q91 0 155 -7.5t126.5 -29t102.5 -62t72 -105.5t46 -160.5t14 -225.5q0 -125 -14 -218.5t-44 -159.5t-70.5 -109t-101.5 -67.5t-128 -34t-158 -9.5q-66 0 -117 4t-102.5 15t-89 31t-72.5 50.5t-58.5 74t-41 102 t-26 135t-8.5 171.5zM294 584q0 -93 7.5 -160t26.5 -112.5t42.5 -73t64 -42.5t81.5 -19.5t104 -4.5q57 0 89 3t76.5 14.5t68.5 38.5t48.5 71.5t35 117t10.5 171.5q0 100 -8 170.5t-30.5 115t-43 69.5t-67 36.5t-79 13.5t-100.5 2h-6q-51 0 -76 -1t-65.5 -8.5t-61 -22.5 t-47.5 -44.5t-39 -73t-21.5 -109.5t-9.5 -152zM564 -68h121q53 -45 112 -62t111.5 -11t117.5 28v-182q-49 -16 -107.5 -18t-117.5 12t-109 42.5t-85 78t-43 112.5z" />
<glyph d="M115 0v1169h553q46 0 88.5 -8t87.5 -31t78 -59t54 -98t21 -143q0 -99 -19.5 -174t-68.5 -128t-124 -62l265 -466h-208l-243 446q-42 2 -168.5 14.5t-127.5 14.5v-475h-188zM303 613h358q29 0 52 7.5t46 28t36 64.5t13 109q0 48 -14 83t-31 51.5t-41.5 25.5t-36 10 t-24.5 1h-358v-380z" />
<glyph horiz-adv-x="1118" d="M105 763v114q0 297 292 297q86 0 273 -13.5t289 -29.5v-141q-341 9 -547 9q-118 0 -118 -124v-106q0 -32 6.5 -53t14 -31.5t27 -15.5t30.5 -5.5t40 -0.5h330q137 0 205 -76t68 -202v-131q0 -82 -24.5 -139t-66.5 -84.5t-86 -39t-96 -11.5q-110 0 -325.5 13.5t-266.5 32.5 v137q372 -7 571 -7q22 0 41 10.5t30.5 25t19.5 29t11 25.5l3 10v126q0 52 -23 77t-82 25h-327q-152 0 -220.5 66t-68.5 213z" />
<glyph horiz-adv-x="1058" d="M67 985v182h926v-182h-369v-985h-188v985h-369z" />
<glyph horiz-adv-x="1247" d="M153 532v635h190v-635q-1 -115 15.5 -186t56.5 -109.5t93 -51.5t140 -13q60 0 102.5 8t81 31t61.5 62.5t36.5 104t13.5 154.5v635h191v-635q0 -100 -14.5 -180t-38.5 -136t-61 -97.5t-76.5 -65.5t-91 -38.5t-99 -19.5t-105.5 -5q-66 0 -115.5 4t-104 18t-93.5 37.5 t-75.5 64t-58.5 97t-35 137.5t-13 184z" />
<glyph horiz-adv-x="1226" d="M67 1167h203l350 -903l338 903h203l-438 -1167h-204z" />
<glyph horiz-adv-x="1740" d="M67 1167h203l319 -908l301 908h201l-127 -378l212 -530l307 908h193l-400 -1167h-204l-198 511l-176 -511h-211z" />
<glyph horiz-adv-x="1167" d="M67 0l400 584l-395 583h236l277 -421l280 421h239l-402 -583l395 -584h-229l-284 421l-286 -421h-231z" />
<glyph horiz-adv-x="1173" d="M67 1167h206l318 -575l311 575h205l-423 -775v-394h-189v394z" />
<glyph horiz-adv-x="1017" d="M67 0v182l638 803h-638v182h885v-182l-627 -803h627v-182h-885z" />
<glyph horiz-adv-x="495" d="M38 1363h210l210 -276h-154z" />
<glyph horiz-adv-x="1241" d="M67 0l459 1167h204l423 -1167h-203l-111 291h-450l-119 -291h-203zM453 464h331l-158 449zM852 -165.5q7 43.5 48 88.5t113 77h89q-81 -65 -105 -121t7.5 -87.5t106.5 -32.5v-132q-56 -9 -108 5.5t-88 44.5t-53 72t-10 85.5z" />
<glyph d="M115 0v1169h553q46 0 88.5 -8t87.5 -31t78 -59t54 -98t21 -143q0 -99 -19.5 -174t-68.5 -128t-124 -62l265 -466h-208l-243 446q-42 2 -168.5 14.5t-127.5 14.5v-475h-188zM303 613h358q29 0 52 7.5t46 28t36 64.5t13 109q0 48 -14 83t-31 51.5t-41.5 25.5t-36 10 t-24.5 1h-358v-380zM456 -194q0 50 46 50h111q44 0 44 -50v-182q0 -51 -20 -84.5t-48 -45t-56 -15t-48 -0.5l-20 3v67q58 -2 58 55v40h-21q-20 0 -33 12t-13 34v116z" />
<glyph horiz-adv-x="454" d="M-121 1382q48 43 79 67t76.5 45.5t87.5 21.5q55 -3 124 -36.5t95 -34.5q58 -2 187 75l46 -96q-6 -5 -28 -24t-32 -27t-31 -24t-35 -24t-33.5 -17t-38.5 -13t-37 -3q-59 3 -123 37t-99 33q-40 -1 -69 -10.5t-66 -30.5t-59 -31zM153 0v1167h189v-1167h-189z" />
<glyph horiz-adv-x="1019" d="M153 195v972h189v-917q-1 -45 19.5 -56.5t70.5 -11.5h522v-182h-606q-90 0 -142.5 50.5t-52.5 144.5zM474 -194q0 50 46 50h111q44 0 44 -50v-182q0 -51 -19.5 -84.5t-47.5 -45t-56.5 -15t-47.5 -0.5l-20 3v67q19 -1 31.5 4.5t17.5 15.5t6.5 17.5t1.5 17.5v40h-21 q-20 0 -33 12t-13 34v116z" />
<glyph horiz-adv-x="927" d="M96 1190q0 45 32 77t77 32t76 -32t31 -77t-31 -77t-76 -32t-77 32t-32 77zM618 1190q0 45 32 77t77 32t76 -32t31 -77t-31 -77t-76 -32t-77 32t-32 77z" />
<glyph horiz-adv-x="1118" d="M105 763v114q0 297 292 297q86 0 273 -13.5t289 -29.5v-141q-341 9 -547 9q-118 0 -118 -124v-106q0 -32 6.5 -53t14 -31.5t27 -15.5t30.5 -5.5t40 -0.5h330q137 0 205 -76t68 -202v-131q0 -82 -24.5 -139t-66.5 -84.5t-86 -39t-96 -11.5q-110 0 -325.5 13.5t-266.5 32.5 v137q372 -7 571 -7q22 0 41 10.5t30.5 25t19.5 29t11 25.5l3 10v126q0 52 -23 77t-82 25h-327q-152 0 -220.5 66t-68.5 213zM253 1566h159l154 -140l136 140h158l-212 -270h-164z" />
<glyph horiz-adv-x="1054" d="M153 182v791q0 96 60 145.5t165 50.5q562 -21 591 -26v-151h-562q-43 0 -54 -13.5t-11 -53.5v-252l561 -16v-149l-561 -15v-252q0 -41 18 -53.5t55 -12.5h554v-149q-16 -4 -174 -11.5t-308 -12.5l-150 -6q-84 1 -134 50t-50 136zM287 1294v138h598v-138h-598z" />
<glyph horiz-adv-x="1177" d="M105 576v4v3v3q0 148 21.5 253.5t72 185.5t140.5 120t221 41q80 2 237 -14.5t247 -36.5v-147q-19 3 -224 14.5t-221 11.5q-68 0 -114 -9.5t-85 -36t-60.5 -74t-33 -122t-11.5 -182.5q0 -78 7 -137t25.5 -112.5t49.5 -89t81 -57.5t118 -25q221 -9 309 72v241h-348v118 q171 48 399 48q64 0 137 -6v-642q-8 -2 -69 0.5t-73 -0.5l-40 73q-123 -87 -347 -87q-71 0 -131 17t-102.5 43t-76.5 67t-55 79t-36.5 89.5t-22.5 87.5t-10.5 85t-4 70t-0.5 52zM518 -194q0 50 46 50h111q44 0 44 -50v-183q0 -51 -20 -84.5t-48 -45t-56 -15t-48 -0.5l-20 3 v68q25 -1 39 9.5t16 20.5t2 24v41h-20q-20 0 -33 12t-13 34v116z" />
<glyph horiz-adv-x="1001" d="M38 985v182h926v-182h-369v-276h196v-117h-196v-592h-188v592h-202v117h202v276h-369z" />
<glyph horiz-adv-x="1017" d="M67 0v182l638 803h-638v182h885v-182l-627 -803h627v-182h-885zM206 1560h159l155 -140l135 140h158l-212 -270h-164z" />
<glyph horiz-adv-x="788" d="M96 1070v139h598v-139h-598z" />
<glyph horiz-adv-x="604" d="M96 956q0 88 60.5 149.5t146.5 61.5t146.5 -61.5t60.5 -149.5t-60.5 -149t-146.5 -61t-146.5 61t-60.5 149zM198 956q0 -43 30.5 -73.5t74.5 -30.5q43 0 73.5 30t30.5 74t-30.5 74.5t-73.5 30.5t-74 -30.5t-31 -74.5z" />
<glyph horiz-adv-x="495" d="M38 1087l210 276h210l-266 -276h-154z" />
<glyph horiz-adv-x="796" d="M96 1409h138l158 -174l169 174h142l-235 -322h-163zM468 1087z" />
<glyph horiz-adv-x="1232" d="M151 0v1169h183l598 -823v823h186v-1169v-121q-4 -152 -113.5 -233.5t-291.5 -79.5v147q51 0 100 18t85 60t36 99v116l-594 826v-832h-189z" />
<glyph horiz-adv-x="1218" d="M67 0l459 1167h204l423 -1167h-203l-111 291h-450l-119 -291h-203zM329 1290v138h598v-138h-598zM453 464h331l-158 449z" />
<glyph horiz-adv-x="1218" d="M67 0l459 1167h204l423 -1167h-203l-111 291h-450l-119 -291h-203zM453 464h331l-158 449zM551 1290l210 276h210l-266 -276h-154z" />
<glyph horiz-adv-x="1218" d="M67 0l459 1167h204l423 -1167h-203l-111 291h-450l-119 -291h-203zM324 1290l234 270h164l209 -270h-157l-139 140l-151 -140h-160zM453 464h331l-158 449z" />
<glyph horiz-adv-x="1218" d="M67 0l459 1167h204l423 -1167h-203l-111 291h-450l-119 -291h-203zM280 1382q48 43 79 67t76.5 45.5t87.5 21.5q55 -3 124 -36.5t95 -34.5q58 -2 187 75l46 -96q-4 -3 -32.5 -27.5t-38 -32.5t-36 -26.5t-43 -25.5t-40 -14t-44.5 -6q-59 3 -123 37t-99 33 q-40 -1 -69 -10.5t-66 -30.5t-59 -31zM453 464h331l-158 449z" />
<glyph horiz-adv-x="1218" d="M67 0l459 1167h204l423 -1167h-203l-111 291h-450l-119 -291h-203zM259 1399q0 45 32 76t77 31t76 -31t31 -76t-31 -77t-76 -32t-77 32t-32 77zM453 464h331l-158 449zM781 1399q0 45 32 76t77 31t76 -31t31 -76t-31 -77t-76 -32t-77 32t-32 77z" />
<glyph horiz-adv-x="1218" d="M67 0l459 1167h204l423 -1167h-203l-111 291h-450l-119 -291h-203zM422 1366q0 88 61 149t148 61q86 0 146.5 -61t60.5 -149t-60.5 -148.5t-146.5 -60.5q-87 0 -148 61t-61 148zM453 464h331l-158 449zM525 1366q0 -43 31 -74t75 -31q43 0 73.5 30.5t30.5 74.5t-30.5 75 t-73.5 31t-74.5 -31t-31.5 -75z" />
<glyph horiz-adv-x="1605" d="M44 0l477 976q24 51 59 86.5t71.5 55.5t90 31t98.5 14t112 4q547 -21 576 -26v-151h-547q-23 0 -36.5 -3.5t-20.5 -13.5t-9 -19.5t-3 -29.5v-260l549 -14v-150l-549 -16v-245q0 -42 18 -53t59 -11l539 -2v-149q-16 -4 -168 -11t-296 -12l-144 -5q-92 -3 -145 44.5 t-53 134.5v136h-315l-155 -311h-208zM485 478h237v484z" />
<glyph horiz-adv-x="454" d="M54.5 -164.5q6.5 43.5 47.5 88.5t113 77h89q-61 -49 -90 -94t-24.5 -77t37 -51t87.5 -20v-132q-56 -9 -108 5.5t-88 44.5t-53 72.5t-10.5 86zM153 0v1167h189v-1167h-189z" />
<glyph horiz-adv-x="1060" d="M105 604q0 100 10.5 180t39 157t75 128.5t123.5 83t179 31.5q87 0 235.5 -16.5t227.5 -38.5v-142q-26 5 -189 14.5t-255 9.5q-62 0 -107 -18.5t-74 -51.5t-46 -85t-23.5 -112t-6.5 -140q0 -54 2 -94.5t8 -88.5t17 -82.5t30 -68.5t45.5 -55.5t66 -35t88.5 -14.5 q68 1 179 7t188 11l77 5v-138q-230 -58 -463 -58q-79 0 -143 19t-107.5 50.5t-76.5 79.5t-51.5 98t-30 115.5t-15 122.5t-3.5 127zM291 1586h160l154 -139l135 139h158l-211 -269h-164z" />
<glyph horiz-adv-x="1054" d="M153 182v791q0 96 60 145.5t165 50.5q562 -21 591 -26v-151h-562q-43 0 -54 -13.5t-11 -53.5v-252l561 -16v-149l-561 -15v-252q0 -41 18 -53.5t55 -12.5h554v-149q-16 -4 -174 -11.5t-308 -12.5l-150 -6q-84 1 -134 50t-50 136zM508 1294l210 275h210l-266 -275h-154z " />
<glyph horiz-adv-x="1054" d="M153 182v791q0 96 60 145.5t165 50.5q562 -21 591 -26v-151h-562q-43 0 -54 -13.5t-11 -53.5v-252l561 -16v-149l-561 -15v-252q0 -41 18 -53.5t55 -12.5h554v-149q-16 -4 -174 -11.5t-308 -12.5l-150 -6q-84 1 -134 50t-50 136zM719 -139.5q7 43.5 48 88.5t113 77h89 q-61 -49 -90 -94t-25 -77t36.5 -51t87.5 -20v-132q-56 -9 -108 5.5t-88 44.5t-53 72.5t-10 86z" />
<glyph horiz-adv-x="1054" d="M153 182v791q0 96 60 145.5t165 50.5q562 -21 591 -26v-151h-562q-43 0 -54 -13.5t-11 -53.5v-252l561 -16v-149l-561 -15v-252q0 -41 18 -53.5t55 -12.5h554v-149q-16 -4 -174 -11.5t-308 -12.5l-150 -6q-84 1 -134 50t-50 136zM213 1403q0 45 32 76t77 31t76 -31 t31 -76t-31 -77t-76 -32t-77 32t-32 77zM736 1403q0 45 32 76t77 31t76 -31t31 -76t-31 -77t-76 -32t-77 32t-32 77z" />
<glyph horiz-adv-x="1054" d="M153 182v791q0 96 60 145.5t165 50.5q562 -21 591 -26v-151h-562q-43 0 -54 -13.5t-11 -53.5v-252l561 -16v-149l-561 -15v-252q0 -41 18 -53.5t55 -12.5h554v-149q-16 -4 -174 -11.5t-308 -12.5l-150 -6q-84 1 -134 50t-50 136zM495 1341v123q0 51 49 51h114 q23 0 35.5 -14.5t12.5 -36.5v-123q0 -47 -48 -47h-114q-22 0 -35.5 12.5t-13.5 34.5z" />
<glyph horiz-adv-x="454" d="M153 0v1167h189v-1167h-189zM182 1290l210 276h210l-266 -276h-154z" />
<glyph horiz-adv-x="454" d="M-46 1290l235 270h164l209 -270h-158l-139 140l-151 -140h-160zM153 0v1167h189v-1167h-189z" />
<glyph horiz-adv-x="454" d="M-38 1290v138h598v-138h-598zM153 0v1167h189v-1167h-189z" />
<glyph horiz-adv-x="1216" d="M38 536v116h134v519q39 1 129.5 0.5t227.5 -1t145 -0.5q100 0 177.5 -37t124 -95t76.5 -138t41 -157.5t11 -162.5q0 -94 -12 -173t-30.5 -135.5t-48 -101t-56.5 -72.5t-65.5 -48t-64.5 -29.5t-64 -14.5t-54.5 -5.5t-43.5 -0.5h-493v536h-134zM367 181h264q64 0 112.5 21 t78.5 56t48.5 87.5t25.5 108.5t7 126q0 405 -262 405h-274v-333h192v-116h-192v-355z" />
<glyph horiz-adv-x="1232" d="M153 0v1169h182l598 -823v823h187v-1169h-180l-598 832v-832h-189zM536 -194q0 50 46 50h111q44 0 44 -50v-182q0 -51 -20 -84.5t-48 -45t-56 -15t-48 -0.5l-20 3v67q19 -1 31.5 4.5t17.5 15.5t6.5 17.5t1.5 17.5v40h-20q-20 0 -33 12t-13 34v116z" />
<glyph horiz-adv-x="1241" d="M105 573q0 149 21.5 255t61 174t105 107t142.5 54t185 15q91 0 155 -7.5t126.5 -29t102.5 -62t72 -105.5t46 -160.5t14 -225.5q0 -125 -14 -218.5t-44 -159.5t-70.5 -109t-101.5 -67.5t-128 -34t-158 -9.5q-66 0 -117 4t-102.5 15t-89 31t-72.5 50.5t-58.5 74t-41 102 t-26 135t-8.5 171.5zM294 584q0 -93 7.5 -160t26.5 -112.5t42.5 -73t64 -42.5t81.5 -19.5t104 -4.5q57 0 89 3t76.5 14.5t68.5 38.5t48.5 71.5t35 117t10.5 171.5q0 100 -8 170.5t-30.5 115t-43 69.5t-67 36.5t-79 13.5t-100.5 2h-6q-51 0 -76 -1t-65.5 -8.5t-61 -22.5 t-47.5 -44.5t-39 -73t-21.5 -109.5t-9.5 -152zM324 1320v138h598v-138h-598z" />
<glyph horiz-adv-x="1153" d="M153 -2v1169h185v-508h141l382 508h227l-444 -594l444 -575h-227l-386 485h-137v-485h-185zM487 -196q0 50 46 50h111q44 0 44 -50v-182q0 -51 -20 -84.5t-48 -45t-56 -15t-48 -0.5l-20 3v67q19 -1 31.5 4.5t17.5 15.5t6.5 17.5t1.5 17.5v40h-20q-20 0 -33 12t-13 34v116 z" />
<glyph horiz-adv-x="1241" d="M105 573q0 149 21.5 255t61 174t105 107t142.5 54t185 15q91 0 155 -7.5t126.5 -29t102.5 -62t72 -105.5t46 -160.5t14 -225.5q0 -125 -14 -218.5t-44 -159.5t-70.5 -109t-101.5 -67.5t-128 -34t-158 -9.5q-66 0 -117 4t-102.5 15t-89 31t-72.5 50.5t-58.5 74t-41 102 t-26 135t-8.5 171.5zM294 584q0 -93 7.5 -160t26.5 -112.5t42.5 -73t64 -42.5t81.5 -19.5t104 -4.5q57 0 89 3t76.5 14.5t68.5 38.5t48.5 71.5t35 117t10.5 171.5q0 100 -8 170.5t-30.5 115t-43 69.5t-67 36.5t-79 13.5t-100.5 2h-6q-51 0 -76 -1t-65.5 -8.5t-61 -22.5 t-47.5 -44.5t-39 -73t-21.5 -109.5t-9.5 -152zM311 1292l234 269h164l209 -269h-158l-138 139l-152 -139h-159z" />
<glyph horiz-adv-x="1241" d="M105 573q0 149 21.5 255t61 174t105 107t142.5 54t185 15q91 0 155 -7.5t126.5 -29t102.5 -62t72 -105.5t46 -160.5t14 -225.5q0 -125 -14 -218.5t-44 -159.5t-70.5 -109t-101.5 -67.5t-128 -34t-158 -9.5q-66 0 -117 4t-102.5 15t-89 31t-72.5 50.5t-58.5 74t-41 102 t-26 135t-8.5 171.5zM294 584q0 -93 7.5 -160t26.5 -112.5t42.5 -73t64 -42.5t81.5 -19.5t104 -4.5q57 0 89 3t76.5 14.5t68.5 38.5t48.5 71.5t35 117t10.5 171.5q0 100 -8 170.5t-30.5 115t-43 69.5t-67 36.5t-79 13.5t-100.5 2h-6q-51 0 -76 -1t-65.5 -8.5t-61 -22.5 t-47.5 -44.5t-39 -73t-21.5 -109.5t-9.5 -152zM298 1392q49 44 79.5 68t76 45.5t87.5 21.5q55 -3 124 -37t95 -35q58 -2 187 75l47 -96q-6 -5 -28 -24t-32 -27t-31 -24t-35 -24t-33.5 -17t-38.5 -13t-37 -3q-59 3 -123 37t-99 33q-40 -1 -69 -10.5t-66 -30.5t-59 -31z" />
<glyph horiz-adv-x="1241" d="M105 573q0 149 21.5 255t61 174t105 107t142.5 54t185 15q91 0 155 -7.5t126.5 -29t102.5 -62t72 -105.5t46 -160.5t14 -225.5q0 -125 -14 -218.5t-44 -159.5t-70.5 -109t-101.5 -67.5t-128 -34t-158 -9.5q-66 0 -117 4t-102.5 15t-89 31t-72.5 50.5t-58.5 74t-41 102 t-26 135t-8.5 171.5zM245 1410q0 45 32.5 76t77.5 31t76 -31t31 -76t-31 -77.5t-76 -32.5t-77.5 32.5t-32.5 77.5zM294 584q0 -93 7.5 -160t26.5 -112.5t42.5 -73t64 -42.5t81.5 -19.5t104 -4.5q57 0 89 3t76.5 14.5t68.5 38.5t48.5 71.5t35 117t10.5 171.5q0 100 -8 170.5 t-30.5 115t-43 69.5t-67 36.5t-79 13.5t-100.5 2h-6q-51 0 -76 -1t-65.5 -8.5t-61 -22.5t-47.5 -44.5t-39 -73t-21.5 -109.5t-9.5 -152zM768 1410q0 45 32 76t77 31t76 -31t31 -76t-31 -77.5t-76 -32.5t-77 32.5t-32 77.5z" />
<glyph horiz-adv-x="1216" d="M88 0q10 14 48.5 66.5t56.5 75.5q-87 134 -87 431q0 124 13.5 218t42.5 161t69 111t99 69.5t126 35.5t156 10q116 0 195 -13t136 -49q6 8 20 26t20 26h132q-14 -17 -47 -60.5t-47 -61.5q99 -129 99 -458q0 -150 -20.5 -255t-58.5 -172t-102.5 -105t-140.5 -52t-186 -14 q-121 0 -204 16.5t-142 60.5q-19 -25 -50 -67h-128zM294 584q0 -182 33 -265q86 112 263.5 339t236.5 304q-24 16 -62 23.5t-65 8.5t-88 1h-6q-59 0 -87.5 -2t-72.5 -13t-65 -36.5t-45 -70t-33 -117t-9 -172.5zM382 223q36 -30 90 -40.5t140 -10.5q37 0 59.5 1t54 5 t50.5 11.5t43.5 22t39 35.5t30 52.5t23.5 72t13.5 95t5.5 121.5q0 198 -40 290q-313 -396 -509 -655z" />
<glyph horiz-adv-x="1167" d="M153 532v635h190v-635q-1 -115 15.5 -186t56.5 -109.5t93 -51.5t140 -13q60 0 102.5 8t81 31t61.5 62.5t36.5 104t13.5 154.5v635h191v-635q0 -100 -14.5 -180t-38.5 -136t-61 -97.5t-76.5 -65.5t-91 -38.5t-99 -19.5t-105.5 -5q-66 0 -115.5 4t-104 18t-93.5 37.5 t-75.5 64t-58.5 97t-35 137.5t-13 184zM450 -169.5q7 43.5 48 88.5t113 77h89q-61 -49 -90 -94t-25 -77t36.5 -51t87.5 -20v-132q-56 -9 -108 5.5t-88 44.5t-53 72.5t-10 86z" />
<glyph horiz-adv-x="1247" d="M153 532v635h190v-635q-1 -115 15.5 -186t56.5 -109.5t93 -51.5t140 -13q60 0 102.5 8t81 31t61.5 62.5t36.5 104t13.5 154.5v635h191v-635q0 -100 -14.5 -180t-38.5 -136t-61 -97.5t-76.5 -65.5t-91 -38.5t-99 -19.5t-105.5 -5q-66 0 -115.5 4t-104 18t-93.5 37.5 t-75.5 64t-58.5 97t-35 137.5t-13 184zM566 1290l210 276h210l-266 -276h-154z" />
<glyph horiz-adv-x="1247" d="M153 532v635h190v-635q-1 -115 15.5 -186t56.5 -109.5t93 -51.5t140 -13q60 0 102.5 8t81 31t61.5 62.5t36.5 104t13.5 154.5v635h191v-635q0 -100 -14.5 -180t-38.5 -136t-61 -97.5t-76.5 -65.5t-91 -38.5t-99 -19.5t-105.5 -5q-66 0 -115.5 4t-104 18t-93.5 37.5 t-75.5 64t-58.5 97t-35 137.5t-13 184zM335 1290l235 270h164l209 -270h-158l-139 140l-151 -140h-160z" />
<glyph horiz-adv-x="1247" d="M153 532v635h190v-635q-1 -115 15.5 -186t56.5 -109.5t93 -51.5t140 -13q60 0 102.5 8t81 31t61.5 62.5t36.5 104t13.5 154.5v635h191v-635q0 -100 -14.5 -180t-38.5 -136t-61 -97.5t-76.5 -65.5t-91 -38.5t-99 -19.5t-105.5 -5q-66 0 -115.5 4t-104 18t-93.5 37.5 t-75.5 64t-58.5 97t-35 137.5t-13 184zM268 1399q0 45 32 76t77 31t76 -31t31 -76t-31 -77t-76 -32t-77 32t-32 77zM790 1399q0 45 32 76t77 31t76 -31t31 -76t-31 -77t-76 -32t-77 32t-32 77z" />
<glyph horiz-adv-x="1247" d="M153 532v635h190v-635q-1 -115 15.5 -186t56.5 -109.5t93 -51.5t140 -13q60 0 102.5 8t81 31t61.5 62.5t36.5 104t13.5 154.5v635h191v-635q0 -100 -14.5 -180t-38.5 -136t-61 -97.5t-76.5 -65.5t-91 -38.5t-99 -19.5t-105.5 -5q-66 0 -115.5 4t-104 18t-93.5 37.5 t-75.5 64t-58.5 97t-35 137.5t-13 184zM291 1382q48 43 79 67t76.5 45.5t87.5 21.5q55 -3 124 -36.5t95 -34.5q58 -2 187 75l47 -96q-6 -5 -28 -24t-32 -27t-31 -24t-35 -24t-33.5 -17t-38.5 -13t-37 -3q-59 3 -123 37t-99 33q-40 -1 -69 -10.5t-66 -30.5t-59 -31z" />
<glyph horiz-adv-x="1247" d="M153 532v635h190v-635q-1 -115 15.5 -186t56.5 -109.5t93 -51.5t140 -13q60 0 102.5 8t81 31t61.5 62.5t36.5 104t13.5 154.5v635h191v-635q0 -100 -14.5 -180t-38.5 -136t-61 -97.5t-76.5 -65.5t-91 -38.5t-99 -19.5t-105.5 -5q-66 0 -115.5 4t-104 18t-93.5 37.5 t-75.5 64t-58.5 97t-35 137.5t-13 184zM340 1290v138h598v-138h-598z" />
<glyph horiz-adv-x="2088" d="M71 763q0 -147 68.5 -213t220.5 -66h309q59 0 82 -25t23 -77v-126q0 -100 -105 -100l-553 7v-137q51 -19 258.5 -32.5t315.5 -13.5q52 0 96 11.5t86 39t66.5 84.5t24.5 139v131q0 126 -68 202t-205 76h-312h-22.5t-20 1t-20 2.5t-15.5 5t-14.5 8.5t-10.5 13t-9.5 18.5 t-4.5 25t-2 32.5v120q0 52 26 81t93 29q92 0 224 -2.5t218 -4.5l87 -2v141q-105 15 -283.5 29t-260.5 14q-158 0 -225 -73.5t-67 -209.5v-128zM1115 762v129q0 136 67 209.5t225 73.5q82 0 260.5 -14t283.5 -29v-141q-323 9 -529 9q-67 0 -93 -29t-26 -81v-120 q0 -18 2 -32.5t4.5 -25t9.5 -18.5t10.5 -13t14.5 -8.5t15.5 -5t20 -2.5t20 -1h22.5h312q137 0 205 -76t68 -202v-131q0 -82 -24.5 -139t-66.5 -84.5t-86 -39t-96 -11.5q-108 0 -315.5 13.5t-258.5 32.5v137q354 -7 553 -7q105 0 105 100v126q0 52 -23 77t-82 25h-309 q-152 0 -220.5 65.5t-68.5 212.5z" />
<glyph horiz-adv-x="1218" d="M67 0l459 1167h204l423 -1167h-203l-111 291h-450l-119 -291h-203zM258 1566h210l210 -276h-154zM453 464h331l-158 449z" />
<glyph horiz-adv-x="1060" d="M105 604q0 100 10.5 180t39 157t75 128.5t123.5 83t179 31.5q87 0 235.5 -16.5t227.5 -38.5v-142q-26 5 -189 14.5t-255 9.5q-62 0 -107 -18.5t-74 -51.5t-46 -85t-23.5 -112t-6.5 -140q0 -54 2 -94.5t8 -88.5t17 -82.5t30 -68.5t45.5 -55.5t66 -35t88.5 -14.5 q68 1 179 7t188 11l77 5v-138q-230 -58 -463 -58q-79 0 -143 19t-107.5 50.5t-76.5 79.5t-51.5 98t-30 115.5t-15 122.5t-3.5 127zM382 -269l104 31q39 17 51.5 55.5t12.5 106.5h153q0 -159 -44.5 -220t-168.5 -61h-108v88z" />
<glyph horiz-adv-x="1216" d="M38 536v116h134v519q39 1 129.5 0.5t227.5 -1t145 -0.5q100 0 177.5 -37t124 -95t76.5 -138t41 -157.5t11 -162.5q0 -94 -12 -173t-30.5 -135.5t-48 -101t-56.5 -72.5t-65.5 -48t-64.5 -29.5t-64 -14.5t-54.5 -5.5t-43.5 -0.5h-493v536h-134zM367 181h264q64 0 112.5 21 t78.5 56t48.5 87.5t25.5 108.5t7 126q0 405 -262 405h-274v-333h192v-116h-192v-355z" />
<glyph horiz-adv-x="1054" d="M153 182v791q0 96 60 145.5t165 50.5q562 -21 591 -26v-151h-562q-43 0 -54 -13.5t-11 -53.5v-252l561 -16v-149l-561 -15v-252q0 -41 18 -53.5t55 -12.5h554v-149q-16 -4 -174 -11.5t-308 -12.5l-150 -6q-84 1 -134 50t-50 136zM281 1569h210l210 -275h-154z" />
<glyph horiz-adv-x="1054" d="M153 182v791q0 96 60 145.5t165 50.5q562 -21 591 -26v-151h-562q-43 0 -54 -13.5t-11 -53.5v-252l561 -16v-149l-561 -15v-252q0 -41 18 -53.5t55 -12.5h554v-149q-16 -4 -174 -11.5t-308 -12.5l-150 -6q-84 1 -134 50t-50 136zM289 1294l234 269h164l209 -269h-158 l-139 139l-151 -139h-159z" />
<glyph horiz-adv-x="454" d="M-82 1566h210l209 -276h-153zM153 0v1167h189v-1167h-189z" />
<glyph horiz-adv-x="454" d="M-111 1399q0 45 32 76t77 31t76 -31t31 -76t-31 -77t-76 -32t-77 32t-32 77zM153 0v1167h189v-1167h-189zM411 1399q0 45 32 76t77 31t76 -31t31 -76t-31 -77t-76 -32t-77 32t-32 77z" />
<glyph horiz-adv-x="1232" d="M153 0v1169h182l598 -823v823h187v-1169h-180l-598 832v-832h-189zM270 1384q73 65 128.5 99.5t115.5 34.5q55 -3 124 -36.5t95 -34.5q58 -2 187 75l46 -96q-6 -5 -28 -24t-32 -27t-31 -24t-35 -24t-33.5 -17t-38.5 -13t-37 -3q-59 3 -123 37t-99 33q-40 -1 -69 -10.5 t-66 -30.5t-59 -31z" />
<glyph horiz-adv-x="1241" d="M105 573q0 149 21.5 255t61 174t105 107t142.5 54t185 15q91 0 155 -7.5t126.5 -29t102.5 -62t72 -105.5t46 -160.5t14 -225.5q0 -125 -14 -218.5t-44 -159.5t-70.5 -109t-101.5 -67.5t-128 -34t-158 -9.5q-66 0 -117 4t-102.5 15t-89 31t-72.5 50.5t-58.5 74t-41 102 t-26 135t-8.5 171.5zM294 584q0 -93 7.5 -160t26.5 -112.5t42.5 -73t64 -42.5t81.5 -19.5t104 -4.5q57 0 89 3t76.5 14.5t68.5 38.5t48.5 71.5t35 117t10.5 171.5q0 100 -8 170.5t-30.5 115t-43 69.5t-67 36.5t-79 13.5t-100.5 2h-6q-51 0 -76 -1t-65.5 -8.5t-61 -22.5 t-47.5 -44.5t-39 -73t-21.5 -109.5t-9.5 -152zM304 1576h210l210 -276h-154z" />
<glyph horiz-adv-x="1241" d="M105 573q0 149 21.5 255t61 174t105 107t142.5 54t185 15q91 0 155 -7.5t126.5 -29t102.5 -62t72 -105.5t46 -160.5t14 -225.5q0 -125 -14 -218.5t-44 -159.5t-70.5 -109t-101.5 -67.5t-128 -34t-158 -9.5q-66 0 -117 4t-102.5 15t-89 31t-72.5 50.5t-58.5 74t-41 102 t-26 135t-8.5 171.5zM294 584q0 -93 7.5 -160t26.5 -112.5t42.5 -73t64 -42.5t81.5 -19.5t104 -4.5q57 0 89 3t76.5 14.5t68.5 38.5t48.5 71.5t35 117t10.5 171.5q0 100 -8 170.5t-30.5 115t-43 69.5t-67 36.5t-79 13.5t-100.5 2h-6q-51 0 -76 -1t-65.5 -8.5t-61 -22.5 t-47.5 -44.5t-39 -73t-21.5 -109.5t-9.5 -152zM568 1300l210 276h210l-266 -276h-154z" />
<glyph horiz-adv-x="1247" d="M153 532v635h190v-635q-1 -115 15.5 -186t56.5 -109.5t93 -51.5t140 -13q60 0 102.5 8t81 31t61.5 62.5t36.5 104t13.5 154.5v635h191v-635q0 -100 -14.5 -180t-38.5 -136t-61 -97.5t-76.5 -65.5t-91 -38.5t-99 -19.5t-105.5 -5q-66 0 -115.5 4t-104 18t-93.5 37.5 t-75.5 64t-58.5 97t-35 137.5t-13 184zM318 1566h210l209 -276h-153z" />
<glyph horiz-adv-x="1173" d="M67 1167h206l318 -575l311 575h205l-423 -775v-394h-189v394zM485 1290l210 276h210l-266 -276h-154z" />
<glyph horiz-adv-x="1097" d="M143 0v1165h187v-208h332q38 0 75 -7t81.5 -29.5t77 -59t55 -102.5t22.5 -153q0 -100 -19.5 -174t-48.5 -113.5t-72 -63t-78.5 -29.5t-80.5 -6q-226 0 -344 33v-253h-187zM330 404h319q75 0 105.5 41t30.5 161q0 92 -35 129.5t-101 45.5h-319v-377z" />
<glyph horiz-adv-x="542" d="M151 58v150q0 66 60 66h144q58 0 58 -66v-239q0 -49 -14 -86.5t-36 -57.5t-48.5 -33t-53 -16t-48.5 -3.5t-36 1.5l-14 2v88q33 -1 51.5 14t21.5 29t3 33v59h-28q-26 0 -43 14.5t-17 44.5z" />
<glyph horiz-adv-x="890" d="M138 754v239q0 49 13.5 86.5t35.5 57.5t48.5 33t53 16t48.5 3t35 -2l14 -2v-88q-33 1 -51 -14t-20.5 -29t-2.5 -33v-57h26q26 0 43.5 -15t17.5 -45v-150q0 -65 -61 -65h-143q-57 0 -57 65zM493 754v239q0 68 26 112.5t62.5 60t73.5 21t63 1.5l26 -3v-88q-78 2 -78 -76 v-57h30q26 0 42 -15t16 -45v-150q0 -65 -58 -65h-144q-59 0 -59 65z" />
<glyph horiz-adv-x="890" d="M138 974v150q0 66 58 66h144q59 0 59 -66v-239q0 -49 -14 -86.5t-36 -57.5t-48.5 -33t-53.5 -16t-49 -3.5t-36 1.5l-14 2v88q77 -2 77 75v59h-29q-26 0 -42 15t-16 45zM493 974v150q0 66 61 66h142q58 0 58 -66v-239q0 -49 -13.5 -86.5t-35.5 -57.5t-48.5 -33t-53 -16 t-48.5 -3.5t-35 1.5l-14 2v88q25 -1 41.5 6.5t23 21.5t8 23.5t1.5 23.5v59h-26q-26 0 -43.5 15t-17.5 45z" />
<glyph horiz-adv-x="890" d="M138 58v150q0 66 58 66h144q59 0 59 -66v-239q0 -49 -14 -86.5t-36 -57.5t-48.5 -33t-53.5 -16t-49 -3.5t-36 1.5l-14 2v88q77 -2 77 76v59h-29q-26 0 -42 14.5t-16 44.5zM493 58v150q0 66 61 66h142q58 0 58 -66v-239q0 -49 -13.5 -86.5t-35.5 -57.5t-48.5 -33t-53 -16 t-48.5 -3.5t-35 1.5l-14 2v88q33 -1 51 14t20.5 29t2.5 33v59h-26q-26 0 -43.5 14.5t-17.5 44.5z" />
<glyph horiz-adv-x="552" d="M161 985v135q0 47 47 47h130q22 0 36 -13t14 -34v-135q0 -51 -50 -51h-130q-23 0 -35 14t-12 37zM169 0l18 816h175l18 -816h-211z" />
<glyph horiz-adv-x="860" d="M86 811q0 218 74 300t271 82t269.5 -82t72.5 -300q0 -201 -73.5 -281.5t-268.5 -80.5t-270 81.5t-75 280.5zM110 264v125h637v-125h-637zM239 811q0 -63 9.5 -105t23 -65t41 -34.5t51.5 -14t67 -2.5q34 0 51 1t41 5t35.5 12.5t25.5 24t20 39.5t10.5 58t5.5 81 q1 58 -3.5 99t-16.5 67.5t-24.5 41.5t-38.5 22.5t-47 9t-59 1.5q-41 0 -61.5 -1.5t-47 -8.5t-38.5 -22t-24.5 -41.5t-16.5 -67.5t-4 -100z" />
<glyph horiz-adv-x="845" d="M116 268v125h674v-125h-674zM122 466l254 701h188l223 -701h-143l-54 175h-258l-57 -175h-153zM376 760h176l-81 271z" />
<glyph horiz-adv-x="1056" d="M31 406v105l133 11v108l-133 13v99l133 14q0 426 401 426q61 0 193.5 -15t227.5 -32v-152q-274 23 -405 23q-62 0 -105.5 -15.5t-67 -37.5t-36 -58.5t-15.5 -66t-3 -72.5l373 -12v-103l-373 -11v-108l373 -11v-105q-11 0 -29 -0.5t-67.5 -1.5t-92.5 -2.5t-88 -2.5 t-71 -2.5t-25 -2.5q0 -64 17.5 -108.5t50 -68.5t71 -34.5t88.5 -10.5q72 0 174.5 7t169.5 13l67 7v-152q-186 -57 -427 -57q-43 0 -87 7t-103 32t-103.5 66.5t-76 119t-31.5 179.5z" />
<glyph horiz-adv-x="1015" d="M148 195v972h188v-917q-1 -45 19.5 -56.5t70.5 -11.5h523v-182h-607q-90 0 -142 50.5t-52 144.5zM475 1115v137h164v-137l-21 -275h-121z" />
<glyph horiz-adv-x="1118" d="M105 763v114q0 297 292 297q86 0 273 -13.5t289 -29.5v-141q-341 9 -547 9q-118 0 -118 -124v-106q0 -32 6.5 -53t14 -31.5t27 -15.5t30.5 -5.5t40 -0.5h330q137 0 205 -76t68 -202v-131q0 -82 -24.5 -139t-66.5 -84.5t-86 -39t-96 -11.5q-110 0 -325.5 13.5t-266.5 32.5 v137q372 -7 571 -7q22 0 41 10.5t30.5 25t19.5 29t11 25.5l3 10v126q0 52 -23 77t-82 25h-327q-152 0 -220.5 66t-68.5 213zM461 1307l210 275h210l-266 -275h-154z" />
<glyph horiz-adv-x="1118" d="M105 763v114q0 297 292 297q86 0 273 -13.5t289 -29.5v-141q-341 9 -547 9q-118 0 -118 -124v-106q0 -32 6.5 -53t14 -31.5t27 -15.5t30.5 -5.5t40 -0.5h330q137 0 205 -76t68 -202v-131q0 -82 -24.5 -139t-66.5 -84.5t-86 -39t-96 -11.5q-110 0 -325.5 13.5t-266.5 32.5 v137q372 -7 571 -7q22 0 41 10.5t30.5 25t19.5 29t11 25.5l3 10v126q0 52 -23 77t-82 25h-327q-152 0 -220.5 66t-68.5 213zM259 -274l104 31q39 17 51.5 55.5t12.5 106.5h153q0 -160 -44.5 -221t-168.5 -61h-108v89z" />
<glyph horiz-adv-x="1230" d="M219 985v182h926v-182h-369v-985h-188v985h-369zM377 1582h159l154 -139l136 139h158l-212 -269h-164z" />
<glyph horiz-adv-x="1017" d="M67 0v182l638 803h-638v182h885v-182l-627 -803h627v-182h-885zM437 1290l210 276h210l-266 -276h-154z" />
<glyph horiz-adv-x="1017" d="M67 0v182l638 803h-638v182h885v-182l-627 -803h627v-182h-885zM404 1337v123q0 51 49 51h115q23 0 35 -14t12 -37v-123q0 -47 -47 -47h-115q-22 0 -35.5 12.5t-13.5 34.5z" />
<glyph d="M115 0v1169h553q46 0 88.5 -8t87.5 -31t78 -59t54 -98t21 -143q0 -99 -19.5 -174t-68.5 -128t-124 -62l265 -466h-208l-243 446q-42 2 -168.5 14.5t-127.5 14.5v-475h-188zM303 613h358q29 0 52 7.5t46 28t36 64.5t13 109q0 48 -14 83t-31 51.5t-41.5 25.5t-36 10 t-24.5 1h-358v-380zM464 1292l210 275h210l-266 -275h-154z" />
<glyph horiz-adv-x="1218" d="M67 0l459 1167h204l423 -1167h-203l-111 291h-450l-119 -291h-203zM392 1524h103q0 -56 39.5 -93.5t91.5 -37.5q60 0 97.5 35.5t37.5 95.5h102q0 -109 -71 -171.5t-166 -62.5q-93 0 -163.5 64.5t-70.5 169.5zM453 464h331l-158 449z" />
<glyph horiz-adv-x="1019" d="M153 195v972h189v-917q-1 -45 19.5 -56.5t70.5 -11.5h522v-182h-606q-90 0 -142.5 50.5t-52.5 144.5zM184 1290l210 276h209l-266 -276h-153z" />
<glyph horiz-adv-x="1060" d="M105 604q0 100 10.5 180t39 157t75 128.5t123.5 83t179 31.5q87 0 235.5 -16.5t227.5 -38.5v-142q-26 5 -189 14.5t-255 9.5q-62 0 -107 -18.5t-74 -51.5t-46 -85t-23.5 -112t-6.5 -140q0 -54 2 -94.5t8 -88.5t17 -82.5t30 -68.5t45.5 -55.5t66 -35t88.5 -14.5 q68 1 179 7t188 11l77 5v-138q-230 -58 -463 -58q-79 0 -143 19t-107.5 50.5t-76.5 79.5t-51.5 98t-30 115.5t-15 122.5t-3.5 127zM496 1317l210 275h210l-266 -275h-154z" />
<glyph horiz-adv-x="1054" d="M153 182v791q0 96 60 145.5t165 50.5q562 -21 591 -26v-151h-562q-43 0 -54 -13.5t-11 -53.5v-252l561 -16v-149l-561 -15v-252q0 -41 18 -53.5t55 -12.5h554v-149q-16 -4 -174 -11.5t-308 -12.5l-150 -6q-84 1 -134 50t-50 136zM269 1562h160l154 -140l135 140h158 l-211 -270h-164z" />
<glyph horiz-adv-x="1226" d="M257 0v1171h518q105 -1 186 -38.5t129.5 -95.5t79.5 -137.5t42.5 -157t11.5 -162.5q0 -94 -11.5 -172.5t-29 -134.5t-46.5 -101t-55.5 -73t-64.5 -48t-65 -29.5t-66.5 -15t-58.5 -6t-51 -0.5h-1h-518zM393 1563h159l154 -139l136 139h158l-212 -269h-164zM446 179h321 q64 0 112 22t77 58t47.5 89t25 108.5t6.5 123.5q0 210 -72 311t-196 101h-321v-813z" />
<glyph horiz-adv-x="1232" d="M153 0v1169h182l598 -823v823h187v-1169h-180l-598 832v-832h-189zM589 1292l210 276h210l-266 -276h-154z" />
<glyph horiz-adv-x="1232" d="M153 0v1169h182l598 -823v823h187v-1169h-180l-598 832v-832h-189zM339 1562h159l155 -140l135 140h158l-212 -270h-163z" />
<glyph horiz-adv-x="1241" d="M105 573q0 149 21.5 255t61 174t105 107t142.5 54t185 15q91 0 155 -7.5t126.5 -29t102.5 -62t72 -105.5t46 -160.5t14 -225.5q0 -125 -14 -218.5t-44 -159.5t-70.5 -109t-101.5 -67.5t-128 -34t-158 -9.5q-66 0 -117 4t-102.5 15t-89 31t-72.5 50.5t-58.5 74t-41 102 t-26 135t-8.5 171.5zM294 584q0 -93 7.5 -160t26.5 -112.5t42.5 -73t64 -42.5t81.5 -19.5t104 -4.5q57 0 89 3t76.5 14.5t68.5 38.5t48.5 71.5t35 117t10.5 171.5q0 100 -8 170.5t-30.5 115t-43 69.5t-67 36.5t-79 13.5t-100.5 2h-6q-51 0 -76 -1t-65.5 -8.5t-61 -22.5 t-47.5 -44.5t-39 -73t-21.5 -109.5t-9.5 -152zM401 1300l210 276h210l-267 -276h-153zM689 1300l210 276h210l-267 -276h-153z" />
<glyph d="M115 0v1169h553q46 0 88.5 -8t87.5 -31t78 -59t54 -98t21 -143q0 -99 -19.5 -174t-68.5 -128t-124 -62l265 -466h-208l-243 446q-42 2 -168.5 14.5t-127.5 14.5v-475h-188zM226 1561h160l154 -139l136 139h158l-212 -269h-164zM303 613h358q29 0 52 7.5t46 28t36 64.5 t13 109q0 48 -14 83t-31 51.5t-41.5 25.5t-36 10t-24.5 1h-358v-380z" />
<glyph horiz-adv-x="1247" d="M153 532v635h190v-635q-1 -115 15.5 -186t56.5 -109.5t93 -51.5t140 -13q60 0 102.5 8t81 31t61.5 62.5t36.5 104t13.5 154.5v635h191v-635q0 -100 -14.5 -180t-38.5 -136t-61 -97.5t-76.5 -65.5t-91 -38.5t-99 -19.5t-105.5 -5q-66 0 -115.5 4t-104 18t-93.5 37.5 t-75.5 64t-58.5 97t-35 137.5t-13 184zM435 1447q0 88 61.5 149.5t147.5 61.5t146.5 -61.5t60.5 -149.5t-60.5 -148.5t-146.5 -60.5q-87 0 -148 61t-61 148zM538 1447q0 -43 31 -73.5t75 -30.5t74 30.5t30 73.5q0 44 -30.5 75t-73.5 31q-44 0 -75 -31.5t-31 -74.5z" />
<glyph horiz-adv-x="1247" d="M153 532v635h190v-635q-1 -115 15.5 -186t56.5 -109.5t93 -51.5t140 -13q60 0 102.5 8t81 31t61.5 62.5t36.5 104t13.5 154.5v635h191v-635q0 -100 -14.5 -180t-38.5 -136t-61 -97.5t-76.5 -65.5t-91 -38.5t-99 -19.5t-105.5 -5q-66 0 -115.5 4t-104 18t-93.5 37.5 t-75.5 64t-58.5 97t-35 137.5t-13 184zM415 1290l209 276h210l-266 -276h-153zM703 1290l210 276h210l-267 -276h-153z" />
<glyph horiz-adv-x="1058" d="M67 985v182h926v-182h-369v-985h-188v985h-369zM224 -286l104 31q39 17 51.5 55.5t12.5 106.5h153q0 -160 -44.5 -221t-168.5 -61h-108v89z" />
<glyph horiz-adv-x="1007" d="M38 458v140l133 54v515h188v-440l229 93v-138l-229 -93v-339q-1 -45 19.5 -56.5t70.5 -11.5h522v-182h-606q-90 0 -142 50.5t-52 144.5v317z" />
<glyph horiz-adv-x="1007" d="M107 325v87q0 154 115 234t277 53v119h174v-273q-133 3 -214 0q-64 -3 -113.5 -35.5t-49.5 -96.5v-81q0 -155 186 -155h459v-149q-109 -15 -156.5 -21t-140 -12t-174.5 -2q-173 0 -268 89.5t-95 242.5zM473 987v135q0 47 51 47h127q22 0 35.5 -12.5t13.5 -34.5v-135 q0 -52 -49 -52h-127q-51 0 -51 52z" />
<glyph horiz-adv-x="1804" d="M76 573q0 149 21.5 255t61 174t105 107t142.5 54t185 15q134 0 220.5 -20t144.5 -76q50 87 189 87q561 -21 590 -26v-151h-562q-43 0 -54 -13.5t-11 -53.5v-252l561 -16v-149l-561 -15v-252q0 -41 18.5 -53.5t55.5 -12.5h553v-149q-16 -4 -173.5 -11.5t-307.5 -12.5 l-150 -6q-114 0 -156 91q-56 -55 -142 -76t-215 -21q-66 0 -117 4t-102.5 15t-89 31t-72.5 50.5t-58.5 74t-41 102t-26 135t-8.5 171.5zM265 584q0 -93 7.5 -160t26.5 -112.5t42.5 -73t64 -42.5t81.5 -19.5t104 -4.5q57 0 89 3t76.5 14.5t68.5 38.5t48.5 71.5t35 117 t10.5 171.5q0 100 -8 170.5t-30.5 115t-43 69.5t-67 36.5t-79 13.5t-100.5 2h-6q-51 0 -76 -1t-65.5 -8.5t-61 -22.5t-47.5 -44.5t-39 -73t-21.5 -109.5t-9.5 -152z" />
<glyph horiz-adv-x="1173" d="M67 1167h206l318 -575l311 575h205l-423 -775v-394h-189v394zM218 1399q0 45 32 76t77 31t76 -31t31 -76t-31 -77t-76 -32t-77 32t-32 77zM740 1399q0 45 32 76t77 31t76 -31t31 -76t-31 -77t-76 -32t-77 32t-32 77z" />
<glyph horiz-adv-x="1054" d="M96 0v126l114 41v338h-114v102l116 33v152q0 377 405 377l345 -26v-152h-334q-134 0 -181.5 -47t-47.5 -157v-139l436 -31v-117h-436v-323h561v-177h-864z" />
</font>
</defs>
</svg>
